<?xml version="1.0" encoding="utf-8"?>
<!-- Generator: Adobe Illustrator 21.0.0, SVG Export Plug-In . SVG Version: 6.00 Build 0)  -->
<!DOCTYPE svg PUBLIC "-//W3C//DTD SVG 1.1//EN" "http://www.w3.org/Graphics/SVG/1.1/DTD/svg11.dtd">
<svg version="1.1" xmlns="http://www.w3.org/2000/svg" xmlns:xlink="http://www.w3.org/1999/xlink" x="0px" y="0px"
	 viewBox="0 0 1131.4 775.6" style="enable-background:new 0 0 1131.4 775.6;" xml:space="preserve">
<style type="text/css">
	.st0{fill:#F16E46;}
</style>
<g id="Background">
</g>
<g id="Cheese">
</g>
<g id="Pepperoni">
</g>
<g id="Peppers">
</g>
<g id="Mushrooms">
</g>
<g id="Ham">
	<path class="st0" d="M541.8,544.4c11.3-12.3,13.8-26,7.6-41.1c-1-2.4,2.1-4.8,6-4.4l13.2,1.1c2.6,0.2,4.6,1.6,4.8,3.2
		c1.9,15.5-1.1,30.6-8.8,45.2c-0.8,1.6-3.3,2.6-5.9,2.4l-12.8-1C541.9,549.4,539.8,546.6,541.8,544.4z"/>
	<path class="st0" d="M455.5,108.1c11.3-12.3,13.8-26,7.6-41.1c-1-2.4,2.1-4.8,6-4.4l13.2,1.1c2.6,0.2,4.6,1.6,4.8,3.2
		c1.9,15.5-1.1,30.6-8.8,45.2c-0.8,1.6-3.3,2.6-5.9,2.4l-12.8-1C455.5,113.1,453.4,110.3,455.5,108.1z"/>
	<path class="st0" d="M1007.5,455.2c11.3-12.3,13.8-26,7.6-41.1c-1-2.4,2.1-4.8,6-4.4l13.2,1.1c2.6,0.2,4.6,1.6,4.8,3.2
		c1.9,15.5-1.1,30.6-8.8,45.2c-0.8,1.6-3.3,2.6-5.9,2.4l-12.8-1C1007.5,460.3,1005.4,457.5,1007.5,455.2z"/>
	<path class="st0" d="M714.2,677.8c11.3-12.3,13.8-26,7.6-41.1c-1-2.4,2.1-4.8,6-4.4l13.2,1.1c2.6,0.2,4.6,1.6,4.8,3.2
		c1.9,15.5-1.1,30.6-8.8,45.2c-0.8,1.6-3.3,2.6-5.9,2.4l-12.8-1C714.3,682.8,712.2,680,714.2,677.8z"/>
	<path class="st0" d="M146.7,488.3c-18.1-8.3-39-11.1-62.8-8.4c-3.9,0.4-7.2-1.8-6.3-4.2l2.8-8.4c0.5-1.6,2.8-2.8,5.4-2.8
		c24.1,0.1,47.1,3.3,69.2,9.5c2.4,0.7,3.7,2.4,3.2,4l-2.7,8.2C154.5,488.7,149.9,489.8,146.7,488.3z"/>
	<path class="st0" d="M644.3,703.9c-18.1-8.3-39-11.1-62.8-8.4c-3.9,0.4-7.2-1.8-6.3-4.2l2.8-8.4c0.5-1.6,2.8-2.8,5.4-2.8
		c24.1,0.1,47.1,3.3,69.2,9.5c2.4,0.7,3.7,2.4,3.2,4l-2.7,8.2C652.1,704.2,647.5,705.4,644.3,703.9z"/>
	<path class="st0" d="M649.3,434.3c-22.2-0.1-41.8,5.4-58.8,16.5c-2.8,1.8-7.4,1.2-9-1.1l-5.2-7.9c-1-1.5-0.2-3.4,1.9-4.3
		c19.8-8.8,41.4-14.8,65-17.9c2.6-0.3,5.1,0.5,6.2,2.1l5.1,7.7C656,431.7,653.3,434.3,649.3,434.3z"/>
	<path class="st0" d="M387.1,366.8c-22.2,0.9-41.2,7.2-57,18.9c-2.6,1.9-7.3,1.5-9.1-0.7l-6-7.6c-1.2-1.5-0.6-3.3,1.5-4.4
		c18.8-9.7,39.9-16.5,63.1-20.6c2.5-0.4,5.2,0.3,6.4,1.8l5.8,7.4C393.6,363.9,391.1,366.6,387.1,366.8z"/>
	<path class="st0" d="M863.8,283.2c-22.2,0.9-41.2,7.2-57,18.9c-2.6,1.9-7.3,1.5-9.1-0.7l-6-7.6c-1.2-1.5-0.6-3.3,1.5-4.4
		c18.8-9.7,39.9-16.5,63.1-20.6c2.5-0.4,5.2,0.3,6.4,1.8l5.8,7.4C870.2,280.3,867.7,283.1,863.8,283.2z"/>
	<path class="st0" d="M220.1,216.4c-22.2,0.9-41.2,7.2-57,18.9c-2.6,1.9-7.3,1.5-9.1-0.7l-6-7.6c-1.2-1.5-0.6-3.3,1.5-4.4
		c18.8-9.7,39.9-16.5,63.1-20.6c2.5-0.4,5.2,0.3,6.4,1.8l5.8,7.4C226.5,213.5,224,216.2,220.1,216.4z"/>
	<path class="st0" d="M659.4,205.4c-22.2,0.9-41.2,7.2-57,18.9c-2.6,1.9-7.3,1.5-9.1-0.7l-6-7.6c-1.2-1.5-0.6-3.3,1.5-4.4
		c18.8-9.7,39.9-16.5,63.1-20.6c2.5-0.4,5.2,0.3,6.4,1.8l5.8,7.4C665.8,202.5,663.3,205.2,659.4,205.4z"/>
	<path class="st0" d="M381.3,443.4c-22.1-1.5-42.4,2.7-61.1,12.6c-3,1.6-7.6,0.7-8.8-1.7l-3.9-8.2c-0.8-1.6,0.3-3.4,2.6-4.2
		c21.1-7.5,43.6-12,67.5-13.6c2.6-0.2,5,0.9,5.8,2.5l3.8,8C388.4,441.2,385.3,443.7,381.3,443.4z"/>
	<path class="st0" d="M771.6,367.3c-22.1-1.5-42.4,2.7-61.1,12.6c-3,1.6-7.6,0.7-8.8-1.7l-3.9-8.2c-0.8-1.6,0.3-3.4,2.6-4.2
		c21.1-7.5,43.6-12,67.5-13.6c2.6-0.2,5,0.9,5.8,2.5l3.8,8C778.7,365.1,775.5,367.5,771.6,367.3z"/>
	<path class="st0" d="M553.7,318c-8.3-13.3-23.6-22.9-46-28.9c-3.6-1-4.6-4-1.8-5.8l9.3-6.1c1.8-1.2,4.7-1.4,6.9-0.5
		c20.2,8.4,37,19.1,50.4,32c1.5,1.4,1.2,3.3-0.7,4.5l-9.1,5.9C559.9,321,555.2,320.3,553.7,318z"/>
	<path class="st0" d="M483,634.4c-8.3-13.3-23.6-22.9-46-28.9c-3.6-1-4.6-4-1.8-5.8l9.3-6.1c1.8-1.2,4.7-1.4,6.9-0.5
		c20.2,8.4,37,19.1,50.4,32c1.5,1.4,1.2,3.3-0.7,4.5l-9.1,5.9C489.2,637.4,484.5,636.7,483,634.4z"/>
	<path class="st0" d="M955.8,579c-8.3-13.3-23.6-22.9-46-28.9c-3.6-1-4.6-4-1.8-5.8l9.3-6.1c1.8-1.2,4.7-1.4,6.9-0.5
		c20.2,8.4,37,19.1,50.4,32c1.5,1.4,1.2,3.3-0.7,4.5l-9.1,5.9C962.1,582,957.3,581.4,955.8,579z"/>
	<path class="st0" d="M745.7,75.6c-21.5,3.7-38.2,12.3-50.1,25.8c-1.9,2.2-6.7,2.4-9.1,0.4l-8.2-6.7c-1.6-1.3-1.6-3.2,0.1-4.5
		c15.5-11.9,34-21.3,55.5-28.2c2.3-0.8,5.2-0.3,6.8,1l8,6.5C751.1,72,749.5,74.9,745.7,75.6z"/>
	<path class="st0" d="M817.3,222.7c-21.5,3.7-38.2,12.3-50.1,25.8c-1.9,2.2-6.7,2.4-9.1,0.4l-8.2-6.7c-1.6-1.3-1.6-3.2,0.1-4.5
		c15.5-11.9,34-21.3,55.5-28.2c2.3-0.8,5.2-0.3,6.8,1l8,6.5C822.7,219,821.2,222,817.3,222.7z"/>
	<path class="st0" d="M280.9,495.5c-13.2-11.5-31.8-18.3-55.7-20.5c-3.9-0.4-6-3.1-4-5.3l6.7-7.4c1.3-1.5,4-2.1,6.5-1.6
		c22.8,4.9,43.2,12.5,61.2,22.9c1.9,1.1,2.4,3,1.1,4.4l-6.5,7.2C288.2,497.4,283.3,497.6,280.9,495.5z"/>
	<path class="st0" d="M626.1,374.8c-13.2-11.5-31.8-18.3-55.7-20.5c-3.9-0.4-6-3.1-4-5.3l6.7-7.4c1.3-1.5,4-2.1,6.5-1.6
		c22.8,4.9,43.2,12.5,61.2,22.9c1.9,1.1,2.4,3,1.1,4.4l-6.5,7.2C633.4,376.7,628.5,376.8,626.1,374.8z"/>
	<path class="st0" d="M455.6,183.6c-13.2-11.5-31.8-18.3-55.7-20.5c-3.9-0.4-6-3.1-4-5.3l6.7-7.4c1.3-1.5,4-2.1,6.5-1.6
		c22.8,4.9,43.2,12.5,61.2,22.9c1.9,1.1,2.4,3,1.1,4.4l-6.5,7.2C462.8,185.5,458,185.7,455.6,183.6z"/>
	<path class="st0" d="M332.4,602.4c-22.2,0-41.8,5.5-58.8,16.6c-2.7,1.8-7.4,1.2-9-1.1l-5.2-7.9c-1-1.5-0.2-3.4,1.9-4.3
		c19.7-8.9,41.4-14.9,65-18c2.6-0.3,5.1,0.5,6.2,2.1l5.1,7.7C339.1,599.8,336.4,602.4,332.4,602.4z"/>
	<path class="st0" d="M616.3,629.1c-22.1,1.1-41,7.6-56.6,19.5c-2.5,1.9-7.3,1.6-9.1-0.6l-6.2-7.6c-1.2-1.5-0.7-3.3,1.4-4.4
		c18.6-9.9,39.4-16.9,62.6-21.3c2.5-0.5,5.2,0.3,6.4,1.8l6,7.4C622.7,626.1,620.3,628.9,616.3,629.1z"/>
	<path class="st0" d="M802.4,556.1c-22.1,1.1-41,7.6-56.6,19.5c-2.5,1.9-7.3,1.6-9.1-0.6l-6.2-7.6c-1.2-1.5-0.7-3.3,1.4-4.4
		c18.6-9.9,39.4-16.9,62.6-21.3c2.5-0.5,5.2,0.3,6.4,1.8l6,7.4C808.7,553.1,806.3,555.9,802.4,556.1z"/>
	<path class="st0" d="M846.3,622.3c-10.8-12.5-27.9-20.8-51.2-24.9c-3.8-0.7-5.3-3.6-2.9-5.6l8.1-6.8c1.6-1.3,4.4-1.8,6.8-1
		c21.7,6.7,40.4,16,56.2,27.7c1.7,1.3,1.8,3.1,0.2,4.5l-7.9,6.6C853.1,624.8,848.3,624.5,846.3,622.3z"/>
	<path class="st0" d="M947.9,498.7c-3-14.2-14.3-25.9-33.7-35.2c-3.1-1.5-2.9-4.6,0.4-5.9l11.3-4.4c2.2-0.9,5.1-0.6,6.9,0.6
		c16.4,11.4,28.6,24.4,36.7,39c0.9,1.6-0.1,3.4-2.3,4.2l-11.1,4.3C952.9,502.6,948.5,501.3,947.9,498.7z"/>
	<path class="st0" d="M822.4,447.6c-22.2,0.5-41.4,6.6-57.7,18.1c-2.6,1.9-7.4,1.4-9-0.9l-5.7-7.7c-1.1-1.5-0.5-3.3,1.6-4.4
		c19.2-9.4,40.4-16,63.8-19.7c2.5-0.4,5.2,0.4,6.3,1.9l5.6,7.5C829,444.9,826.4,447.5,822.4,447.6z"/>
	<path class="st0" d="M911.4,356.5c-12.7-11.7-31-18.9-54.8-21.5c-3.9-0.4-5.8-3.2-3.8-5.4l7-7.3c1.4-1.4,4.1-2.1,6.6-1.5
		c22.6,5.3,42.7,13.3,60.2,23.9c1.9,1.2,2.3,3,0.9,4.5l-6.8,7.1C918.5,358.5,913.6,358.6,911.4,356.5z"/>
	<path class="st0" d="M705.2,547.5c-12.7-11.7-31-18.9-54.8-21.5c-3.9-0.4-5.8-3.2-3.8-5.4l7-7.3c1.4-1.4,4.1-2.1,6.6-1.5
		c22.6,5.3,42.7,13.3,60.2,23.9c1.9,1.2,2.3,3,0.9,4.5l-6.8,7.1C712.4,549.5,707.5,549.6,705.2,547.5z"/>
	<path class="st0" d="M710.3,291.6c-18.1,8.3-29,20.1-32.8,35.5c-0.6,2.5-5,3.8-8.3,2.5l-11.4-4.4c-2.2-0.9-3.2-2.6-2.4-4.2
		c8-14.6,20.2-27.6,36.6-39c1.8-1.2,4.7-1.5,6.9-0.6l11.1,4.3C713.4,287,713.6,290.1,710.3,291.6z"/>
	<path class="st0" d="M504.1,233.1c-21.8,2.6-39.5,10.4-53,23.3c-2.2,2.1-7,2.1-9.1,0l-7.4-7.1c-1.5-1.4-1.2-3.3,0.6-4.5
		c16.9-11.1,36.4-19.6,58.7-25.4c2.4-0.6,5.2-0.1,6.7,1.3l7.2,6.9C510,229.8,508,232.7,504.1,233.1z"/>
	<path class="st0" d="M339.5,266.9c-15.3-10.4-35-15.7-59.2-16c-3.9,0-6.5-2.6-5-5l5.2-7.9c1-1.5,3.6-2.4,6.2-2.1
		c23.6,3.1,45.3,9.1,65,17.9c2.1,1,2.9,2.8,1.9,4.3l-5.1,7.7C347,268.2,342.2,268.7,339.5,266.9z"/>
	<path class="st0" d="M118.5,401.9c-15.3-10.4-35-15.7-59.2-16c-3.9,0-6.5-2.6-5-5l5.2-7.9c1-1.5,3.6-2.4,6.2-2.1
		c23.6,3.1,45.3,9.1,65,17.9c2.1,1,2.9,2.8,1.9,4.3l-5.1,7.7C126,403.2,121.2,403.7,118.5,401.9z"/>
	<path class="st0" d="M131.6,302.1c-14.1-11.1-33.1-17.3-57.2-18.7c-3.9-0.2-6.2-2.9-4.4-5.2l6.1-7.6c1.2-1.5,3.9-2.3,6.4-1.8
		c23.2,4.2,44.1,11.2,62.8,20.9c2,1.1,2.6,2.9,1.4,4.4l-5.9,7.4C139,303.8,134.1,304.1,131.6,302.1z"/>
	<path class="st0" d="M349.6,149.8c-22-1.8-42.5,2.2-61.5,11.9c-3.1,1.6-7.6,0.6-8.7-1.8l-3.7-8.2c-0.7-1.6,0.4-3.3,2.7-4.1
		c21.3-7.3,43.9-11.5,67.9-12.8c2.6-0.1,5,0.9,5.7,2.6l3.6,8C356.7,147.8,353.5,150.2,349.6,149.8z"/>
	<path class="st0" d="M507.7,402.9c-22-1.8-42.5,2.2-61.5,11.9c-3.1,1.6-7.6,0.6-8.7-1.8l-3.7-8.2c-0.7-1.6,0.4-3.3,2.7-4.1
		c21.3-7.3,43.9-11.5,67.9-12.8c2.6-0.1,5,0.9,5.7,2.6l3.6,8C514.9,400.8,511.7,403.2,507.7,402.9z"/>
	<path class="st0" d="M524.7,144.3c11.4-12.3,14.1-25.9,8-41c-1-2.4,2.2-4.7,6.1-4.4l13.2,1.1c2.6,0.2,4.6,1.6,4.8,3.3
		c1.7,15.5-1.4,30.5-9.3,45.2c-0.9,1.6-3.3,2.6-5.9,2.3l-12.8-1.1C524.7,149.3,522.6,146.5,524.7,144.3z"/>
	<path class="st0" d="M860.9,415.1c11.4-12.3,14.1-25.9,8-41c-1-2.4,2.2-4.7,6.1-4.4l13.2,1.1c2.6,0.2,4.6,1.6,4.8,3.3
		c1.7,15.5-1.4,30.5-9.3,45.2c-0.9,1.6-3.3,2.6-5.9,2.3l-12.8-1.1C860.9,420.1,858.8,417.3,860.9,415.1z"/>
	<path class="st0" d="M170.5,591.9c11.4-12.3,14.1-25.9,8-41c-1-2.4,2.2-4.7,6.1-4.4l13.2,1.1c2.6,0.2,4.6,1.6,4.8,3.3
		c1.7,15.5-1.4,30.5-9.3,45.2c-0.9,1.6-3.3,2.6-5.9,2.3l-12.8-1.1C170.5,596.9,168.4,594.1,170.5,591.9z"/>
	<path class="st0" d="M192.6,371.7c11.4-12.3,14.1-25.9,8-41c-1-2.4,2.2-4.7,6.1-4.4l13.2,1.1c2.6,0.2,4.6,1.6,4.8,3.3
		c1.7,15.5-1.4,30.5-9.3,45.2c-0.9,1.6-3.3,2.6-5.9,2.3l-12.8-1.1C192.6,376.8,190.6,373.9,192.6,371.7z"/>
	<path class="st0" d="M809.9,161.4c-15.2-10.5-34.8-15.9-59-16.3c-3.9-0.1-6.5-2.7-4.9-5l5.3-7.9c1-1.5,3.6-2.4,6.2-2.1
		c23.6,3.2,45.2,9.3,64.9,18.2c2.1,1,2.9,2.8,1.9,4.3l-5.2,7.6C817.4,162.7,812.6,163.2,809.9,161.4z"/>
	<path class="st0" d="M512.4,488c-15.2-10.5-34.8-15.9-59-16.3c-3.9-0.1-6.5-2.7-4.9-5l5.3-7.9c1-1.5,3.6-2.4,6.2-2.1
		c23.6,3.2,45.2,9.3,64.9,18.2c2.1,1,2.9,2.8,1.9,4.3l-5.2,7.6C520,489.3,515.1,489.9,512.4,488z"/>
	<path class="st0" d="M424,329.4c-15.2-10.5-34.8-15.9-59-16.3c-3.9-0.1-6.5-2.7-4.9-5l5.3-7.9c1-1.5,3.6-2.4,6.2-2.1
		c23.6,3.2,45.2,9.3,64.9,18.2c2.1,1,2.9,2.8,1.9,4.3l-5.2,7.6C431.5,330.8,426.7,331.3,424,329.4z"/>
	<path class="st0" d="M911.3,249.1c-9.1-13.1-25-22.3-47.6-27.7c-3.7-0.9-4.8-3.9-2.1-5.7l9-6.3c1.8-1.2,4.6-1.5,6.9-0.7
		c20.7,8,38.1,18.2,52.2,30.8c1.5,1.4,1.4,3.2-0.4,4.5l-8.7,6.2C917.7,252,912.9,251.4,911.3,249.1z"/>
	<path class="st0" d="M429.3,544.2c-9.1-13.1-25-22.3-47.6-27.7c-3.7-0.9-4.8-3.9-2.1-5.7l9-6.3c1.8-1.2,4.6-1.5,6.9-0.7
		c20.7,8,38.1,18.2,52.2,30.8c1.5,1.4,1.4,3.2-0.4,4.5l-8.7,6.2C435.7,547.1,430.9,546.6,429.3,544.2z"/>
	<path class="st0" d="M1008.3,300.2c-9.1-13.1-25-22.3-47.6-27.7c-3.7-0.9-4.8-3.9-2.1-5.7l9-6.3c1.8-1.2,4.6-1.5,6.9-0.7
		c20.7,8,38.1,18.2,52.2,30.8c1.5,1.4,1.4,3.2-0.4,4.5l-8.7,6.2C1014.7,303.1,1009.9,302.5,1008.3,300.2z"/>
	<path class="st0" d="M637.4,144.2c-9.1-13.1-25-22.3-47.6-27.7c-3.7-0.9-4.8-3.9-2.1-5.7l9-6.3c1.8-1.2,4.6-1.5,6.9-0.7
		c20.7,8,38.1,18.2,52.2,30.8c1.5,1.4,1.4,3.2-0.4,4.5l-8.7,6.2C643.9,147.1,639.1,146.5,637.4,144.2z"/>
	<path class="st0" d="M834.9,531.1c-9.1-13.1-25-22.3-47.6-27.7c-3.7-0.9-4.8-3.9-2.1-5.7l9-6.3c1.8-1.2,4.6-1.5,6.9-0.7
		c20.7,8,38.1,18.2,52.2,30.8c1.5,1.4,1.4,3.2-0.4,4.5L844,532C841.3,533.9,836.5,533.4,834.9,531.1z"/>
	<path class="st0" d="M1079.6,351.7c-22.2,0.6-41.4,6.7-57.6,18.3c-2.6,1.9-7.3,1.4-9.1-0.8l-5.8-7.7c-1.1-1.5-0.5-3.3,1.6-4.4
		c19.1-9.4,40.3-16.1,63.6-19.9c2.5-0.4,5.2,0.4,6.3,1.9l5.6,7.5C1086.2,349,1083.6,351.6,1079.6,351.7z"/>
	<path class="st0" d="M432.9,672.8c-22.2,0.6-41.4,6.7-57.6,18.3c-2.6,1.9-7.3,1.4-9.1-0.8l-5.8-7.7c-1.1-1.5-0.5-3.3,1.6-4.4
		c19.1-9.4,40.3-16.1,63.6-19.9c2.5-0.4,5.2,0.4,6.3,1.9l5.6,7.5C439.5,670,436.9,672.7,432.9,672.8z"/>
</g>
<g id="Pineapple">
</g>
<g id="Bacon">
</g>
<g id="Sausage">
</g>
<g id="Crust">
</g>
</svg>
