<?xml version="1.0" encoding="utf-8"?>
<!-- Generator: Adobe Illustrator 21.0.0, SVG Export Plug-In . SVG Version: 6.00 Build 0)  -->
<!DOCTYPE svg PUBLIC "-//W3C//DTD SVG 1.1//EN" "http://www.w3.org/Graphics/SVG/1.1/DTD/svg11.dtd">
<svg version="1.1" xmlns="http://www.w3.org/2000/svg" xmlns:xlink="http://www.w3.org/1999/xlink" x="0px" y="0px"
	 viewBox="0 0 1131.4 775.6" style="enable-background:new 0 0 1131.4 775.6;" xml:space="preserve">
<style type="text/css">
	.st0{fill:#BE1E2D;}
	.st1{opacity:0.43;fill:#231F20;}
</style>
<g id="Background">
</g>
<g id="Cheese">
</g>
<g id="Pepperoni">
	<g>
		<path class="st0" d="M274.2,157.5c-0.5-3-2.4-6.8-6.5-9.8s-14.8-8.3-23.5-9.8c-8.7-1.5-19.8,1.7-27.6,4
			c-7.8,2.3-14.8,5.3-18.6,10.6c-3.4,4.7-3.1,9.5-3.2,12.9c-0.1,3.4-2.4,8.2,4.5,14.6s12.3,8.4,26.9,10.4
			c14.5,2.1,26.1,1.2,32.8-2.1c6.7-3.3,11.5-8.8,15.9-16.2C279.2,164.6,274.7,160.4,274.2,157.5z"/>
		<path class="st1" d="M241.7,149.8c-0.8,1.5-3.3,2.3-5.7,1.8s-3.6-2.2-2.8-3.7s3.3-2.3,5.7-1.8S242.5,148.3,241.7,149.8z"/>
		<path class="st1" d="M262.7,158.5c-0.8,1.5-3.3,2.3-5.7,1.8s-3.6-2.2-2.8-3.7c0.8-1.5,3.3-2.3,5.7-1.8S263.5,156.9,262.7,158.5z"
			/>
		<path class="st1" d="M245.2,163.4c-0.8,1.5-3.3,2.3-5.7,1.8c-2.4-0.5-3.6-2.2-2.8-3.7c0.8-1.5,3.3-2.3,5.7-1.8
			C244.7,160.2,246,161.9,245.2,163.4z"/>
		<path class="st1" d="M216.8,168.8c-0.8,1.5-3.3,2.3-5.7,1.8s-3.6-2.2-2.8-3.7c0.8-1.5,3.3-2.3,5.7-1.8
			C216.3,165.6,217.6,167.3,216.8,168.8z"/>
		<path class="st1" d="M228,182.2c-0.8,1.5-3.3,2.3-5.7,1.8c-2.4-0.5-3.6-2.2-2.8-3.7c0.8-1.5,3.3-2.3,5.7-1.8
			C227.5,179,228.8,180.7,228,182.2z"/>
		<path class="st1" d="M251.8,183.1c-0.8,1.5-3.3,2.3-5.7,1.8s-3.6-2.2-2.8-3.7s3.3-2.3,5.7-1.8S252.6,181.6,251.8,183.1z"/>
		<path class="st1" d="M260.6,171.5c-0.8,1.5-3.3,2.3-5.7,1.8s-3.6-2.2-2.8-3.7s3.3-2.3,5.7-1.8C260.1,168.3,261.4,170,260.6,171.5z
			"/>
		<path class="st1" d="M218,157.5c-0.8,1.5-3.3,2.3-5.7,1.8s-3.6-2.2-2.8-3.7s3.3-2.3,5.7-1.8S218.8,156,218,157.5z"/>
		<path class="st1" d="M232.2,170.1c-0.8,1.5-3.3,2.3-5.7,1.8s-3.6-2.2-2.8-3.7c0.8-1.5,3.3-2.3,5.7-1.8S233,168.6,232.2,170.1z"/>
	</g>
	<g>
		<path class="st0" d="M287.7,265.3c-0.7-2.9-3-6.7-7.2-9.6c-4.3-2.9-15.5-7.9-24.3-9.1c-8.8-1.2-19.6,2.3-27.3,4.9
			c-7.6,2.6-14.4,5.8-17.8,11.2c-3,4.8-2.3,9.6-2.2,13c0.1,3.4-1.7,8.2,5.7,14.5c7.4,6.2,13,8,27.6,9.5c14.7,1.6,26.1,0.3,32.6-3.2
			c6.4-3.5,10.8-9.1,14.6-16.7C293.2,272.2,288.5,268.2,287.7,265.3z"/>
		<path class="st1" d="M254.6,258.7c-0.7,1.5-3.2,2.4-5.5,2c-2.4-0.4-3.8-2-3.1-3.6c0.7-1.5,3.2-2.4,5.5-2
			C253.9,255.6,255.3,257.2,254.6,258.7z"/>
		<path class="st1" d="M276.3,266.7c-0.7,1.5-3.2,2.4-5.5,2c-2.4-0.4-3.8-2-3.1-3.6s3.2-2.4,5.5-2
			C275.6,263.5,276.9,265.1,276.3,266.7z"/>
		<path class="st1" d="M259.2,272.2c-0.7,1.5-3.2,2.4-5.5,2c-2.4-0.4-3.8-2-3.1-3.6c0.7-1.5,3.2-2.4,5.5-2
			C258.5,269,259.9,270.6,259.2,272.2z"/>
		<path class="st1" d="M231.3,278.5c-0.7,1.5-3.2,2.4-5.5,2c-2.4-0.4-3.8-2-3.1-3.6s3.2-2.4,5.5-2
			C230.6,275.3,232,276.9,231.3,278.5z"/>
		<path class="st1" d="M243.5,291.5c-0.7,1.5-3.2,2.4-5.5,2c-2.4-0.4-3.8-2-3.1-3.6c0.7-1.5,3.2-2.4,5.5-2
			C242.8,288.4,244.2,290,243.5,291.5z"/>
		<path class="st1" d="M267.4,291.6c-0.7,1.5-3.2,2.4-5.5,2c-2.4-0.4-3.8-2-3.1-3.6s3.2-2.4,5.5-2
			C266.7,288.5,268.1,290.1,267.4,291.6z"/>
		<path class="st1" d="M275.2,279.7c-0.7,1.5-3.2,2.4-5.5,2c-2.4-0.4-3.8-2-3.1-3.6s3.2-2.4,5.5-2
			C274.5,276.6,275.9,278.2,275.2,279.7z"/>
		<path class="st1" d="M231.6,267.1c-0.7,1.5-3.2,2.4-5.5,2s-3.8-2-3.1-3.6s3.2-2.4,5.5-2C230.8,264,232.2,265.6,231.6,267.1z"/>
		<path class="st1" d="M246.8,279.3c-0.7,1.5-3.2,2.4-5.5,2s-3.8-2-3.1-3.6c0.7-1.5,3.2-2.4,5.5-2
			C246.1,276.1,247.4,277.7,246.8,279.3z"/>
	</g>
	<g>
		<path class="st0" d="M156,246.9c-0.7-2.9-3-6.7-7.2-9.6c-4.3-2.9-15.5-7.9-24.3-9.1c-8.8-1.2-19.6,2.3-27.3,4.9
			s-14.4,5.8-17.8,11.2c-3,4.8-2.3,9.6-2.2,13c0.1,3.4-1.7,8.2,5.7,14.5c7.4,6.2,13,8,27.6,9.5s26.1,0.3,32.6-3.2
			c6.4-3.5,10.8-9.1,14.6-16.7C161.5,253.9,156.7,249.9,156,246.9z"/>
		<path class="st1" d="M122.9,240.4c-0.7,1.5-3.2,2.4-5.5,2c-2.4-0.4-3.8-2-3.1-3.6c0.7-1.5,3.2-2.4,5.5-2
			C122.2,237.2,123.6,238.8,122.9,240.4z"/>
		<path class="st1" d="M144.6,248.3c-0.7,1.5-3.2,2.4-5.5,2c-2.4-0.4-3.8-2-3.1-3.6c0.7-1.5,3.2-2.4,5.5-2
			C143.8,245.2,145.2,246.8,144.6,248.3z"/>
		<path class="st1" d="M127.5,253.8c-0.7,1.5-3.2,2.4-5.5,2c-2.4-0.4-3.8-2-3.1-3.6c0.7-1.5,3.2-2.4,5.5-2
			C126.8,250.7,128.2,252.3,127.5,253.8z"/>
		<path class="st1" d="M99.6,260.1c-0.7,1.5-3.2,2.4-5.5,2c-2.4-0.4-3.8-2-3.1-3.6c0.7-1.5,3.2-2.4,5.5-2
			C98.9,257,100.2,258.6,99.6,260.1z"/>
		<path class="st1" d="M111.8,273.2c-0.7,1.5-3.2,2.4-5.5,2c-2.4-0.4-3.8-2-3.1-3.6s3.2-2.4,5.5-2
			C111.1,270,112.5,271.6,111.8,273.2z"/>
		<path class="st1" d="M135.7,273.2c-0.7,1.5-3.2,2.4-5.5,2s-3.8-2-3.1-3.6s3.2-2.4,5.5-2C134.9,270.1,136.3,271.7,135.7,273.2z"/>
		<path class="st1" d="M143.5,261.4c-0.7,1.5-3.2,2.4-5.5,2c-2.4-0.4-3.8-2-3.1-3.6c0.7-1.5,3.2-2.4,5.5-2S144.2,259.9,143.5,261.4z
			"/>
		<path class="st1" d="M99.8,248.8c-0.7,1.5-3.2,2.4-5.5,2c-2.4-0.4-3.8-2-3.1-3.6s3.2-2.4,5.5-2C99.1,245.6,100.5,247.2,99.8,248.8
			z"/>
		<path class="st1" d="M115,260.9c-0.7,1.5-3.2,2.4-5.5,2c-2.4-0.4-3.8-2-3.1-3.6c0.7-1.5,3.2-2.4,5.5-2
			C114.3,257.8,115.7,259.4,115,260.9z"/>
	</g>
	<g>
		<path class="st0" d="M434.7,285.9c-1.9-2.7-5.6-5.9-11-8s-18.2-4.9-27.1-4.5c-9,0.4-17.9,5.7-24.2,9.5s-11.4,8-12.4,13.9
			c-0.9,5.2,1.8,9.7,3.4,12.9c1.5,3.2,1.8,8.2,11.5,12.9c9.8,4.7,15.9,5.4,30.6,4.4s25.3-4.2,30-8.8s6.6-10.7,7-18.6
			C442.9,291.6,436.7,288.6,434.7,285.9z"/>
		<ellipse class="st1" cx="395.6" cy="285.3" rx="4.5" ry="2.9"/>
		<ellipse class="st1" cx="419.8" cy="289.2" rx="4.5" ry="2.9"/>
		<ellipse class="st1" cx="405.7" cy="297.5" rx="4.5" ry="2.9"/>
		<ellipse class="st1" cx="381.4" cy="308.4" rx="4.5" ry="2.9"/>
		<ellipse class="st1" cx="398.7" cy="318.8" rx="4.5" ry="2.9"/>
		<ellipse class="st1" cx="421.7" cy="314.8" rx="4.5" ry="2.9"/>
		<ellipse class="st1" cx="424.3" cy="302" rx="4.5" ry="2.9"/>
		<ellipse class="st1" cx="376.9" cy="297.5" rx="4.5" ry="2.9"/>
		<ellipse class="st1" cx="396.7" cy="306.5" rx="4.5" ry="2.9"/>
	</g>
	<g>
		<path class="st0" d="M692.8,122.9c-1.9-2.7-5.6-5.9-11-8c-5.4-2.1-18.2-4.9-27.1-4.5c-9,0.4-17.9,5.7-24.2,9.5
			c-6.2,3.8-11.4,8-12.4,13.9c-0.9,5.2,1.8,9.7,3.4,12.9c1.5,3.2,1.8,8.2,11.5,12.9s15.9,5.4,30.6,4.4c14.8-1,25.3-4.2,30-8.8
			c4.7-4.5,6.6-10.7,7-18.6C701,128.6,694.7,125.6,692.8,122.9z"/>
		<ellipse class="st1" cx="653.6" cy="122.4" rx="4.5" ry="2.9"/>
		<ellipse class="st1" cx="677.8" cy="126.3" rx="4.5" ry="2.9"/>
		<ellipse class="st1" cx="663.7" cy="134.5" rx="4.5" ry="2.9"/>
		<ellipse class="st1" cx="639.5" cy="145.5" rx="4.5" ry="2.9"/>
		<ellipse class="st1" cx="656.7" cy="155.9" rx="4.5" ry="2.9"/>
		<ellipse class="st1" cx="679.7" cy="151.8" rx="4.5" ry="2.9"/>
		<ellipse class="st1" cx="682.3" cy="139" rx="4.5" ry="2.9"/>
		<ellipse class="st1" cx="635" cy="134.5" rx="4.5" ry="2.9"/>
		<ellipse class="st1" cx="654.7" cy="143.5" rx="4.5" ry="2.9"/>
	</g>
	<g>
		<path class="st0" d="M647.4,229.9c1-2.9,0.9-6.9-1.5-10.7c-2.4-3.7-10.1-10.9-17.7-14s-19.6-2.3-28.2-1.7
			c-8.5,0.6-16.6,2.1-22.8,6.4c-5.5,3.8-7.5,8.4-9.2,11.6c-1.7,3.2-6.2,7.3-2.7,14.8s7.7,10.4,20.6,15.3c12.8,4.8,24.2,6.3,32.2,4.5
			c8-1.8,15.1-6,22.8-12.3C648.7,237.7,646.4,232.8,647.4,229.9z"/>
		<path class="st1" d="M620.1,216.2c-1.5,1.3-4.3,1.6-6.3,0.6c-2-1-2.4-2.8-0.9-4.1c1.5-1.3,4.3-1.6,6.3-0.6
			C621.1,213.1,621.5,214.9,620.1,216.2z"/>
		<path class="st1" d="M635.9,228.6c-1.5,1.3-4.3,1.6-6.3,0.6c-2-1-2.4-2.8-0.9-4.1c1.5-1.3,4.3-1.6,6.3-0.6
			C637,225.5,637.4,227.3,635.9,228.6z"/>
		<path class="st1" d="M616.9,229.8c-1.5,1.3-4.3,1.6-6.3,0.6c-2-1-2.4-2.8-0.9-4.1c1.5-1.3,4.3-1.6,6.3-0.6
			C618,226.7,618.4,228.5,616.9,229.8z"/>
		<path class="st1" d="M587.4,229.3c-1.5,1.3-4.3,1.6-6.3,0.6c-2-1-2.4-2.8-0.9-4.1c1.5-1.3,4.3-1.6,6.3-0.6
			C588.4,226.2,588.8,228,587.4,229.3z"/>
		<path class="st1" d="M591.6,244.3c-1.5,1.3-4.3,1.6-6.3,0.6c-2-1-2.4-2.8-0.9-4.1c1.5-1.3,4.3-1.6,6.3-0.6
			C592.6,241.2,593.1,243,591.6,244.3z"/>
		<path class="st1" d="M613.8,249.8c-1.5,1.3-4.3,1.6-6.3,0.6c-2-1-2.4-2.8-0.9-4.1c1.5-1.3,4.3-1.6,6.3-0.6
			S615.3,248.5,613.8,249.8z"/>
		<path class="st1" d="M627.7,240.5c-1.5,1.3-4.3,1.6-6.3,0.6c-2-1-2.4-2.8-0.9-4.1c1.5-1.3,4.3-1.6,6.3-0.6
			C628.8,237.4,629.2,239.3,627.7,240.5z"/>
		<path class="st1" d="M593.9,218.7c-1.5,1.3-4.3,1.6-6.3,0.6c-2-1-2.4-2.8-0.9-4.1c1.5-1.3,4.3-1.6,6.3-0.6
			C594.9,215.6,595.3,217.5,593.9,218.7z"/>
		<path class="st1" d="M601.4,233.6c-1.5,1.3-4.3,1.6-6.3,0.6s-2.4-2.8-0.9-4.1c1.5-1.3,4.3-1.6,6.3-0.6
			C602.4,230.5,602.8,232.3,601.4,233.6z"/>
	</g>
	<g>
		<path class="st0" d="M1036.2,255.9c1-2.9,0.9-6.9-1.5-10.7c-2.4-3.7-10.1-10.9-17.7-14c-7.6-3.1-19.6-2.3-28.2-1.7
			c-8.5,0.6-16.6,2.1-22.8,6.4c-5.5,3.8-7.5,8.4-9.2,11.6s-6.2,7.3-2.7,14.8c3.5,7.5,7.7,10.4,20.6,15.3c12.8,4.8,24.2,6.3,32.2,4.5
			s15.1-6,22.8-12.3C1037.5,263.6,1035.2,258.8,1036.2,255.9z"/>
		<path class="st1" d="M1008.9,242.2c-1.5,1.3-4.3,1.6-6.3,0.6c-2-1-2.4-2.8-0.9-4.1c1.5-1.3,4.3-1.6,6.3-0.6
			C1010,239,1010.4,240.9,1008.9,242.2z"/>
		<path class="st1" d="M1024.7,254.5c-1.5,1.3-4.3,1.6-6.3,0.6s-2.4-2.8-0.9-4.1c1.5-1.3,4.3-1.6,6.3-0.6
			C1025.8,251.4,1026.2,253.3,1024.7,254.5z"/>
		<path class="st1" d="M1005.8,255.8c-1.5,1.3-4.3,1.6-6.3,0.6c-2-1-2.4-2.8-0.9-4.1c1.5-1.3,4.3-1.6,6.3-0.6
			C1006.8,252.7,1007.2,254.5,1005.8,255.8z"/>
		<path class="st1" d="M976.2,255.3c-1.5,1.3-4.3,1.6-6.3,0.6s-2.4-2.8-0.9-4.1c1.5-1.3,4.3-1.6,6.3-0.6
			C977.2,252.1,977.7,254,976.2,255.3z"/>
		<path class="st1" d="M980.4,270.3c-1.5,1.3-4.3,1.6-6.3,0.6c-2-1-2.4-2.8-0.9-4.1c1.5-1.3,4.3-1.6,6.3-0.6S981.9,269,980.4,270.3z
			"/>
		<path class="st1" d="M1002.7,275.8c-1.5,1.3-4.3,1.6-6.3,0.6c-2-1-2.4-2.8-0.9-4.1c1.5-1.3,4.3-1.6,6.3-0.6
			C1003.7,272.7,1004.1,274.5,1002.7,275.8z"/>
		<path class="st1" d="M1016.5,266.5c-1.5,1.3-4.3,1.6-6.3,0.6s-2.4-2.8-0.9-4.1c1.5-1.3,4.3-1.6,6.3-0.6S1018,265.2,1016.5,266.5z"
			/>
		<path class="st1" d="M982.7,244.7c-1.5,1.3-4.3,1.6-6.3,0.6c-2-1-2.4-2.8-0.9-4.1c1.5-1.3,4.3-1.6,6.3-0.6
			C983.8,241.6,984.2,243.4,982.7,244.7z"/>
		<path class="st1" d="M990.2,259.6c-1.5,1.3-4.3,1.6-6.3,0.6s-2.4-2.8-0.9-4.1c1.5-1.3,4.3-1.6,6.3-0.6S991.7,258.3,990.2,259.6z"
			/>
	</g>
	<g>
		<path class="st0" d="M448.9,140.8c-3.2-2.2-8.3-4.4-14.4-5.3c-6.1-0.9-19.6-0.9-27.9,1.3c-8.3,2.2-14.2,9.1-18.2,14
			c-4,4.9-6.8,10-4.9,15.7c1.7,5.1,6.5,8.8,9.5,11.5c3.1,2.7,5.8,7.4,17.3,9.9c11.6,2.5,17.7,1.9,31.2-2.2s21.9-9.2,24.1-14.5
			c2.2-5.3,0.9-11.5-2.6-19.1C459.5,144.5,452.1,142.9,448.9,140.8z"/>
		<path class="st1" d="M415.8,147.4c0.8,1.5-0.5,3.2-2.8,3.7c-2.4,0.5-4.9-0.3-5.7-1.8s0.5-3.2,2.8-3.7
			C412.5,145,415,145.8,415.8,147.4z"/>
		<path class="st1" d="M440.6,146.1c0.8,1.5-0.5,3.2-2.8,3.7c-2.4,0.5-4.9-0.3-5.7-1.8c-0.8-1.5,0.5-3.2,2.8-3.7
			C437.3,143.7,439.8,144.5,440.6,146.1z"/>
		<path class="st1" d="M431.4,156.8c0.8,1.5-0.5,3.2-2.8,3.7c-2.4,0.5-4.9-0.3-5.7-1.8c-0.8-1.5,0.5-3.2,2.8-3.7
			C428,154.5,430.6,155.3,431.4,156.8z"/>
		<path class="st1" d="M413.8,172.2c0.8,1.5-0.5,3.2-2.8,3.7c-2.4,0.5-4.9-0.3-5.7-1.8c-0.8-1.5,0.5-3.2,2.8-3.7
			C410.5,169.8,413,170.6,413.8,172.2z"/>
		<path class="st1" d="M435.3,178.5c0.8,1.5-0.5,3.2-2.8,3.7c-2.4,0.5-4.9-0.3-5.7-1.8c-0.8-1.5,0.5-3.2,2.8-3.7
			C432,176.1,434.5,177,435.3,178.5z"/>
		<path class="st1" d="M455.1,169.9c0.8,1.5-0.5,3.2-2.8,3.7c-2.4,0.5-4.9-0.3-5.7-1.8s0.5-3.2,2.8-3.7
			C451.8,167.5,454.3,168.4,455.1,169.9z"/>
		<path class="st1" d="M451.2,157.2c0.8,1.5-0.5,3.2-2.8,3.7c-2.4,0.5-4.9-0.3-5.7-1.8c-0.8-1.5,0.5-3.2,2.8-3.7
			C447.9,154.9,450.4,155.7,451.2,157.2z"/>
		<path class="st1" d="M404.1,162.7c0.8,1.5-0.5,3.2-2.8,3.7c-2.4,0.5-4.9-0.3-5.7-1.8c-0.8-1.5,0.5-3.2,2.8-3.7
			C400.8,160.4,403.3,161.2,404.1,162.7z"/>
		<path class="st1" d="M427.3,167.2c0.8,1.5-0.5,3.2-2.8,3.7c-2.4,0.5-4.9-0.3-5.7-1.8s0.5-3.2,2.8-3.7
			C424,164.9,426.5,165.7,427.3,167.2z"/>
	</g>
	<g>
		<path class="st0" d="M688.5,390c1.2-2.9,1.5-6.9-0.5-10.7c-2.1-3.8-9.2-11.2-16.4-14.6c-7.3-3.4-19.4-3-28-2.7
			c-8.6,0.3-16.7,1.5-23.3,5.5c-5.8,3.6-8.2,8.2-10.2,11.3s-6.8,7.1-4,14.7c2.8,7.7,6.8,10.7,19.2,16c12.4,5.3,23.6,7.2,31.7,5.6
			c8.1-1.5,15.6-5.5,23.9-11.4C689.2,397.8,687.3,392.9,688.5,390z"/>
		<path class="st1" d="M662.5,375.3c-1.6,1.2-4.4,1.4-6.3,0.4s-2.2-2.9-0.6-4.1s4.4-1.4,6.3-0.4S664.1,374,662.5,375.3z"/>
		<path class="st1" d="M677.2,388.2c-1.6,1.2-4.4,1.4-6.3,0.4c-1.9-1-2.2-2.9-0.6-4.1s4.4-1.4,6.3-0.4S678.8,387,677.2,388.2z"/>
		<path class="st1" d="M658.2,388.8c-1.6,1.2-4.4,1.4-6.3,0.4s-2.2-2.9-0.6-4.1c1.6-1.2,4.4-1.4,6.3-0.4
			C659.5,385.7,659.8,387.5,658.2,388.8z"/>
		<path class="st1" d="M628.7,387.2c-1.6,1.2-4.4,1.4-6.3,0.4c-1.9-1-2.2-2.9-0.6-4.1c1.6-1.2,4.4-1.4,6.3-0.4
			C630,384.1,630.3,385.9,628.7,387.2z"/>
		<path class="st1" d="M631.6,402.3c-1.6,1.2-4.4,1.4-6.3,0.4s-2.2-2.9-0.6-4.1c1.6-1.2,4.4-1.4,6.3-0.4S633.2,401.1,631.6,402.3z"
			/>
		<path class="st1" d="M653.3,408.7c-1.6,1.2-4.4,1.4-6.3,0.4c-1.9-1-2.2-2.9-0.6-4.1s4.4-1.4,6.3-0.4S654.9,407.4,653.3,408.7z"/>
		<path class="st1" d="M668,399.9c-1.6,1.2-4.4,1.4-6.3,0.4c-1.9-1-2.2-2.9-0.6-4.1c1.6-1.2,4.4-1.4,6.3-0.4
			C669.3,396.8,669.6,398.7,668,399.9z"/>
		<path class="st1" d="M636.1,376.9c-1.6,1.2-4.4,1.4-6.3,0.4c-1.9-1-2.2-2.9-0.6-4.1c1.6-1.2,4.4-1.4,6.3-0.4
			C637.4,373.8,637.7,375.7,636.1,376.9z"/>
		<path class="st1" d="M642.3,392c-1.6,1.2-4.4,1.4-6.3,0.4s-2.2-2.9-0.6-4.1c1.6-1.2,4.4-1.4,6.3-0.4
			C643.6,388.9,643.9,390.8,642.3,392z"/>
	</g>
	<g>
		<path class="st0" d="M984.4,364.4c1.2-2.9,1.5-6.9-0.5-10.7s-9.2-11.2-16.4-14.6c-7.3-3.4-19.4-3-28-2.7
			c-8.6,0.3-16.7,1.5-23.3,5.5c-5.8,3.6-8.2,8.2-10.2,11.3c-2,3.1-6.8,7.1-4,14.7s6.8,10.7,19.2,16s23.6,7.2,31.7,5.6
			c8.1-1.5,15.6-5.5,23.9-11.4C985,372.2,983.2,367.3,984.4,364.4z"/>
		<path class="st1" d="M958.3,349.7c-1.6,1.2-4.4,1.4-6.3,0.4c-1.9-1-2.2-2.9-0.6-4.1c1.6-1.2,4.4-1.4,6.3-0.4
			C959.6,346.6,959.9,348.4,958.3,349.7z"/>
		<path class="st1" d="M973,362.6c-1.6,1.2-4.4,1.4-6.3,0.4s-2.2-2.9-0.6-4.1s4.4-1.4,6.3-0.4C974.4,359.6,974.6,361.4,973,362.6z"
			/>
		<path class="st1" d="M954,363.2c-1.6,1.2-4.4,1.4-6.3,0.4s-2.2-2.9-0.6-4.1c1.6-1.2,4.4-1.4,6.3-0.4S955.6,361.9,954,363.2z"/>
		<path class="st1" d="M924.5,361.6c-1.6,1.2-4.4,1.4-6.3,0.4s-2.2-2.9-0.6-4.1c1.6-1.2,4.4-1.4,6.3-0.4S926.1,360.3,924.5,361.6z"
			/>
		<path class="st1" d="M927.4,376.7c-1.6,1.2-4.4,1.4-6.3,0.4c-1.9-1-2.2-2.9-0.6-4.1c1.6-1.2,4.4-1.4,6.3-0.4
			S929,375.5,927.4,376.7z"/>
		<path class="st1" d="M949.2,383.1c-1.6,1.2-4.4,1.4-6.3,0.4c-1.9-1-2.2-2.9-0.6-4.1s4.4-1.4,6.3-0.4
			C950.5,380,950.8,381.8,949.2,383.1z"/>
		<path class="st1" d="M963.8,374.3c-1.6,1.2-4.4,1.4-6.3,0.4c-1.9-1-2.2-2.9-0.6-4.1s4.4-1.4,6.3-0.4S965.4,373.1,963.8,374.3z"/>
		<path class="st1" d="M931.9,351.3c-1.6,1.2-4.4,1.4-6.3,0.4s-2.2-2.9-0.6-4.1c1.6-1.2,4.4-1.4,6.3-0.4S933.5,350.1,931.9,351.3z"
			/>
		<path class="st1" d="M938.1,366.4c-1.6,1.2-4.4,1.4-6.3,0.4s-2.2-2.9-0.6-4.1c1.6-1.2,4.4-1.4,6.3-0.4S939.7,365.2,938.1,366.4z"
			/>
	</g>
	<g>
		<path class="st0" d="M597.8,478c1.2-2.9,1.5-6.9-0.5-10.7c-2.1-3.8-9.2-11.2-16.4-14.6c-7.3-3.4-19.4-3-28-2.7
			c-8.6,0.3-16.7,1.5-23.3,5.5c-5.8,3.6-8.2,8.2-10.2,11.3c-2,3.1-6.8,7.1-4,14.7s6.8,10.7,19.2,16s23.6,7.2,31.7,5.6
			c8.1-1.5,15.6-5.5,23.9-11.4C598.5,485.8,596.6,480.9,597.8,478z"/>
		<path class="st1" d="M571.8,463.3c-1.6,1.2-4.4,1.4-6.3,0.4s-2.2-2.9-0.6-4.1c1.6-1.2,4.4-1.4,6.3-0.4S573.4,462,571.8,463.3z"/>
		<path class="st1" d="M586.5,476.2c-1.6,1.2-4.4,1.4-6.3,0.4s-2.2-2.9-0.6-4.1s4.4-1.4,6.3-0.4S588.1,475,586.5,476.2z"/>
		<path class="st1" d="M567.5,476.8c-1.6,1.2-4.4,1.4-6.3,0.4c-1.9-1-2.2-2.9-0.6-4.1c1.6-1.2,4.4-1.4,6.3-0.4
			S569.1,475.5,567.5,476.8z"/>
		<path class="st1" d="M538,475.2c-1.6,1.2-4.4,1.4-6.3,0.4s-2.2-2.9-0.6-4.1c1.6-1.2,4.4-1.4,6.3-0.4S539.6,473.9,538,475.2z"/>
		<path class="st1" d="M540.9,490.3c-1.6,1.2-4.4,1.4-6.3,0.4c-1.9-1-2.2-2.9-0.6-4.1c1.6-1.2,4.4-1.4,6.3-0.4
			S542.5,489.1,540.9,490.3z"/>
		<path class="st1" d="M562.6,496.7c-1.6,1.2-4.4,1.4-6.3,0.4s-2.2-2.9-0.6-4.1c1.6-1.2,4.4-1.4,6.3-0.4S564.2,495.4,562.6,496.7z"
			/>
		<path class="st1" d="M577.3,487.9c-1.6,1.2-4.4,1.4-6.3,0.4c-1.9-1-2.2-2.9-0.6-4.1s4.4-1.4,6.3-0.4S578.9,486.7,577.3,487.9z"/>
		<path class="st1" d="M545.4,464.9c-1.6,1.2-4.4,1.4-6.3,0.4s-2.2-2.9-0.6-4.1c1.6-1.2,4.4-1.4,6.3-0.4S547,463.7,545.4,464.9z"/>
		<path class="st1" d="M551.6,480c-1.6,1.2-4.4,1.4-6.3,0.4s-2.2-2.9-0.6-4.1c1.6-1.2,4.4-1.4,6.3-0.4S553.2,478.7,551.6,480z"/>
	</g>
	<g>
		<path class="st0" d="M863.9,176.9c1.2-2.9,1.5-6.9-0.5-10.7c-2.1-3.8-9.2-11.2-16.4-14.6c-7.3-3.4-19.4-3-28-2.7
			c-8.6,0.3-16.7,1.5-23.3,5.5c-5.8,3.6-8.2,8.2-10.2,11.3c-2,3.1-6.8,7.1-4,14.7c2.8,7.7,6.8,10.7,19.2,16s23.6,7.2,31.7,5.6
			s15.6-5.5,23.9-11.4C864.6,184.7,862.7,179.8,863.9,176.9z"/>
		<path class="st1" d="M837.9,162.2c-1.6,1.2-4.4,1.4-6.3,0.4c-1.9-1-2.2-2.9-0.6-4.1c1.6-1.2,4.4-1.4,6.3-0.4
			C839.2,159.1,839.5,160.9,837.9,162.2z"/>
		<path class="st1" d="M852.6,175.1c-1.6,1.2-4.4,1.4-6.3,0.4c-1.9-1-2.2-2.9-0.6-4.1c1.6-1.2,4.4-1.4,6.3-0.4
			C853.9,172.1,854.2,173.9,852.6,175.1z"/>
		<path class="st1" d="M833.6,175.7c-1.6,1.2-4.4,1.4-6.3,0.4c-1.9-1-2.2-2.9-0.6-4.1c1.6-1.2,4.4-1.4,6.3-0.4
			S835.2,174.4,833.6,175.7z"/>
		<path class="st1" d="M804.1,174.1c-1.6,1.2-4.4,1.4-6.3,0.4s-2.2-2.9-0.6-4.1c1.6-1.2,4.4-1.4,6.3-0.4S805.7,172.8,804.1,174.1z"
			/>
		<path class="st1" d="M807,189.2c-1.6,1.2-4.4,1.4-6.3,0.4c-1.9-1-2.2-2.9-0.6-4.1c1.6-1.2,4.4-1.4,6.3-0.4
			C808.3,186.1,808.6,188,807,189.2z"/>
		<path class="st1" d="M828.7,195.6c-1.6,1.2-4.4,1.4-6.3,0.4c-1.9-1-2.2-2.9-0.6-4.1c1.6-1.2,4.4-1.4,6.3-0.4
			C830.1,192.5,830.3,194.3,828.7,195.6z"/>
		<path class="st1" d="M843.4,186.8c-1.6,1.2-4.4,1.4-6.3,0.4c-1.9-1-2.2-2.9-0.6-4.1c1.6-1.2,4.4-1.4,6.3-0.4
			C844.7,183.7,845,185.6,843.4,186.8z"/>
		<path class="st1" d="M811.5,163.8c-1.6,1.2-4.4,1.4-6.3,0.4c-1.9-1-2.2-2.9-0.6-4.1s4.4-1.4,6.3-0.4
			C812.8,160.7,813.1,162.6,811.5,163.8z"/>
		<path class="st1" d="M817.7,178.9c-1.6,1.2-4.4,1.4-6.3,0.4c-1.9-1-2.2-2.9-0.6-4.1s4.4-1.4,6.3-0.4
			C819,175.8,819.3,177.6,817.7,178.9z"/>
	</g>
	<g>
		<path class="st0" d="M892.2,290.4c-1.9-2.7-5.6-5.9-11-8c-5.4-2.1-18.2-4.9-27.1-4.5c-9,0.4-17.9,5.7-24.2,9.5s-11.4,8-12.4,13.9
			c-0.9,5.2,1.8,9.7,3.4,12.9c1.5,3.2,1.8,8.2,11.5,12.9c9.8,4.7,15.9,5.4,30.6,4.4c14.8-1,25.3-4.2,30-8.8c4.7-4.5,6.6-10.7,7-18.6
			C900.5,296.1,894.2,293.1,892.2,290.4z"/>
		<ellipse class="st1" cx="853.1" cy="289.8" rx="4.5" ry="2.9"/>
		<ellipse class="st1" cx="877.3" cy="293.7" rx="4.5" ry="2.9"/>
		<ellipse class="st1" cx="863.2" cy="302" rx="4.5" ry="2.9"/>
		<ellipse class="st1" cx="838.9" cy="312.9" rx="4.5" ry="2.9"/>
		<ellipse class="st1" cx="856.2" cy="323.3" rx="4.5" ry="2.9"/>
		<ellipse class="st1" cx="879.2" cy="319.3" rx="4.5" ry="2.9"/>
		<ellipse class="st1" cx="881.8" cy="306.5" rx="4.5" ry="2.9"/>
		<ellipse class="st1" cx="834.4" cy="302" rx="4.5" ry="2.9"/>
		<ellipse class="st1" cx="854.2" cy="311" rx="4.5" ry="2.9"/>
	</g>
	<g>
		<path class="st0" d="M588.2,130.9c-1.9-2.7-5.6-5.9-11-8c-5.4-2.1-18.2-4.9-27.1-4.5c-9,0.4-17.9,5.7-24.2,9.5s-11.4,8-12.4,13.9
			c-0.9,5.2,1.8,9.7,3.4,12.9c1.5,3.2,1.8,8.2,11.5,12.9s15.9,5.4,30.6,4.4s25.3-4.2,30-8.8c4.7-4.5,6.6-10.7,7-18.6
			C596.4,136.6,590.2,133.6,588.2,130.9z"/>
		<ellipse class="st1" cx="549.1" cy="130.3" rx="4.5" ry="2.9"/>
		<ellipse class="st1" cx="573.3" cy="134.2" rx="4.5" ry="2.9"/>
		<ellipse class="st1" cx="559.2" cy="142.5" rx="4.5" ry="2.9"/>
		<ellipse class="st1" cx="534.9" cy="153.4" rx="4.5" ry="2.9"/>
		<ellipse class="st1" cx="552.2" cy="163.9" rx="4.5" ry="2.9"/>
		<ellipse class="st1" cx="575.2" cy="159.8" rx="4.5" ry="2.9"/>
		<ellipse class="st1" cx="577.8" cy="147" rx="4.5" ry="2.9"/>
		<ellipse class="st1" cx="530.4" cy="142.5" rx="4.5" ry="2.9"/>
		<ellipse class="st1" cx="550.2" cy="151.5" rx="4.5" ry="2.9"/>
	</g>
	<g>
		<path class="st0" d="M915.3,426.9c-1.9-2.7-5.6-5.9-11-8c-5.4-2.1-18.2-4.9-27.1-4.5s-17.9,5.7-24.2,9.5s-11.4,8-12.4,13.9
			c-0.9,5.2,1.8,9.7,3.4,12.9c1.5,3.2,1.8,8.2,11.5,12.9c9.8,4.7,15.9,5.4,30.6,4.4c14.8-1,25.3-4.2,30-8.8c4.7-4.5,6.6-10.7,7-18.6
			C923.6,432.6,917.3,429.6,915.3,426.9z"/>
		<ellipse class="st1" cx="876.2" cy="426.3" rx="4.5" ry="2.9"/>
		<ellipse class="st1" cx="900.4" cy="430.2" rx="4.5" ry="2.9"/>
		<ellipse class="st1" cx="886.3" cy="438.4" rx="4.5" ry="2.9"/>
		<ellipse class="st1" cx="862" cy="449.4" rx="4.5" ry="2.9"/>
		<ellipse class="st1" cx="879.3" cy="459.8" rx="4.5" ry="2.9"/>
		<ellipse class="st1" cx="902.3" cy="455.7" rx="4.5" ry="2.9"/>
		<ellipse class="st1" cx="904.9" cy="442.9" rx="4.5" ry="2.9"/>
		<ellipse class="st1" cx="857.5" cy="438.4" rx="4.5" ry="2.9"/>
		<ellipse class="st1" cx="877.3" cy="447.5" rx="4.5" ry="2.9"/>
	</g>
	<g>
		<path class="st0" d="M857.5,518.7c-1.9-2.7-5.6-5.9-11-8c-5.4-2.1-18.2-4.9-27.1-4.5c-9,0.4-17.9,5.7-24.2,9.5
			c-6.2,3.8-11.4,8-12.4,13.9c-0.9,5.2,1.8,9.7,3.4,12.9c1.5,3.2,1.8,8.2,11.5,12.9c9.8,4.7,15.9,5.4,30.6,4.4s25.3-4.2,30-8.8
			c4.7-4.5,6.6-10.7,7-18.6C865.7,524.4,859.4,521.4,857.5,518.7z"/>
		<ellipse class="st1" cx="818.4" cy="518.2" rx="4.5" ry="2.9"/>
		<ellipse class="st1" cx="842.5" cy="522" rx="4.5" ry="2.9"/>
		<ellipse class="st1" cx="828.4" cy="530.3" rx="4.5" ry="2.9"/>
		<ellipse class="st1" cx="804.2" cy="541.3" rx="4.5" ry="2.9"/>
		<ellipse class="st1" cx="821.4" cy="551.7" rx="4.5" ry="2.9"/>
		<ellipse class="st1" cx="844.4" cy="547.6" rx="4.5" ry="2.9"/>
		<ellipse class="st1" cx="847" cy="534.8" rx="4.5" ry="2.9"/>
		<ellipse class="st1" cx="799.7" cy="530.3" rx="4.5" ry="2.9"/>
		<ellipse class="st1" cx="819.4" cy="539.3" rx="4.5" ry="2.9"/>
	</g>
	<g>
		<path class="st0" d="M493.3,79.1c-1.9-2.7-5.6-5.9-11-8s-18.2-4.9-27.1-4.5c-9,0.4-17.9,5.7-24.2,9.5c-6.2,3.8-11.4,8-12.4,13.9
			c-0.9,5.2,1.8,9.7,3.4,12.9c1.5,3.2,1.8,8.2,11.5,12.9c9.8,4.7,15.9,5.4,30.6,4.4c14.8-1,25.3-4.2,30-8.8c4.7-4.5,6.6-10.7,7-18.6
			C501.5,84.8,495.2,81.8,493.3,79.1z"/>
		<ellipse class="st1" cx="454.2" cy="78.5" rx="4.5" ry="2.9"/>
		<ellipse class="st1" cx="478.3" cy="82.4" rx="4.5" ry="2.9"/>
		<ellipse class="st1" cx="464.2" cy="90.6" rx="4.5" ry="2.9"/>
		<ellipse class="st1" cx="440" cy="101.6" rx="4.5" ry="2.9"/>
		<ellipse class="st1" cx="457.2" cy="112" rx="4.5" ry="2.9"/>
		<ellipse class="st1" cx="480.2" cy="107.9" rx="4.5" ry="2.9"/>
		<ellipse class="st1" cx="482.8" cy="95.2" rx="4.5" ry="2.9"/>
		<ellipse class="st1" cx="435.5" cy="90.6" rx="4.5" ry="2.9"/>
		<ellipse class="st1" cx="455.2" cy="99.7" rx="4.5" ry="2.9"/>
	</g>
	<g>
		<path class="st0" d="M700.1,520.4c-1.9-2.7-5.6-5.9-11-8c-5.4-2.1-18.2-4.9-27.1-4.5s-17.9,5.7-24.2,9.5
			c-6.2,3.8-11.4,8-12.4,13.9c-0.9,5.2,1.8,9.7,3.4,12.9c1.5,3.2,1.8,8.2,11.5,12.9c9.8,4.7,15.9,5.4,30.6,4.4
			c14.8-1,25.3-4.2,30-8.8c4.7-4.5,6.6-10.7,7-18.6C708.3,526.1,702,523.1,700.1,520.4z"/>
		<ellipse class="st1" cx="661" cy="519.8" rx="4.5" ry="2.9"/>
		<ellipse class="st1" cx="685.1" cy="523.7" rx="4.5" ry="2.9"/>
		<ellipse class="st1" cx="671" cy="531.9" rx="4.5" ry="2.9"/>
		<ellipse class="st1" cx="646.8" cy="542.9" rx="4.5" ry="2.9"/>
		<ellipse class="st1" cx="664.1" cy="553.3" rx="4.5" ry="2.9"/>
		<ellipse class="st1" cx="687.1" cy="549.2" rx="4.5" ry="2.9"/>
		<ellipse class="st1" cx="689.6" cy="536.4" rx="4.5" ry="2.9"/>
		<ellipse class="st1" cx="642.3" cy="531.9" rx="4.5" ry="2.9"/>
		<ellipse class="st1" cx="662" cy="541" rx="4.5" ry="2.9"/>
	</g>
	<g>
		<path class="st0" d="M592.3,290.4c-1.9-2.7-5.6-5.9-11-8c-5.4-2.1-18.2-4.9-27.1-4.5c-9,0.4-17.9,5.7-24.2,9.5s-11.4,8-12.4,13.9
			c-0.9,5.2,1.8,9.7,3.4,12.9c1.5,3.2,1.8,8.2,11.5,12.9c9.8,4.7,15.9,5.4,30.6,4.4c14.8-1,25.3-4.2,30-8.8c4.7-4.5,6.6-10.7,7-18.6
			C600.5,296.1,594.2,293.1,592.3,290.4z"/>
		<ellipse class="st1" cx="553.1" cy="289.8" rx="4.5" ry="2.9"/>
		<ellipse class="st1" cx="577.3" cy="293.7" rx="4.5" ry="2.9"/>
		<ellipse class="st1" cx="563.2" cy="302" rx="4.5" ry="2.9"/>
		<ellipse class="st1" cx="539" cy="312.9" rx="4.5" ry="2.9"/>
		<ellipse class="st1" cx="556.2" cy="323.3" rx="4.5" ry="2.9"/>
		<ellipse class="st1" cx="579.2" cy="319.3" rx="4.5" ry="2.9"/>
		<ellipse class="st1" cx="581.8" cy="306.5" rx="4.5" ry="2.9"/>
		<ellipse class="st1" cx="534.5" cy="302" rx="4.5" ry="2.9"/>
		<ellipse class="st1" cx="554.2" cy="311" rx="4.5" ry="2.9"/>
	</g>
	<g>
		<path class="st0" d="M871.6,580.7c-1.9-2.7-5.6-5.9-11-8c-5.4-2.1-18.2-4.9-27.1-4.5s-17.9,5.7-24.2,9.5
			c-6.2,3.8-11.4,8-12.4,13.9c-0.9,5.2,1.8,9.7,3.4,12.9c1.5,3.2,1.8,8.2,11.5,12.9c9.8,4.7,15.9,5.4,30.6,4.4
			c14.8-1,25.3-4.2,30-8.8s6.6-10.7,7-18.6S873.5,583.4,871.6,580.7z"/>
		<ellipse class="st1" cx="832.5" cy="580.1" rx="4.5" ry="2.9"/>
		<ellipse class="st1" cx="856.6" cy="584" rx="4.5" ry="2.9"/>
		<ellipse class="st1" cx="842.5" cy="592.2" rx="4.5" ry="2.9"/>
		<ellipse class="st1" cx="818.3" cy="603.2" rx="4.5" ry="2.9"/>
		<ellipse class="st1" cx="835.5" cy="613.6" rx="4.5" ry="2.9"/>
		<ellipse class="st1" cx="858.5" cy="609.5" rx="4.5" ry="2.9"/>
		<ellipse class="st1" cx="861.1" cy="596.7" rx="4.5" ry="2.9"/>
		<ellipse class="st1" cx="813.8" cy="592.2" rx="4.5" ry="2.9"/>
		<ellipse class="st1" cx="833.5" cy="601.3" rx="4.5" ry="2.9"/>
	</g>
	<g>
		<path class="st0" d="M510,565.7c0-3-1.3-6.9-4.9-10.2c-3.5-3.3-13.4-9.3-21.8-11.3c-8.4-2.1-20,0.4-28.1,2.1
			c-8.1,1.8-15.6,4.3-20.2,9.3c-4.1,4.5-4.6,9.3-5.3,12.6s-3.7,8,2.1,14.9c5.8,6.9,10.9,9.2,25,12.2c14.1,3,25.7,2.9,32.9,0.1
			c7.2-2.8,12.8-7.9,18.4-15.1C513.8,573.1,510,568.7,510,565.7z"/>
		<path class="st1" d="M478.8,555.9c-1,1.5-3.7,2.1-6,1.4c-2.3-0.7-3.3-2.4-2.2-3.8c1-1.5,3.7-2.1,6-1.4
			C478.9,552.7,479.9,554.5,478.8,555.9z"/>
		<path class="st1" d="M498.3,565.9c-1,1.5-3.7,2.1-6,1.4s-3.3-2.4-2.2-3.8c1-1.5,3.7-2.1,6-1.4S499.4,564.4,498.3,565.9z"/>
		<path class="st1" d="M480.2,569.6c-1,1.5-3.7,2.1-6,1.4c-2.3-0.7-3.3-2.4-2.2-3.8c1-1.5,3.7-2.1,6-1.4S481.2,568.2,480.2,569.6z"
			/>
		<path class="st1" d="M451.1,573.1c-1,1.5-3.7,2.1-6,1.4s-3.3-2.4-2.2-3.8c1-1.5,3.7-2.1,6-1.4S452.1,571.7,451.1,573.1z"/>
		<path class="st1" d="M460.1,587.2c-1,1.5-3.7,2.1-6,1.4c-2.3-0.7-3.3-2.4-2.2-3.8c1-1.5,3.7-2.1,6-1.4
			C460.1,584,461.1,585.8,460.1,587.2z"/>
		<path class="st1" d="M483.6,589.7c-1,1.5-3.7,2.1-6,1.4c-2.3-0.7-3.3-2.4-2.2-3.8c1-1.5,3.7-2.1,6-1.4
			C483.6,586.5,484.6,588.2,483.6,589.7z"/>
		<path class="st1" d="M494.2,578.7c-1,1.5-3.7,2.1-6,1.4s-3.3-2.4-2.2-3.8s3.7-2.1,6-1.4S495.2,577.3,494.2,578.7z"/>
		<path class="st1" d="M454,561.9c-1,1.5-3.7,2.1-6,1.4s-3.3-2.4-2.2-3.8s3.7-2.1,6-1.4S455.1,560.5,454,561.9z"/>
		<path class="st1" d="M466.2,575.4c-1,1.5-3.7,2.1-6,1.4c-2.3-0.7-3.3-2.4-2.2-3.8c1-1.5,3.7-2.1,6-1.4
			C466.2,572.3,467.2,574,466.2,575.4z"/>
	</g>
	<g>
		<path class="st0" d="M737.9,295.7c0-3-1.3-6.9-4.9-10.2s-13.4-9.3-21.8-11.3c-8.4-2.1-20,0.4-28.1,2.1c-8.1,1.8-15.6,4.3-20.2,9.3
			c-4.1,4.5-4.6,9.3-5.3,12.6c-0.7,3.3-3.7,8,2.1,14.9c5.8,6.9,10.9,9.2,25,12.2s25.7,2.9,32.9,0.1c7.2-2.8,12.8-7.9,18.4-15.1
			S737.9,298.7,737.9,295.7z"/>
		<path class="st1" d="M706.8,285.9c-1,1.5-3.7,2.1-6,1.4c-2.3-0.7-3.3-2.4-2.2-3.8c1-1.5,3.7-2.1,6-1.4
			C706.8,282.7,707.8,284.4,706.8,285.9z"/>
		<path class="st1" d="M726.3,295.9c-1,1.5-3.7,2.1-6,1.4s-3.3-2.4-2.2-3.8c1-1.5,3.7-2.1,6-1.4
			C726.3,292.7,727.3,294.4,726.3,295.9z"/>
		<path class="st1" d="M708.1,299.6c-1,1.5-3.7,2.1-6,1.4c-2.3-0.7-3.3-2.4-2.2-3.8c1-1.5,3.7-2.1,6-1.4
			C708.1,296.4,709.1,298.2,708.1,299.6z"/>
		<path class="st1" d="M679,303.1c-1,1.5-3.7,2.1-6,1.4c-2.3-0.7-3.3-2.4-2.2-3.8c1-1.5,3.7-2.1,6-1.4S680,301.6,679,303.1z"/>
		<path class="st1" d="M688,317.2c-1,1.5-3.7,2.1-6,1.4c-2.3-0.7-3.3-2.4-2.2-3.8c1-1.5,3.7-2.1,6-1.4C688,314,689,315.7,688,317.2z
			"/>
		<path class="st1" d="M711.5,319.6c-1,1.5-3.7,2.1-6,1.4c-2.3-0.7-3.3-2.4-2.2-3.8c1-1.5,3.7-2.1,6-1.4
			C711.6,316.5,712.6,318.2,711.5,319.6z"/>
		<path class="st1" d="M722.1,308.7c-1,1.5-3.7,2.1-6,1.4c-2.3-0.7-3.3-2.4-2.2-3.8c1-1.5,3.7-2.1,6-1.4
			C722.1,305.5,723.1,307.3,722.1,308.7z"/>
		<path class="st1" d="M682,291.9c-1,1.5-3.7,2.1-6,1.4c-2.3-0.7-3.3-2.4-2.2-3.8s3.7-2.1,6-1.4C682,288.7,683,290.5,682,291.9z"/>
		<path class="st1" d="M694.1,305.4c-1,1.5-3.7,2.1-6,1.4c-2.3-0.7-3.3-2.4-2.2-3.8c1-1.5,3.7-2.1,6-1.4
			C694.1,302.2,695.1,304,694.1,305.4z"/>
	</g>
	<g>
		<path class="st0" d="M445.9,665.2c0-3-1.3-6.9-4.9-10.2c-3.5-3.3-13.4-9.3-21.8-11.3c-8.4-2.1-20,0.4-28.1,2.1
			c-8.1,1.8-15.6,4.3-20.2,9.3c-4.1,4.5-4.6,9.3-5.3,12.6s-3.7,8,2.1,14.9c5.8,6.9,10.9,9.2,25,12.2c14.1,3,25.7,2.9,32.9,0.1
			c7.2-2.8,12.8-7.9,18.4-15.1C449.6,672.6,445.9,668.2,445.9,665.2z"/>
		<path class="st1" d="M414.7,655.4c-1,1.5-3.7,2.1-6,1.4c-2.3-0.7-3.3-2.4-2.2-3.8c1-1.5,3.7-2.1,6-1.4
			C414.7,652.3,415.7,654,414.7,655.4z"/>
		<path class="st1" d="M434.2,665.4c-1,1.5-3.7,2.1-6,1.4s-3.3-2.4-2.2-3.8c1-1.5,3.7-2.1,6-1.4S435.2,664,434.2,665.4z"/>
		<path class="st1" d="M416,669.2c-1,1.5-3.7,2.1-6,1.4s-3.3-2.4-2.2-3.8c1-1.5,3.7-2.1,6-1.4S417.1,667.7,416,669.2z"/>
		<path class="st1" d="M386.9,672.6c-1,1.5-3.7,2.1-6,1.4s-3.3-2.4-2.2-3.8c1-1.5,3.7-2.1,6-1.4C387,669.5,388,671.2,386.9,672.6z"
			/>
		<path class="st1" d="M395.9,686.7c-1,1.5-3.7,2.1-6,1.4c-2.3-0.7-3.3-2.4-2.2-3.8c1-1.5,3.7-2.1,6-1.4S396.9,685.3,395.9,686.7z"
			/>
		<path class="st1" d="M419.5,689.2c-1,1.5-3.7,2.1-6,1.4c-2.3-0.7-3.3-2.4-2.2-3.8c1-1.5,3.7-2.1,6-1.4
			C419.5,686,420.5,687.7,419.5,689.2z"/>
		<path class="st1" d="M430,678.3c-1,1.5-3.7,2.1-6,1.4s-3.3-2.4-2.2-3.8s3.7-2.1,6-1.4S431.1,676.8,430,678.3z"/>
		<path class="st1" d="M389.9,661.5c-1,1.5-3.7,2.1-6,1.4s-3.3-2.4-2.2-3.8s3.7-2.1,6-1.4S390.9,660,389.9,661.5z"/>
		<path class="st1" d="M402,675c-1,1.5-3.7,2.1-6,1.4c-2.3-0.7-3.3-2.4-2.2-3.8c1-1.5,3.7-2.1,6-1.4
			C402.1,671.8,403.1,673.5,402,675z"/>
	</g>
	<g>
		<path class="st0" d="M375.7,533.4c0-3-1.3-6.9-4.9-10.2s-13.4-9.3-21.8-11.3s-20,0.4-28.1,2.1c-8.1,1.8-15.6,4.3-20.2,9.3
			c-4.1,4.5-4.6,9.3-5.3,12.6s-3.7,8,2.1,14.9c5.8,6.9,10.9,9.2,25,12.2c14.1,3,25.7,2.9,32.9,0.1c7.2-2.8,12.8-7.9,18.4-15.1
			S375.7,536.4,375.7,533.4z"/>
		<path class="st1" d="M344.6,523.6c-1,1.5-3.7,2.1-6,1.4c-2.3-0.7-3.3-2.4-2.2-3.8c1-1.5,3.7-2.1,6-1.4
			C344.6,520.4,345.6,522.1,344.6,523.6z"/>
		<path class="st1" d="M364.1,533.6c-1,1.5-3.7,2.1-6,1.4c-2.3-0.7-3.3-2.4-2.2-3.8c1-1.5,3.7-2.1,6-1.4S365.1,532.1,364.1,533.6z"
			/>
		<path class="st1" d="M345.9,537.3c-1,1.5-3.7,2.1-6,1.4c-2.3-0.7-3.3-2.4-2.2-3.8c1-1.5,3.7-2.1,6-1.4
			C346,534.1,347,535.9,345.9,537.3z"/>
		<path class="st1" d="M316.8,540.8c-1,1.5-3.7,2.1-6,1.4c-2.3-0.7-3.3-2.4-2.2-3.8c1-1.5,3.7-2.1,6-1.4
			C316.9,537.6,317.9,539.3,316.8,540.8z"/>
		<path class="st1" d="M325.8,554.9c-1,1.5-3.7,2.1-6,1.4c-2.3-0.7-3.3-2.4-2.2-3.8c1-1.5,3.7-2.1,6-1.4
			C325.8,551.7,326.8,553.4,325.8,554.9z"/>
		<path class="st1" d="M349.4,557.3c-1,1.5-3.7,2.1-6,1.4c-2.3-0.7-3.3-2.4-2.2-3.8c1-1.5,3.7-2.1,6-1.4
			C349.4,554.2,350.4,555.9,349.4,557.3z"/>
		<path class="st1" d="M359.9,546.4c-1,1.5-3.7,2.1-6,1.4c-2.3-0.7-3.3-2.4-2.2-3.8s3.7-2.1,6-1.4C360,543.2,361,545,359.9,546.4z"
			/>
		<path class="st1" d="M319.8,529.6c-1,1.5-3.7,2.1-6,1.4c-2.3-0.7-3.3-2.4-2.2-3.8c1-1.5,3.7-2.1,6-1.4
			C319.8,526.4,320.8,528.2,319.8,529.6z"/>
		<path class="st1" d="M331.9,543.1c-1,1.5-3.7,2.1-6,1.4s-3.3-2.4-2.2-3.8c1-1.5,3.7-2.1,6-1.4C332,539.9,333,541.7,331.9,543.1z"
			/>
	</g>
	<g>
		<path class="st0" d="M785.9,447.6c0-3-1.3-6.9-4.9-10.2s-13.4-9.3-21.8-11.3s-20,0.4-28.1,2.1c-8.1,1.8-15.6,4.3-20.2,9.3
			c-4.1,4.5-4.6,9.3-5.3,12.6s-3.7,8,2.1,14.9c5.8,6.9,10.9,9.2,25,12.2c14.1,3,25.7,2.9,32.9,0.1c7.2-2.8,12.8-7.9,18.4-15.1
			C789.7,455,785.9,450.6,785.9,447.6z"/>
		<path class="st1" d="M754.8,437.8c-1,1.5-3.7,2.1-6,1.4c-2.3-0.7-3.3-2.4-2.2-3.8c1-1.5,3.7-2.1,6-1.4
			C754.8,434.6,755.8,436.4,754.8,437.8z"/>
		<path class="st1" d="M774.3,447.8c-1,1.5-3.7,2.1-6,1.4c-2.3-0.7-3.3-2.4-2.2-3.8c1-1.5,3.7-2.1,6-1.4
			C774.3,444.6,775.3,446.4,774.3,447.8z"/>
		<path class="st1" d="M756.1,451.5c-1,1.5-3.7,2.1-6,1.4s-3.3-2.4-2.2-3.8c1-1.5,3.7-2.1,6-1.4S757.1,450.1,756.1,451.5z"/>
		<path class="st1" d="M727,455c-1,1.5-3.7,2.1-6,1.4c-2.3-0.7-3.3-2.4-2.2-3.8c1-1.5,3.7-2.1,6-1.4C727,451.8,728,453.6,727,455z"
			/>
		<path class="st1" d="M736,469.1c-1,1.5-3.7,2.1-6,1.4c-2.3-0.7-3.3-2.4-2.2-3.8c1-1.5,3.7-2.1,6-1.4S737,467.7,736,469.1z"/>
		<path class="st1" d="M759.5,471.6c-1,1.5-3.7,2.1-6,1.4c-2.3-0.7-3.3-2.4-2.2-3.8c1-1.5,3.7-2.1,6-1.4
			C759.6,468.4,760.6,470.1,759.5,471.6z"/>
		<path class="st1" d="M770.1,460.6c-1,1.5-3.7,2.1-6,1.4c-2.3-0.7-3.3-2.4-2.2-3.8c1-1.5,3.7-2.1,6-1.4
			C770.1,457.5,771.1,459.2,770.1,460.6z"/>
		<path class="st1" d="M730,443.8c-1,1.5-3.7,2.1-6,1.4c-2.3-0.7-3.3-2.4-2.2-3.8c1-1.5,3.7-2.1,6-1.4
			C730,440.7,731,442.4,730,443.8z"/>
		<path class="st1" d="M742.1,457.3c-1,1.5-3.7,2.1-6,1.4c-2.3-0.7-3.3-2.4-2.2-3.8c1-1.5,3.7-2.1,6-1.4
			C742.1,454.2,743.1,455.9,742.1,457.3z"/>
	</g>
	<g>
		<path class="st0" d="M466.8,473.4c-1.9-2.7-5.6-5.9-11-8c-5.4-2.1-18.2-4.9-27.1-4.5c-9,0.4-17.9,5.7-24.2,9.5s-11.4,8-12.4,13.9
			c-0.9,5.2,1.8,9.7,3.4,12.9c1.5,3.2,1.8,8.2,11.5,12.9c9.8,4.7,15.9,5.4,30.6,4.4c14.8-1,25.3-4.2,30-8.8c4.7-4.5,6.6-10.7,7-18.6
			C475,479.1,468.8,476.1,466.8,473.4z"/>
		<ellipse class="st1" cx="427.7" cy="472.8" rx="4.5" ry="2.9"/>
		<ellipse class="st1" cx="451.9" cy="476.7" rx="4.5" ry="2.9"/>
		<ellipse class="st1" cx="437.8" cy="485" rx="4.5" ry="2.9"/>
		<ellipse class="st1" cx="413.5" cy="495.9" rx="4.5" ry="2.9"/>
		<ellipse class="st1" cx="430.8" cy="506.3" rx="4.5" ry="2.9"/>
		<ellipse class="st1" cx="453.8" cy="502.3" rx="4.5" ry="2.9"/>
		<ellipse class="st1" cx="456.4" cy="489.5" rx="4.5" ry="2.9"/>
		<ellipse class="st1" cx="409" cy="485" rx="4.5" ry="2.9"/>
		<ellipse class="st1" cx="428.8" cy="494" rx="4.5" ry="2.9"/>
	</g>
	<g>
		<path class="st0" d="M701.8,665c-1.9-2.7-5.6-5.9-11-8c-5.4-2.1-18.2-4.9-27.1-4.5s-17.9,5.7-24.2,9.5c-6.2,3.8-11.4,8-12.4,13.9
			c-0.9,5.2,1.8,9.7,3.4,12.9c1.5,3.2,1.8,8.2,11.5,12.9c9.8,4.7,15.9,5.4,30.6,4.4c14.8-1,25.3-4.2,30-8.8c4.7-4.5,6.6-10.7,7-18.6
			S703.7,667.7,701.8,665z"/>
		<ellipse class="st1" cx="662.6" cy="664.5" rx="4.5" ry="2.9"/>
		<ellipse class="st1" cx="686.8" cy="668.3" rx="4.5" ry="2.9"/>
		<ellipse class="st1" cx="672.7" cy="676.6" rx="4.5" ry="2.9"/>
		<ellipse class="st1" cx="648.5" cy="687.5" rx="4.5" ry="2.9"/>
		<ellipse class="st1" cx="665.7" cy="698" rx="4.5" ry="2.9"/>
		<ellipse class="st1" cx="688.7" cy="693.9" rx="4.5" ry="2.9"/>
		<ellipse class="st1" cx="691.3" cy="681.1" rx="4.5" ry="2.9"/>
		<ellipse class="st1" cx="644" cy="676.6" rx="4.5" ry="2.9"/>
		<ellipse class="st1" cx="663.7" cy="685.6" rx="4.5" ry="2.9"/>
	</g>
	<g>
		<path class="st0" d="M242.8,330.2c-1.9-2.7-5.6-5.9-11-8s-18.2-4.9-27.1-4.5c-9,0.4-17.9,5.7-24.2,9.5s-11.4,8-12.4,13.9
			c-0.9,5.2,1.8,9.7,3.4,12.9c1.5,3.2,1.8,8.2,11.5,12.9c9.8,4.7,15.9,5.4,30.6,4.4c14.8-1,25.3-4.2,30-8.8c4.7-4.5,6.6-10.7,7-18.6
			C251,335.9,244.7,332.9,242.8,330.2z"/>
		<ellipse class="st1" cx="203.6" cy="329.6" rx="4.5" ry="2.9"/>
		<ellipse class="st1" cx="227.8" cy="333.5" rx="4.5" ry="2.9"/>
		<ellipse class="st1" cx="213.7" cy="341.7" rx="4.5" ry="2.9"/>
		<ellipse class="st1" cx="189.5" cy="352.7" rx="4.5" ry="2.9"/>
		<ellipse class="st1" cx="206.7" cy="363.1" rx="4.5" ry="2.9"/>
		<ellipse class="st1" cx="229.7" cy="359" rx="4.5" ry="2.9"/>
		<ellipse class="st1" cx="232.3" cy="346.2" rx="4.5" ry="2.9"/>
		<ellipse class="st1" cx="185" cy="341.7" rx="4.5" ry="2.9"/>
		<ellipse class="st1" cx="204.7" cy="350.8" rx="4.5" ry="2.9"/>
	</g>
	<g>
		<path class="st0" d="M307.9,417.9c-1.9-2.7-5.6-5.9-11-8s-18.2-4.9-27.1-4.5c-9,0.4-17.9,5.7-24.2,9.5c-6.2,3.8-11.4,8-12.4,13.9
			c-0.9,5.2,1.8,9.7,3.4,12.9s1.8,8.2,11.5,12.9c9.8,4.7,15.9,5.4,30.6,4.4c14.8-1,25.3-4.2,30-8.8c4.7-4.5,6.6-10.7,7-18.6
			C316.1,423.7,309.9,420.7,307.9,417.9z"/>
		<ellipse class="st1" cx="268.8" cy="417.4" rx="4.5" ry="2.9"/>
		<ellipse class="st1" cx="293" cy="421.3" rx="4.5" ry="2.9"/>
		<ellipse class="st1" cx="278.9" cy="429.5" rx="4.5" ry="2.9"/>
		<ellipse class="st1" cx="254.6" cy="440.5" rx="4.5" ry="2.9"/>
		<ellipse class="st1" cx="271.9" cy="450.9" rx="4.5" ry="2.9"/>
		<ellipse class="st1" cx="294.9" cy="446.8" rx="4.5" ry="2.9"/>
		<ellipse class="st1" cx="297.5" cy="434" rx="4.5" ry="2.9"/>
		<ellipse class="st1" cx="250.1" cy="429.5" rx="4.5" ry="2.9"/>
		<ellipse class="st1" cx="269.9" cy="438.6" rx="4.5" ry="2.9"/>
	</g>
	<g>
		<path class="st0" d="M365.9,114.3c-1.9-2.7-5.6-5.9-11-8c-5.4-2.1-18.2-4.9-27.1-4.5c-9,0.4-17.9,5.7-24.2,9.5
			c-6.2,3.8-11.4,8-12.4,13.9c-0.9,5.2,1.8,9.7,3.4,12.9c1.5,3.2,1.8,8.2,11.5,12.9c9.8,4.7,15.9,5.4,30.6,4.4
			c14.8-1,25.3-4.2,30-8.8c4.7-4.5,6.6-10.7,7-18.6C374.1,120,367.8,117,365.9,114.3z"/>
		<ellipse class="st1" cx="326.8" cy="113.8" rx="4.5" ry="2.9"/>
		<ellipse class="st1" cx="350.9" cy="117.6" rx="4.5" ry="2.9"/>
		<ellipse class="st1" cx="336.8" cy="125.9" rx="4.5" ry="2.9"/>
		<ellipse class="st1" cx="312.6" cy="136.8" rx="4.5" ry="2.9"/>
		<ellipse class="st1" cx="329.9" cy="147.3" rx="4.5" ry="2.9"/>
		<ellipse class="st1" cx="352.9" cy="143.2" rx="4.5" ry="2.9"/>
		<ellipse class="st1" cx="355.4" cy="130.4" rx="4.5" ry="2.9"/>
		<ellipse class="st1" cx="308.1" cy="125.9" rx="4.5" ry="2.9"/>
		<ellipse class="st1" cx="327.8" cy="134.9" rx="4.5" ry="2.9"/>
	</g>
	<g>
		<path class="st0" d="M129.3,380.8c-1-2.9-3.5-6.6-8-9.4c-4.5-2.8-16.1-7.3-25-8.2s-19.4,3-26.8,5.8c-7.4,2.8-13.9,6.2-16.8,11.8
			c-2.6,4.9-1.5,9.7-1.1,13c0.4,3.4-1.1,8.3,6.9,14.3c7.9,6,13.6,7.5,28.4,8.6s26.1-0.6,32.2-4.3c6.1-3.7,10-9.5,13.2-17.2
			S130.3,383.7,129.3,380.8z"/>
		<path class="st1" d="M95.7,375.4c-0.5,1.6-2.9,2.5-5.4,2.2c-2.4-0.4-3.9-1.9-3.4-3.5s2.9-2.5,5.4-2.2
			C94.8,372.2,96.3,373.8,95.7,375.4z"/>
		<path class="st1" d="M118,382.5c-0.5,1.6-2.9,2.5-5.4,2.2c-2.4-0.4-3.9-1.9-3.4-3.5s2.9-2.5,5.4-2.2
			C117,379.4,118.6,381,118,382.5z"/>
		<path class="st1" d="M101.4,388.6c-0.5,1.6-2.9,2.5-5.4,2.2c-2.4-0.4-3.9-1.9-3.4-3.5s2.9-2.5,5.4-2.2S102,387.1,101.4,388.6z"/>
		<path class="st1" d="M74.1,395.9c-0.5,1.6-2.9,2.5-5.4,2.2c-2.4-0.4-3.9-1.9-3.4-3.5s2.9-2.5,5.4-2.2S74.6,394.3,74.1,395.9z"/>
		<path class="st1" d="M87.4,408.5c-0.5,1.6-2.9,2.5-5.4,2.2c-2.4-0.4-3.9-1.9-3.4-3.5c0.5-1.6,2.9-2.5,5.4-2.2
			C86.4,405.4,87.9,406.9,87.4,408.5z"/>
		<path class="st1" d="M111.2,407.7c-0.5,1.6-2.9,2.5-5.4,2.2c-2.4-0.4-3.9-1.9-3.4-3.5c0.5-1.6,2.9-2.5,5.4-2.2
			C110.2,404.6,111.7,406.2,111.2,407.7z"/>
		<path class="st1" d="M118.1,395.6c-0.5,1.6-2.9,2.5-5.4,2.2c-2.4-0.4-3.9-1.9-3.4-3.5s2.9-2.5,5.4-2.2
			C117.1,392.5,118.6,394.1,118.1,395.6z"/>
		<path class="st1" d="M73.4,384.6c-0.5,1.6-2.9,2.5-5.4,2.2c-2.4-0.4-3.9-1.9-3.4-3.5c0.5-1.6,2.9-2.5,5.4-2.2
			C72.4,381.4,73.9,383,73.4,384.6z"/>
		<path class="st1" d="M89.6,396.2c-0.5,1.6-2.9,2.5-5.4,2.2c-2.4-0.4-3.9-1.9-3.4-3.5c0.5-1.6,2.9-2.5,5.4-2.2
			S90.1,394.6,89.6,396.2z"/>
	</g>
	<g>
		<path class="st0" d="M221.7,498.9c-0.9-2.9-3.3-6.6-7.7-9.5c-4.4-2.9-15.9-7.5-24.7-8.5s-19.5,2.8-27,5.5s-14,6.1-17.2,11.6
			c-2.8,4.9-1.8,9.7-1.5,13s-1.3,8.3,6.4,14.3c7.7,6.1,13.4,7.7,28.1,8.9s26.1-0.2,32.4-3.9c6.2-3.7,10.3-9.3,13.7-17
			C227.6,505.8,222.6,501.9,221.7,498.9z"/>
		<path class="st1" d="M188.3,493.1c-0.6,1.6-3,2.5-5.4,2.1c-2.4-0.4-3.9-2-3.3-3.5s3-2.5,5.4-2.1
			C187.4,490,188.9,491.5,188.3,493.1z"/>
		<path class="st1" d="M210.3,500.6c-0.6,1.6-3,2.5-5.4,2.1s-3.9-2-3.3-3.5s3-2.5,5.4-2.1C209.4,497.4,210.9,499,210.3,500.6z"/>
		<path class="st1" d="M193.6,506.4c-0.6,1.6-3,2.5-5.4,2.1c-2.4-0.4-3.9-2-3.3-3.5s3-2.5,5.4-2.1
			C192.7,503.3,194.2,504.9,193.6,506.4z"/>
		<path class="st1" d="M166,513.3c-0.6,1.6-3,2.5-5.4,2.1c-2.4-0.4-3.9-2-3.3-3.5c0.6-1.6,3-2.5,5.4-2.1
			C165.1,510.2,166.6,511.8,166,513.3z"/>
		<path class="st1" d="M178.9,526.1c-0.6,1.6-3,2.5-5.4,2.1c-2.4-0.4-3.9-2-3.3-3.5c0.6-1.6,3-2.5,5.4-2.1
			C178,523,179.5,524.5,178.9,526.1z"/>
		<path class="st1" d="M202.7,525.7c-0.6,1.6-3,2.5-5.4,2.1c-2.4-0.4-3.9-2-3.3-3.5c0.6-1.6,3-2.5,5.4-2.1
			C201.9,522.5,203.3,524.1,202.7,525.7z"/>
		<path class="st1" d="M210,513.7c-0.6,1.6-3,2.5-5.4,2.1c-2.4-0.4-3.9-2-3.3-3.5c0.6-1.6,3-2.5,5.4-2.1S210.6,512.1,210,513.7z"/>
		<path class="st1" d="M165.7,502c-0.6,1.6-3,2.5-5.4,2.1c-2.4-0.4-3.9-2-3.3-3.5c0.6-1.6,3-2.5,5.4-2.1
			C164.8,498.9,166.3,500.4,165.7,502z"/>
		<path class="st1" d="M181.5,513.8c-0.6,1.6-3,2.5-5.4,2.1c-2.4-0.4-3.9-2-3.3-3.5c0.6-1.6,3-2.5,5.4-2.1
			C180.6,510.7,182.1,512.2,181.5,513.8z"/>
	</g>
	<g>
		<path class="st0" d="M333.3,618c-1.9-2.7-5.6-5.9-11-8c-5.4-2.1-18.2-4.9-27.1-4.5c-9,0.4-17.9,5.7-24.2,9.5
			c-6.2,3.8-11.4,8-12.4,13.9c-0.9,5.2,1.8,9.7,3.4,12.9c1.5,3.2,1.8,8.2,11.5,12.9c9.8,4.7,15.9,5.4,30.6,4.4
			c14.8-1,25.3-4.2,30-8.8c4.7-4.5,6.6-10.7,7-18.6C341.5,623.7,335.2,620.7,333.3,618z"/>
		<ellipse class="st1" cx="294.1" cy="617.5" rx="4.5" ry="2.9"/>
		<ellipse class="st1" cx="318.3" cy="621.3" rx="4.5" ry="2.9"/>
		<ellipse class="st1" cx="304.2" cy="629.6" rx="4.5" ry="2.9"/>
		<ellipse class="st1" cx="280" cy="640.6" rx="4.5" ry="2.9"/>
		<ellipse class="st1" cx="297.2" cy="651" rx="4.5" ry="2.9"/>
		<ellipse class="st1" cx="320.2" cy="646.9" rx="4.5" ry="2.9"/>
		<ellipse class="st1" cx="322.8" cy="634.1" rx="4.5" ry="2.9"/>
		<ellipse class="st1" cx="275.5" cy="629.6" rx="4.5" ry="2.9"/>
		<ellipse class="st1" cx="295.2" cy="638.6" rx="4.5" ry="2.9"/>
	</g>
	<g>
		<path class="st0" d="M510.8,705.1c4,1.5,9.9,2.8,16.1,2.5c6.3-0.3,19.2-2.7,26.3-6.3c7-3.6,9.7-11.3,11.5-16.7
			c1.8-5.4,2.3-10.8-2.1-15.9c-3.8-4.6-10-7.3-14.1-9.3c-4.1-2.1-8.7-6.1-20.9-6.4c-12.2-0.3-17.8,1.4-29,7.7
			c-11.2,6.3-17,12.8-16.9,18.2c0.1,5.4,4,11.2,10.7,17.9C499,703.4,506.8,703.6,510.8,705.1z"/>
		<path class="st1" d="M539.7,692.8c-1.4-1.3-0.9-3.1,1.1-4c2-0.9,4.8-0.6,6.3,0.7c1.4,1.3,0.9,3.1-1.1,4
			C544,694.5,541.2,694.2,539.7,692.8z"/>
		<path class="st1" d="M516.5,698.5c-1.4-1.3-0.9-3.1,1.1-4c2-0.9,4.8-0.6,6.3,0.7c1.4,1.3,0.9,3.1-1.1,4
			C520.7,700.2,517.9,699.9,516.5,698.5z"/>
		<path class="st1" d="M520.8,686.6c-1.4-1.3-0.9-3.1,1.1-4c2-0.9,4.8-0.6,6.3,0.7c1.4,1.3,0.9,3.1-1.1,4
			C525,688.2,522.2,687.9,520.8,686.6z"/>
		<path class="st1" d="M531,668.7c-1.4-1.3-0.9-3.1,1.1-4c2-0.9,4.8-0.6,6.3,0.7c1.4,1.3,0.9,3.1-1.1,4
			C535.2,670.3,532.4,670,531,668.7z"/>
		<path class="st1" d="M507.6,666.4c-1.4-1.3-0.9-3.1,1.1-4c2-0.9,4.8-0.6,6.3,0.7c1.4,1.3,0.9,3.1-1.1,4
			C511.8,668.1,509,667.7,507.6,666.4z"/>
		<path class="st1" d="M492.3,678.2c-1.4-1.3-0.9-3.1,1.1-4c2-0.9,4.8-0.6,6.3,0.7c1.4,1.3,0.9,3.1-1.1,4
			C496.5,679.9,493.7,679.6,492.3,678.2z"/>
		<path class="st1" d="M501.5,689.7c-1.4-1.3-0.9-3.1,1.1-4c2-0.9,4.8-0.6,6.3,0.7c1.4,1.3,0.9,3.1-1.1,4
			C505.7,691.3,502.9,691,501.5,689.7z"/>
		<path class="st1" d="M544.4,676c-1.4-1.3-0.9-3.1,1.1-4s4.8-0.6,6.3,0.7c1.4,1.3,0.9,3.1-1.1,4S545.8,677.3,544.4,676z"/>
		<path class="st1" d="M520.2,675.8c-1.4-1.3-0.9-3.1,1.1-4c2-0.9,4.8-0.6,6.3,0.7c1.4,1.3,0.9,3.1-1.1,4
			C524.4,677.5,521.6,677.2,520.2,675.8z"/>
	</g>
	<g>
		<path class="st0" d="M568.7,630.3c4,1.5,9.9,2.8,16.1,2.5c6.3-0.3,19.2-2.7,26.3-6.3s9.7-11.3,11.5-16.7s2.3-10.8-2.1-15.9
			c-3.8-4.6-10-7.3-14.1-9.3c-4.1-2.1-8.7-6.1-20.9-6.4c-12.2-0.3-17.8,1.4-29,7.7c-11.2,6.3-17,12.8-16.9,18.2
			c0.1,5.4,4,11.2,10.7,17.9C556.9,628.7,564.7,628.8,568.7,630.3z"/>
		<path class="st1" d="M597.6,618.1c-1.4-1.3-0.9-3.1,1.1-4c2-0.9,4.8-0.6,6.3,0.7c1.4,1.3,0.9,3.1-1.1,4S599.1,619.4,597.6,618.1z"
			/>
		<path class="st1" d="M574.4,623.8c-1.4-1.3-0.9-3.1,1.1-4s4.8-0.6,6.3,0.7c1.4,1.3,0.9,3.1-1.1,4
			C578.6,625.4,575.8,625.1,574.4,623.8z"/>
		<path class="st1" d="M578.6,611.8c-1.4-1.3-0.9-3.1,1.1-4c2-0.9,4.8-0.6,6.3,0.7s0.9,3.1-1.1,4
			C582.9,613.4,580.1,613.1,578.6,611.8z"/>
		<path class="st1" d="M588.9,593.9c-1.4-1.3-0.9-3.1,1.1-4c2-0.9,4.8-0.6,6.3,0.7c1.4,1.3,0.9,3.1-1.1,4
			C593.1,595.5,590.3,595.2,588.9,593.9z"/>
		<path class="st1" d="M565.5,591.7c-1.4-1.3-0.9-3.1,1.1-4c2-0.9,4.8-0.6,6.3,0.7c1.4,1.3,0.9,3.1-1.1,4
			C569.7,593.3,566.9,593,565.5,591.7z"/>
		<path class="st1" d="M550.2,603.5c-1.4-1.3-0.9-3.1,1.1-4c2-0.9,4.8-0.6,6.3,0.7c1.4,1.3,0.9,3.1-1.1,4
			C554.4,605.1,551.6,604.8,550.2,603.5z"/>
		<path class="st1" d="M559.4,614.9c-1.4-1.3-0.9-3.1,1.1-4s4.8-0.6,6.3,0.7c1.4,1.3,0.9,3.1-1.1,4
			C563.6,616.6,560.8,616.2,559.4,614.9z"/>
		<path class="st1" d="M602.3,601.2c-1.4-1.3-0.9-3.1,1.1-4c2-0.9,4.8-0.6,6.3,0.7c1.4,1.3,0.9,3.1-1.1,4
			C606.5,602.9,603.7,602.6,602.3,601.2z"/>
		<path class="st1" d="M578.1,601.1c-1.4-1.3-0.9-3.1,1.1-4c2-0.9,4.8-0.6,6.3,0.7c1.4,1.3,0.9,3.1-1.1,4
			C582.3,602.7,579.5,602.4,578.1,601.1z"/>
	</g>
	<g>
		<path class="st0" d="M742.8,606.8c-4.6,0-10.7,0.9-15.9,3.1c-5.2,2.3-14.4,8.6-17.6,14.1s0.5,12.9,3.3,18.1
			c2.7,5.2,6.6,10,14.4,13c6.9,2.7,14.4,3,19.5,3.4c5.2,0.4,12.3,2.4,23.1-1.4c10.7-3.8,14.2-7,18.9-16.1c4.7-9.1,4.6-16.6,0.1-21.2
			c-4.4-4.6-12.3-8.3-23.3-11.9C754.3,604.4,747.4,606.8,742.8,606.8z"/>
		<path class="st1" d="M727.6,626.9c2.3,0.7,3.3,2.4,2.2,3.8c-1,1.5-3.7,2.1-6,1.4c-2.3-0.7-3.3-2.4-2.2-3.8
			C722.7,626.8,725.3,626.2,727.6,626.9z"/>
		<path class="st1" d="M743.1,614.3c2.3,0.7,3.3,2.4,2.2,3.8c-1,1.5-3.7,2.1-6,1.4c-2.3-0.7-3.3-2.4-2.2-3.8
			C738.2,614.3,740.8,613.7,743.1,614.3z"/>
		<path class="st1" d="M748.9,626c2.3,0.7,3.3,2.4,2.2,3.8c-1,1.5-3.7,2.1-6,1.4c-2.3-0.7-3.3-2.4-2.2-3.8
			C744,626,746.6,625.4,748.9,626z"/>
		<path class="st1" d="M754.2,644.8c2.3,0.7,3.3,2.4,2.2,3.8c-1,1.5-3.7,2.1-6,1.4c-2.3-0.7-3.3-2.4-2.2-3.8
			C749.3,644.8,752,644.1,754.2,644.8z"/>
		<path class="st1" d="M776.1,639c2.3,0.7,3.3,2.4,2.2,3.8c-1,1.5-3.7,2.1-6,1.4c-2.3-0.7-3.3-2.4-2.2-3.8
			C771.2,639,773.9,638.4,776.1,639z"/>
		<path class="st1" d="M779.9,623.8c2.3,0.7,3.3,2.4,2.2,3.8c-1,1.5-3.7,2.1-6,1.4c-2.3-0.7-3.3-2.4-2.2-3.8
			C775,623.8,777.7,623.2,779.9,623.8z"/>
		<path class="st1" d="M763,617c2.3,0.7,3.3,2.4,2.2,3.8c-1,1.5-3.7,2.1-6,1.4c-2.3-0.7-3.3-2.4-2.2-3.8
			C758.1,617,760.7,616.3,763,617z"/>
		<path class="st1" d="M736.9,642.9c2.3,0.7,3.3,2.4,2.2,3.8c-1,1.5-3.7,2.1-6,1.4c-2.3-0.7-3.3-2.4-2.2-3.8
			C732,642.8,734.7,642.2,736.9,642.9z"/>
		<path class="st1" d="M757.9,635.1c2.3,0.7,3.3,2.4,2.2,3.8c-1,1.5-3.7,2.1-6,1.4c-2.3-0.7-3.3-2.4-2.2-3.8
			C752.9,635,755.6,634.4,757.9,635.1z"/>
	</g>
	<g>
		<path class="st0" d="M457,199.2c-4.6,0-10.7,0.9-15.9,3.1c-5.2,2.3-14.4,8.6-17.6,14.1c-3.2,5.4,0.5,12.9,3.3,18.1
			c2.7,5.2,6.6,10,14.4,13c6.9,2.7,14.4,3,19.5,3.4c5.2,0.4,12.3,2.4,23.1-1.4c10.7-3.8,14.2-7,18.9-16.1c4.7-9.1,4.6-16.6,0.1-21.2
			c-4.4-4.6-12.3-8.3-23.3-11.9C468.4,196.8,461.6,199.2,457,199.2z"/>
		<path class="st1" d="M441.8,219.3c2.3,0.7,3.3,2.4,2.2,3.8c-1,1.5-3.7,2.1-6,1.4c-2.3-0.7-3.3-2.4-2.2-3.8
			C436.8,219.3,439.5,218.6,441.8,219.3z"/>
		<path class="st1" d="M457.3,206.8c2.3,0.7,3.3,2.4,2.2,3.8c-1,1.5-3.7,2.1-6,1.4s-3.3-2.4-2.2-3.8
			C452.4,206.7,455,206.1,457.3,206.8z"/>
		<path class="st1" d="M463.1,218.5c2.3,0.7,3.3,2.4,2.2,3.8c-1,1.5-3.7,2.1-6,1.4s-3.3-2.4-2.2-3.8
			C458.2,218.4,460.8,217.8,463.1,218.5z"/>
		<path class="st1" d="M468.4,237.2c2.3,0.7,3.3,2.4,2.2,3.8c-1,1.5-3.7,2.1-6,1.4s-3.3-2.4-2.2-3.8
			C463.5,237.2,466.2,236.6,468.4,237.2z"/>
		<path class="st1" d="M490.3,231.5c2.3,0.7,3.3,2.4,2.2,3.8s-3.7,2.1-6,1.4c-2.3-0.7-3.3-2.4-2.2-3.8
			C485.4,231.4,488.1,230.8,490.3,231.5z"/>
		<path class="st1" d="M494.1,216.3c2.3,0.7,3.3,2.4,2.2,3.8c-1,1.5-3.7,2.1-6,1.4c-2.3-0.7-3.3-2.4-2.2-3.8
			C489.2,216.2,491.9,215.6,494.1,216.3z"/>
		<path class="st1" d="M477.2,209.4c2.3,0.7,3.3,2.4,2.2,3.8s-3.7,2.1-6,1.4c-2.3-0.7-3.3-2.4-2.2-3.8
			C472.3,209.4,474.9,208.8,477.2,209.4z"/>
		<path class="st1" d="M451.1,235.3c2.3,0.7,3.3,2.4,2.2,3.8c-1,1.5-3.7,2.1-6,1.4c-2.3-0.7-3.3-2.4-2.2-3.8
			S448.9,234.6,451.1,235.3z"/>
		<path class="st1" d="M472.1,227.5c2.3,0.7,3.3,2.4,2.2,3.8s-3.7,2.1-6,1.4c-2.3-0.7-3.3-2.4-2.2-3.8
			C467.1,227.5,469.8,226.8,472.1,227.5z"/>
	</g>
	<g>
		<path class="st0" d="M962.7,548.2c-4.1-1.3-10.2-2.3-16.4-1.8c-6.2,0.6-18.9,3.6-25.5,7.5c-6.6,3.9-8.4,11.7-9.6,17.2
			c-1.2,5.5-1,10.9,3.9,15.8c4.3,4.4,10.8,6.8,15.1,8.7c4.3,1.9,9.4,5.7,21.6,5.4c12.2-0.3,17.6-2.2,28.1-9s15.6-13.5,14.8-19
			c-0.7-5.4-5.3-11-12.7-17.3C974.7,549.4,966.9,549.6,962.7,548.2z"/>
		<path class="st1" d="M935.3,561.8c1.6,1.2,1.3,3.1-0.7,4.1c-1.9,1-4.8,0.8-6.3-0.4c-1.6-1.2-1.3-3.1,0.7-4.1
			S933.7,560.6,935.3,561.8z"/>
		<path class="st1" d="M957.8,555.1c1.6,1.2,1.3,3.1-0.7,4.1c-1.9,1-4.8,0.8-6.3-0.4s-1.3-3.1,0.7-4.1
			C953.4,553.6,956.3,553.8,957.8,555.1z"/>
		<path class="st1" d="M954.9,567.2c1.6,1.2,1.3,3.1-0.7,4.1c-1.9,1-4.8,0.8-6.3-0.4c-1.6-1.2-1.3-3.1,0.7-4.1
			C950.5,565.8,953.3,565.9,954.9,567.2z"/>
		<path class="st1" d="M946.7,585.5c1.6,1.2,1.3,3.1-0.7,4.1c-1.9,1-4.8,0.8-6.3-0.4s-1.3-3.1,0.7-4.1
			C942.3,584.1,945.2,584.3,946.7,585.5z"/>
		<path class="st1" d="M970.3,586.7c1.6,1.2,1.3,3.1-0.7,4.1c-1.9,1-4.8,0.8-6.3-0.4s-1.3-3.1,0.7-4.1
			C965.9,585.2,968.7,585.4,970.3,586.7z"/>
		<path class="st1" d="M984.2,574.2c1.6,1.2,1.3,3.1-0.7,4.1s-4.8,0.8-6.3-0.4c-1.6-1.2-1.3-3.1,0.7-4.1
			C979.8,572.7,982.7,572.9,984.2,574.2z"/>
		<path class="st1" d="M973.8,563.2c1.6,1.2,1.3,3.1-0.7,4.1s-4.8,0.8-6.3-0.4c-1.6-1.2-1.3-3.1,0.7-4.1
			C969.4,561.7,972.2,561.9,973.8,563.2z"/>
		<path class="st1" d="M932.5,578.8c1.6,1.2,1.3,3.1-0.7,4.1c-1.9,1-4.8,0.8-6.3-0.4s-1.3-3.1,0.7-4.1S931,577.6,932.5,578.8z"/>
		<path class="st1" d="M956.7,577.9c1.6,1.2,1.3,3.1-0.7,4.1s-4.8,0.8-6.3-0.4s-1.3-3.1,0.7-4.1
			C952.3,576.4,955.1,576.6,956.7,577.9z"/>
	</g>
	<g>
		<path class="st0" d="M1066.1,369.5c-3.5-1.9-9-3.8-15.2-4.2c-6.2-0.4-19.7,0.6-27.5,3.4c-7.9,2.8-12.5,10-15.7,15.2
			s-5,10.4-2.1,15.9c2.6,4.9,8,8.2,11.5,10.7s7,7,19,8.6c11.9,1.6,17.9,0.6,30.6-4.4c12.7-5,20.1-10.7,21.4-16.1s-1.1-11.5-5.9-18.8
			C1077.3,372.4,1069.6,371.4,1066.1,369.5z"/>
		<path class="st1" d="M1034.3,378.5c1.1,1.5,0.1,3.2-2.2,3.9c-2.3,0.7-4.9,0.1-6-1.4s-0.1-3.2,2.2-3.9
			C1030.6,376.4,1033.3,377,1034.3,378.5z"/>
		<path class="st1" d="M1058.8,375.4c1.1,1.5,0.1,3.2-2.2,3.9s-4.9,0.1-6-1.4c-1.1-1.5-0.1-3.2,2.2-3.9S1057.7,373.9,1058.8,375.4z"
			/>
		<path class="st1" d="M1051.4,386.7c1.1,1.5,0.1,3.2-2.2,3.9s-4.9,0.1-6-1.4c-1.1-1.5-0.1-3.2,2.2-3.9S1050.4,385.3,1051.4,386.7z"
			/>
		<path class="st1" d="M1036.7,403.2c1.1,1.5,0.1,3.2-2.2,3.9c-2.3,0.7-4.9,0.1-6-1.4s-0.1-3.2,2.2-3.9
			C1032.9,401.2,1035.6,401.8,1036.7,403.2z"/>
		<path class="st1" d="M1059.1,408c1.1,1.5,0.1,3.2-2.2,3.9s-4.9,0.1-6-1.4s-0.1-3.2,2.2-3.9S1058.1,406.5,1059.1,408z"/>
		<path class="st1" d="M1077.3,398c1.1,1.5,0.1,3.2-2.2,3.9s-4.9,0.1-6-1.4s-0.1-3.2,2.2-3.9S1076.2,396.5,1077.3,398z"/>
		<path class="st1" d="M1071.2,385.7c1.1,1.5,0.1,3.2-2.2,3.9c-2.3,0.7-4.9,0.1-6-1.4s-0.1-3.2,2.2-3.9
			C1067.5,383.6,1070.2,384.3,1071.2,385.7z"/>
		<path class="st1" d="M1025.4,394.5c1.1,1.5,0.1,3.2-2.2,3.9c-2.3,0.7-4.9,0.1-6-1.4s-0.1-3.2,2.2-3.9
			C1021.7,392.5,1024.3,393.1,1025.4,394.5z"/>
		<path class="st1" d="M1049.2,397.3c1.1,1.5,0.1,3.2-2.2,3.9s-4.9,0.1-6-1.4c-1.1-1.5-0.1-3.2,2.2-3.9S1048.2,395.9,1049.2,397.3z"
			/>
	</g>
	<g>
		<path class="st0" d="M955.6,176.1c-1.9-2.7-5.6-5.9-11-8c-5.4-2.1-18.2-4.9-27.1-4.5c-9,0.4-17.9,5.7-24.2,9.5s-11.4,8-12.4,13.9
			c-0.9,5.2,1.8,9.7,3.4,12.9c1.5,3.2,1.8,8.2,11.5,12.9c9.8,4.7,15.9,5.4,30.6,4.4c14.8-1,25.3-4.2,30-8.8s6.6-10.7,7-18.6
			S957.5,178.9,955.6,176.1z"/>
		<ellipse class="st1" cx="916.4" cy="175.6" rx="4.5" ry="2.9"/>
		<ellipse class="st1" cx="940.6" cy="179.5" rx="4.5" ry="2.9"/>
		<ellipse class="st1" cx="926.5" cy="187.7" rx="4.5" ry="2.9"/>
		<ellipse class="st1" cx="902.3" cy="198.7" rx="4.5" ry="2.9"/>
		<ellipse class="st1" cx="919.5" cy="209.1" rx="4.5" ry="2.9"/>
		<ellipse class="st1" cx="942.5" cy="205" rx="4.5" ry="2.9"/>
		<ellipse class="st1" cx="945.1" cy="192.2" rx="4.5" ry="2.9"/>
		<ellipse class="st1" cx="897.8" cy="187.7" rx="4.5" ry="2.9"/>
		<ellipse class="st1" cx="917.5" cy="196.8" rx="4.5" ry="2.9"/>
	</g>
	<g>
		<path class="st0" d="M808.2,364.5c-1.9-2.7-5.6-5.9-11-8c-5.4-2.1-18.2-4.9-27.1-4.5c-9,0.4-17.9,5.7-24.2,9.5
			c-6.2,3.8-11.4,8-12.4,13.9c-0.9,5.2,1.8,9.7,3.4,12.9s1.8,8.2,11.5,12.9c9.8,4.7,15.9,5.4,30.6,4.4c14.8-1,25.3-4.2,30-8.8
			c4.7-4.5,6.6-10.7,7-18.6C816.4,370.2,810.2,367.2,808.2,364.5z"/>
		<ellipse class="st1" cx="769.1" cy="364" rx="4.5" ry="2.9"/>
		<ellipse class="st1" cx="793.3" cy="367.8" rx="4.5" ry="2.9"/>
		<ellipse class="st1" cx="779.2" cy="376.1" rx="4.5" ry="2.9"/>
		<ellipse class="st1" cx="754.9" cy="387.1" rx="4.5" ry="2.9"/>
		<ellipse class="st1" cx="772.2" cy="397.5" rx="4.5" ry="2.9"/>
		<ellipse class="st1" cx="795.2" cy="393.4" rx="4.5" ry="2.9"/>
		<ellipse class="st1" cx="797.8" cy="380.6" rx="4.5" ry="2.9"/>
		<ellipse class="st1" cx="750.4" cy="376.1" rx="4.5" ry="2.9"/>
		<ellipse class="st1" cx="770.2" cy="385.1" rx="4.5" ry="2.9"/>
	</g>
	<g>
		<path class="st0" d="M824.2,95.8c-1.9-2.7-5.6-5.9-11-8c-5.4-2.1-18.2-4.9-27.1-4.5c-9,0.4-17.9,5.7-24.2,9.5
			c-6.2,3.8-11.4,8-12.4,13.9c-0.9,5.2,1.8,9.7,3.4,12.9c1.5,3.2,1.8,8.2,11.5,12.9s15.9,5.4,30.6,4.4s25.3-4.2,30-8.8
			c4.7-4.5,6.6-10.7,7-18.6C832.4,101.5,826.1,98.5,824.2,95.8z"/>
		<ellipse class="st1" cx="785" cy="95.3" rx="4.5" ry="2.9"/>
		<ellipse class="st1" cx="809.2" cy="99.2" rx="4.5" ry="2.9"/>
		<ellipse class="st1" cx="795.1" cy="107.4" rx="4.5" ry="2.9"/>
		<ellipse class="st1" cx="770.9" cy="118.4" rx="4.5" ry="2.9"/>
		<ellipse class="st1" cx="788.1" cy="128.8" rx="4.5" ry="2.9"/>
		<ellipse class="st1" cx="811.1" cy="124.7" rx="4.5" ry="2.9"/>
		<ellipse class="st1" cx="813.7" cy="111.9" rx="4.5" ry="2.9"/>
		<ellipse class="st1" cx="766.4" cy="107.4" rx="4.5" ry="2.9"/>
		<ellipse class="st1" cx="786.1" cy="116.4" rx="4.5" ry="2.9"/>
	</g>
	<g>
		<path class="st0" d="M796.9,212.6c-1.9-2.7-5.6-5.9-11-8c-5.4-2.1-18.2-4.9-27.1-4.5c-9,0.4-17.9,5.7-24.2,9.5
			c-6.2,3.8-11.4,8-12.4,13.9c-0.9,5.2,1.8,9.7,3.4,12.9c1.5,3.2,1.8,8.2,11.5,12.9s15.9,5.4,30.6,4.4c14.8-1,25.3-4.2,30-8.8
			c4.7-4.5,6.6-10.7,7-18.6C805.1,218.3,798.8,215.3,796.9,212.6z"/>
		<ellipse class="st1" cx="757.8" cy="212" rx="4.5" ry="2.9"/>
		<ellipse class="st1" cx="781.9" cy="215.9" rx="4.5" ry="2.9"/>
		<ellipse class="st1" cx="767.8" cy="224.1" rx="4.5" ry="2.9"/>
		<ellipse class="st1" cx="743.6" cy="235.1" rx="4.5" ry="2.9"/>
		<ellipse class="st1" cx="760.9" cy="245.5" rx="4.5" ry="2.9"/>
		<ellipse class="st1" cx="783.9" cy="241.4" rx="4.5" ry="2.9"/>
		<ellipse class="st1" cx="786.4" cy="228.7" rx="4.5" ry="2.9"/>
		<ellipse class="st1" cx="739.1" cy="224.1" rx="4.5" ry="2.9"/>
		<ellipse class="st1" cx="758.8" cy="233.2" rx="4.5" ry="2.9"/>
	</g>
	<g>
		<path class="st0" d="M406,370.5c-1.9-2.7-5.6-5.9-11-8c-5.4-2.1-18.2-4.9-27.1-4.5s-17.9,5.7-24.2,9.5s-11.4,8-12.4,13.9
			c-0.9,5.2,1.8,9.7,3.4,12.9c1.5,3.2,1.8,8.2,11.5,12.9c9.8,4.7,15.9,5.4,30.6,4.4c14.8-1,25.3-4.2,30-8.8c4.7-4.5,6.6-10.7,7-18.6
			C414.2,376.3,407.9,373.3,406,370.5z"/>
		<ellipse class="st1" cx="366.9" cy="370" rx="4.5" ry="2.9"/>
		<ellipse class="st1" cx="391" cy="373.9" rx="4.5" ry="2.9"/>
		<ellipse class="st1" cx="376.9" cy="382.1" rx="4.5" ry="2.9"/>
		<ellipse class="st1" cx="352.7" cy="393.1" rx="4.5" ry="2.9"/>
		<ellipse class="st1" cx="370" cy="403.5" rx="4.5" ry="2.9"/>
		<ellipse class="st1" cx="393" cy="399.4" rx="4.5" ry="2.9"/>
		<ellipse class="st1" cx="395.5" cy="386.6" rx="4.5" ry="2.9"/>
		<ellipse class="st1" cx="348.2" cy="382.1" rx="4.5" ry="2.9"/>
		<ellipse class="st1" cx="367.9" cy="391.2" rx="4.5" ry="2.9"/>
	</g>
	<g>
		<path class="st0" d="M1024.7,475c-1.9-2.7-5.6-5.9-11-8c-5.4-2.1-18.2-4.9-27.1-4.5c-9,0.4-17.9,5.7-24.2,9.5s-11.4,8-12.4,13.9
			c-0.9,5.2,1.8,9.7,3.4,12.9c1.5,3.2,1.8,8.2,11.5,12.9c9.8,4.7,15.9,5.4,30.6,4.4c14.8-1,25.3-4.2,30-8.8c4.7-4.5,6.6-10.7,7-18.6
			C1032.9,480.7,1026.6,477.7,1024.7,475z"/>
		<ellipse class="st1" cx="985.5" cy="474.5" rx="4.5" ry="2.9"/>
		<ellipse class="st1" cx="1009.7" cy="478.3" rx="4.5" ry="2.9"/>
		<ellipse class="st1" cx="995.6" cy="486.6" rx="4.5" ry="2.9"/>
		<ellipse class="st1" cx="971.4" cy="497.5" rx="4.5" ry="2.9"/>
		<ellipse class="st1" cx="988.6" cy="508" rx="4.5" ry="2.9"/>
		<ellipse class="st1" cx="1011.6" cy="503.9" rx="4.5" ry="2.9"/>
		<ellipse class="st1" cx="1014.2" cy="491.1" rx="4.5" ry="2.9"/>
		<ellipse class="st1" cx="966.9" cy="486.6" rx="4.5" ry="2.9"/>
		<ellipse class="st1" cx="986.6" cy="495.6" rx="4.5" ry="2.9"/>
	</g>
	<g>
		<path class="st0" d="M599.2,57.7c-1.9-2.7-5.6-5.9-11-8c-5.4-2.1-18.2-4.9-27.1-4.5c-9,0.4-17.9,5.7-24.2,9.5s-11.4,8-12.4,13.9
			c-0.9,5.2,1.8,9.7,3.4,12.9c1.5,3.2,1.8,8.2,11.5,12.9c9.8,4.7,15.9,5.4,30.6,4.4c14.8-1,25.3-4.2,30-8.8c4.7-4.5,6.6-10.7,7-18.6
			S601.2,60.4,599.2,57.7z"/>
		<ellipse class="st1" cx="560.1" cy="57.1" rx="4.5" ry="2.9"/>
		<ellipse class="st1" cx="584.3" cy="61" rx="4.5" ry="2.9"/>
		<ellipse class="st1" cx="570.2" cy="69.3" rx="4.5" ry="2.9"/>
		<ellipse class="st1" cx="545.9" cy="80.2" rx="4.5" ry="2.9"/>
		<ellipse class="st1" cx="563.2" cy="90.6" rx="4.5" ry="2.9"/>
		<ellipse class="st1" cx="586.2" cy="86.6" rx="4.5" ry="2.9"/>
		<ellipse class="st1" cx="588.8" cy="73.8" rx="4.5" ry="2.9"/>
		<ellipse class="st1" cx="541.4" cy="69.3" rx="4.5" ry="2.9"/>
		<ellipse class="st1" cx="561.2" cy="78.3" rx="4.5" ry="2.9"/>
	</g>
	<g>
		<path class="st0" d="M375.4,205.4c-1.9-2.7-5.6-5.9-11-8c-5.4-2.1-18.2-4.9-27.1-4.5c-9,0.4-17.9,5.7-24.2,9.5s-11.4,8-12.4,13.9
			c-0.9,5.2,1.8,9.7,3.4,12.9c1.5,3.2,1.8,8.2,11.5,12.9c9.8,4.7,15.9,5.4,30.6,4.4c14.8-1,25.3-4.2,30-8.8c4.7-4.5,6.6-10.7,7-18.6
			C383.6,211.1,377.3,208.1,375.4,205.4z"/>
		<ellipse class="st1" cx="336.3" cy="204.9" rx="4.5" ry="2.9"/>
		<ellipse class="st1" cx="360.4" cy="208.7" rx="4.5" ry="2.9"/>
		<ellipse class="st1" cx="346.3" cy="217" rx="4.5" ry="2.9"/>
		<ellipse class="st1" cx="322.1" cy="228" rx="4.5" ry="2.9"/>
		<ellipse class="st1" cx="339.4" cy="238.4" rx="4.5" ry="2.9"/>
		<ellipse class="st1" cx="362.4" cy="234.3" rx="4.5" ry="2.9"/>
		<ellipse class="st1" cx="364.9" cy="221.5" rx="4.5" ry="2.9"/>
		<ellipse class="st1" cx="317.6" cy="217" rx="4.5" ry="2.9"/>
		<ellipse class="st1" cx="337.3" cy="226" rx="4.5" ry="2.9"/>
	</g>
	<g>
		<path class="st0" d="M514.5,361.4c-3-2.2-8-4.6-14.1-5.6c-6.1-1-19.6-1.3-28,0.7s-14.7,8.8-19,13.5s-7.3,9.8-5.7,15.6
			c1.4,5.1,6,8.9,8.9,11.7c2.9,2.8,5.4,7.6,16.8,10.3s17.6,2.2,31.3-1.5c13.7-3.7,22.4-8.7,24.9-13.9c2.5-5.2,1.6-11.4-1.6-19.1
			C524.9,365.4,517.5,363.6,514.5,361.4z"/>
		<path class="st1" d="M481,367.3c0.7,1.5-0.6,3.2-3,3.6c-2.4,0.5-4.9-0.4-5.6-1.9c-0.7-1.5,0.6-3.2,3-3.6
			C477.8,364.9,480.3,365.7,481,367.3z"/>
		<path class="st1" d="M505.9,366.5c0.7,1.5-0.6,3.2-3,3.6c-2.4,0.5-4.9-0.4-5.6-1.9c-0.7-1.5,0.6-3.2,3-3.6
			C502.7,364.1,505.2,365,505.9,366.5z"/>
		<path class="st1" d="M496.1,377c0.7,1.5-0.6,3.2-3,3.6c-2.4,0.5-4.9-0.4-5.6-1.9c-0.7-1.5,0.6-3.2,3-3.6
			C492.8,374.6,495.3,375.5,496.1,377z"/>
		<path class="st1" d="M477.7,392c0.7,1.5-0.6,3.2-3,3.6c-2.4,0.5-4.9-0.4-5.6-1.9c-0.7-1.5,0.6-3.2,3-3.6
			C474.5,389.6,477,390.5,477.7,392z"/>
		<path class="st1" d="M498.9,398.8c0.7,1.5-0.6,3.2-3,3.6c-2.4,0.5-4.9-0.4-5.6-1.9c-0.7-1.5,0.6-3.2,3-3.6
			C495.7,396.4,498.2,397.3,498.9,398.8z"/>
		<path class="st1" d="M519.1,390.6c0.7,1.5-0.6,3.2-3,3.6c-2.4,0.5-4.9-0.4-5.6-1.9c-0.7-1.5,0.6-3.2,3-3.6
			C515.9,388.2,518.4,389.1,519.1,390.6z"/>
		<path class="st1" d="M515.9,377.9c0.7,1.5-0.6,3.2-3,3.6c-2.4,0.5-4.9-0.4-5.6-1.9c-0.7-1.5,0.6-3.2,3-3.6
			C512.7,375.5,515.2,376.4,515.9,377.9z"/>
		<path class="st1" d="M468.5,382.3c0.7,1.5-0.6,3.2-3,3.6c-2.4,0.5-4.9-0.4-5.6-1.9c-0.7-1.5,0.6-3.2,3-3.6
			C465.3,379.9,467.8,380.8,468.5,382.3z"/>
		<path class="st1" d="M491.4,387.3c0.7,1.5-0.6,3.2-3,3.6c-2.4,0.5-4.9-0.4-5.6-1.9c-0.7-1.5,0.6-3.2,3-3.6
			C488.2,384.9,490.7,385.8,491.4,387.3z"/>
	</g>
	<g>
		<path class="st0" d="M250.6,555.2c-3-2.2-8-4.6-14.1-5.6s-19.6-1.3-28,0.7c-8.4,2-14.7,8.8-19,13.5s-7.3,9.8-5.7,15.6
			c1.4,5.1,6,8.9,8.9,11.7c2.9,2.8,5.4,7.6,16.8,10.3c11.4,2.7,17.6,2.2,31.3-1.5c13.7-3.7,22.4-8.7,24.9-13.9
			c2.5-5.2,1.6-11.4-1.6-19.1C261,559.2,253.7,557.5,250.6,555.2z"/>
		<path class="st1" d="M217.2,561.1c0.7,1.5-0.6,3.2-3,3.6c-2.4,0.5-4.9-0.4-5.6-1.9c-0.7-1.5,0.6-3.2,3-3.6
			C214,558.7,216.5,559.5,217.2,561.1z"/>
		<path class="st1" d="M242,560.3c0.7,1.5-0.6,3.2-3,3.6c-2.4,0.5-4.9-0.4-5.6-1.9c-0.7-1.5,0.6-3.2,3-3.6
			C238.8,557.9,241.3,558.8,242,560.3z"/>
		<path class="st1" d="M232.2,570.8c0.7,1.5-0.6,3.2-3,3.6c-2.4,0.5-4.9-0.4-5.6-1.9c-0.7-1.5,0.6-3.2,3-3.6
			C229,568.4,231.5,569.3,232.2,570.8z"/>
		<path class="st1" d="M213.9,585.8c0.7,1.5-0.6,3.2-3,3.6c-2.4,0.5-4.9-0.4-5.6-1.9c-0.7-1.5,0.6-3.2,3-3.6
			S213.1,584.3,213.9,585.8z"/>
		<path class="st1" d="M235,592.6c0.7,1.5-0.6,3.2-3,3.6c-2.4,0.5-4.9-0.4-5.6-1.9c-0.7-1.5,0.6-3.2,3-3.6
			C231.8,590.2,234.3,591.1,235,592.6z"/>
		<path class="st1" d="M255.2,584.5c0.7,1.5-0.6,3.2-3,3.6s-4.9-0.4-5.6-1.9s0.6-3.2,3-3.6C252,582,254.5,582.9,255.2,584.5z"/>
		<path class="st1" d="M252,571.7c0.7,1.5-0.6,3.2-3,3.6c-2.4,0.5-4.9-0.4-5.6-1.9c-0.7-1.5,0.6-3.2,3-3.6
			C248.8,569.3,251.3,570.2,252,571.7z"/>
		<path class="st1" d="M204.7,576.2c0.7,1.5-0.6,3.2-3,3.6c-2.4,0.5-4.9-0.4-5.6-1.9s0.6-3.2,3-3.6
			C201.5,573.7,204,574.6,204.7,576.2z"/>
		<path class="st1" d="M227.6,581.2c0.7,1.5-0.6,3.2-3,3.6c-2.4,0.5-4.9-0.4-5.6-1.9c-0.7-1.5,0.6-3.2,3-3.6
			C224.4,578.7,226.9,579.6,227.6,581.2z"/>
	</g>
</g>
<g id="Peppers">
</g>
<g id="Mushrooms">
</g>
<g id="Ham">
</g>
<g id="Pineapple">
</g>
<g id="Bacon">
</g>
<g id="Sausage">
</g>
<g id="Crust">
</g>
</svg>
