<?xml version="1.0" encoding="utf-8"?>
<!-- Generator: Adobe Illustrator 21.0.0, SVG Export Plug-In . SVG Version: 6.00 Build 0)  -->
<!DOCTYPE svg PUBLIC "-//W3C//DTD SVG 1.1//EN" "http://www.w3.org/Graphics/SVG/1.1/DTD/svg11.dtd">
<svg version="1.1" xmlns="http://www.w3.org/2000/svg" xmlns:xlink="http://www.w3.org/1999/xlink" x="0px" y="0px"
	 viewBox="0 0 1131.4 754.4" style="enable-background:new 0 0 1131.4 754.4;" xml:space="preserve">
<style type="text/css">
	.st0{fill:#D9CE2C;}
	.st1{fill:#F9ED32;}
</style>
<g id="Background">
</g>
<g id="Cheese">
</g>
<g id="Pepperoni">
</g>
<g id="Peppers">
</g>
<g id="Mushrooms">
</g>
<g id="Ham">
</g>
<g id="Pineapple">
	<g>
		<g>
			<path class="st0" d="M688.8,410.6l18.5,17.8c1.4,1.4,4.3,1.6,6.2,0.5l11.5-6.6l-35.5-15.5l0,0
				C687.8,407.8,687.5,409.4,688.8,410.6z"/>
			<path class="st1" d="M698.1,402l-8.6,4.9l35.5,15.5l3.2-1.8l3.7-2.1c2.2-1.2,2-3.5-0.5-4.5l-27.9-12.2
				C701.9,401,699.6,401.1,698.1,402z"/>
		</g>
		<path class="st0" d="M726.1,416.3l-21.9-9.7c-0.5-0.2-0.6-0.6-0.3-1l0.2-0.2c0.3-0.3,1-0.4,1.5-0.2l21.9,9.7
			c0.5,0.2,0.6,0.6,0.3,1l-0.2,0.2C727.2,416.4,726.6,416.5,726.1,416.3z"/>
		<path class="st0" d="M720.8,417.9l-21.9-9.7c-0.5-0.2-0.6-0.6-0.3-1l0.2-0.2c0.3-0.3,1-0.4,1.5-0.2l21.9,9.7
			c0.5,0.2,0.6,0.6,0.3,1l-0.2,0.2C722,418,721.3,418.1,720.8,417.9z"/>
	</g>
	<g>
		<g>
			<path class="st0" d="M462.9,279.8l28.7,10.8c2.2,0.8,5,0.2,6-1.3l5.9-9.2l-42.4-3.9l0,0C460.2,277.5,461,279,462.9,279.8z"/>
			<path class="st1" d="M465.4,269.4l-4.4,6.8l42.4,3.9l1.6-2.5l1.9-2.9c1.1-1.7-0.6-3.7-3.5-4l-33.3-3.1
				C468.2,267.4,466.2,268.1,465.4,269.4z"/>
		</g>
		<path class="st0" d="M500.3,274.3l-26.3-2.6c-0.6-0.1-1-0.4-0.9-0.8l0.1-0.3c0.1-0.4,0.6-0.6,1.2-0.6l26.3,2.6
			c0.6,0.1,1,0.4,0.9,0.8l-0.1,0.3C501.4,274.1,500.9,274.4,500.3,274.3z"/>
		<path class="st0" d="M496.7,277.3l-26.3-2.6c-0.6-0.1-1-0.4-0.9-0.8l0.1-0.3c0.1-0.4,0.6-0.6,1.2-0.6l26.3,2.6
			c0.6,0.1,1,0.4,0.9,0.8l-0.1,0.3C497.8,277.1,497.3,277.3,496.7,277.3z"/>
	</g>
	<g>
		<g>
			<path class="st0" d="M258.6,318.8l11.8,20c0.9,1.5,3.7,2.2,5.9,1.4l13.5-4.7l-29.1-20.3l0,0C258.7,315.9,257.8,317.4,258.6,318.8
				z"/>
			<path class="st1" d="M270.7,311.7l-10.1,3.5l29.1,20.3l3.7-1.3l4.3-1.5c2.6-0.9,3.1-3.1,1.2-4.5l-22.9-15.9
				C274.7,311.3,272.5,311.1,270.7,311.7z"/>
		</g>
		<path class="st0" d="M292.9,329.8L275,317.1c-0.4-0.3-0.4-0.7,0.1-1l0.3-0.2c0.4-0.3,1.1-0.2,1.5,0l17.9,12.7
			c0.4,0.3,0.4,0.7-0.1,1l-0.3,0.2C294,330.1,293.3,330,292.9,329.8z"/>
		<path class="st0" d="M287.2,330.6l-17.9-12.7c-0.4-0.3-0.4-0.7,0.1-1l0.3-0.2c0.4-0.3,1.1-0.2,1.5,0l17.9,12.7
			c0.4,0.3,0.4,0.7-0.1,1l-0.3,0.2C288.3,330.9,287.6,330.8,287.2,330.6z"/>
	</g>
	<g>
		<g>
			<path class="st0" d="M1024.5,298.6l11.8,20c0.9,1.5,3.7,2.2,5.9,1.4l13.5-4.7l-29.1-20.3l0,0
				C1024.6,295.7,1023.7,297.2,1024.5,298.6z"/>
			<path class="st1" d="M1036.6,291.5l-10.1,3.5l29.1,20.3l3.7-1.3l4.3-1.5c2.6-0.9,3.1-3.1,1.2-4.5l-22.9-15.9
				C1040.6,291.1,1038.4,290.9,1036.6,291.5z"/>
		</g>
		<path class="st0" d="M1058.8,309.6l-17.9-12.7c-0.4-0.3-0.4-0.7,0.1-1l0.3-0.2c0.4-0.3,1.1-0.2,1.5,0l17.9,12.7
			c0.4,0.3,0.4,0.7-0.1,1l-0.3,0.2C1059.9,309.9,1059.2,309.9,1058.8,309.6z"/>
		<path class="st0" d="M1053.2,310.4l-17.9-12.7c-0.4-0.3-0.4-0.7,0.1-1l0.3-0.2c0.4-0.3,1.1-0.2,1.5,0l17.9,12.7
			c0.4,0.3,0.4,0.7-0.1,1l-0.3,0.2C1054.2,310.7,1053.5,310.7,1053.2,310.4z"/>
	</g>
	<g>
		<g>
			<path class="st0" d="M185.4,389.1l32.9-3c2.5-0.2,4.1-1.8,3.4-3.4l-4.1-9.6L180.4,387l0,0C181,388.4,183.2,389.3,185.4,389.1z"/>
			<path class="st1" d="M177.4,379.9l3.1,7.1l37.1-13.8l-1.1-2.6l-1.3-3.1c-0.8-1.8-4-2.7-6.5-1.7l-29.1,10.9
				C177.7,377.3,176.8,378.6,177.4,379.9z"/>
		</g>
		<path class="st0" d="M209.6,369.9l-23.1,8.5c-0.5,0.2-1.2,0.1-1.4-0.3l-0.2-0.2c-0.3-0.3-0.1-0.7,0.4-0.9l23.1-8.5
			c0.5-0.2,1.2-0.1,1.4,0.3l0.2,0.2C210.2,369.3,210.1,369.7,209.6,369.9z"/>
		<path class="st0" d="M209.5,373.6l-23.1,8.5c-0.5,0.2-1.2,0.1-1.4-0.3l-0.2-0.2c-0.3-0.3-0.1-0.7,0.4-0.9l23.1-8.5
			c0.5-0.2,1.2-0.1,1.4,0.3l0.2,0.2C210.2,373,210,373.5,209.5,373.6z"/>
	</g>
	<g>
		<g>
			<path class="st0" d="M234.2,500.1l9,20.6c0.7,1.6,3.4,2.4,5.7,1.7l14.1-3.9l-26.3-21.8l0,0C234.6,497.3,233.5,498.7,234.2,500.1z
				"/>
			<path class="st1" d="M247.2,493.8l-10.5,2.9l26.3,21.8l3.9-1.1l4.5-1.3c2.7-0.7,3.6-2.9,1.8-4.4l-20.6-17.1
				C251.2,493.6,249.1,493.3,247.2,493.8z"/>
		</g>
		<path class="st0" d="M266.9,513l-16.1-13.6c-0.4-0.3-0.3-0.7,0.2-1l0.3-0.2c0.5-0.2,1.1-0.2,1.5,0.1l16.1,13.6
			c0.4,0.3,0.3,0.7-0.2,1l-0.3,0.2C267.9,513.3,267.2,513.3,266.9,513z"/>
		<path class="st0" d="M261.1,513.5L245,499.8c-0.4-0.3-0.3-0.7,0.2-1l0.3-0.2c0.5-0.2,1.1-0.2,1.5,0.1l16.1,13.6
			c0.4,0.3,0.3,0.7-0.2,1l-0.3,0.2C262.2,513.8,261.5,513.8,261.1,513.5z"/>
	</g>
	<g>
		<g>
			<path class="st0" d="M392.5,567.2l32.6-3.9c2.5-0.3,4-1.9,3.2-3.5l-4.8-9.4l-36.1,14.9l0,0C388.2,566.6,390.3,567.4,392.5,567.2z
				"/>
			<path class="st1" d="M383.9,558.2l3.6,7l36.1-14.9l-1.3-2.6l-1.5-3c-0.9-1.8-4.2-2.5-6.7-1.5l-28.3,11.7
				C384,555.6,383.3,557,383.9,558.2z"/>
		</g>
		<path class="st0" d="M415.3,547.3l-22.5,9.1c-0.5,0.2-1.2,0.1-1.5-0.2l-0.2-0.2c-0.3-0.3-0.2-0.7,0.3-0.9l22.5-9.1
			c0.5-0.2,1.2-0.1,1.5,0.2l0.2,0.2C416,546.7,415.8,547.1,415.3,547.3z"/>
		<path class="st0" d="M415.6,551l-22.5,9.1c-0.5,0.2-1.2,0.1-1.5-0.2l-0.2-0.2c-0.3-0.3-0.2-0.7,0.3-0.9l22.5-9.1
			c0.5-0.2,1.2-0.1,1.5,0.2l0.2,0.2C416.2,550.4,416.1,550.8,415.6,551z"/>
	</g>
	<g>
		<g>
			<path class="st0" d="M426.3,621.2l28.7,10.8c2.2,0.8,5,0.2,6-1.3l5.9-9.2l-42.4-3.9l0,0C423.5,618.9,424.3,620.4,426.3,621.2z"/>
			<path class="st1" d="M428.8,610.8l-4.4,6.8l42.4,3.9l1.6-2.5l1.9-2.9c1.1-1.7-0.6-3.7-3.5-4l-33.3-3.1
				C431.5,608.8,429.6,609.5,428.8,610.8z"/>
		</g>
		<path class="st0" d="M463.7,615.7l-26.3-2.6c-0.6-0.1-1-0.4-0.9-0.8l0.1-0.3c0.1-0.4,0.6-0.6,1.2-0.6l26.3,2.6
			c0.6,0.1,1,0.4,0.9,0.8l-0.1,0.3C464.8,615.5,464.2,615.8,463.7,615.7z"/>
		<path class="st0" d="M460.1,618.7l-26.3-2.6c-0.6-0.1-1-0.4-0.9-0.8l0.1-0.3c0.1-0.4,0.6-0.6,1.2-0.6l26.3,2.6
			c0.6,0.1,1,0.4,0.9,0.8l-0.1,0.3C461.2,618.5,460.6,618.7,460.1,618.7z"/>
	</g>
	<g>
		<g>
			<path class="st0" d="M600.7,622.2l-26.5,12.9c-2,1-2.2,2.9-0.5,4l10.8,7.1l22.1-23.7l0,0C605,621.4,602.5,621.3,600.7,622.2z"/>
			<path class="st1" d="M614.6,627.7l-8-5.2l-22.1,23.7l3,1.9l3.5,2.3c2.1,1.3,5.5,1.1,7-0.5l17.3-18.6
				C616.3,630.1,616,628.6,614.6,627.7z"/>
		</g>
		<path class="st0" d="M593.9,646.5l13.9-14.6c0.3-0.3,1-0.4,1.5-0.2l0.4,0.1c0.5,0.2,0.7,0.6,0.4,0.9l-13.9,14.6
			c-0.3,0.3-1,0.4-1.5,0.2l-0.4-0.1C593.8,647.2,593.6,646.8,593.9,646.5z"/>
		<path class="st0" d="M591.2,643.2l13.9-14.6c0.3-0.3,1-0.4,1.5-0.2l0.4,0.1c0.5,0.2,0.7,0.6,0.4,0.9l-13.9,14.6
			c-0.3,0.3-1,0.4-1.5,0.2l-0.4-0.1C591,644,590.8,643.5,591.2,643.2z"/>
	</g>
	<g>
		<g>
			<path class="st0" d="M673,595.5l28.7,10.8c2.2,0.8,5,0.2,6-1.3l5.9-9.2l-42.4-3.9l0,0C670.3,593.2,671.1,594.7,673,595.5z"/>
			<path class="st1" d="M675.5,585.1l-4.4,6.8l42.4,3.9l1.6-2.5l1.9-2.9c1.1-1.7-0.6-3.7-3.5-4l-33.3-3.1
				C678.3,583.1,676.3,583.8,675.5,585.1z"/>
		</g>
		<path class="st0" d="M710.4,590l-26.3-2.6c-0.6-0.1-1-0.4-0.9-0.8l0.1-0.3c0.1-0.4,0.6-0.6,1.2-0.6l26.3,2.6
			c0.6,0.1,1,0.4,0.9,0.8l-0.1,0.3C711.5,589.8,711,590.1,710.4,590z"/>
		<path class="st0" d="M706.8,593l-26.3-2.6c-0.6-0.1-1-0.4-0.9-0.8l0.1-0.3c0.1-0.4,0.6-0.6,1.2-0.6l26.3,2.6
			c0.6,0.1,1,0.4,0.9,0.8l-0.1,0.3C707.9,592.8,707.4,593,706.8,593z"/>
	</g>
	<g>
		<g>
			<path class="st0" d="M514.4,453.3l6.4,21c0.5,1.6,3,2.6,5.4,2l14.6-3.2L517.4,450l0,0C515.2,450.5,514,451.9,514.4,453.3z"/>
			<path class="st1" d="M528.2,447.7l-10.8,2.4l23.5,23.1l4-0.9l4.7-1c2.8-0.6,3.9-2.7,2.3-4.3l-18.4-18.2
				C532.2,447.7,530.1,447.3,528.2,447.7z"/>
		</g>
		<path class="st0" d="M545.4,467.9L531,453.4c-0.3-0.3-0.2-0.7,0.3-0.9l0.4-0.1c0.5-0.2,1.2-0.1,1.5,0.2l14.4,14.4
			c0.3,0.3,0.2,0.7-0.3,0.9l-0.4,0.1C546.4,468.3,545.7,468.2,545.4,467.9z"/>
		<path class="st0" d="M539.6,468l-14.4-14.4c-0.3-0.3-0.2-0.7,0.3-0.9l0.4-0.1c0.5-0.2,1.2-0.1,1.5,0.2l14.4,14.4
			c0.3,0.3,0.2,0.7-0.3,0.9l-0.4,0.1C540.6,468.5,539.9,468.4,539.6,468z"/>
	</g>
	<g>
		<g>
			<path class="st0" d="M431.7,346.4l8.1,20.8c0.6,1.6,3.2,2.4,5.6,1.8l14.3-3.7L434.3,343l0,0C432.3,343.5,431.1,345,431.7,346.4z"
				/>
			<path class="st1" d="M445,340.3l-10.6,2.7l25.3,22.3l3.9-1l4.6-1.2c2.7-0.7,3.7-2.9,2-4.4l-19.8-17.5
				C449,340.2,446.9,339.8,445,340.3z"/>
		</g>
		<path class="st0" d="M463.8,359.8l-15.5-13.9c-0.3-0.3-0.2-0.7,0.2-1l0.3-0.2c0.5-0.2,1.1-0.2,1.5,0.2l15.5,13.9
			c0.3,0.3,0.2,0.7-0.2,1l-0.3,0.2C464.8,360.2,464.1,360.1,463.8,359.8z"/>
		<path class="st0" d="M458,360.2l-15.5-13.9c-0.3-0.3-0.2-0.7,0.2-1l0.3-0.2c0.5-0.2,1.1-0.2,1.5,0.2l15.5,13.9
			c0.3,0.3,0.2,0.7-0.2,1l-0.3,0.2C459,360.6,458.3,360.5,458,360.2z"/>
	</g>
	<g>
		<g>
			<path class="st0" d="M497.2,183.3l33,2.1c2.5,0.2,4.7-1.1,4.6-2.8l-0.5-9.9l-41.2,7.8l0,0C493.3,181.9,495,183.1,497.2,183.3z"/>
			<path class="st1" d="M492.8,173.1l0.4,7.4l41.2-7.8l-0.1-2.7l-0.2-3.2c-0.1-1.9-2.9-3.2-5.7-2.7l-32.3,6.1
				C494.1,170.6,492.7,171.8,492.8,173.1z"/>
		</g>
		<path class="st0" d="M527.7,168.3l-25.6,4.7c-0.6,0.1-1.2-0.1-1.3-0.5l-0.1-0.3c-0.2-0.4,0.2-0.7,0.7-0.8l25.6-4.7
			c0.6-0.1,1.2,0.1,1.3,0.5l0.1,0.3C528.6,167.8,528.3,168.2,527.7,168.3z"/>
		<path class="st0" d="M526.3,172l-25.6,4.7c-0.6,0.1-1.2-0.1-1.3-0.5l-0.1-0.3c-0.2-0.4,0.2-0.7,0.7-0.8l25.6-4.7
			c0.6-0.1,1.2,0.1,1.3,0.5l0.1,0.3C527.2,171.5,526.9,171.9,526.3,172z"/>
	</g>
	<g>
		<g>
			<path class="st0" d="M347,175.9l9.1-20.6c0.7-1.6-0.9-3.2-3.4-3.4l-15.2-1.4l4.6,27.5l0,0C344.3,178.2,346.4,177.3,347,175.9z"/>
			<path class="st1" d="M330.8,176.9l11.3,1.1l-4.6-27.5l-4.2-0.4l-4.9-0.5c-2.9-0.3-5.4,1.3-5.1,3.2l3.6,21.6
				C327.2,175.7,328.8,176.8,330.8,176.9z"/>
		</g>
		<path class="st0" d="M329.7,153.9l2.6,17.1c0.1,0.4-0.4,0.7-1,0.7l-0.4,0c-0.6,0-1.1-0.2-1.2-0.6l-2.6-17.1
			c-0.1-0.4,0.4-0.7,1-0.7l0.4,0C329.1,153.3,329.6,153.5,329.7,153.9z"/>
		<path class="st0" d="M335,155.5l2.6,17.1c0.1,0.4-0.4,0.7-1,0.7l-0.4,0c-0.6,0-1.1-0.2-1.2-0.6l-2.6-17.1c-0.1-0.4,0.4-0.7,1-0.7
			l0.4,0C334.4,154.8,334.9,155.1,335,155.5z"/>
	</g>
	<g>
		<g>
			<path class="st0" d="M626.6,328l15.8-18.8c1.2-1.4,0.2-3.2-2.2-3.8l-14.4-3.5l-4.7,27.5l0,0C623.2,329.9,625.6,329.3,626.6,328z"
				/>
			<path class="st1" d="M610.4,326.7l10.7,2.6l4.7-27.5l-3.9-1l-4.6-1.1c-2.7-0.7-5.7,0.5-6,2.4l-3.7,21.6
				C607.3,325,608.5,326.3,610.4,326.7z"/>
		</g>
		<path class="st0" d="M617,304.1l-3.2,17c-0.1,0.4-0.6,0.6-1.2,0.6l-0.4,0c-0.6,0-1-0.4-0.9-0.8l3.2-17c0.1-0.4,0.6-0.6,1.2-0.6
			l0.4,0C616.7,303.4,617.1,303.7,617,304.1z"/>
		<path class="st0" d="M621.7,306.4l-3.2,17c-0.1,0.4-0.6,0.6-1.2,0.6l-0.4,0c-0.6,0-1-0.4-0.9-0.8l3.2-17c0.1-0.4,0.6-0.6,1.2-0.6
			l0.4,0C621.4,305.6,621.8,306,621.7,306.4z"/>
	</g>
	<g>
		<g>
			<path class="st0" d="M387.9,104.3l15.1,19.1c1.2,1.5,4,1.9,6.1,1l12.6-5.7l-32.4-18.1l0,0C387.5,101.4,386.9,103,387.9,104.3z"/>
			<path class="st1" d="M398.7,96.4l-9.4,4.2l32.4,18.1l3.5-1.5l4-1.8c2.4-1.1,2.6-3.3,0.4-4.6l-25.5-14.2
				C402.7,95.8,400.4,95.7,398.7,96.4z"/>
		</g>
		<path class="st0" d="M423.9,112.8l-20-11.3c-0.4-0.2-0.5-0.7-0.1-1l0.3-0.2c0.4-0.3,1.1-0.3,1.5-0.1l20,11.3
			c0.4,0.2,0.5,0.7,0.1,1l-0.3,0.2C425,113,424.3,113,423.9,112.8z"/>
		<path class="st0" d="M418.4,114l-20-11.3c-0.4-0.2-0.5-0.7-0.1-1l0.3-0.2c0.4-0.3,1.1-0.3,1.5-0.1l20,11.3c0.4,0.2,0.5,0.7,0.1,1
			l-0.3,0.2C419.5,114.2,418.9,114.2,418.4,114z"/>
	</g>
	<g>
		<g>
			<path class="st0" d="M641.3,94.7l-4.8,21.2c-0.4,1.6,1.6,3.1,4.1,3.1l15.4,0.1l-10.2-26.9l0,0C643.5,92.2,641.6,93.3,641.3,94.7z
				"/>
			<path class="st1" d="M657.2,92.3l-11.4-0.1l10.2,26.9l4.2,0l4.9,0c2.9,0,5.1-1.7,4.4-3.6l-8-21.1C661,93.3,659.2,92.4,657.2,92.3
				z"/>
		</g>
		<path class="st0" d="M663,115.1l-6.1-16.7c-0.1-0.4,0.2-0.7,0.8-0.8l0.4-0.1c0.6-0.1,1.1,0.1,1.3,0.5l6.1,16.7
			c0.1,0.4-0.2,0.7-0.8,0.8l-0.4,0.1C663.7,115.7,663.1,115.4,663,115.1z"/>
		<path class="st0" d="M657.4,114l-6.1-16.7c-0.1-0.4,0.2-0.7,0.8-0.8l0.4-0.1c0.6-0.1,1.1,0.1,1.3,0.5l6.1,16.7
			c0.1,0.4-0.2,0.7-0.8,0.8l-0.4,0.1C658.2,114.6,657.6,114.4,657.4,114z"/>
	</g>
	<g>
		<g>
			<path class="st0" d="M371.6,427.7l-4.8,21.2c-0.4,1.6,1.6,3.1,4.1,3.1l15.4,0.1l-10.2-26.9h0
				C373.8,425.2,371.9,426.3,371.6,427.7z"/>
			<path class="st1" d="M387.5,425.3l-11.4-0.1l10.2,26.9l4.2,0l4.9,0c2.9,0,5.1-1.7,4.4-3.6l-8-21.1
				C391.3,426.2,389.5,425.3,387.5,425.3z"/>
		</g>
		<path class="st0" d="M393.3,448l-6.1-16.7c-0.1-0.4,0.2-0.7,0.8-0.8l0.4-0.1c0.6-0.1,1.1,0.1,1.3,0.5l6.1,16.7
			c0.1,0.4-0.2,0.7-0.8,0.8l-0.4,0.1C394,448.6,393.5,448.4,393.3,448z"/>
		<path class="st0" d="M387.8,447l-6.1-16.7c-0.1-0.4,0.2-0.7,0.8-0.8l0.4-0.1c0.6-0.1,1.1,0.1,1.3,0.5l6.1,16.7
			c0.1,0.4-0.2,0.7-0.8,0.8l-0.4,0.1C388.5,447.6,387.9,447.3,387.8,447z"/>
	</g>
	<g>
		<g>
			<path class="st0" d="M875.4,244l3.8,21.3c0.3,1.6,2.7,2.7,5.2,2.3l14.9-2.4l-20.6-24.3l0,0C876.5,241.2,875.1,242.6,875.4,244z"
				/>
			<path class="st1" d="M889.8,239.1l-11.1,1.8l20.6,24.3l4.1-0.7l4.8-0.8c2.8-0.5,4.2-2.5,2.8-4.2l-16.1-19
				C893.8,239.3,891.8,238.7,889.8,239.1z"/>
		</g>
		<path class="st0" d="M904.5,260.1l-12.6-15.1c-0.3-0.3-0.1-0.7,0.4-0.9l0.4-0.1c0.5-0.2,1.2-0.1,1.4,0.3l12.6,15.1
			c0.3,0.3,0.1,0.7-0.4,0.9l-0.4,0.1C905.4,260.5,904.8,260.4,904.5,260.1z"/>
		<path class="st0" d="M898.7,259.9l-12.6-15.1c-0.3-0.3-0.1-0.7,0.4-0.9l0.4-0.1c0.5-0.2,1.2-0.1,1.4,0.3l12.6,15.1
			c0.3,0.3,0.1,0.7-0.4,0.9l-0.4,0.1C899.6,260.4,899,260.3,898.7,259.9z"/>
	</g>
	<g>
		<g>
			<path class="st0" d="M719,255l-13.9,19.4c-1.1,1.5,0.1,3.2,2.6,3.7l14.7,2.9l2-27.6l0,0C722.3,253,720,253.7,719,255z"/>
			<path class="st1" d="M735.3,255.6l-10.9-2.2l-2,27.6l4,0.8l4.7,0.9c2.8,0.6,5.6-0.7,5.8-2.6l1.6-21.7
				C738.6,257.2,737.3,256,735.3,255.6z"/>
		</g>
		<path class="st0" d="M731,278.5l1.5-17.1c0-0.4,0.5-0.7,1.1-0.6l0.4,0c0.6,0,1,0.3,1,0.7l-1.5,17.1c0,0.4-0.5,0.7-1.1,0.6l-0.4,0
			C731.4,279.2,730.9,278.9,731,278.5z"/>
		<path class="st0" d="M726.1,276.5l1.5-17.1c0-0.4,0.5-0.7,1.1-0.6l0.4,0c0.6,0,1,0.3,1,0.7l-1.5,17.1c0,0.4-0.5,0.7-1.1,0.6
			l-0.4,0C726.5,277.2,726.1,276.8,726.1,276.5z"/>
	</g>
	<g>
		<g>
			<path class="st0" d="M866.4,362l32.2,5.3c2.5,0.4,4.9-0.7,5.2-2.3l1.8-9.9l-42.5,3.8l0,0C862.8,360.3,864.2,361.6,866.4,362z"/>
			<path class="st1" d="M864.4,351.6l-1.3,7.3l42.5-3.8l0.5-2.7l0.6-3.2c0.3-1.9-2.2-3.4-5.1-3.2l-33.3,3
				C866.2,349.2,864.6,350.2,864.4,351.6z"/>
		</g>
		<path class="st0" d="M900,350.1l-26.4,2.2c-0.6,0-1.1-0.2-1.2-0.6l-0.1-0.3c-0.1-0.4,0.3-0.7,0.9-0.8l26.4-2.2
			c0.6,0,1.1,0.2,1.2,0.6l0.1,0.3C901,349.8,900.6,350.1,900,350.1z"/>
		<path class="st0" d="M897.8,353.6l-26.4,2.2c-0.6,0-1.1-0.2-1.2-0.6l-0.1-0.3c-0.1-0.4,0.3-0.7,0.9-0.8l26.4-2.2
			c0.6,0,1.1,0.2,1.2,0.6l0.1,0.3C898.8,353.2,898.4,353.6,897.8,353.6z"/>
	</g>
	<g>
		<g>
			<path class="st0" d="M1028.4,430l28.7,10.8c2.2,0.8,5,0.2,6-1.3l5.9-9.2l-42.4-3.9l0,0C1025.7,427.7,1026.5,429.3,1028.4,430z"/>
			<path class="st1" d="M1030.9,419.6l-4.4,6.8l42.4,3.9l1.6-2.5l1.9-2.9c1.1-1.7-0.6-3.7-3.5-4l-33.3-3.1
				C1033.7,417.6,1031.7,418.4,1030.9,419.6z"/>
		</g>
		<path class="st0" d="M1065.8,424.6l-26.3-2.6c-0.6-0.1-1-0.4-0.9-0.8l0.1-0.3c0.1-0.4,0.6-0.6,1.2-0.6l26.3,2.6
			c0.6,0.1,1,0.4,0.9,0.8l-0.1,0.3C1066.9,424.4,1066.4,424.6,1065.8,424.6z"/>
		<path class="st0" d="M1062.2,427.5l-26.3-2.6c-0.6-0.1-1-0.4-0.9-0.8l0.1-0.3c0.1-0.4,0.6-0.6,1.2-0.6l26.3,2.6
			c0.6,0.1,1,0.4,0.9,0.8l-0.1,0.3C1063.3,427.3,1062.8,427.5,1062.2,427.5z"/>
	</g>
	<g>
		<g>
			<path class="st0" d="M945.7,473.4l-30.3-8.7c-2.3-0.7-5,0.1-5.7,1.7l-4.3,9.5l42.9,0.9l0,0C948.8,475.5,947.7,474,945.7,473.4z"
				/>
			<path class="st1" d="M944.9,483.9l3.2-7.1l-42.9-0.9l-1.2,2.6l-1.4,3c-0.8,1.8,1.2,3.6,4.1,3.7l33.6,0.7
				C942.5,486,944.3,485.2,944.9,483.9z"/>
		</g>
		<path class="st0" d="M909.4,481.4l26.6,0.7c0.6,0,1,0.3,1,0.7l0,0.3c0,0.4-0.5,0.7-1.1,0.7l-26.6-0.7c-0.6,0-1-0.3-1-0.7l0-0.3
			C908.3,481.7,908.8,481.4,909.4,481.4z"/>
		<path class="st0" d="M912.5,478.2l26.6,0.7c0.6,0,1,0.3,1,0.7l0,0.3c0,0.4-0.5,0.7-1.1,0.7l-26.6-0.7c-0.6,0-1-0.3-1-0.7l0-0.3
			C911.4,478.5,911.9,478.2,912.5,478.2z"/>
	</g>
	<g>
		<g>
			<path class="st0" d="M808.8,531.1l5.4,21.1c0.4,1.6,2.9,2.6,5.3,2.1l14.7-2.9l-22.4-23.6l0,0
				C809.8,528.3,808.5,529.6,808.8,531.1z"/>
			<path class="st1" d="M822.9,525.7l-10.9,2.2l22.4,23.6l4-0.8l4.7-0.9c2.8-0.6,4-2.7,2.5-4.3L828,526.9
				C826.9,525.8,824.8,525.3,822.9,525.7z"/>
		</g>
		<path class="st0" d="M839.1,546.2l-13.7-14.7c-0.3-0.3-0.1-0.7,0.4-0.9l0.4-0.1c0.5-0.2,1.2-0.1,1.5,0.2l13.7,14.7
			c0.3,0.3,0.1,0.7-0.4,0.9l-0.4,0.1C840.1,546.6,839.4,546.5,839.1,546.2z"/>
		<path class="st0" d="M833.3,546.3l-13.7-14.7c-0.3-0.3-0.1-0.7,0.4-0.9l0.4-0.1c0.5-0.2,1.2-0.1,1.5,0.2l13.7,14.7
			c0.3,0.3,0.1,0.7-0.4,0.9l-0.4,0.1C834.3,546.7,833.6,546.6,833.3,546.3z"/>
	</g>
	<g>
		<g>
			<path class="st0" d="M74.2,435.9l8.6,20.7c0.7,1.6,3.3,2.4,5.6,1.8l14.2-3.8l-25.8-22.1l0,0C74.7,433.1,73.6,434.5,74.2,435.9z"
				/>
			<path class="st1" d="M87.3,429.7l-10.6,2.8l25.8,22.1l3.9-1l4.5-1.2c2.7-0.7,3.6-2.9,1.9-4.4l-20.3-17.3
				C91.4,429.6,89.2,429.2,87.3,429.7z"/>
		</g>
		<path class="st0" d="M106.6,449.1l-15.8-13.8c-0.3-0.3-0.3-0.7,0.2-1l0.3-0.2c0.5-0.2,1.1-0.2,1.5,0.1l15.8,13.8
			c0.3,0.3,0.3,0.7-0.2,1l-0.3,0.2C107.6,449.4,107,449.4,106.6,449.1z"/>
		<path class="st0" d="M100.9,449.5L85,435.7c-0.3-0.3-0.3-0.7,0.2-1l0.3-0.2c0.5-0.2,1.1-0.2,1.5,0.1l15.8,13.8
			c0.3,0.3,0.3,0.7-0.2,1l-0.3,0.2C101.9,449.9,101.2,449.8,100.9,449.5z"/>
	</g>
	<g>
		<g>
			<path class="st0" d="M368,644.7l17.5,18.2c1.3,1.4,4.3,1.7,6.2,0.7l11.9-6.3L369,641l0,0C367.3,641.9,366.9,643.5,368,644.7z"/>
			<path class="st1" d="M377.8,636.3L369,641l34.6,16.3l3.2-1.7l3.8-2c2.3-1.2,2.2-3.4-0.2-4.6l-27.2-12.8
				C381.7,635.4,379.4,635.4,377.8,636.3z"/>
		</g>
		<path class="st0" d="M405,651.2L383.7,641c-0.5-0.2-0.6-0.7-0.2-1l0.2-0.2c0.4-0.3,1-0.4,1.5-0.1l21.3,10.2c0.5,0.2,0.6,0.7,0.2,1
			l-0.2,0.2C406.1,651.4,405.5,651.5,405,651.2z"/>
		<path class="st0" d="M399.7,652.7l-21.3-10.2c-0.5-0.2-0.6-0.7-0.2-1l0.2-0.2c0.4-0.3,1-0.4,1.5-0.1l21.3,10.2
			c0.5,0.2,0.6,0.7,0.2,1l-0.2,0.2C400.8,652.9,400.2,653,399.7,652.7z"/>
	</g>
	<g>
		<g>
			<path class="st0" d="M605.3,701.9l26.5-12.9c2-1,2.2-2.9,0.5-4l-10.8-7.1l-22.1,23.7l0,0C601,702.7,603.5,702.8,605.3,701.9z"/>
			<path class="st1" d="M591.4,696.4l8,5.3l22.1-23.7l-3-1.9l-3.5-2.3c-2.1-1.3-5.5-1.1-7,0.5l-17.3,18.6
				C589.7,694,589.9,695.5,591.4,696.4z"/>
		</g>
		<path class="st0" d="M612,677.6l-13.9,14.6c-0.3,0.3-1,0.4-1.5,0.2l-0.4-0.1c-0.5-0.2-0.7-0.6-0.4-0.9l13.9-14.6
			c0.3-0.3,1-0.4,1.5-0.2l0.4,0.1C612.2,676.9,612.4,677.3,612,677.6z"/>
		<path class="st0" d="M614.8,680.9L601,695.5c-0.3,0.3-1,0.4-1.5,0.2l-0.4-0.1c-0.5-0.2-0.7-0.6-0.4-0.9l13.9-14.6
			c0.3-0.3,1-0.4,1.5-0.2l0.4,0.1C615,680.2,615.1,680.6,614.8,680.9z"/>
	</g>
	<g>
		<g>
			<path class="st0" d="M851.9,639.4l8.2-20.8c0.6-1.6-1.1-3.2-3.6-3.3l-15.3-1.1l5.8,27.4l0,0C849.3,641.7,851.4,640.8,851.9,639.4
				z"/>
			<path class="st1" d="M835.7,640.7l11.4,0.8l-5.8-27.4l-4.2-0.3l-4.9-0.4c-2.9-0.2-5.3,1.4-4.9,3.3l4.6,21.5
				C832.1,639.5,833.7,640.5,835.7,640.7z"/>
		</g>
		<path class="st0" d="M833.6,617.7l3.4,17c0.1,0.4-0.3,0.7-0.9,0.8l-0.4,0c-0.6,0-1.1-0.2-1.2-0.6l-3.4-17
			c-0.1-0.4,0.3-0.7,0.9-0.8l0.4,0C832.9,617.1,833.5,617.3,833.6,617.7z"/>
		<path class="st0" d="M838.9,619.1l3.4,17c0.1,0.4-0.3,0.7-0.9,0.8l-0.4,0c-0.6,0-1.1-0.2-1.2-0.6l-3.4-17
			c-0.1-0.4,0.3-0.7,0.9-0.8l0.4,0C838.3,618.5,838.8,618.7,838.9,619.1z"/>
	</g>
	<g>
		<g>
			<path class="st0" d="M120.6,228.2l7.2,20.9c0.5,1.6,3.1,2.5,5.5,1.9l14.4-3.4l-24.3-22.8h0C121.3,225.4,120.1,226.8,120.6,228.2z
				"/>
			<path class="st1" d="M134.2,222.3l-10.7,2.5l24.3,22.8l3.9-0.9l4.6-1.1c2.7-0.6,3.8-2.8,2.1-4.3l-19.1-17.9
				C138.2,222.3,136.1,221.9,134.2,222.3z"/>
		</g>
		<path class="st0" d="M152.2,242.2L137.3,228c-0.3-0.3-0.2-0.7,0.3-1l0.3-0.2c0.5-0.2,1.1-0.1,1.5,0.2l14.9,14.2
			c0.3,0.3,0.2,0.7-0.3,1l-0.3,0.2C153.2,242.6,152.5,242.5,152.2,242.2z"/>
		<path class="st0" d="M146.4,242.5l-14.9-14.2c-0.3-0.3-0.2-0.7,0.3-1l0.3-0.2c0.5-0.2,1.1-0.1,1.5,0.2l14.9,14.2
			c0.3,0.3,0.2,0.7-0.3,1l-0.3,0.2C147.4,242.9,146.7,242.8,146.4,242.5z"/>
	</g>
	<g>
		<g>
			<path class="st0" d="M851.9,129.4l28.7,10.8c2.2,0.8,5,0.2,6-1.3l5.9-9.2l-42.4-3.9l0,0C849.2,127.1,850,128.7,851.9,129.4z"/>
			<path class="st1" d="M854.4,119l-4.4,6.8l42.4,3.9l1.6-2.5l1.9-2.9c1.1-1.7-0.6-3.7-3.5-4l-33.3-3.1
				C857.2,117.1,855.2,117.8,854.4,119z"/>
		</g>
		<path class="st0" d="M889.3,124l-26.3-2.6c-0.6-0.1-1-0.4-0.9-0.8l0.1-0.3c0.1-0.4,0.6-0.6,1.2-0.6l26.3,2.6
			c0.6,0.1,1,0.4,0.9,0.8l-0.1,0.3C890.4,123.8,889.9,124,889.3,124z"/>
		<path class="st0" d="M885.7,126.9l-26.3-2.6c-0.6-0.1-1-0.4-0.9-0.8l0.1-0.3c0.1-0.4,0.6-0.6,1.2-0.6l26.3,2.6
			c0.6,0.1,1,0.4,0.9,0.8l-0.1,0.3C886.8,126.7,886.3,127,885.7,126.9z"/>
	</g>
</g>
<g id="Bacon">
</g>
<g id="Sausage">
</g>
<g id="Crust">
</g>
</svg>
