<?xml version="1.0" encoding="utf-8"?>
<!-- Generator: Adobe Illustrator 21.0.0, SVG Export Plug-In . SVG Version: 6.00 Build 0)  -->
<!DOCTYPE svg PUBLIC "-//W3C//DTD SVG 1.1//EN" "http://www.w3.org/Graphics/SVG/1.1/DTD/svg11.dtd">
<svg version="1.1" xmlns="http://www.w3.org/2000/svg" xmlns:xlink="http://www.w3.org/1999/xlink" x="0px" y="0px"
	 viewBox="0 0 1131.4 754.4" style="enable-background:new 0 0 1131.4 754.4;" xml:space="preserve">
<style type="text/css">
	.st0{fill:#3C2415;}
	.st1{fill:#603913;}
</style>
<g id="Background">
</g>
<g id="Cheese">
</g>
<g id="Pepperoni">
</g>
<g id="Peppers">
</g>
<g id="Mushrooms">
</g>
<g id="Ham">
</g>
<g id="Pineapple">
</g>
<g id="Bacon">
</g>
<g id="Sausage">
	<g>
		<path class="st0" d="M424.5,221.1c0.2-0.3,0.4-0.6,0.6-0.9c-2.1-1.3-3.5-3.1-3.7-5.1c-4.6,1.1-8,3.9-8,7.3c0,2.4,1.8,4.6,4.5,6
			c0-0.1,0-0.3,0-0.4C418,224.9,420.6,222.3,424.5,221.1z"/>
		<path class="st1" d="M453.6,219.2c-2.2,1.9-5.7,3.1-9.6,3.1c-6.6,0-11.9-3.4-11.9-7.7c0-3,2.7-5.6,6.6-6.9
			c-1.6-0.5-3.4-0.8-5.3-0.8c-6.6,0-11.9,3.4-11.9,7.7c0,0.2,0,0.3,0,0.4c0.2,2,1.6,3.8,3.7,5.1c-0.2,0.3-0.4,0.6-0.6,0.9
			c-3.9,1.3-6.6,3.9-6.6,6.9c0,0.1,0,0.3,0,0.4c0.3,4.1,5.5,7.3,11.9,7.3c4.4,0,8.2-1.5,10.3-3.8c2.1,1.1,4.7,1.7,7.6,1.7
			c6.6,0,11.9-3.4,11.9-7.7C459.7,223,457.2,220.5,453.6,219.2z"/>
		<path class="st0" d="M432,214.6c0,4.3,5.3,7.7,11.9,7.7c3.9,0,7.4-1.2,9.6-3.1c1.5-1.3,2.3-2.9,2.3-4.6c0-4.3-5.3-7.7-11.9-7.7
			c-1.9,0-3.7,0.3-5.3,0.8C434.7,209,432,211.6,432,214.6z"/>
	</g>
	<g>
		<path class="st0" d="M572,159.5c0.2-0.3,0.4-0.6,0.6-0.9c-2.1-1.3-3.5-3.1-3.7-5.1c-4.6,1.1-8,3.9-8,7.3c0,2.4,1.8,4.6,4.5,6
			c0-0.1,0-0.3,0-0.4C565.5,163.4,568.1,160.8,572,159.5z"/>
		<path class="st1" d="M601.1,157.6c-2.2,1.9-5.7,3.1-9.6,3.1c-6.6,0-11.9-3.4-11.9-7.7c0-3,2.7-5.6,6.6-6.9
			c-1.6-0.5-3.4-0.8-5.3-0.8c-6.6,0-11.9,3.4-11.9,7.7c0,0.2,0,0.3,0,0.4c0.2,2,1.6,3.8,3.7,5.1c-0.2,0.3-0.4,0.6-0.6,0.9
			c-3.9,1.3-6.6,3.9-6.6,6.9c0,0.1,0,0.3,0,0.4c0.3,4.1,5.5,7.3,11.9,7.3c4.4,0,8.2-1.5,10.3-3.8c2.1,1.1,4.7,1.7,7.6,1.7
			c6.6,0,11.9-3.4,11.9-7.7C607.2,161.4,604.7,158.9,601.1,157.6z"/>
		<path class="st0" d="M579.5,153c0,4.3,5.3,7.7,11.9,7.7c3.9,0,7.4-1.2,9.6-3.1c1.5-1.3,2.3-2.9,2.3-4.6c0-4.3-5.3-7.7-11.9-7.7
			c-1.9,0-3.7,0.3-5.3,0.8C582.2,147.4,579.5,150,579.5,153z"/>
	</g>
	<g>
		<path class="st0" d="M484.4,68.1c0.2-0.3,0.4-0.6,0.6-0.9c-2.1-1.3-3.5-3.1-3.7-5.1c-4.6,1.1-8,3.9-8,7.3c0,2.4,1.8,4.6,4.5,6
			c0-0.1,0-0.3,0-0.4C477.8,72,480.5,69.4,484.4,68.1z"/>
		<path class="st1" d="M513.4,66.2c-2.2,1.9-5.7,3.1-9.6,3.1c-6.6,0-11.9-3.4-11.9-7.7c0-3,2.7-5.6,6.6-6.9
			c-1.6-0.5-3.4-0.8-5.3-0.8c-6.6,0-11.9,3.4-11.9,7.7c0,0.2,0,0.3,0,0.4c0.2,2,1.6,3.8,3.7,5.1c-0.2,0.3-0.4,0.6-0.6,0.9
			c-3.9,1.3-6.6,3.9-6.6,6.9c0,0.1,0,0.3,0,0.4c0.3,4.1,5.5,7.3,11.9,7.3c4.4,0,8.2-1.5,10.3-3.8c2.1,1.1,4.7,1.7,7.6,1.7
			c6.6,0,11.9-3.4,11.9-7.7C519.6,70,517.1,67.5,513.4,66.2z"/>
		<path class="st0" d="M491.9,61.6c0,4.3,5.3,7.7,11.9,7.7c3.9,0,7.4-1.2,9.6-3.1c1.5-1.3,2.3-2.9,2.3-4.6c0-4.3-5.3-7.7-11.9-7.7
			c-1.9,0-3.7,0.3-5.3,0.8C494.6,56,491.9,58.6,491.9,61.6z"/>
	</g>
	<g>
		<path class="st0" d="M681.2,245.8c0.5,0,1-0.1,1.5-0.1c0.8-1.8,2.7-3.4,5.4-4.5c-3.6-2.2-9-2.8-13.6-1.3c-3.4,1.1-5.6,3.1-6.3,5.3
			c0.2-0.1,0.3-0.1,0.5-0.2C672.9,243.8,677.7,244.1,681.2,245.8z"/>
		<path class="st1" d="M697.1,261.6c-3.6-0.4-6.9-1.8-8.7-4.1c-3-3.8-0.7-8.4,5.2-10.4c4.2-1.4,9-1,12.5,0.7c0-1.2-0.4-2.3-1.3-3.4
			c-3-3.8-10.2-5.3-16.1-3.3c-0.2,0.1-0.4,0.1-0.6,0.2c-2.7,1-4.6,2.6-5.4,4.5c-0.5,0-1,0-1.5,0.1c-3.5-1.7-8.3-2-12.5-0.6
			c-0.2,0.1-0.3,0.1-0.5,0.2c-5.5,2-7.6,6.5-4.7,10.2c2,2.5,5.9,4,9.9,4.2c-0.6,1.7-0.3,3.5,1,5.1c3,3.8,10.2,5.3,16.1,3.3
			C694.6,266.8,696.9,264.3,697.1,261.6z"/>
		<path class="st0" d="M693.6,247.1c-5.9,1.9-8.2,6.6-5.2,10.4c1.8,2.3,5.1,3.7,8.7,4.1c2.4,0.3,5,0,7.4-0.7
			c5.9-1.9,8.2-6.6,5.2-10.4c-0.9-1.1-2.1-2-3.5-2.7C702.6,246.1,697.7,245.7,693.6,247.1z"/>
	</g>
	<g>
		<path class="st0" d="M837.9,226.4c0.2-0.3,0.4-0.6,0.6-0.9c-2.1-1.3-3.5-3.1-3.7-5.1c-4.6,1.1-8,3.9-8,7.3c0,2.4,1.8,4.6,4.5,6
			c0-0.1,0-0.3,0-0.4C831.3,230.3,834,227.7,837.9,226.4z"/>
		<path class="st1" d="M866.9,224.5c-2.2,1.9-5.7,3.1-9.6,3.1c-6.6,0-11.9-3.4-11.9-7.7c0-3,2.7-5.6,6.6-6.9
			c-1.6-0.5-3.4-0.8-5.3-0.8c-6.6,0-11.9,3.4-11.9,7.7c0,0.2,0,0.3,0,0.4c0.2,2,1.6,3.8,3.7,5.1c-0.2,0.3-0.4,0.6-0.6,0.9
			c-3.9,1.3-6.6,3.9-6.6,6.9c0,0.1,0,0.3,0,0.4c0.3,4.1,5.5,7.3,11.9,7.3c4.4,0,8.2-1.5,10.3-3.8c2.1,1.1,4.7,1.7,7.6,1.7
			c6.6,0,11.9-3.4,11.9-7.7C873,228.4,870.6,225.8,866.9,224.5z"/>
		<path class="st0" d="M845.4,220c0,4.3,5.3,7.7,11.9,7.7c3.9,0,7.4-1.2,9.6-3.1c1.5-1.3,2.3-2.9,2.3-4.6c0-4.3-5.3-7.7-11.9-7.7
			c-1.9,0-3.7,0.3-5.3,0.8C848.1,214.3,845.4,216.9,845.4,220z"/>
	</g>
	<g>
		<path class="st0" d="M723.9,98.5c0.2-0.3,0.4-0.6,0.6-0.9c-2.1-1.3-3.5-3.1-3.7-5.1c-4.6,1.1-8,3.9-8,7.3c0,2.4,1.8,4.6,4.5,6
			c0-0.1,0-0.3,0-0.4C717.3,102.4,720,99.8,723.9,98.5z"/>
		<path class="st1" d="M752.9,96.6c-2.2,1.9-5.7,3.1-9.6,3.1c-6.6,0-11.9-3.4-11.9-7.7c0-3,2.7-5.6,6.6-6.9
			c-1.6-0.5-3.4-0.8-5.3-0.8c-6.6,0-11.9,3.4-11.9,7.7c0,0.2,0,0.3,0,0.4c0.2,2,1.6,3.8,3.7,5.1c-0.2,0.3-0.4,0.6-0.6,0.9
			c-3.9,1.3-6.6,3.9-6.6,6.9c0,0.1,0,0.3,0,0.4c0.3,4.1,5.5,7.3,11.9,7.3c4.4,0,8.2-1.5,10.3-3.8c2.1,1.1,4.7,1.7,7.6,1.7
			c6.6,0,11.9-3.4,11.9-7.7C759,100.5,756.6,98,752.9,96.6z"/>
		<path class="st0" d="M731.3,92.1c0,4.3,5.3,7.7,11.9,7.7c3.9,0,7.4-1.2,9.6-3.1c1.5-1.3,2.3-2.9,2.3-4.6c0-4.3-5.3-7.7-11.9-7.7
			c-1.9,0-3.7,0.3-5.3,0.8C734,86.4,731.3,89.1,731.3,92.1z"/>
	</g>
	<g>
		<path class="st0" d="M318.8,100.7c0.1-0.3,0.1-0.6,0.3-0.9c-2.5-1-4.5-2.5-5.4-4.5c-4.1,1.7-6.4,5-5.2,8.2
			c0.9,2.4,3.3,4.2,6.5,5.2c-0.1-0.1-0.1-0.2-0.2-0.4C313.7,105.4,315.4,102.5,318.8,100.7z"/>
		<path class="st1" d="M346.4,94.6c-1.5,2.2-4.4,3.9-8.3,4.5c-6.4,1-12.8-1.6-14.3-5.8c-1.1-2.9,0.7-5.9,4-7.7
			c-1.7-0.3-3.6-0.3-5.5,0c-6.4,1-10.4,5.1-8.9,9.2c0.1,0.1,0.1,0.3,0.2,0.4c0.9,1.9,2.9,3.5,5.4,4.5c-0.1,0.3-0.2,0.6-0.3,0.9
			c-3.4,1.8-5.1,4.7-4,7.7c0,0.1,0.1,0.2,0.2,0.4c1.7,3.9,7.9,6.3,14.2,5.4c4.3-0.6,7.5-2.7,8.7-5.2c2.4,0.8,5.2,1,8,0.6
			c6.4-1,10.4-5.1,8.9-9.2C353.7,97.5,350.4,95.4,346.4,94.6z"/>
		<path class="st0" d="M323.8,93.3c1.5,4.1,7.9,6.7,14.3,5.8c3.8-0.6,6.8-2.3,8.3-4.5c1-1.5,1.3-3.1,0.7-4.8
			c-1.5-4.1-7.9-6.7-14.3-5.8c-1.9,0.3-3.5,0.8-4.9,1.6C324.5,87.5,322.8,90.4,323.8,93.3z"/>
	</g>
	<g>
		<path class="st0" d="M170.2,204.2c0.4-0.2,0.8-0.4,1.2-0.6c-0.9-1.8-0.7-3.8,0.7-5.6c-4.8-0.5-9.9,0.9-12.4,3.8
			c-1.9,2.1-2,4.6-0.6,6.7c0.1-0.1,0.2-0.2,0.3-0.3C161.5,205.5,165.8,204.1,170.2,204.2z"/>
		<path class="st1" d="M197,211.7c-3.3,1-7.3,1-10.8-0.3c-5.8-2.1-7.8-6.8-4.6-10.5c2.3-2.6,6.6-4.1,11-3.9c-1-1-2.4-1.8-4-2.4
			c-5.8-2.1-13-0.8-16.3,2.9c-0.1,0.1-0.2,0.3-0.3,0.4c-1.4,1.8-1.5,3.8-0.7,5.6c-0.4,0.2-0.8,0.4-1.2,0.6c-4.4-0.1-8.7,1.3-11,3.9
			c-0.1,0.1-0.2,0.2-0.3,0.3c-2.8,3.7-0.7,8.1,4.8,10.1c3.8,1.4,8.3,1.3,11.9-0.1c1,1.6,2.8,3,5.3,3.9c5.8,2.1,13,0.8,16.3-2.9
			C199.4,217,199.2,214,197,211.7z"/>
		<path class="st0" d="M181.6,200.9c-3.2,3.7-1.2,8.4,4.6,10.5c3.4,1.2,7.4,1.3,10.8,0.3c2.2-0.7,4.2-1.8,5.5-3.2
			c3.2-3.7,1.2-8.4-4.6-10.5c-1.7-0.6-3.5-0.9-5.3-1C188.3,196.9,183.9,198.3,181.6,200.9z"/>
	</g>
	<g>
		<path class="st0" d="M157.8,316.9c0.2-0.3,0.4-0.6,0.6-0.9c-2.1-1.3-3.5-3.1-3.7-5.1c-4.6,1.1-8,3.9-8,7.3c0,2.4,1.8,4.6,4.5,6
			c0-0.1,0-0.3,0-0.4C151.2,320.7,153.9,318.1,157.8,316.9z"/>
		<path class="st1" d="M186.8,315c-2.2,1.9-5.7,3.1-9.6,3.1c-6.6,0-11.9-3.4-11.9-7.7c0-3,2.7-5.6,6.6-6.9c-1.6-0.5-3.4-0.8-5.3-0.8
			c-6.6,0-11.9,3.4-11.9,7.7c0,0.2,0,0.3,0,0.4c0.2,2,1.6,3.8,3.7,5.1c-0.2,0.3-0.4,0.6-0.6,0.9c-3.9,1.3-6.6,3.9-6.6,6.9
			c0,0.1,0,0.3,0,0.4c0.3,4.1,5.5,7.3,11.9,7.3c4.4,0,8.2-1.5,10.3-3.8c2.1,1.1,4.7,1.7,7.6,1.7c6.6,0,11.9-3.4,11.9-7.7
			C192.9,318.8,190.5,316.3,186.8,315z"/>
		<path class="st0" d="M165.3,310.4c0,4.3,5.3,7.7,11.9,7.7c3.9,0,7.4-1.2,9.6-3.1c1.5-1.3,2.3-2.9,2.3-4.6c0-4.3-5.3-7.7-11.9-7.7
			c-1.9,0-3.7,0.3-5.3,0.8C168,304.8,165.3,307.4,165.3,310.4z"/>
	</g>
	<g>
		<path class="st0" d="M137.6,408.7c0.4-0.2,0.9-0.3,1.3-0.4c-0.4-1.9,0.4-3.8,2.2-5.5c-4.6-1.1-10-0.3-13.3,2.3
			c-2.4,1.9-3.2,4.3-2.5,6.5c0.1-0.1,0.2-0.2,0.4-0.3C128.7,409,133.3,408.1,137.6,408.7z"/>
		<path class="st1" d="M161.9,419.2c-3.6,0.6-7.5,0.1-10.5-1.5c-5.1-2.7-5.8-7.6-1.6-10.8c3-2.3,7.6-3.2,11.9-2.6
			c-0.7-1.1-1.8-2-3.3-2.8c-5.1-2.7-12.6-2.2-16.8,1c-0.1,0.1-0.3,0.2-0.4,0.4c-1.9,1.6-2.6,3.6-2.2,5.5c-0.5,0.1-0.9,0.3-1.3,0.4
			c-4.3-0.6-8.9,0.3-11.9,2.6c-0.1,0.1-0.2,0.2-0.4,0.3c-3.8,3.3-3,7.9,2,10.5c3.4,1.8,7.8,2.2,11.7,1.3c0.5,1.7,1.9,3.3,4.1,4.5
			c5.1,2.7,12.6,2.2,16.8-1C162.8,424.7,163.4,421.7,161.9,419.2z"/>
		<path class="st0" d="M149.8,406.8c-4.2,3.3-3.5,8.1,1.6,10.8c3,1.6,7,2.1,10.5,1.5c2.4-0.4,4.6-1.2,6.3-2.6
			c4.2-3.3,3.5-8.1-1.6-10.8c-1.5-0.8-3.2-1.3-4.9-1.6C157.4,403.6,152.7,404.5,149.8,406.8z"/>
	</g>
	<g>
		<path class="st0" d="M108.9,485c0.3-0.3,0.6-0.5,0.9-0.8c-1.6-1.6-2.4-3.5-1.8-5.5c-4.9,0.4-9.1,2.7-10.3,5.9
			c-0.8,2.4,0.1,4.8,2.3,6.5c0-0.1,0.1-0.3,0.1-0.4C101.2,487.9,104.7,485.7,108.9,485z"/>
		<path class="st1" d="M137.9,487.4c-2.8,1.5-6.6,2.2-10.5,1.7c-6.4-0.9-10.5-5.1-9-9.2c1-2.9,4.6-5.1,8.8-5.8
			c-1.4-0.7-3-1.3-4.9-1.6c-6.4-0.9-12.8,1.6-14.3,5.8c-0.1,0.1-0.1,0.3-0.1,0.4c-0.5,2,0.2,4,1.8,5.5c-0.3,0.2-0.6,0.5-0.9,0.8
			c-4.2,0.7-7.8,2.8-8.8,5.8c0,0.1-0.1,0.3-0.1,0.4c-1.1,4,2.9,7.9,9.1,8.8c4.3,0.6,8.5-0.3,11.3-2.2c1.6,1.4,4,2.4,6.8,2.8
			c6.4,0.9,12.8-1.6,14.3-5.8C142.5,492,141,489.2,137.9,487.4z"/>
		<path class="st0" d="M118.5,479.8c-1.5,4.1,2.6,8.3,9,9.2c3.8,0.6,7.7-0.1,10.5-1.7c1.9-1,3.3-2.4,3.9-4.1c1.5-4.1-2.6-8.3-9-9.2
			c-1.9-0.3-3.7-0.2-5.5,0C123,474.7,119.5,476.9,118.5,479.8z"/>
	</g>
	<g>
		<path class="st0" d="M222.3,599.6c0.2-0.3,0.4-0.6,0.6-0.9c-2.1-1.3-3.5-3.1-3.7-5.1c-4.6,1.1-8,3.9-8,7.3c0,2.4,1.8,4.6,4.5,6
			c0-0.1,0-0.3,0-0.4C215.7,603.4,218.4,600.8,222.3,599.6z"/>
		<path class="st1" d="M251.3,597.7c-2.2,1.9-5.7,3.1-9.6,3.1c-6.6,0-11.9-3.4-11.9-7.7c0-3,2.7-5.6,6.6-6.9
			c-1.6-0.5-3.4-0.8-5.3-0.8c-6.6,0-11.9,3.4-11.9,7.7c0,0.2,0,0.3,0,0.4c0.2,2,1.6,3.8,3.7,5.1c-0.2,0.3-0.4,0.6-0.6,0.9
			c-3.9,1.3-6.6,3.9-6.6,6.9c0,0.1,0,0.3,0,0.4c0.3,4.1,5.5,7.3,11.9,7.3c4.4,0,8.2-1.5,10.3-3.8c2.1,1.1,4.7,1.7,7.6,1.7
			c6.6,0,11.9-3.4,11.9-7.7C257.4,601.5,255,599,251.3,597.7z"/>
		<path class="st0" d="M229.8,593.1c0,4.3,5.3,7.7,11.9,7.7c3.9,0,7.4-1.2,9.6-3.1c1.5-1.3,2.3-2.9,2.3-4.6c0-4.3-5.3-7.7-11.9-7.7
			c-1.9,0-3.7,0.3-5.3,0.8C232.5,587.5,229.8,590.1,229.8,593.1z"/>
	</g>
	<g>
		<path class="st0" d="M350.8,566.6c0.4-0.2,0.8-0.4,1.2-0.6c-0.9-1.8-0.7-3.8,0.7-5.6c-4.8-0.6-9.9,0.9-12.5,3.8
			c-1.9,2.1-2,4.6-0.7,6.7c0.1-0.1,0.2-0.2,0.3-0.3C342.1,567.9,346.4,566.5,350.8,566.6z"/>
		<path class="st1" d="M377.5,574.2c-3.3,1-7.3,0.9-10.8-0.3c-5.7-2.1-7.8-6.8-4.5-10.5c2.3-2.6,6.7-4,11-3.9c-1-1-2.3-1.8-4-2.4
			c-5.7-2.1-13-0.8-16.3,2.9c-0.1,0.1-0.2,0.3-0.3,0.4c-1.4,1.8-1.6,3.8-0.7,5.6c-0.4,0.2-0.8,0.4-1.2,0.6c-4.4-0.1-8.7,1.3-11,3.9
			c-0.1,0.1-0.2,0.2-0.3,0.3c-2.8,3.6-0.8,8.1,4.8,10.2c3.8,1.4,8.3,1.3,11.9,0c1,1.6,2.8,3,5.3,3.9c5.7,2.1,13,0.8,16.3-2.9
			C379.9,579.5,379.7,576.5,377.5,574.2z"/>
		<path class="st0" d="M362.3,563.4c-3.3,3.7-1.2,8.4,4.5,10.5c3.4,1.3,7.4,1.3,10.8,0.3c2.3-0.6,4.2-1.7,5.5-3.2
			c3.3-3.7,1.2-8.4-4.5-10.5c-1.7-0.6-3.5-0.9-5.3-1C368.9,559.4,364.6,560.8,362.3,563.4z"/>
	</g>
	<g>
		<path class="st0" d="M326,467.1c0.2-0.3,0.4-0.6,0.6-0.9c-2.1-1.3-3.5-3.1-3.7-5.1c-4.6,1.1-8,3.9-8,7.3c0,2.4,1.8,4.6,4.5,6
			c0-0.1,0-0.3,0-0.4C319.4,470.9,322,468.3,326,467.1z"/>
		<path class="st1" d="M355,465.2c-2.2,1.9-5.7,3.1-9.6,3.1c-6.6,0-11.9-3.4-11.9-7.7c0-3,2.7-5.6,6.6-6.9c-1.6-0.5-3.4-0.8-5.3-0.8
			c-6.6,0-11.9,3.4-11.9,7.7c0,0.2,0,0.3,0,0.4c0.2,2,1.6,3.8,3.7,5.1c-0.2,0.3-0.4,0.6-0.6,0.9c-3.9,1.3-6.6,3.9-6.6,6.9
			c0,0.1,0,0.3,0,0.4c0.3,4.1,5.5,7.3,11.9,7.3c4.4,0,8.2-1.5,10.3-3.8c2.1,1.1,4.7,1.7,7.6,1.7c6.6,0,11.9-3.4,11.9-7.7
			C361.1,469,358.6,466.5,355,465.2z"/>
		<path class="st0" d="M333.4,460.6c0,4.3,5.3,7.7,11.9,7.7c3.9,0,7.4-1.2,9.6-3.1c1.5-1.3,2.3-2.9,2.3-4.6c0-4.3-5.3-7.7-11.9-7.7
			c-1.9,0-3.7,0.3-5.3,0.8C336.1,455,333.4,457.6,333.4,460.6z"/>
	</g>
	<g>
		<path class="st0" d="M421.8,415.3c0.4-0.1,0.9-0.3,1.4-0.4c-0.1-1.9,0.9-3.8,3-5.3c-4.4-1.4-9.9-0.9-13.6,1.5
			c-2.7,1.7-3.8,4.1-3.4,6.3c0.1-0.1,0.3-0.2,0.4-0.3C412.9,415,417.6,414.4,421.8,415.3z"/>
		<path class="st1" d="M444.4,427.1c-3.6,0.4-7.4-0.3-10.2-2.1c-4.7-3-4.7-7.9,0-10.9c3.3-2.1,8.1-2.8,12.2-1.9
			c-0.6-1.1-1.5-2.1-2.9-3c-4.7-3-12.2-3-16.9,0c-0.2,0.1-0.3,0.2-0.5,0.3c-2.1,1.5-3.1,3.4-3,5.3c-0.5,0.1-0.9,0.2-1.4,0.4
			c-4.2-0.9-8.9-0.3-12.2,1.9c-0.1,0.1-0.3,0.2-0.4,0.3c-4.2,3-4.1,7.7,0.4,10.6c3.1,2,7.5,2.6,11.5,2c0.3,1.7,1.4,3.4,3.5,4.7
			c4.7,3,12.2,3,16.9,0C444.6,432.6,445.6,429.7,444.4,427.1z"/>
		<path class="st0" d="M434.1,414.1c-4.7,3-4.6,7.9,0,10.9c2.8,1.8,6.6,2.5,10.2,2.1c2.4-0.2,4.8-1,6.7-2.2c4.7-3,4.6-7.9,0-10.9
			c-1.4-0.9-3-1.5-4.7-1.8C442.2,411.3,437.4,412,434.1,414.1z"/>
	</g>
	<g>
		<path class="st0" d="M377.3,355.4c-0.1-0.3-0.3-0.6-0.3-0.9c-2.9-0.2-5.7-1.2-7.7-2.7c-2.8,2.6-2.8,6.2,0.3,8.9
			c2.2,2,5.7,3,9.2,3.1c-0.1-0.1-0.3-0.2-0.4-0.3C375.6,361,375.4,357.9,377.3,355.4z"/>
		<path class="st1" d="M399,342.7c0,2.4-1.7,4.7-4.9,6.2c-5.3,2.5-12.8,1.8-16.7-1.6c-2.8-2.4-3-5.6-1-8.1c-1.8,0.2-3.5,0.6-5,1.4
			c-5.3,2.5-6.5,7.3-2.5,10.8c0.1,0.1,0.3,0.2,0.4,0.3c2,1.6,4.8,2.5,7.7,2.7c0.1,0.3,0.2,0.6,0.3,0.9c-2,2.5-1.8,5.6,1,8.1
			c0.1,0.1,0.3,0.2,0.4,0.3c4,3.2,11.2,3.8,16.3,1.3c3.5-1.7,5.2-4.4,4.8-7c2.7,0.1,5.4-0.4,7.7-1.5c5.3-2.5,6.5-7.3,2.5-10.8
			C407.4,343.5,403.1,342.4,399,342.7z"/>
		<path class="st0" d="M377.4,347.3c3.9,3.4,11.4,4.2,16.7,1.6c3.2-1.5,4.8-3.8,4.9-6.2c0-1.6-0.7-3.2-2.3-4.6
			c-3.9-3.4-11.4-4.2-16.7-1.6c-1.5,0.7-2.7,1.7-3.5,2.7C374.4,341.7,374.7,344.9,377.4,347.3z"/>
	</g>
	<g>
		<path class="st0" d="M627.9,444c0-0.3,0.1-0.6,0.2-1c-2.6-0.9-4.7-2.4-5.7-4.3c-4,1.8-6.1,5.1-4.7,8.4c1,2.4,3.6,4.2,6.8,5
			c-0.1-0.1-0.1-0.2-0.2-0.4C623.1,448.8,624.7,445.8,627.9,444z"/>
		<path class="st1" d="M655.1,437.2c-1.3,2.2-4.2,4-8,4.7c-6.4,1.1-12.9-1.3-14.7-5.4c-1.2-2.9,0.3-5.9,3.6-7.8
			c-1.8-0.2-3.6-0.2-5.5,0.1c-6.4,1.1-10.1,5.4-8.4,9.5c0.1,0.1,0.1,0.3,0.2,0.4c1,1.9,3.1,3.4,5.7,4.3c-0.1,0.3-0.2,0.6-0.2,1
			c-3.2,1.9-4.8,4.9-3.5,7.8c0.1,0.1,0.1,0.2,0.2,0.4c2,3.9,8.3,6.1,14.5,5c4.2-0.7,7.3-2.9,8.4-5.4c2.4,0.7,5.2,0.9,8,0.4
			c6.4-1.1,10.1-5.4,8.4-9.5C662.6,439.8,659.2,437.8,655.1,437.2z"/>
		<path class="st0" d="M632.5,436.5c1.7,4.1,8.3,6.5,14.7,5.4c3.8-0.7,6.7-2.5,8-4.7c0.9-1.5,1.1-3.2,0.4-4.8
			c-1.7-4.1-8.3-6.5-14.7-5.4c-1.8,0.3-3.5,0.9-4.8,1.7C632.8,430.6,631.3,433.5,632.5,436.5z"/>
	</g>
	<g>
		<path class="st0" d="M587.6,341.1c0.4-0.2,0.7-0.4,1.1-0.6c-1-1.8-1-3.8,0.2-5.7c-4.9-0.4-9.8,1.3-12.1,4.3
			c-1.7,2.2-1.5,4.7,0,6.7c0.1-0.1,0.1-0.2,0.2-0.4C579,342.7,583.2,341.2,587.6,341.1z"/>
		<path class="st1" d="M615,347.6c-3.2,1.1-7.2,1.2-10.8,0.1c-5.9-1.9-8.4-6.5-5.5-10.3c2-2.7,6.2-4.3,10.6-4.3
			c-1.1-0.9-2.5-1.7-4.2-2.2c-5.9-1.9-13.1-0.3-16,3.6c-0.1,0.1-0.2,0.3-0.3,0.4c-1.2,1.9-1.2,3.9-0.2,5.7c-0.4,0.2-0.8,0.4-1.1,0.6
			c-4.4,0-8.5,1.6-10.6,4.3c-0.1,0.1-0.2,0.2-0.2,0.4c-2.5,3.8,0,8.1,5.8,9.9c3.9,1.2,8.4,0.9,11.8-0.5c1.1,1.6,3,2.9,5.6,3.7
			c5.9,1.9,13.1,0.3,16-3.6C617.9,352.8,617.4,349.8,615,347.6z"/>
		<path class="st0" d="M598.7,337.4c-2.9,3.8-0.4,8.4,5.5,10.3c3.5,1.1,7.5,1,10.8-0.1c2.2-0.7,4-1.9,5.2-3.4
			c2.9-3.8,0.4-8.4-5.5-10.3c-1.7-0.5-3.5-0.8-5.3-0.8C604.9,333.1,600.7,334.7,598.7,337.4z"/>
	</g>
	<g>
		<path class="st0" d="M762.4,334.2c0-0.3,0-0.6,0-1c-2.8-0.7-5.1-2-6.5-3.8c-3.7,2.1-5,5.6-3,8.7c1.5,2.3,4.4,3.8,7.8,4.5
			c-0.1-0.1-0.2-0.2-0.3-0.3C758.6,339.4,759.5,336.4,762.4,334.2z"/>
		<path class="st1" d="M788.1,325.3c-0.9,2.3-3.4,4.3-7,5.3c-6.1,1.6-13.1-0.2-15.6-4.2c-1.8-2.8-0.8-5.9,2-8
			c-1.8-0.1-3.6,0.1-5.4,0.6c-6.1,1.6-9,6.1-6.5,10.1c0.1,0.1,0.2,0.3,0.3,0.4c1.4,1.8,3.7,3.2,6.5,3.8c0,0.3,0,0.6,0,1
			c-2.9,2.1-3.8,5.2-2,8c0.1,0.1,0.2,0.2,0.3,0.3c2.7,3.7,9.4,5.4,15.4,3.8c4.1-1.1,6.7-3.4,7.2-6.1c2.6,0.5,5.4,0.5,8-0.3
			c6.1-1.6,9-6.1,6.5-10.1C796,327.3,792.2,325.6,788.1,325.3z"/>
		<path class="st0" d="M765.5,326.4c2.5,3.9,9.5,5.8,15.6,4.2c3.6-1,6.1-3,7-5.3c0.6-1.5,0.5-3.2-0.6-4.8c-2.5-3.9-9.5-5.8-15.6-4.2
			c-1.8,0.5-3.3,1.2-4.4,2.1C764.6,320.5,763.7,323.6,765.5,326.4z"/>
	</g>
	<g>
		<path class="st0" d="M842.3,392.4c0.2-0.3,0.4-0.6,0.6-0.9c-2.1-1.3-3.5-3.1-3.7-5.1c-4.6,1.1-8,3.9-8,7.3c0,2.4,1.8,4.6,4.5,6
			c0-0.1,0-0.3,0-0.4C835.7,396.2,838.4,393.6,842.3,392.4z"/>
		<path class="st1" d="M871.3,390.5c-2.2,1.9-5.7,3.1-9.6,3.1c-6.6,0-11.9-3.4-11.9-7.7c0-3,2.7-5.6,6.6-6.9
			c-1.6-0.5-3.4-0.8-5.3-0.8c-6.6,0-11.9,3.4-11.9,7.7c0,0.2,0,0.3,0,0.4c0.2,2,1.6,3.8,3.7,5.1c-0.2,0.3-0.4,0.6-0.6,0.9
			c-3.9,1.3-6.6,3.9-6.6,6.9c0,0.1,0,0.3,0,0.4c0.3,4.1,5.5,7.3,11.9,7.3c4.4,0,8.2-1.5,10.3-3.8c2.1,1.1,4.7,1.7,7.6,1.7
			c6.6,0,11.9-3.4,11.9-7.7C877.5,394.3,875,391.8,871.3,390.5z"/>
		<path class="st0" d="M849.8,385.9c0,4.3,5.3,7.7,11.9,7.7c3.9,0,7.4-1.2,9.6-3.1c1.5-1.3,2.3-2.9,2.3-4.6c0-4.3-5.3-7.7-11.9-7.7
			c-1.9,0-3.7,0.3-5.3,0.8C852.5,380.3,849.8,382.9,849.8,385.9z"/>
	</g>
	<g>
		<path class="st0" d="M754.6,472.4c0.2-0.3,0.4-0.6,0.6-0.9c-2.1-1.3-3.5-3.1-3.7-5.1c-4.6,1.1-8,3.9-8,7.3c0,2.4,1.8,4.6,4.5,6
			c0-0.1,0-0.3,0-0.4C748,476.3,750.7,473.7,754.6,472.4z"/>
		<path class="st1" d="M783.7,470.5c-2.2,1.9-5.7,3.1-9.6,3.1c-6.6,0-11.9-3.4-11.9-7.7c0-3,2.7-5.6,6.6-6.9
			c-1.6-0.5-3.4-0.8-5.3-0.8c-6.6,0-11.9,3.4-11.9,7.7c0,0.2,0,0.3,0,0.4c0.2,2,1.6,3.8,3.7,5.1c-0.2,0.3-0.4,0.6-0.6,0.9
			c-3.9,1.3-6.6,3.9-6.6,6.9c0,0.1,0,0.3,0,0.4c0.3,4.1,5.5,7.3,11.9,7.3c4.4,0,8.2-1.5,10.3-3.8c2.1,1.1,4.7,1.7,7.6,1.7
			c6.6,0,11.9-3.4,11.9-7.7C789.8,474.3,787.3,471.8,783.7,470.5z"/>
		<path class="st0" d="M762.1,465.9c0,4.3,5.3,7.7,11.9,7.7c3.9,0,7.4-1.2,9.6-3.1c1.5-1.3,2.3-2.9,2.3-4.6c0-4.3-5.3-7.7-11.9-7.7
			c-1.9,0-3.7,0.3-5.3,0.8C764.8,460.3,762.1,462.9,762.1,465.9z"/>
	</g>
	<g>
		<path class="st0" d="M738.5,564.2c0.2-0.3,0.4-0.6,0.6-0.9c-2.1-1.3-3.5-3.1-3.7-5.1c-4.6,1.1-8,3.9-8,7.3c0,2.4,1.8,4.6,4.5,6
			c0-0.1,0-0.3,0-0.4C731.9,568.1,734.6,565.5,738.5,564.2z"/>
		<path class="st1" d="M767.5,562.3c-2.2,1.9-5.7,3.1-9.6,3.1c-6.6,0-11.9-3.4-11.9-7.7c0-3,2.7-5.6,6.6-6.9
			c-1.6-0.5-3.4-0.8-5.3-0.8c-6.6,0-11.9,3.4-11.9,7.7c0,0.2,0,0.3,0,0.4c0.2,2,1.6,3.8,3.7,5.1c-0.2,0.3-0.4,0.6-0.6,0.9
			c-3.9,1.3-6.6,3.9-6.6,6.9c0,0.1,0,0.3,0,0.4c0.3,4.1,5.5,7.3,11.9,7.3c4.4,0,8.2-1.5,10.3-3.8c2.1,1.1,4.7,1.7,7.6,1.7
			c6.6,0,11.9-3.4,11.9-7.7C773.7,566.2,771.2,563.6,767.5,562.3z"/>
		<path class="st0" d="M746,557.8c0,4.3,5.3,7.7,11.9,7.7c3.9,0,7.4-1.2,9.6-3.1c1.5-1.3,2.3-2.9,2.3-4.6c0-4.3-5.3-7.7-11.9-7.7
			c-1.9,0-3.7,0.3-5.3,0.8C748.7,552.1,746,554.7,746,557.8z"/>
	</g>
	<g>
		<path class="st0" d="M569.2,574.8c0.4-0.2,0.8-0.4,1.2-0.6c-0.9-1.8-0.7-3.8,0.7-5.6c-4.8-0.6-9.9,0.8-12.5,3.8
			c-1.9,2.1-2,4.6-0.7,6.7c0.1-0.1,0.2-0.2,0.3-0.3C560.5,576,564.9,574.6,569.2,574.8z"/>
		<path class="st1" d="M595.9,582.4c-3.3,1-7.3,0.9-10.8-0.3c-5.7-2.1-7.7-6.8-4.5-10.5c2.3-2.6,6.7-4,11-3.9c-1-1-2.3-1.8-4-2.4
			c-5.7-2.1-13-0.8-16.3,2.9c-0.1,0.1-0.2,0.3-0.3,0.4c-1.4,1.8-1.6,3.8-0.7,5.6c-0.4,0.2-0.8,0.4-1.2,0.6c-4.4-0.1-8.7,1.3-11,3.9
			c-0.1,0.1-0.2,0.2-0.3,0.3c-2.9,3.6-0.8,8.1,4.7,10.2c3.8,1.4,8.3,1.3,11.9,0c1,1.6,2.7,3,5.2,3.9c5.7,2.1,13,0.8,16.3-2.9
			C598.3,587.7,598.1,584.7,595.9,582.4z"/>
		<path class="st0" d="M580.7,571.6c-3.3,3.7-1.3,8.4,4.5,10.5c3.4,1.3,7.4,1.3,10.8,0.3c2.3-0.6,4.2-1.7,5.5-3.2
			c3.3-3.7,1.3-8.4-4.5-10.5c-1.7-0.6-3.5-0.9-5.2-1C587.4,567.5,583,568.9,580.7,571.6z"/>
	</g>
	<g>
		<path class="st0" d="M600.8,652.7c0.1-0.3,0.3-0.6,0.4-0.9c-2.3-1.1-4-2.8-4.6-4.8c-4.4,1.4-7.2,4.4-6.7,7.8
			c0.4,2.4,2.5,4.5,5.5,5.7c0-0.1-0.1-0.3-0.1-0.4C594.9,657,597.2,654.2,600.8,652.7z"/>
		<path class="st1" d="M629.4,648.7c-1.8,2-5.1,3.5-9,3.8c-6.6,0.5-12.5-2.6-13.2-6.8c-0.5-3,1.7-5.8,5.4-7.3
			c-1.7-0.4-3.5-0.6-5.4-0.4c-6.6,0.5-11.3,4.3-10.6,8.5c0,0.2,0.1,0.3,0.1,0.4c0.5,2,2.2,3.7,4.6,4.8c-0.2,0.3-0.3,0.6-0.4,0.9
			c-3.7,1.5-5.9,4.3-5.4,7.3c0,0.1,0.1,0.3,0.1,0.4c1,4,6.7,6.9,13.1,6.4c4.4-0.3,7.9-2.1,9.6-4.5c2.2,0.9,5,1.4,7.8,1.2
			c6.6-0.5,11.3-4.3,10.6-8.5C636.1,652.1,633.2,649.8,629.4,648.7z"/>
		<path class="st0" d="M607.2,645.7c0.7,4.2,6.6,7.3,13.2,6.8c3.9-0.3,7.2-1.8,9-3.8c1.2-1.4,1.8-3,1.5-4.7
			c-0.7-4.2-6.6-7.3-13.2-6.8c-1.9,0.1-3.6,0.6-5.2,1.2C608.9,639.9,606.6,642.7,607.2,645.7z"/>
	</g>
	<g>
		<path class="st0" d="M732.9,659.3c0.4-0.2,0.8-0.4,1.2-0.6c-0.9-1.8-0.8-3.8,0.6-5.7c-4.9-0.5-9.9,1-12.4,3.9
			c-1.8,2.1-1.9,4.6-0.5,6.7c0.1-0.1,0.2-0.2,0.3-0.3C724.2,660.6,728.5,659.2,732.9,659.3z"/>
		<path class="st1" d="M759.8,666.6c-3.3,1-7.3,1-10.8-0.2c-5.8-2-7.9-6.7-4.8-10.5c2.2-2.7,6.6-4.1,10.9-4c-1-0.9-2.4-1.8-4.1-2.4
			c-5.8-2-13-0.7-16.2,3.1c-0.1,0.1-0.2,0.3-0.3,0.4c-1.3,1.8-1.5,3.8-0.6,5.7c-0.4,0.2-0.8,0.4-1.2,0.6c-4.4-0.1-8.7,1.4-10.9,4
			c-0.1,0.1-0.2,0.2-0.3,0.3c-2.8,3.7-0.6,8.1,5,10.1c3.9,1.4,8.3,1.2,11.9-0.2c1,1.6,2.8,3,5.3,3.9c5.8,2,13,0.7,16.2-3.1
			C762.3,671.8,762,668.9,759.8,666.6z"/>
		<path class="st0" d="M744.2,655.9c-3.2,3.7-1,8.4,4.8,10.5c3.5,1.2,7.4,1.2,10.8,0.2c2.2-0.7,4.2-1.8,5.4-3.3
			c3.2-3.7,1-8.4-4.8-10.5c-1.7-0.6-3.5-0.9-5.3-0.9C750.8,651.8,746.5,653.3,744.2,655.9z"/>
	</g>
	<g>
		<path class="st0" d="M897.1,529.4c-0.1-0.3-0.1-0.6-0.1-1c-2.8-0.6-5.3-1.8-6.8-3.6c-3.4,2.3-4.5,5.8-2.2,8.8
			c1.7,2.2,4.8,3.6,8.2,4.1c-0.1-0.1-0.2-0.2-0.3-0.3C893.9,534.8,894.5,531.7,897.1,529.4z"/>
		<path class="st1" d="M921.9,519.4c-0.7,2.3-2.9,4.4-6.5,5.6c-5.9,1.9-13.1,0.3-16-3.5c-2.1-2.7-1.4-5.8,1.2-8.1
			c-1.8,0-3.6,0.2-5.3,0.8c-5.9,1.9-8.4,6.5-5.4,10.3c0.1,0.1,0.2,0.3,0.3,0.4c1.5,1.8,4,3,6.8,3.6c0,0.3,0,0.6,0.1,1
			c-2.6,2.2-3.3,5.3-1.2,8c0.1,0.1,0.2,0.2,0.3,0.3c3.1,3.6,10,5,15.7,3.2c3.9-1.2,6.3-3.7,6.6-6.3c2.6,0.4,5.4,0.2,8-0.6
			c5.9-1.9,8.4-6.5,5.4-10.3C930,521.1,926.1,519.6,921.9,519.4z"/>
		<path class="st0" d="M899.4,521.5c2.9,3.8,10.1,5.4,16,3.5c3.5-1.1,5.8-3.2,6.5-5.6c0.4-1.6,0.1-3.2-1-4.8
			c-2.9-3.8-10.1-5.4-16-3.5c-1.7,0.5-3.1,1.3-4.2,2.2C898,515.7,897.4,518.8,899.4,521.5z"/>
	</g>
	<g>
		<path class="st0" d="M1007.5,453.2c-0.1-0.3-0.2-0.6-0.3-0.9c-2.9-0.3-5.6-1.4-7.4-3c-3,2.5-3.4,6.1-0.6,8.9
			c2.1,2.1,5.4,3.3,8.9,3.5c-0.1-0.1-0.2-0.2-0.4-0.3C1005.2,458.8,1005.2,455.7,1007.5,453.2z"/>
		<path class="st1" d="M1030.2,441.4c-0.2,2.4-2.1,4.6-5.4,6c-5.5,2.3-12.9,1.3-16.5-2.3c-2.5-2.5-2.5-5.7-0.2-8.1
			c-1.8,0.1-3.5,0.5-5.2,1.2c-5.5,2.3-7.1,7.1-3.5,10.7c0.1,0.1,0.3,0.2,0.4,0.4c1.9,1.6,4.5,2.7,7.4,3c0.1,0.3,0.1,0.6,0.3,0.9
			c-2.2,2.4-2.3,5.6,0.3,8.1c0.1,0.1,0.2,0.2,0.4,0.3c3.7,3.3,10.8,4.2,16.2,2c3.7-1.5,5.6-4.2,5.4-6.8c2.6,0.2,5.4-0.2,7.8-1.2
			c5.5-2.3,7.1-7.1,3.5-10.7C1038.6,442.5,1034.4,441.3,1030.2,441.4z"/>
		<path class="st0" d="M1008.3,445.2c3.6,3.6,11,4.6,16.5,2.3c3.3-1.4,5.2-3.6,5.4-6c0.2-1.6-0.4-3.2-1.9-4.7
			c-3.6-3.6-11-4.6-16.5-2.3c-1.6,0.7-2.9,1.6-3.8,2.5C1005.8,439.5,1005.7,442.6,1008.3,445.2z"/>
	</g>
	<g>
		<path class="st0" d="M972.1,314.1c0-0.3,0-0.6,0-1c-2.7-0.7-5-2.1-6.4-3.9c-3.7,2.1-5.2,5.5-3.3,8.6c1.4,2.3,4.3,3.9,7.6,4.5
			c-0.1-0.1-0.2-0.2-0.2-0.4C968.2,319.3,969.2,316.2,972.1,314.1z"/>
		<path class="st1" d="M998,305.5c-0.9,2.3-3.5,4.3-7.2,5.2c-6.1,1.6-13.1-0.4-15.5-4.3c-1.7-2.8-0.7-5.9,2.3-8
			c-1.8-0.1-3.6,0-5.4,0.5c-6.1,1.6-9.2,6-6.7,10c0.1,0.1,0.2,0.3,0.3,0.4c1.3,1.8,3.6,3.2,6.4,3.9c0,0.3-0.1,0.6,0,1
			c-2.9,2.1-3.9,5.2-2.2,8c0.1,0.1,0.2,0.2,0.2,0.4c2.6,3.7,9.3,5.5,15.2,4c4.1-1,6.8-3.4,7.4-6c2.5,0.5,5.4,0.5,8-0.2
			c6.1-1.6,9.2-6,6.7-10C1005.9,307.6,1002.2,305.8,998,305.5z"/>
		<path class="st0" d="M975.4,306.3c2.4,4,9.4,5.9,15.5,4.3c3.7-0.9,6.2-2.9,7.2-5.2c0.6-1.5,0.6-3.2-0.4-4.8
			c-2.4-4-9.4-5.9-15.5-4.3c-1.8,0.5-3.3,1.2-4.5,2C974.7,300.4,973.7,303.5,975.4,306.3z"/>
	</g>
	<g>
		<path class="st0" d="M987.1,235.4c0.2-0.3,0.4-0.6,0.6-0.9c-2.1-1.3-3.5-3.1-3.7-5.1c-4.6,1.1-8,3.9-8,7.3c0,2.4,1.8,4.6,4.5,6
			c0-0.1,0-0.3,0-0.4C980.5,239.3,983.2,236.7,987.1,235.4z"/>
		<path class="st1" d="M1016.1,233.5c-2.2,1.9-5.7,3.1-9.6,3.1c-6.6,0-11.9-3.4-11.9-7.7c0-3,2.7-5.6,6.6-6.9
			c-1.6-0.5-3.4-0.8-5.3-0.8c-6.6,0-11.9,3.4-11.9,7.7c0,0.2,0,0.3,0,0.4c0.2,2,1.6,3.8,3.7,5.1c-0.2,0.3-0.4,0.6-0.6,0.9
			c-3.9,1.3-6.6,3.9-6.6,6.9c0,0.1,0,0.3,0,0.4c0.3,4.1,5.5,7.3,11.9,7.3c4.4,0,8.2-1.5,10.3-3.8c2.1,1.1,4.7,1.7,7.6,1.7
			c6.6,0,11.9-3.4,11.9-7.7C1022.2,237.4,1019.8,234.9,1016.1,233.5z"/>
		<path class="st0" d="M994.6,229c0,4.3,5.3,7.7,11.9,7.7c3.9,0,7.4-1.2,9.6-3.1c1.5-1.3,2.3-2.9,2.3-4.6c0-4.3-5.3-7.7-11.9-7.7
			c-1.9,0-3.7,0.3-5.3,0.8C997.3,223.3,994.6,226,994.6,229z"/>
	</g>
</g>
<g id="Crust">
</g>
</svg>
