<?xml version="1.0" encoding="utf-8"?>
<!-- Generator: Adobe Illustrator 21.0.0, SVG Export Plug-In . SVG Version: 6.00 Build 0)  -->
<!DOCTYPE svg PUBLIC "-//W3C//DTD SVG 1.1//EN" "http://www.w3.org/Graphics/SVG/1.1/DTD/svg11.dtd">
<svg version="1.1" xmlns="http://www.w3.org/2000/svg" xmlns:xlink="http://www.w3.org/1999/xlink" x="0px" y="0px"
	 viewBox="0 0 1131.4 754.4" style="enable-background:new 0 0 1131.4 754.4;" xml:space="preserve">
<style type="text/css">
	.st0{fill:#F16E46;}
</style>
<g id="Background">
</g>
<g id="Cheese">
</g>
<g id="Pepperoni">
</g>
<g id="Peppers">
</g>
<g id="Mushrooms">
</g>
<g id="Ham">
	<path class="st0" d="M541.8,533.8c11.3-12.3,13.8-26,7.6-41.1c-1-2.4,2.1-4.8,6-4.4l13.2,1.1c2.6,0.2,4.6,1.6,4.8,3.2
		c1.9,15.5-1.1,30.6-8.8,45.2c-0.8,1.6-3.3,2.6-5.9,2.4l-12.8-1C541.9,538.8,539.8,536,541.8,533.8z"/>
	<path class="st0" d="M146.7,477.7c-18.1-8.3-39-11.1-62.8-8.4c-3.9,0.4-7.2-1.8-6.3-4.2l2.8-8.4c0.5-1.6,2.8-2.8,5.4-2.8
		c24.1,0.1,47.1,3.3,69.2,9.5c2.4,0.7,3.7,2.4,3.2,4l-2.7,8.2C154.5,478.1,149.9,479.2,146.7,477.7z"/>
	<path class="st0" d="M649.3,423.7c-22.2-0.1-41.8,5.4-58.8,16.5c-2.8,1.8-7.4,1.2-9-1.1l-5.2-7.9c-1-1.5-0.2-3.4,1.9-4.3
		c19.8-8.8,41.4-14.8,65-17.9c2.6-0.3,5.1,0.5,6.2,2.1l5.1,7.7C656,421.1,653.3,423.7,649.3,423.7z"/>
	<path class="st0" d="M387.1,356.2c-22.2,0.9-41.2,7.2-57,18.9c-2.6,1.9-7.3,1.5-9.1-0.7l-6-7.6c-1.2-1.5-0.6-3.3,1.5-4.4
		c18.8-9.7,39.9-16.5,63.1-20.6c2.5-0.4,5.2,0.3,6.4,1.8l5.8,7.4C393.6,353.3,391.1,356,387.1,356.2z"/>
	<path class="st0" d="M381.3,432.8c-22.1-1.5-42.4,2.7-61.1,12.6c-3,1.6-7.6,0.7-8.8-1.7l-3.9-8.2c-0.8-1.6,0.3-3.4,2.6-4.2
		c21.1-7.5,43.6-12,67.5-13.6c2.6-0.2,5,0.9,5.8,2.5l3.8,8C388.4,430.7,385.3,433.1,381.3,432.8z"/>
	<path class="st0" d="M553.7,307.4c-8.3-13.3-23.6-22.9-46-28.9c-3.6-1-4.6-4-1.8-5.8l9.3-6.1c1.8-1.2,4.7-1.4,6.9-0.5
		c20.2,8.4,37,19.1,50.4,32c1.5,1.4,1.2,3.3-0.7,4.5l-9.1,5.9C559.9,310.4,555.2,309.8,553.7,307.4z"/>
	<path class="st0" d="M745.7,65c-21.5,3.7-38.2,12.3-50.1,25.8c-1.9,2.2-6.7,2.4-9.1,0.4l-8.2-6.7c-1.6-1.3-1.6-3.2,0.1-4.5
		c15.5-11.9,34-21.3,55.5-28.2c2.3-0.8,5.2-0.3,6.8,1l8,6.5C751.1,61.4,749.5,64.3,745.7,65z"/>
	<path class="st0" d="M280.9,484.9c-13.2-11.5-31.8-18.3-55.7-20.5c-3.9-0.4-6-3.1-4-5.3l6.7-7.4c1.3-1.5,4-2.1,6.5-1.6
		c22.8,4.9,43.2,12.5,61.2,22.9c1.9,1.1,2.4,3,1.1,4.4l-6.5,7.2C288.2,486.8,283.3,487,280.9,484.9z"/>
	<path class="st0" d="M332.4,591.8c-22.2,0-41.8,5.5-58.8,16.6c-2.7,1.8-7.4,1.2-9-1.1l-5.2-7.9c-1-1.5-0.2-3.4,1.9-4.3
		c19.7-8.9,41.4-14.9,65-18c2.6-0.3,5.1,0.5,6.2,2.1l5.1,7.7C339.1,589.2,336.4,591.9,332.4,591.8z"/>
	<path class="st0" d="M616.3,618.5c-22.1,1.1-41,7.6-56.6,19.5c-2.5,1.9-7.3,1.6-9.1-0.6l-6.2-7.6c-1.2-1.5-0.7-3.3,1.4-4.4
		c18.6-9.9,39.4-16.9,62.6-21.3c2.5-0.5,5.2,0.3,6.4,1.8l6,7.4C622.7,615.6,620.3,618.3,616.3,618.5z"/>
	<path class="st0" d="M874.2,589.1c-10.8-12.5-27.9-20.8-51.2-24.9c-3.8-0.7-5.3-3.6-2.9-5.6l8.1-6.8c1.6-1.3,4.4-1.8,6.8-1.1
		c21.7,6.7,40.4,16,56.2,27.7c1.7,1.3,1.8,3.1,0.2,4.5l-7.9,6.6C881,591.6,876.2,591.3,874.2,589.1z"/>
	<path class="st0" d="M947.9,488.1c-3-14.2-14.3-25.9-33.7-35.2c-3.1-1.5-2.9-4.6,0.4-5.9l11.3-4.4c2.2-0.9,5.1-0.6,6.9,0.6
		c16.4,11.4,28.6,24.4,36.7,39c0.9,1.6-0.1,3.4-2.3,4.2l-11.1,4.3C952.9,492,948.5,490.7,947.9,488.1z"/>
	<path class="st0" d="M822.4,437.1c-22.2,0.5-41.4,6.6-57.7,18.1c-2.6,1.9-7.4,1.4-9-0.9l-5.7-7.7c-1.1-1.5-0.5-3.3,1.6-4.4
		c19.2-9.4,40.4-16,63.8-19.7c2.5-0.4,5.2,0.4,6.3,1.9l5.6,7.5C829,434.3,826.4,437,822.4,437.1z"/>
	<path class="st0" d="M911.4,345.9c-12.7-11.7-31-18.9-54.8-21.5c-3.9-0.4-5.8-3.2-3.8-5.4l7-7.3c1.4-1.4,4.1-2.1,6.6-1.5
		c22.6,5.3,42.7,13.3,60.2,23.9c1.9,1.2,2.3,3,0.9,4.5l-6.8,7.1C918.5,347.9,913.6,348,911.4,345.9z"/>
	<path class="st0" d="M710.3,281c-18.1,8.3-29,20.1-32.8,35.5c-0.6,2.5-5,3.8-8.3,2.5l-11.4-4.4c-2.2-0.9-3.2-2.6-2.4-4.2
		c8-14.6,20.2-27.6,36.6-39c1.8-1.2,4.7-1.5,6.9-0.6L710,275C713.4,276.4,713.6,279.5,710.3,281z"/>
	<path class="st0" d="M504.1,222.6c-21.8,2.6-39.5,10.4-53,23.3c-2.2,2.1-7,2.1-9.1,0l-7.4-7.1c-1.5-1.4-1.2-3.3,0.6-4.5
		c16.9-11.1,36.4-19.6,58.7-25.4c2.4-0.6,5.2-0.1,6.7,1.3l7.2,6.9C510,219.2,508,222.1,504.1,222.6z"/>
	<path class="st0" d="M339.5,256.3c-15.3-10.4-35-15.7-59.2-16c-3.9,0-6.5-2.6-5-5l5.2-7.9c1-1.5,3.6-2.4,6.2-2.1
		c23.6,3.1,45.3,9.1,65,17.9c2.1,1,2.9,2.8,1.9,4.3l-5.1,7.7C347,257.6,342.2,258.1,339.5,256.3z"/>
	<path class="st0" d="M131.6,291.5c-14.1-11.1-33.1-17.3-57.2-18.7c-3.9-0.2-6.2-2.9-4.4-5.2l6.1-7.6c1.2-1.5,3.9-2.3,6.4-1.8
		c23.2,4.2,44.1,11.2,62.8,20.9c2,1.1,2.6,2.9,1.4,4.4l-5.9,7.4C139,293.2,134.1,293.5,131.6,291.5z"/>
	<path class="st0" d="M349.6,139.3c-22-1.8-42.5,2.2-61.5,11.9c-3.1,1.6-7.6,0.6-8.7-1.8l-3.7-8.2c-0.7-1.6,0.4-3.3,2.7-4.1
		c21.3-7.3,43.9-11.5,67.9-12.8c2.6-0.1,5,0.9,5.7,2.6l3.6,8C356.7,137.2,353.5,139.6,349.6,139.3z"/>
	<path class="st0" d="M524.7,133.7c11.4-12.3,14.1-25.9,8-41c-1-2.4,2.2-4.7,6.1-4.4l13.2,1.1c2.6,0.2,4.6,1.6,4.8,3.3
		c1.7,15.5-1.4,30.5-9.3,45.2c-0.9,1.6-3.3,2.6-5.9,2.3l-12.8-1.1C524.7,138.7,522.6,135.9,524.7,133.7z"/>
	<path class="st0" d="M809.9,150.8c-15.2-10.5-34.8-15.9-59-16.3c-3.9-0.1-6.5-2.7-4.9-5l5.3-7.9c1-1.5,3.6-2.4,6.2-2.1
		c23.6,3.2,45.2,9.3,64.9,18.2c2.1,1,2.9,2.8,1.9,4.3l-5.2,7.6C817.4,152.1,812.6,152.6,809.9,150.8z"/>
	<path class="st0" d="M911.3,238.5c-9.1-13.1-25-22.3-47.6-27.7c-3.7-0.9-4.8-3.9-2.1-5.7l9-6.3c1.8-1.2,4.6-1.5,6.9-0.7
		c20.7,8,38.1,18.2,52.2,30.8c1.5,1.4,1.4,3.2-0.4,4.5l-8.7,6.2C917.7,241.4,912.9,240.9,911.3,238.5z"/>
	<path class="st0" d="M1079.6,341.2c-22.2,0.6-41.4,6.7-57.6,18.3c-2.6,1.9-7.3,1.4-9.1-0.8l-5.8-7.7c-1.1-1.5-0.5-3.3,1.6-4.4
		c19.1-9.4,40.3-16.1,63.6-19.9c2.5-0.4,5.2,0.4,6.3,1.9l5.6,7.5C1086.2,338.4,1083.6,341.1,1079.6,341.2z"/>
</g>
<g id="Pineapple">
</g>
<g id="Bacon">
</g>
<g id="Sausage">
</g>
<g id="Crust">
</g>
</svg>
