<?xml version="1.0" encoding="utf-8"?>
<!-- Generator: Adobe Illustrator 21.0.0, SVG Export Plug-In . SVG Version: 6.00 Build 0)  -->
<!DOCTYPE svg PUBLIC "-//W3C//DTD SVG 1.1//EN" "http://www.w3.org/Graphics/SVG/1.1/DTD/svg11.dtd">
<svg version="1.1" xmlns="http://www.w3.org/2000/svg" xmlns:xlink="http://www.w3.org/1999/xlink" x="0px" y="0px"
	 viewBox="0 0 1131.4 775.6" style="enable-background:new 0 0 1131.4 775.6;" xml:space="preserve">
<style type="text/css">
	.st0{fill:#F2E3C4;}
	.st1{opacity:0.25;}
	.st2{fill:none;}
	.st3{fill:#754C29;}
</style>
<g id="Background">
</g>
<g id="Cheese">
</g>
<g id="Pepperoni">
</g>
<g id="Peppers">
</g>
<g id="Mushrooms">
	<g>
		<path class="st0" d="M642.1,288.6c-6.3-8.4-14-14.4-24.5-20.3c-7.7-3.9-17.7-3.7-24.2-0.4c-6.5,3.3-7.5,9.4-2.4,13.6
			c1.4,1.1,3.1,2,5,2.6l0.1,0.1l-12.8,6.6c-1.6,0.8-1.8,2.3-0.6,3.3l12.6,10.2c1.3,1,3.6,1.2,5.1,0.4l12.8-6.6l0.2,0.1
			c0.5,1.3,1.4,2.6,2.8,3.7c5.1,4.2,14.6,4.9,21,1.5C643.8,300,645.3,294.2,642.1,288.6z"/>
		<g class="st1">
			<path class="st2" d="M596.8,282.6c-0.3,0.5-0.4,1-0.5,1.5l10.6-5.4C602.7,278,598,280.3,596.8,282.6z"/>
			<path class="st2" d="M623.9,292.5l-10.6,5.4c0.8,0.1,1.6,0.1,2.5,0C619.5,297.7,624,295.2,623.9,292.5z"/>
			<path class="st3" d="M626.7,293.2c-1.2-2.6-4.6-4-5.5-3.9l-27.1,13.9l1.1,0.9c1.3,1,3.6,1.2,5.3,0.4l12.8-6.6l10.6-5.4
				c0.1,2.7-4.4,5.2-8.1,5.5c-0.8,0.1-1.7,0-2.5,0c1.7,0.9,3.8,1.3,6.1,1.1C624,298.7,627.7,296.2,626.7,293.2z"/>
			<path class="st3" d="M606.4,276.8c-4.4-1.3-9,0.5-10.5,3.3c-0.8,1.4-0.6,2.9,0.3,4.1c0.1-0.5,0.2-1,0.5-1.5
				c1.2-2.2,5.9-4.6,10.1-3.9l-10.6,5.4l-12.8,6.6c-1.6,0.8-1.9,2.3-0.6,3.4l1.1,0.9l27.1-13.9C611.4,280.5,610.1,278.1,606.4,276.8
				z"/>
		</g>
	</g>
	<g>
		<path class="st0" d="M611.2,84.6c-6.3-8.4-14-14.4-24.5-20.3c-7.7-3.9-17.7-3.7-24.2-0.4c-6.5,3.3-7.5,9.4-2.4,13.6
			c1.4,1.1,3.1,2,5,2.6l0.1,0.1l-12.8,6.6c-1.6,0.8-1.8,2.3-0.6,3.3l12.6,10.2c1.3,1,3.6,1.2,5.1,0.4l12.8-6.6l0.2,0.1
			c0.5,1.3,1.4,2.6,2.8,3.7c5.1,4.2,14.6,4.9,21,1.5C612.9,96.1,614.4,90.3,611.2,84.6z"/>
		<g class="st1">
			<path class="st2" d="M565.9,78.6c-0.3,0.5-0.4,1-0.5,1.5l10.6-5.4C571.8,74,567.1,76.3,565.9,78.6z"/>
			<path class="st2" d="M593,88.5L582.5,94c0.8,0.1,1.6,0.1,2.5,0C588.6,93.7,593.1,91.3,593,88.5z"/>
			<path class="st3" d="M595.8,89.2c-1.2-2.6-4.6-4-5.5-3.9l-27.1,13.9l1.1,0.9c1.3,1,3.6,1.2,5.3,0.4l12.8-6.6l10.6-5.4
				c0.1,2.7-4.4,5.2-8.1,5.5c-0.8,0.1-1.7,0-2.5,0c1.7,0.9,3.8,1.3,6.1,1.1C593.1,94.7,596.8,92.3,595.8,89.2z"/>
			<path class="st3" d="M575.5,72.8c-4.4-1.3-9,0.5-10.5,3.3c-0.8,1.4-0.6,2.9,0.3,4.1c0.1-0.5,0.2-1,0.5-1.5
				c1.2-2.2,5.9-4.6,10.1-3.9l-10.6,5.4l-12.8,6.6c-1.6,0.8-1.9,2.3-0.6,3.4l1.1,0.9l27.1-13.9C580.5,76.6,579.3,74.1,575.5,72.8z"
				/>
		</g>
	</g>
	<g>
		<path class="st0" d="M1054.6,410.3c-6.3-8.4-14-14.4-24.5-20.3c-7.7-3.9-17.7-3.7-24.2-0.4c-6.5,3.3-7.5,9.4-2.4,13.6
			c1.4,1.1,3.1,2,5,2.6l0.1,0.1l-12.8,6.6c-1.6,0.8-1.8,2.3-0.6,3.3l12.6,10.2c1.3,1,3.6,1.2,5.1,0.4l12.8-6.6l0.2,0.1
			c0.5,1.3,1.4,2.6,2.8,3.7c5.1,4.2,14.6,4.9,21,1.5C1056.3,421.7,1057.8,415.9,1054.6,410.3z"/>
		<g class="st1">
			<path class="st2" d="M1009.3,404.3c-0.3,0.5-0.4,1-0.5,1.5l10.6-5.4C1015.2,399.7,1010.5,402,1009.3,404.3z"/>
			<path class="st2" d="M1036.4,414.2l-10.6,5.4c0.8,0.1,1.6,0.1,2.5,0C1032,419.4,1036.5,416.9,1036.4,414.2z"/>
			<path class="st3" d="M1039.3,414.9c-1.2-2.6-4.6-4-5.5-3.9l-27.1,13.9l1.1,0.9c1.3,1,3.6,1.2,5.3,0.4l12.8-6.6l10.6-5.4
				c0.1,2.7-4.4,5.2-8.1,5.5c-0.8,0.1-1.7,0-2.5,0c1.7,0.9,3.8,1.3,6.1,1.1C1036.5,420.4,1040.2,417.9,1039.3,414.9z"/>
			<path class="st3" d="M1018.9,398.5c-4.4-1.3-9,0.5-10.5,3.3c-0.8,1.4-0.6,2.9,0.3,4.1c0.1-0.5,0.2-1,0.5-1.5
				c1.2-2.2,5.9-4.6,10.1-3.9l-10.6,5.4l-12.8,6.6c-1.6,0.8-1.9,2.3-0.6,3.4l1.1,0.9l27.1-13.9
				C1023.9,402.2,1022.7,399.8,1018.9,398.5z"/>
		</g>
	</g>
	<g>
		<path class="st0" d="M507.4,311.4c-13.7,3.1-23.7,7.5-34,13.6c-6.9,4.5-7.6,11-3.2,15.5c4.4,4.5,13.7,5.8,20.7,3
			c1.9-0.8,3.4-1.8,4.6-2.9l0.1,0l8.8,8.9c1.1,1.1,3.3,1.4,5,0.7l17.1-7c1.7-0.7,2.2-2.2,1.1-3.3l-8.8-8.9l0.2-0.1
			c2.1-0.2,4.2-0.6,6.1-1.4c7-2.9,9-8.8,4.6-13.3C525.2,311.6,516.4,310,507.4,311.4z"/>
		<g class="st1">
			<path class="st2" d="M493.3,339.9c0.8,0.2,1.5,0.4,2.3,0.5l-7.3-7.3C486.9,335.6,490,338.8,493.3,339.9z"/>
			<path class="st2" d="M511.5,323.5l7.3,7.3c0.2-0.5,0.3-1,0.3-1.6C519,326.9,515.7,323.8,511.5,323.5z"/>
			<path class="st3" d="M512.9,321.8c-4.2,0.5-6.6,2.5-6.6,3.1l18.6,18.8l1.5-0.6c1.7-0.7,2.3-2.2,1.1-3.3l-8.8-8.9l-7.3-7.3
				c4.2,0.2,7.5,3.4,7.6,5.8c0,0.5-0.1,1.1-0.3,1.6c1.5-1,2.4-2.3,2.4-3.8C521.1,324.1,517.7,321.5,512.9,321.8z"/>
			<path class="st3" d="M485.4,333.1c-2.5,2.7-0.2,5.8,3.9,7.1c2.1,0.6,4.4,0.7,6.4,0.2c-0.8-0.1-1.6-0.3-2.3-0.5
				c-3.3-1-6.4-4.3-4.9-6.9l7.3,7.3l8.8,8.9c1.1,1.1,3.4,1.5,5.2,0.7l1.5-0.6l-18.6-18.8C491.7,330.3,487.8,330.8,485.4,333.1z"/>
		</g>
	</g>
	<g>
		<path class="st0" d="M309,188.7c-12,5.2-20.1,11-27.7,18.6c-4.9,5.5-3.1,11.8,2.9,15.5c6,3.6,15.5,3.4,21.1-0.5
			c1.5-1.1,2.6-2.3,3.3-3.6l0.1-0.1l12,7.2c1.5,0.9,3.8,0.8,5.2-0.1l13.9-9.5c1.4-0.9,1.3-2.4-0.2-3.3l-12-7.2l0.2-0.1
			c2-0.5,3.8-1.3,5.3-2.4c5.6-3.9,5.3-10-0.7-13.6C326.4,186,317.3,185.9,309,188.7z"/>
		<g class="st1">
			<path class="st2" d="M306.4,218.5c0.8,0.1,1.6,0.1,2.5,0.1l-9.9-6C298.5,215.4,302.8,218,306.4,218.5z"/>
			<path class="st2" d="M317.7,199.7l9.9,6c0-0.5-0.1-1-0.3-1.6C326.3,201.8,321.9,199.3,317.7,199.7z"/>
			<path class="st3" d="M318.4,197.9c-3.9,1.1-5.4,3.5-5.2,4.1l25.3,15.3l1.2-0.8c1.4-1,1.3-2.5-0.2-3.4l-11.9-7.2l-9.9-6
				c4.2-0.5,8.6,2.1,9.5,4.4c0.2,0.5,0.3,1.1,0.3,1.6c1.1-1.2,1.4-2.6,0.8-4.1C327.2,198.8,322.9,196.8,318.4,197.9z"/>
			<path class="st3" d="M296.1,213.2c-1.4,3,2.1,5.7,6.5,6.2c2.3,0.3,4.5,0,6.2-0.8c-0.8,0-1.6,0-2.5-0.1c-3.6-0.5-7.9-3.1-7.4-5.8
				l9.9,6l11.9,7.2c1.5,0.9,3.9,0.9,5.3-0.1l1.2-0.8L302,209.6C301.2,209.5,297.6,210.6,296.1,213.2z"/>
		</g>
	</g>
	<g>
		<path class="st0" d="M94.8,390.1c-12,5.2-20.1,11-27.7,18.6c-4.9,5.5-3.1,11.8,2.9,15.5c6,3.6,15.5,3.4,21.1-0.5
			c1.5-1.1,2.6-2.3,3.3-3.6l0.1-0.1l12,7.2c1.5,0.9,3.8,0.8,5.2-0.1l13.9-9.5c1.4-0.9,1.3-2.4-0.2-3.3l-12-7.2l0.2-0.1
			c2-0.5,3.8-1.3,5.3-2.4c5.6-3.9,5.3-10-0.7-13.6C112.1,387.3,103,387.3,94.8,390.1z"/>
		<g class="st1">
			<path class="st2" d="M92.2,419.9c0.8,0.1,1.6,0.1,2.5,0.1l-9.9-6C84.3,416.7,88.5,419.4,92.2,419.9z"/>
			<path class="st2" d="M103.5,401.1l9.9,6c0-0.5-0.1-1-0.3-1.6C112.1,403.2,107.7,400.7,103.5,401.1z"/>
			<path class="st3" d="M104.1,399.2c-3.9,1.1-5.4,3.5-5.2,4.1l25.3,15.3l1.2-0.8c1.4-1,1.3-2.5-0.2-3.4l-11.9-7.2l-9.9-6
				c4.2-0.5,8.6,2.1,9.5,4.4c0.2,0.5,0.3,1.1,0.3,1.6c1.1-1.2,1.4-2.6,0.8-4.1C113,400.2,108.7,398.2,104.1,399.2z"/>
			<path class="st3" d="M81.9,414.6c-1.4,3,2.1,5.7,6.5,6.2c2.3,0.3,4.5,0,6.2-0.8c-0.8,0-1.6,0-2.5-0.1c-3.6-0.5-7.9-3.1-7.4-5.8
				l9.9,6l11.9,7.2c1.5,0.9,3.9,0.9,5.3-0.1l1.2-0.8L87.8,411C86.9,410.9,83.3,412,81.9,414.6z"/>
		</g>
	</g>
	<g>
		<path class="st0" d="M317.1,284.3c-12.7,4.5-21.6,9.8-30.2,16.9c-5.7,5.1-4.8,11.6,0.7,15.6c5.5,4,14.9,4.3,21.1,0.8
			c1.7-1,2.9-2.1,3.8-3.4l0.1,0l10.9,7.9c1.3,1,3.6,1.1,5.2,0.2l15.2-8.7c1.5-0.9,1.6-2.4,0.3-3.3l-10.9-7.9l0.2-0.1
			c2-0.4,4-1.1,5.6-2c6.2-3.5,6.7-9.6,1.2-13.6C334.8,282.6,325.7,282,317.1,284.3z"/>
		<g class="st1">
			<path class="st2" d="M310.2,313.8c0.8,0.2,1.6,0.2,2.4,0.2l-9-6.5C302.9,310.2,306.7,313.2,310.2,313.8z"/>
			<path class="st2" d="M324.2,295.8l9,6.5c0.1-0.5,0-1-0.1-1.6C332.4,298.4,328.4,295.6,324.2,295.8z"/>
			<path class="st3" d="M325.1,294c-4,0.9-5.9,3.2-5.7,3.7l23,16.7l1.3-0.8c1.5-0.9,1.7-2.4,0.3-3.4l-10.9-7.9l-9-6.5
				c4.2-0.2,8.2,2.6,8.9,4.9c0.1,0.5,0.2,1.1,0.1,1.6c1.2-1.1,1.8-2.5,1.4-4C333.8,295.4,329.8,293.2,325.1,294z"/>
			<path class="st3" d="M300.7,307.9c-1.8,2.9,1.2,5.8,5.6,6.6c2.2,0.4,4.5,0.2,6.3-0.4c-0.8,0-1.6-0.1-2.4-0.2
				c-3.5-0.7-7.4-3.6-6.5-6.3l9,6.5l10.9,7.9c1.4,1,3.7,1.1,5.3,0.2l1.3-0.8l-23-16.7C306.3,304.5,302.6,305.5,300.7,307.9z"/>
		</g>
	</g>
	<g>
		<path class="st0" d="M857.9,332.7c-12.7,4.5-21.6,9.8-30.2,16.9c-5.7,5.1-4.8,11.6,0.7,15.6c5.5,4,14.9,4.3,21.1,0.8
			c1.7-1,2.9-2.1,3.8-3.4l0.1,0l10.9,7.9c1.3,1,3.6,1.1,5.2,0.2l15.2-8.7c1.5-0.9,1.6-2.4,0.3-3.3l-10.9-7.9l0.2-0.1
			c2-0.4,4-1.1,5.6-2c6.2-3.5,6.7-9.6,1.2-13.6C875.6,331,866.5,330.3,857.9,332.7z"/>
		<g class="st1">
			<path class="st2" d="M851.1,362.2c0.8,0.2,1.6,0.2,2.4,0.2l-9-6.5C843.7,358.6,847.5,361.5,851.1,362.2z"/>
			<path class="st2" d="M865,344.2l9,6.5c0.1-0.5,0-1-0.1-1.6C873.3,346.8,869.2,344,865,344.2z"/>
			<path class="st3" d="M865.9,342.3c-4,0.9-5.9,3.2-5.7,3.7l23,16.7l1.3-0.8c1.5-0.9,1.7-2.4,0.3-3.4l-10.9-7.9l-9-6.5
				c4.2-0.2,8.2,2.6,8.9,4.9c0.1,0.5,0.2,1.1,0.1,1.6c1.2-1.1,1.8-2.5,1.4-4C874.6,343.8,870.6,341.5,865.9,342.3z"/>
			<path class="st3" d="M841.6,356.3c-1.8,2.9,1.2,5.8,5.6,6.6c2.2,0.4,4.5,0.2,6.3-0.4c-0.8,0-1.6-0.1-2.4-0.2
				c-3.5-0.7-7.4-3.6-6.5-6.3l9,6.5l10.9,7.9c1.4,1,3.7,1.1,5.3,0.2l1.3-0.8l-23-16.7C847.2,352.9,843.4,353.8,841.6,356.3z"/>
		</g>
	</g>
	<g>
		<path class="st0" d="M599.7,370.9c-12.7,4.5-21.6,9.8-30.2,16.9c-5.7,5.1-4.8,11.6,0.7,15.6c5.5,4,14.9,4.3,21.1,0.8
			c1.7-1,2.9-2.1,3.8-3.4l0.1,0l10.9,7.9c1.3,1,3.6,1.1,5.2,0.2l15.2-8.7c1.5-0.9,1.6-2.4,0.3-3.3l-10.9-7.9l0.2-0.1
			c2-0.4,4-1.1,5.6-2c6.2-3.5,6.7-9.6,1.2-13.6C617.3,369.2,608.3,368.6,599.7,370.9z"/>
		<g class="st1">
			<path class="st2" d="M592.8,400.4c0.8,0.2,1.6,0.2,2.4,0.2l-9-6.5C585.4,396.8,589.3,399.7,592.8,400.4z"/>
			<path class="st2" d="M606.8,382.4l9,6.5c0.1-0.5,0-1-0.1-1.6C615,385,611,382.2,606.8,382.4z"/>
			<path class="st3" d="M607.7,380.6c-4,0.9-5.9,3.2-5.7,3.7l23,16.7l1.3-0.8c1.5-0.9,1.7-2.4,0.3-3.4l-10.9-7.9l-9-6.5
				c4.2-0.2,8.2,2.6,8.9,4.9c0.1,0.5,0.2,1.1,0.1,1.6c1.2-1.1,1.8-2.5,1.4-4C616.4,382,612.3,379.8,607.7,380.6z"/>
			<path class="st3" d="M583.3,394.5c-1.8,2.9,1.2,5.8,5.6,6.6c2.2,0.4,4.5,0.2,6.3-0.4c-0.8,0-1.6-0.1-2.4-0.2
				c-3.5-0.7-7.4-3.6-6.5-6.3l9,6.5l10.9,7.9c1.4,1,3.7,1.1,5.3,0.2l1.3-0.8l-23-16.7C588.9,391.1,585.1,392.1,583.3,394.5z"/>
		</g>
	</g>
	<g>
		<path class="st0" d="M224.2,195.8c-7-8.2-15.4-13.8-26.4-19.3c-8-3.6-18-3-24.2,0.6c-6.1,3.6-6.6,9.7-1.1,13.6
			c1.5,1.1,3.3,1.9,5.3,2.4l0.1,0.1l-12.2,7.1c-1.5,0.9-1.6,2.4-0.3,3.3l13.6,9.7c1.4,1,3.7,1,5.2,0.2l12.2-7.1l0.2,0.1
			c0.6,1.3,1.7,2.5,3.2,3.6c5.5,4,15,4.3,21.1,0.7C227,207.2,227.9,201.4,224.2,195.8z"/>
		<g class="st1">
			<path class="st2" d="M178.4,191.6c-0.2,0.5-0.3,1-0.4,1.6l10-5.8C183.9,186.8,179.4,189.3,178.4,191.6z"/>
			<path class="st2" d="M206.4,200.5l-10,5.8c0.8,0,1.6,0,2.5-0.1C202.5,205.8,206.8,203.2,206.4,200.5z"/>
			<path class="st3" d="M209.3,201.1c-1.4-2.6-5-3.8-5.8-3.7l-25.7,15l1.2,0.9c1.4,1,3.7,1.1,5.3,0.2l12.1-7.1l10-5.8
				c0.4,2.7-3.9,5.3-7.6,5.8c-0.8,0.1-1.7,0.1-2.5,0.1c1.7,0.8,4,1.1,6.2,0.9C207.1,206.7,210.6,204.1,209.3,201.1z"/>
			<path class="st3" d="M187.5,185.5c-4.5-1.1-8.9,0.8-10.2,3.7c-0.6,1.4-0.3,2.9,0.7,4.1c0-0.5,0.1-1,0.4-1.6
				c1-2.3,5.5-4.8,9.7-4.3l-10,5.8l-12.1,7.1c-1.5,0.9-1.7,2.4-0.3,3.4l1.2,0.9l25.7-15C192.7,189,191.3,186.6,187.5,185.5z"/>
		</g>
	</g>
	<g>
		<path class="st0" d="M230,356.8c8.6-7.5,13.2-14.8,16.4-23.5c1.8-6.2-3.2-11.8-10.8-14c-7.6-2.1-16.4,0.1-19.7,5
			c-0.9,1.3-1.3,2.7-1.2,4.1l0,0.1l-15-4.2c-1.9-0.5-4,0-4.8,1.2l-8.1,12c-0.8,1.2,0,2.6,1.9,3.1l15,4.2l-0.1,0.1
			c-1.6,0.9-2.9,2-3.8,3.4c-3.3,4.9,0.2,10.6,7.8,12.7C215.1,363.1,223.7,361.2,230,356.8z"/>
		<g class="st1">
			<path class="st2" d="M217,328.1c-0.8,0.1-1.6,0.2-2.4,0.4l12.4,3.5C226,329.4,220.6,327.8,217,328.1z"/>
			<path class="st2" d="M216.1,348.3l-12.4-3.5c0.3,0.5,0.6,1,1.1,1.4C206.9,348.2,212.4,349.6,216.1,348.3z"/>
			<path class="st3" d="M216.5,350.2c3.1-1.9,3.3-4.5,2.8-4.9l-31.8-8.9l-0.7,1.1c-0.8,1.2,0,2.6,1.9,3.2l15,4.2l12.4,3.5
				c-3.7,1.3-9.2-0.1-11.3-2.1c-0.5-0.4-0.8-0.9-1.1-1.4c-0.4,1.3,0,2.8,1.3,4C207.6,351.2,212.7,352.2,216.5,350.2z"/>
			<path class="st3" d="M229.4,330.9c-0.3-3.1-4.9-4.9-9.4-4.5c-2.3,0.2-4.2,1-5.5,2.1c0.7-0.2,1.5-0.4,2.4-0.4
				c3.7-0.3,9,1.3,10,3.9l-12.4-3.5l-15-4.2c-1.9-0.5-4.1,0-4.9,1.3l-0.7,1.1l31.8,8.9C226.6,335.5,229.4,333.7,229.4,330.9z"/>
		</g>
	</g>
	<g>
		<path class="st0" d="M432.6,537.5c8.6-7.5,13.2-14.8,16.4-23.5c1.8-6.2-3.2-11.8-10.8-14s-16.4,0.1-19.7,5
			c-0.9,1.3-1.3,2.7-1.2,4.1l0,0.1l-15-4.2c-1.9-0.5-4,0-4.8,1.2l-8.1,12c-0.8,1.2,0,2.6,1.9,3.1l15,4.2l-0.1,0.1
			c-1.6,0.9-2.9,2-3.8,3.4c-3.3,4.9,0.2,10.6,7.8,12.7C417.7,543.9,426.3,542,432.6,537.5z"/>
		<g class="st1">
			<path class="st2" d="M419.6,508.9c-0.8,0.1-1.6,0.2-2.4,0.4l12.4,3.5C428.6,510.2,423.2,508.6,419.6,508.9z"/>
			<path class="st2" d="M418.7,529l-12.4-3.5c0.3,0.5,0.6,1,1.1,1.4C409.5,528.9,415,530.4,418.7,529z"/>
			<path class="st3" d="M419.1,531c3.1-1.9,3.3-4.5,2.8-4.9l-31.8-8.9l-0.7,1.1c-0.8,1.2,0,2.6,1.9,3.2l15,4.2l12.4,3.5
				c-3.7,1.3-9.2-0.1-11.3-2.1c-0.5-0.4-0.8-0.9-1.1-1.4c-0.4,1.3,0,2.8,1.3,4C410.2,532,415.3,533,419.1,531z"/>
			<path class="st3" d="M432,511.7c-0.3-3.1-4.9-4.9-9.4-4.5c-2.3,0.2-4.2,1-5.5,2.1c0.7-0.2,1.5-0.4,2.4-0.4c3.7-0.3,9,1.3,10,3.9
				l-12.4-3.5l-15-4.2c-1.9-0.5-4.1,0-4.9,1.3l-0.7,1.1l31.8,8.9C429.2,516.3,432,514.4,432,511.7z"/>
		</g>
	</g>
	<g>
		<path class="st0" d="M200.5,419.6c-13.5,3.3-23.4,7.8-33.4,14.1c-6.7,4.6-7.2,11.1-2.6,15.5c4.6,4.4,13.9,5.6,20.8,2.6
			c1.9-0.8,3.4-1.8,4.5-3l0.1,0l9.2,8.8c1.1,1.1,3.4,1.4,5.1,0.6l16.8-7.3c1.7-0.7,2.1-2.2,1-3.3l-9.2-8.8l0.2-0.1
			c2.1-0.2,4.1-0.7,6-1.5c6.9-3,8.7-9,4.1-13.4C218.3,419.4,209.5,418,200.5,419.6z"/>
		<g class="st1">
			<path class="st2" d="M187.5,448.2c0.8,0.2,1.6,0.4,2.4,0.5l-7.5-7.2C181,444,184.2,447.3,187.5,448.2z"/>
			<path class="st2" d="M205.1,431.6l7.5,7.2c0.2-0.5,0.3-1,0.2-1.6C212.7,434.9,209.3,431.7,205.1,431.6z"/>
			<path class="st3" d="M206.4,429.8c-4.2,0.5-6.5,2.6-6.5,3.2l19.3,18.5l1.5-0.6c1.7-0.7,2.2-2.2,1-3.3l-9.1-8.7l-7.5-7.2
				c4.2,0.2,7.6,3.3,7.8,5.7c0,0.5-0.1,1.1-0.2,1.6c1.5-1,2.3-2.4,2.2-3.8C214.7,432,211.2,429.5,206.4,429.8z"/>
			<path class="st3" d="M179.3,441.6c-2.4,2.7,0,5.8,4.2,7c2.1,0.6,4.4,0.6,6.4,0.1c-0.8-0.1-1.6-0.2-2.4-0.5
				c-3.4-1-6.6-4.2-5.2-6.8l7.5,7.2l9.1,8.7c1.2,1.1,3.5,1.4,5.2,0.7l1.5-0.6l-19.3-18.5C185.6,438.7,181.7,439.3,179.3,441.6z"/>
		</g>
	</g>
	<g>
		<path class="st0" d="M314.6,514.3c-14.4,0.9-25.8,3.5-38.1,7.9c-8.4,3.3-11.5,9.5-8.9,14.5c2.6,5.1,11.1,7.8,18.9,6.1
			c2.1-0.5,4-1.2,5.5-2.1l0.1,0l5.2,10c0.6,1.2,2.7,1.9,4.6,1.5l19.2-4.1c1.9-0.4,2.9-1.7,2.3-3l-5.2-10l0.2-0.1
			c2.1,0.2,4.3,0,6.4-0.4c7.8-1.7,12.1-7.2,9.4-12.2C331.9,517.2,323.9,514.4,314.6,514.3z"/>
		<g class="st1">
			<path class="st2" d="M290.3,539.7c0.6,0.3,1.4,0.6,2.1,0.8l-4.3-8.3C285.7,534.6,287.5,538.2,290.3,539.7z"/>
			<path class="st2" d="M314.1,526.7l4.3,8.3c0.4-0.5,0.7-1,0.9-1.5C320.1,531.2,318.1,527.6,314.1,526.7z"/>
			<path class="st3" d="M316.1,525.2c-4.2-0.2-7.3,1.4-7.5,2l11,21.2l1.7-0.4c2-0.4,3-1.8,2.4-3l-5.2-10l-4.3-8.3
				c4,0.9,6,4.5,5.2,6.8c-0.2,0.5-0.5,1-0.9,1.5c1.8-0.7,3.2-1.9,3.7-3.3C323.2,528.8,320.9,525.7,316.1,525.2z"/>
			<path class="st3" d="M285.2,531.9c-3.4,2.2-2.4,5.6,1.1,7.5c1.8,0.9,4,1.3,6.1,1.2c-0.7-0.2-1.4-0.5-2.1-0.8
				c-2.8-1.5-4.6-5.2-2.2-7.4l4.3,8.3l5.2,10c0.7,1.3,2.8,1.9,4.7,1.5l1.7-0.4l-11-21.2C292.4,530.2,288.4,530.1,285.2,531.9z"/>
		</g>
	</g>
	<g>
		<path class="st0" d="M544.9,624.5c-14.4,0.9-25.8,3.5-38.1,7.9c-8.4,3.3-11.5,9.5-8.9,14.5s11.1,7.8,18.9,6.1
			c2.1-0.5,4-1.2,5.5-2.1l0.1,0l5.2,10c0.6,1.2,2.7,1.9,4.6,1.5l19.2-4.1c1.9-0.4,2.9-1.7,2.3-3l-5.2-10l0.2-0.1
			c2.1,0.2,4.3,0,6.4-0.4c7.8-1.7,12.1-7.2,9.4-12.2S554.3,624.5,544.9,624.5z"/>
		<g class="st1">
			<path class="st2" d="M520.7,649.9c0.6,0.3,1.4,0.6,2.1,0.8l-4.3-8.3C516.1,644.7,517.8,648.4,520.7,649.9z"/>
			<path class="st2" d="M544.5,636.9l4.3,8.3c0.4-0.5,0.7-0.9,0.9-1.5C550.5,641.3,548.5,637.7,544.5,636.9z"/>
			<path class="st3" d="M546.4,635.4c-4.2-0.2-7.3,1.4-7.5,2l11,21.2l1.7-0.4c2-0.4,3-1.8,2.4-3l-5.2-10l-4.3-8.3
				c4,0.9,6,4.5,5.2,6.8c-0.2,0.5-0.5,1-0.9,1.5c1.8-0.7,3.2-1.9,3.7-3.3C553.5,639,551.2,635.8,546.4,635.4z"/>
			<path class="st3" d="M515.5,642.1c-3.4,2.2-2.4,5.6,1.1,7.5c1.8,0.9,4,1.3,6.1,1.2c-0.7-0.2-1.4-0.5-2.1-0.8
				c-2.8-1.5-4.6-5.2-2.2-7.4l4.3,8.3l5.2,10c0.7,1.3,2.8,1.9,4.7,1.5l1.7-0.4l-11-21.2C522.7,640.4,518.7,640.3,515.5,642.1z"/>
		</g>
	</g>
	<g>
		<path class="st0" d="M202.8,555.5c-9.6-7-19.7-11.3-32.3-15.1c-9.1-2.4-18.6-0.4-23.4,4c-4.8,4.3-3.2,10.4,3.6,13.4
			c1.8,0.8,3.9,1.4,6,1.6l0.1,0l-9.5,8.6c-1.2,1.1-0.8,2.5,0.9,3.3l16.5,7.5c1.6,0.8,3.9,0.5,5.1-0.6l9.5-8.6l0.2,0.1
			c1,1.2,2.5,2.2,4.3,3.1c6.7,3.1,16.1,2,20.9-2.3C209.4,566.2,208.3,560.4,202.8,555.5z"/>
		<g class="st1">
			<path class="st2" d="M156.7,557.9c-0.1,0.5,0,1.1,0.2,1.6l7.8-7.1C160.4,552.4,156.9,555.5,156.7,557.9z"/>
			<path class="st2" d="M187.1,562.5l-7.8,7.1c0.8-0.1,1.6-0.2,2.4-0.4C185,568.3,188.3,565.1,187.1,562.5z"/>
			<path class="st3" d="M190.1,562.7c-2.3-2.3-6.1-3-6.9-2.8l-20,18.2l1.5,0.7c1.7,0.8,4,0.5,5.2-0.6l9.4-8.6l7.8-7.1
				c1.3,2.6-2,5.8-5.4,6.7c-0.8,0.2-1.6,0.3-2.4,0.4c2,0.5,4.2,0.6,6.4,0C189.8,568.5,192.3,565.4,190.1,562.7z"/>
			<path class="st3" d="M163.5,550.5c-4.8-0.5-8.4,2.1-8.7,5c-0.1,1.5,0.7,2.9,2.1,3.9c-0.2-0.5-0.2-1-0.2-1.6
				c0.2-2.4,3.7-5.4,8-5.5l-7.8,7.1l-9.4,8.6c-1.2,1.1-0.8,2.6,0.9,3.4l1.5,0.7l20-18.2C169.8,553.3,167.6,551.1,163.5,550.5z"/>
		</g>
	</g>
	<g>
		<path class="st0" d="M797.7,276.8c-9.6-7-19.7-11.3-32.3-15.1c-9.1-2.4-18.6-0.4-23.4,4c-4.8,4.3-3.2,10.4,3.6,13.4
			c1.8,0.8,3.9,1.4,6,1.6l0.1,0l-9.5,8.6c-1.2,1.1-0.8,2.5,0.9,3.3l16.5,7.5c1.6,0.8,3.9,0.5,5.1-0.6l9.5-8.6l0.2,0.1
			c1,1.2,2.5,2.2,4.3,3.1c6.7,3.1,16.1,2,20.9-2.3C804.3,287.5,803.2,281.6,797.7,276.8z"/>
		<g class="st1">
			<path class="st2" d="M751.5,279.1c-0.1,0.5,0,1.1,0.2,1.6l7.8-7.1C755.3,273.7,751.8,276.7,751.5,279.1z"/>
			<path class="st2" d="M781.9,283.8l-7.8,7.1c0.8-0.1,1.6-0.2,2.4-0.4C779.9,289.6,783.2,286.4,781.9,283.8z"/>
			<path class="st3" d="M784.9,284c-2.3-2.3-6.1-3-6.9-2.8l-20,18.2l1.5,0.7c1.7,0.8,4,0.5,5.2-0.6l9.4-8.6l7.8-7.1
				c1.3,2.6-2,5.8-5.4,6.7c-0.8,0.2-1.6,0.3-2.4,0.4c2,0.5,4.2,0.6,6.4,0C784.7,289.8,787.2,286.7,784.9,284z"/>
			<path class="st3" d="M758.3,271.8c-4.8-0.5-8.4,2.1-8.7,5c-0.1,1.5,0.7,2.9,2.1,3.9c-0.2-0.5-0.2-1-0.2-1.6
				c0.2-2.4,3.7-5.4,8-5.5l-7.8,7.1l-9.4,8.6c-1.2,1.1-0.8,2.6,0.9,3.4l1.5,0.7l20-18.2C764.7,274.6,762.5,272.4,758.3,271.8z"/>
		</g>
	</g>
	<g>
		<path class="st0" d="M442.1,373.5c-9.6-7-19.7-11.3-32.3-15.1c-9.1-2.4-18.6-0.4-23.4,4c-4.8,4.3-3.2,10.4,3.6,13.4
			c1.8,0.8,3.9,1.4,6,1.6l0.1,0l-9.5,8.6c-1.2,1.1-0.8,2.5,0.9,3.3l16.5,7.5c1.6,0.8,3.9,0.5,5.1-0.6l9.5-8.6l0.2,0.1
			c1,1.2,2.5,2.2,4.3,3.1c6.7,3.1,16.1,2,20.9-2.3C448.7,384.3,447.6,378.4,442.1,373.5z"/>
		<g class="st1">
			<path class="st2" d="M396,375.9c-0.1,0.5,0,1.1,0.2,1.6l7.8-7.1C399.8,370.5,396.2,373.5,396,375.9z"/>
			<path class="st2" d="M426.4,380.6l-7.8,7.1c0.8-0.1,1.6-0.2,2.4-0.4C424.4,386.4,427.7,383.2,426.4,380.6z"/>
			<path class="st3" d="M429.4,380.8c-2.3-2.3-6.1-3-6.9-2.8l-20,18.2l1.5,0.7c1.7,0.8,4,0.5,5.2-0.6l9.4-8.6l7.8-7.1
				c1.3,2.6-2,5.8-5.4,6.7c-0.8,0.2-1.6,0.3-2.4,0.4c2,0.5,4.2,0.6,6.4,0C429.1,386.6,431.6,383.5,429.4,380.8z"/>
			<path class="st3" d="M402.8,368.6c-4.8-0.5-8.4,2.1-8.7,5c-0.1,1.5,0.7,2.9,2.1,3.9c-0.2-0.5-0.2-1-0.2-1.6
				c0.2-2.4,3.7-5.4,8-5.5l-7.8,7.1l-9.4,8.6c-1.2,1.1-0.8,2.6,0.9,3.4l1.5,0.7l20-18.2C409.2,371.4,406.9,369.2,402.8,368.6z"/>
		</g>
	</g>
	<g>
		<path class="st0" d="M403.5,610.8c-10.4-6.5-21-10.4-34-13.6c-9.3-2-18.6,0.5-22.9,5.1c-4.3,4.6-2,10.5,5.1,13.2
			c1.9,0.7,4,1.2,6.1,1.3l0.1,0l-8.5,9.1c-1,1.1-0.5,2.6,1.2,3.2l17.4,6.7c1.7,0.7,4,0.3,5-0.8l8.5-9.1l0.2,0.1
			c1.2,1.1,2.8,2.1,4.7,2.9c7.1,2.7,16.3,1.3,20.5-3.3C411.3,621.1,409.6,615.4,403.5,610.8z"/>
		<g class="st1">
			<path class="st2" d="M357.8,615.3c0,0.5,0.1,1.1,0.4,1.6l7-7.5C360.9,609.7,357.7,612.9,357.8,615.3z"/>
			<path class="st2" d="M388.6,618.5l-7,7.5c0.8-0.1,1.6-0.3,2.3-0.5C387.3,624.4,390.2,621.1,388.6,618.5z"/>
			<path class="st3" d="M391.6,618.6c-2.5-2.2-6.5-2.7-7.2-2.4l-17.8,19.1l1.5,0.6c1.8,0.7,4.1,0.3,5.1-0.8l8.4-9l7-7.5
				c1.6,2.5-1.4,5.8-4.6,6.9c-0.7,0.2-1.5,0.4-2.3,0.5c2,0.4,4.3,0.4,6.3-0.3C392,624.4,394.2,621.2,391.6,618.6z"/>
			<path class="st3" d="M363.7,607.7c-4.8-0.2-8.1,2.5-8.1,5.4c0,1.5,1,2.8,2.5,3.8c-0.2-0.5-0.3-1-0.4-1.6
				c-0.1-2.4,3.1-5.6,7.3-5.9l-7,7.5l-8.4,9c-1.1,1.1-0.5,2.6,1.3,3.3l1.5,0.6l17.8-19.1C370.4,610.1,367.9,608.1,363.7,607.7z"/>
		</g>
	</g>
	<g>
		<path class="st0" d="M938.9,175.6c-10.4-6.5-21-10.4-34-13.6c-9.3-2-18.6,0.5-22.9,5.1c-4.3,4.6-2,10.5,5.1,13.2
			c1.9,0.7,4,1.2,6.1,1.3l0.1,0l-8.5,9.1c-1,1.1-0.5,2.6,1.2,3.2l17.4,6.7c1.7,0.7,4,0.3,5-0.8l8.5-9.1l0.2,0.1
			c1.2,1.1,2.8,2.1,4.7,2.9c7.1,2.7,16.3,1.3,20.5-3.3C946.6,186,944.9,180.2,938.9,175.6z"/>
		<g class="st1">
			<path class="st2" d="M893.1,180.2c0,0.5,0.1,1.1,0.4,1.6l7-7.5C896.2,174.6,893.1,177.8,893.1,180.2z"/>
			<path class="st2" d="M923.9,183.4l-7,7.5c0.8-0.1,1.6-0.3,2.3-0.5C922.6,189.2,925.5,185.9,923.9,183.4z"/>
			<path class="st3" d="M926.9,183.4c-2.5-2.2-6.5-2.7-7.2-2.4l-17.8,19.1l1.5,0.6c1.8,0.7,4.1,0.3,5.1-0.8l8.4-9l7-7.5
				c1.6,2.5-1.4,5.8-4.6,6.9c-0.7,0.2-1.5,0.4-2.3,0.5c2,0.4,4.3,0.4,6.3-0.3C927.4,189.2,929.5,186,926.9,183.4z"/>
			<path class="st3" d="M899,172.6c-4.8-0.2-8.1,2.5-8.1,5.4c0,1.5,1,2.8,2.5,3.8c-0.2-0.5-0.3-1-0.4-1.6c-0.1-2.4,3.1-5.6,7.3-5.9
				l-7,7.5l-8.4,9c-1.1,1.1-0.5,2.6,1.3,3.3l1.5,0.6l17.8-19.1C905.7,175,903.2,173,899,172.6z"/>
		</g>
	</g>
	<g>
		<path class="st0" d="M456.2,673c-10.4-6.5-21-10.4-34-13.6c-9.3-2-18.6,0.5-22.9,5.1c-4.3,4.6-2,10.5,5.1,13.2
			c1.9,0.7,4,1.2,6.1,1.3l0.1,0l-8.5,9.1c-1,1.1-0.5,2.6,1.2,3.2l17.4,6.7c1.7,0.7,4,0.3,5-0.8l8.5-9.1l0.2,0.1
			c1.2,1.1,2.8,2.1,4.7,2.9c7.1,2.7,16.3,1.3,20.5-3.3C464,683.4,462.2,677.6,456.2,673z"/>
		<g class="st1">
			<path class="st2" d="M410.4,677.6c0,0.5,0.1,1.1,0.4,1.6l7-7.5C413.5,672,410.4,675.2,410.4,677.6z"/>
			<path class="st2" d="M441.2,680.8l-7,7.5c0.8-0.1,1.6-0.3,2.3-0.5C439.9,686.6,442.8,683.3,441.2,680.8z"/>
			<path class="st3" d="M444.3,680.8c-2.5-2.2-6.5-2.7-7.2-2.4l-17.8,19.1l1.5,0.6c1.8,0.7,4.1,0.3,5.1-0.8l8.4-9l7-7.5
				c1.6,2.5-1.4,5.8-4.6,6.9c-0.7,0.2-1.5,0.4-2.3,0.5c2,0.4,4.3,0.4,6.3-0.3C444.7,686.6,446.8,683.4,444.3,680.8z"/>
			<path class="st3" d="M416.3,670c-4.8-0.2-8.1,2.5-8.1,5.4c0,1.5,1,2.8,2.5,3.8c-0.2-0.5-0.3-1-0.4-1.6c-0.1-2.4,3.1-5.6,7.3-5.9
				l-7,7.5l-8.4,9c-1.1,1.1-0.5,2.6,1.3,3.3l1.5,0.6l17.8-19.1C423,672.4,420.5,670.4,416.3,670z"/>
		</g>
	</g>
	<g>
		<path class="st0" d="M570.6,550c-7.1-8.1-15.4-13.8-26.5-19.3c-8-3.6-18.1-3-24.2,0.6s-6.6,9.7-1,13.6c1.5,1.1,3.3,1.9,5.3,2.4
			l0.1,0.1l-12.1,7.1c-1.5,0.9-1.6,2.4-0.2,3.3l13.6,9.7c1.4,1,3.7,1,5.2,0.2l12.1-7.1l0.2,0.1c0.6,1.3,1.7,2.5,3.2,3.6
			c5.6,3.9,15,4.2,21.1,0.6C573.4,561.3,574.3,555.5,570.6,550z"/>
		<g class="st1">
			<path class="st2" d="M524.7,545.9c-0.2,0.5-0.3,1-0.4,1.6l10-5.9C530.2,541.1,525.7,543.6,524.7,545.9z"/>
			<path class="st2" d="M552.8,554.7l-10,5.9c0.8,0,1.6,0,2.5-0.1C548.9,560,553.2,557.4,552.8,554.7z"/>
			<path class="st3" d="M555.7,555.2c-1.4-2.6-5-3.8-5.8-3.7l-25.6,15l1.2,0.9c1.4,1,3.8,1.1,5.3,0.2l12.1-7.1l10-5.9
				c0.4,2.7-3.9,5.3-7.5,5.8c-0.8,0.1-1.6,0.1-2.5,0.1c1.7,0.8,4,1.1,6.2,0.9C553.5,560.9,557,558.2,555.7,555.2z"/>
			<path class="st3" d="M533.8,539.7c-4.5-1.1-8.9,0.9-10.1,3.7c-0.6,1.4-0.3,2.9,0.7,4.1c0-0.5,0.1-1,0.4-1.6
				c1-2.3,5.5-4.8,9.6-4.3l-10,5.9l-12.1,7.1c-1.5,0.9-1.6,2.4-0.3,3.4l1.2,0.9l25.6-15C539.1,543.2,537.6,540.8,533.8,539.7z"/>
		</g>
	</g>
	<g>
		<path class="st0" d="M668.5,655.9c-13.1,4-22.4,9-31.6,15.8c-6.1,4.9-5.8,11.4-0.7,15.6c5.1,4.2,14.5,4.9,21,1.6
			c1.8-0.9,3.1-2,4.1-3.2l0.1,0l10.2,8.3c1.3,1,3.6,1.2,5.1,0.4l15.9-8.1c1.6-0.8,1.8-2.3,0.6-3.3l-10.2-8.3l0.2-0.1
			c2.1-0.3,4-0.9,5.8-1.8c6.5-3.3,7.6-9.4,2.4-13.6C686.3,654.8,677.3,653.9,668.5,655.9z"/>
		<g class="st1">
			<path class="st2" d="M659.1,685.1c0.8,0.2,1.6,0.3,2.4,0.3l-8.4-6.8C652.1,681.3,655.6,684.3,659.1,685.1z"/>
			<path class="st2" d="M674.6,667.6l8.4,6.8c0.1-0.5,0.1-1,0-1.6C682.6,670.5,678.8,667.6,674.6,667.6z"/>
			<path class="st3" d="M675.7,665.8c-4.1,0.7-6.1,3-6,3.5l21.5,17.5l1.4-0.7c1.6-0.8,1.9-2.3,0.6-3.4l-10.2-8.3l-8.4-6.8
				c4.2-0.1,8,2.9,8.4,5.2c0.1,0.5,0.1,1.1,0,1.6c1.3-1.1,2-2.5,1.8-3.9C684.2,667.6,680.4,665.2,675.7,665.8z"/>
			<path class="st3" d="M650.1,678.9c-2,2.8,0.7,5.8,5,6.8c2.2,0.5,4.4,0.4,6.4-0.2c-0.8,0-1.6-0.1-2.4-0.3c-3.5-0.8-7.1-3.8-6-6.5
				l8.4,6.8l10.2,8.3c1.3,1,3.6,1.2,5.3,0.4l1.4-0.7l-21.5-17.5C656,675.7,652.2,676.5,650.1,678.9z"/>
		</g>
	</g>
	<g>
		<path class="st0" d="M424.2,241.7c-13.1,4-22.4,9-31.6,15.8c-6.1,4.9-5.8,11.4-0.7,15.6s14.5,4.9,21,1.6c1.8-0.9,3.1-2,4.1-3.2
			l0.1,0l10.2,8.3c1.3,1,3.6,1.2,5.1,0.4l15.9-8.1c1.6-0.8,1.8-2.3,0.6-3.3l-10.2-8.3l0.2-0.1c2.1-0.3,4-0.9,5.8-1.8
			c6.5-3.3,7.6-9.4,2.4-13.6C442,240.6,433,239.7,424.2,241.7z"/>
		<g class="st1">
			<path class="st2" d="M414.8,270.9c0.8,0.2,1.6,0.3,2.4,0.3l-8.4-6.8C407.7,267.1,411.3,270.1,414.8,270.9z"/>
			<path class="st2" d="M430.3,253.4l8.4,6.8c0.1-0.5,0.1-1,0-1.6C438.3,256.3,434.5,253.4,430.3,253.4z"/>
			<path class="st3" d="M431.3,251.6c-4.1,0.7-6.1,3-6,3.5l21.5,17.5l1.4-0.7c1.6-0.8,1.9-2.3,0.6-3.4l-10.2-8.3l-8.4-6.8
				c4.2-0.1,8,2.9,8.4,5.2c0.1,0.5,0.1,1.1,0,1.6c1.3-1.1,2-2.5,1.8-3.9C439.9,253.4,436.1,251,431.3,251.6z"/>
			<path class="st3" d="M405.8,264.7c-2,2.8,0.7,5.8,5,6.8c2.2,0.5,4.4,0.4,6.4-0.2c-0.8,0-1.6-0.1-2.4-0.3c-3.5-0.8-7.1-3.8-6-6.5
				l8.4,6.8l10.2,8.3c1.3,1,3.6,1.2,5.3,0.4l1.4-0.7l-21.5-17.5C411.7,261.5,407.8,262.3,405.8,264.7z"/>
		</g>
	</g>
	<g>
		<path class="st0" d="M542.3,425.7c-13.1-4-25-5.5-38.9-5.8c-9.8,0.1-17.4,4.3-19.1,9.5c-1.8,5.2,3.4,10.3,11.4,11.5
			c2.2,0.3,4.4,0.3,6.5,0l0.1,0l-3.5,10.3c-0.4,1.3,0.8,2.5,2.8,2.8l19.8,2.8c2,0.3,3.9-0.5,4.3-1.8l3.5-10.3l0.2,0
			c1.7,0.8,3.7,1.4,5.9,1.7c8.1,1.1,16-2.2,17.8-7.4C554.8,433.9,550.3,428.8,542.3,425.7z"/>
		<g class="st1">
			<path class="st2" d="M501.2,439.5c0.3,0.5,0.7,1,1.1,1.4l2.9-8.5C501.4,433.6,500,437.3,501.2,439.5z"/>
			<path class="st2" d="M532,436.2l-2.9,8.5c0.7-0.3,1.3-0.6,1.9-1C533.6,442,534.8,438.3,532,436.2z"/>
			<path class="st3" d="M534.9,435.6c-3.5-1.6-7.4-1.2-8-0.8l-7.4,21.8l1.8,0.2c2,0.3,4-0.5,4.4-1.8l3.5-10.3l2.9-8.5
				c2.8,2.1,1.6,5.8-0.9,7.5c-0.6,0.4-1.2,0.7-1.9,1c2.1,0,4.2-0.6,5.9-1.6C538.2,441,538.6,437.5,534.9,435.6z"/>
			<path class="st3" d="M503,431.1c-4.7,0.8-6.5,4-5,6.8c0.8,1.4,2.3,2.5,4.3,3c-0.5-0.4-0.8-0.9-1.1-1.4c-1.2-2.2,0.2-6,4-7.1
				l-2.9,8.5l-3.5,10.3c-0.4,1.3,0.8,2.6,2.9,2.9l1.8,0.2l7.4-21.8C510.6,432,507.2,430.6,503,431.1z"/>
		</g>
	</g>
	<g>
		<path class="st0" d="M302.1,623.5c-13.1-4-25-5.5-38.9-5.8c-9.8,0.1-17.4,4.3-19.1,9.5c-1.8,5.2,3.4,10.3,11.4,11.5
			c2.2,0.3,4.4,0.3,6.5,0l0.1,0l-3.5,10.3c-0.4,1.3,0.8,2.5,2.8,2.8l19.8,2.8c2,0.3,3.9-0.5,4.3-1.8l3.5-10.3l0.2,0
			c1.7,0.8,3.7,1.4,5.9,1.7c8.1,1.1,16-2.2,17.8-7.4C314.7,631.7,310.1,626.6,302.1,623.5z"/>
		<g class="st1">
			<path class="st2" d="M261.1,637.3c0.3,0.5,0.7,1,1.1,1.4l2.9-8.5C261.3,631.4,259.9,635.1,261.1,637.3z"/>
			<path class="st2" d="M291.9,634l-2.9,8.5c0.7-0.3,1.3-0.6,1.9-1C293.5,639.8,294.6,636.1,291.9,634z"/>
			<path class="st3" d="M294.7,633.4c-3.5-1.6-7.4-1.2-8-0.8l-7.4,21.8l1.8,0.2c2,0.3,4-0.5,4.4-1.8l3.5-10.3l2.9-8.5
				c2.8,2.1,1.6,5.8-0.9,7.5c-0.6,0.4-1.2,0.7-1.9,1c2.1,0,4.2-0.6,5.9-1.6C298,638.8,298.5,635.3,294.7,633.4z"/>
			<path class="st3" d="M262.9,628.9c-4.7,0.8-6.5,4-5,6.8c0.8,1.4,2.3,2.5,4.3,3c-0.5-0.4-0.8-0.9-1.1-1.4c-1.2-2.2,0.2-6,4-7.1
				l-2.9,8.5l-3.5,10.3c-0.4,1.3,0.8,2.6,2.9,2.9l1.8,0.2l7.4-21.8C270.4,629.8,267.1,628.4,262.9,628.9z"/>
		</g>
	</g>
	<g>
		<path class="st0" d="M538.9,232.4c-13.1-4-25-5.5-38.9-5.8c-9.8,0.1-17.4,4.3-19.1,9.5c-1.8,5.2,3.4,10.3,11.4,11.5
			c2.2,0.3,4.4,0.3,6.5,0l0.1,0l-3.5,10.3c-0.4,1.3,0.8,2.5,2.8,2.8l19.8,2.8c2,0.3,3.9-0.5,4.3-1.8l3.5-10.3l0.2,0
			c1.7,0.8,3.7,1.4,5.9,1.7c8.1,1.1,16-2.2,17.8-7.4C551.5,240.6,546.9,235.5,538.9,232.4z"/>
		<g class="st1">
			<path class="st2" d="M497.9,246.2c0.3,0.5,0.7,1,1.1,1.4l2.9-8.5C498.1,240.2,496.7,243.9,497.9,246.2z"/>
			<path class="st2" d="M528.7,242.8l-2.9,8.5c0.7-0.3,1.3-0.6,1.9-1C530.3,248.6,531.4,244.9,528.7,242.8z"/>
			<path class="st3" d="M531.5,242.2c-3.5-1.6-7.4-1.2-8-0.8l-7.4,21.8l1.8,0.2c2,0.3,4-0.5,4.4-1.8l3.5-10.3l2.9-8.5
				c2.8,2.1,1.6,5.8-0.9,7.5c-0.6,0.4-1.2,0.7-1.9,1c2.1,0,4.2-0.6,5.9-1.6C534.8,247.6,535.3,244.2,531.5,242.2z"/>
			<path class="st3" d="M499.7,237.7c-4.7,0.8-6.5,4-5,6.8c0.8,1.4,2.3,2.5,4.3,3c-0.5-0.4-0.8-0.9-1.1-1.4c-1.2-2.2,0.2-6,4-7.1
				l-2.9,8.5l-3.5,10.3c-0.4,1.3,0.8,2.6,2.9,2.9l1.8,0.2l7.4-21.8C507.2,238.7,503.9,237.2,499.7,237.7z"/>
		</g>
	</g>
	<g>
		<path class="st0" d="M691.5,577.9c-13.1-4-25-5.5-38.9-5.8c-9.8,0.1-17.4,4.3-19.1,9.5c-1.8,5.2,3.4,10.3,11.4,11.5
			c2.2,0.3,4.4,0.3,6.5,0l0.1,0l-3.5,10.3c-0.4,1.3,0.8,2.5,2.8,2.8l19.8,2.8c2,0.3,3.9-0.5,4.3-1.8l3.5-10.3l0.2,0
			c1.7,0.8,3.7,1.4,5.9,1.7c8.1,1.1,16-2.2,17.8-7.4C704.1,586.1,699.5,581,691.5,577.9z"/>
		<g class="st1">
			<path class="st2" d="M650.5,591.7c0.3,0.5,0.7,1,1.1,1.4l2.9-8.5C650.7,585.7,649.3,589.4,650.5,591.7z"/>
			<path class="st2" d="M681.3,588.3l-2.9,8.5c0.7-0.3,1.3-0.6,1.9-1C682.9,594.2,684,590.4,681.3,588.3z"/>
			<path class="st3" d="M684.1,587.7c-3.5-1.6-7.4-1.2-8-0.8l-7.4,21.8l1.8,0.2c2,0.3,4-0.5,4.4-1.8l3.5-10.3l2.9-8.5
				c2.8,2.1,1.6,5.8-0.9,7.5c-0.6,0.4-1.2,0.7-1.9,1c2.1,0,4.2-0.6,5.9-1.6C687.4,593.1,687.9,589.7,684.1,587.7z"/>
			<path class="st3" d="M652.3,583.2c-4.7,0.8-6.5,4-5,6.8c0.8,1.4,2.3,2.5,4.3,3c-0.5-0.4-0.8-0.9-1.1-1.4c-1.2-2.2,0.2-6,4-7.1
				l-2.9,8.5l-3.5,10.3c-0.4,1.3,0.8,2.6,2.9,2.9l1.8,0.2l7.4-21.8C659.8,584.2,656.5,582.7,652.3,583.2z"/>
		</g>
	</g>
	<g>
		<path class="st0" d="M736.1,474.4c-14.1-2.1-26.2-1.9-40-0.3c-9.5,1.4-15.6,6.6-15.6,11.9s6.7,9.6,15,9.6c2.3,0,4.4-0.3,6.3-0.9
			h0.1v10.6c0,1.3,1.6,2.4,3.7,2.4h20.3c2,0,3.7-1.1,3.7-2.4v-10.6h0.3c1.9,0.6,4.1,0.9,6.3,0.9c8.3,0,15-4.3,15-9.6
			S745,476.3,736.1,474.4z"/>
		<g class="st1">
			<path class="st2" d="M700.6,493.5c0.4,0.5,1,0.9,1.6,1.2V486C698.8,487.6,698.6,491.5,700.6,493.5z"/>
			<path class="st2" d="M729.6,486v8.7c0.6-0.4,1.1-0.8,1.6-1.2C733.1,491.5,732.9,487.6,729.6,486z"/>
			<path class="st3" d="M732.1,485c-3.9-1.1-7.7-0.1-8.1,0.3v22.3h1.8c2.1,0,3.7-1.1,3.7-2.4v-10.5V486c3.4,1.6,3.5,5.5,1.6,7.5
				c-0.4,0.5-1,0.9-1.6,1.2c2.1-0.3,4-1.1,5.2-2.4C737.1,489.8,736.5,486.4,732.1,485z"/>
			<path class="st3" d="M699.6,485c-4.3,1.4-5,4.8-2.6,7.3c1.2,1.3,3.1,2.1,5.2,2.4c-0.6-0.4-1.1-0.8-1.6-1.2c-2-2-1.8-5.8,1.6-7.5
				v8.7v10.5c0,1.3,1.7,2.4,3.7,2.4h1.8v-22.3C707.2,484.9,703.5,483.9,699.6,485z"/>
		</g>
	</g>
	<g>
		<path class="st0" d="M932.6,563.4c-14.1-2.1-26.2-1.9-40-0.3c-9.5,1.4-15.6,6.6-15.6,11.9s6.7,9.6,15,9.6c2.3,0,4.4-0.3,6.3-0.9
			h0.1v10.6c0,1.3,1.6,2.4,3.7,2.4h20.3c2,0,3.7-1.1,3.7-2.4v-10.6h0.3c1.9,0.6,4.1,0.9,6.3,0.9c8.3,0,15-4.3,15-9.6
			S941.4,565.3,932.6,563.4z"/>
		<g class="st1">
			<path class="st2" d="M897,582.5c0.4,0.5,1,0.9,1.6,1.2V575C895.2,576.7,895.1,580.5,897,582.5z"/>
			<path class="st2" d="M926,575v8.7c0.6-0.4,1.1-0.8,1.6-1.2C929.5,580.5,929.4,576.7,926,575z"/>
			<path class="st3" d="M928.6,574c-3.9-1.1-7.7-0.1-8.1,0.3v22.3h1.8c2.1,0,3.7-1.1,3.7-2.4v-10.5V575c3.4,1.6,3.5,5.5,1.6,7.5
				c-0.4,0.5-1,0.9-1.6,1.2c2.1-0.3,4-1.1,5.2-2.4C933.6,578.9,932.9,575.4,928.6,574z"/>
			<path class="st3" d="M896,574c-4.3,1.4-5,4.8-2.6,7.3c1.2,1.3,3.1,2.1,5.2,2.4c-0.6-0.4-1.1-0.8-1.6-1.2c-2-2-1.8-5.8,1.6-7.5
				v8.7v10.5c0,1.3,1.7,2.4,3.7,2.4h1.8v-22.3C903.7,573.9,899.9,573,896,574z"/>
		</g>
	</g>
	<g>
		<path class="st0" d="M908.3,249.4c-14.1-2.1-26.2-1.9-40-0.3c-9.5,1.4-15.6,6.6-15.6,11.9c0,5.3,6.7,9.6,15,9.6
			c2.3,0,4.4-0.3,6.3-0.9h0.1v10.6c0,1.3,1.6,2.4,3.7,2.4h20.3c2,0,3.7-1.1,3.7-2.4v-10.6h0.3c1.9,0.6,4.1,0.9,6.3,0.9
			c8.3,0,15-4.3,15-9.6C923.2,255.7,917.1,251.4,908.3,249.4z"/>
		<g class="st1">
			<path class="st2" d="M872.7,268.5c0.4,0.5,1,0.9,1.6,1.2V261C870.9,262.7,870.8,266.5,872.7,268.5z"/>
			<path class="st2" d="M901.7,261v8.7c0.6-0.4,1.1-0.8,1.6-1.2C905.2,266.5,905.1,262.7,901.7,261z"/>
			<path class="st3" d="M904.3,260c-3.9-1.1-7.7-0.1-8.1,0.3v22.3h1.8c2.1,0,3.7-1.1,3.7-2.4v-10.5V261c3.4,1.6,3.5,5.5,1.6,7.5
				c-0.4,0.5-1,0.9-1.6,1.2c2.1-0.3,4-1.1,5.2-2.4C909.3,264.9,908.6,261.5,904.3,260z"/>
			<path class="st3" d="M871.7,260c-4.3,1.4-5,4.8-2.6,7.3c1.2,1.3,3.1,2.1,5.2,2.4c-0.6-0.4-1.1-0.8-1.6-1.2c-2-2-1.8-5.8,1.6-7.5
				v8.7v10.5c0,1.3,1.7,2.4,3.7,2.4h1.8v-22.3C879.4,259.9,875.6,259,871.7,260z"/>
		</g>
	</g>
	<g>
		<path class="st0" d="M835.3,602.8c-12.7-4.4-24.5-6.4-38.4-7.2c-9.8-0.3-17.7,3.7-19.9,8.8s2.5,10.4,10.4,11.9
			c2.2,0.4,4.4,0.4,6.5,0.2l0.1,0l-4.4,10.2c-0.5,1.3,0.6,2.6,2.5,2.9l19.5,3.5c1.9,0.3,4-0.4,4.5-1.6l4.4-10.2l0.2,0
			c1.6,0.9,3.5,1.6,5.7,2c8,1.4,16.2-1.6,18.4-6.7S843,606.2,835.3,602.8z"/>
		<g class="st1">
			<path class="st2" d="M793.1,615.1c0.2,0.5,0.6,1,1,1.4l3.6-8.4C793.8,609.1,792.1,612.8,793.1,615.1z"/>
			<path class="st2" d="M824.2,612.9l-3.6,8.4c0.7-0.2,1.4-0.5,2-0.9C825.3,618.7,826.7,615,824.2,612.9z"/>
			<path class="st3" d="M827.1,612.3c-3.3-1.7-7.3-1.5-8-1.1l-9.2,21.5l1.7,0.3c2,0.4,4-0.4,4.6-1.7l4.4-10.2l3.6-8.4
				c2.6,2.2,1.1,5.9-1.6,7.5c-0.6,0.4-1.3,0.7-2,0.9c2.1,0.1,4.3-0.4,6-1.4C829.9,617.9,830.6,614.4,827.1,612.3z"/>
			<path class="st3" d="M795.7,606.7c-4.7,0.6-6.8,3.8-5.5,6.6c0.6,1.4,2.1,2.5,4,3.2c-0.4-0.4-0.8-0.9-1-1.4
				c-1-2.3,0.7-5.9,4.6-6.9l-3.6,8.4l-4.4,10.2c-0.6,1.3,0.6,2.6,2.6,3l1.7,0.3l9.2-21.5C803.1,607.9,799.9,606.4,795.7,606.7z"/>
		</g>
	</g>
	<g>
		<path class="st0" d="M884.7,482.7c-14.3,1.4-25.5,4.4-37.4,9.1c-8.1,3.6-10.7,9.8-7.7,14.8s11.7,7.4,19.4,5.5
			c2.1-0.5,3.9-1.3,5.4-2.3l0.1,0l6,9.8c0.7,1.2,2.9,1.8,4.7,1.3l18.9-4.8c1.9-0.5,2.8-1.8,2.1-3.1l-6-9.8l0.2-0.1
			c2.1,0.1,4.3-0.1,6.4-0.6c7.7-1.9,11.5-7.5,8.5-12.5C902.2,485,894,482.4,884.7,482.7z"/>
		<g class="st1">
			<path class="st2" d="M862.4,508.8c0.7,0.3,1.4,0.6,2.1,0.8l-4.9-8.1C857.4,503.8,859.5,507.4,862.4,508.8z"/>
			<path class="st2" d="M885.2,495.1l4.9,8.1c0.3-0.5,0.6-1,0.8-1.5C891.5,499.3,889.3,495.8,885.2,495.1z"/>
			<path class="st3" d="M887,493.5c-4.2-0.1-7.2,1.7-7.4,2.2l12.6,20.8l1.7-0.4c1.9-0.5,2.9-1.9,2.1-3.1l-6-9.8l-4.9-8.1
				c4.1,0.7,6.4,4.3,5.7,6.6c-0.2,0.5-0.4,1-0.8,1.5c1.8-0.8,3.1-2,3.5-3.4C894.4,496.9,891.8,493.8,887,493.5z"/>
			<path class="st3" d="M856.7,501.2c-3.2,2.3-1.9,5.7,1.7,7.4c1.8,0.9,4.1,1.2,6.2,1c-0.7-0.2-1.5-0.4-2.1-0.8c-3-1.4-5-5-2.8-7.3
				l4.9,8.1l6,9.8c0.8,1.2,2.9,1.9,4.8,1.4l1.7-0.4l-12.6-20.8C863.7,499.3,859.7,499.3,856.7,501.2z"/>
		</g>
	</g>
	<g>
		<path class="st0" d="M1051.6,482.3c-11-6.1-21.9-9.5-35.2-12.2c-9.5-1.6-18.5,1.2-22.3,6s-0.9,10.6,6.4,13c2,0.7,4.1,1,6.2,1.1
			l0.1,0l-7.6,9.4c-0.9,1.2-0.2,2.6,1.6,3.2l18,6c1.8,0.6,4,0.1,4.9-1l7.6-9.4l0.2,0.1c1.3,1.1,3,2,5,2.7c7.3,2.5,16.4,0.6,20.2-4.1
			S1058,486.6,1051.6,482.3z"/>
		<g class="st1">
			<path class="st2" d="M1006.4,488.7c0.1,0.5,0.2,1.1,0.5,1.5l6.2-7.7C1008.9,483,1006.1,486.3,1006.4,488.7z"/>
			<path class="st2" d="M1037.4,490.7l-6.2,7.7c0.8-0.1,1.5-0.3,2.3-0.6C1036.7,496.6,1039.3,493.1,1037.4,490.7z"/>
			<path class="st3" d="M1040.4,490.5c-2.7-2.1-6.7-2.4-7.5-2.1l-16,19.8l1.6,0.5c1.8,0.6,4.1,0.2,5-1l7.5-9.4l6.2-7.7
				c1.8,2.5-0.8,5.9-4,7.1c-0.7,0.3-1.5,0.5-2.3,0.6c2.1,0.3,4.3,0.2,6.3-0.6C1041.4,496.3,1043.3,493.1,1040.4,490.5z"/>
			<path class="st3" d="M1011.5,480.9c-4.8,0-7.9,2.8-7.5,5.7c0.2,1.5,1.3,2.8,2.9,3.7c-0.3-0.5-0.4-1-0.5-1.5
				c-0.3-2.4,2.6-5.7,6.7-6.2l-6.2,7.7l-7.5,9.4c-1,1.2-0.2,2.6,1.6,3.2l1.6,0.5l16-19.8C1018.4,483,1015.8,481.1,1011.5,480.9z"/>
		</g>
	</g>
	<g>
		<path class="st0" d="M958.9,336c-13.8,2.9-24,7.1-34.4,13.1c-7,4.4-8,10.9-3.7,15.4c4.3,4.6,13.5,6,20.5,3.2
			c1.9-0.8,3.5-1.7,4.7-2.9l0.1,0l8.5,9c1,1.1,3.3,1.5,5,0.8l17.3-6.8c1.7-0.7,2.3-2.1,1.2-3.2l-8.5-9l0.2-0.1
			c2.1-0.1,4.2-0.6,6.1-1.3c7.1-2.8,9.3-8.7,5-13.2C976.8,336.4,968,334.7,958.9,336z"/>
		<g class="st1">
			<path class="st2" d="M943.9,364.3c0.8,0.2,1.5,0.4,2.3,0.5l-7-7.4C937.6,359.9,940.6,363.2,943.9,364.3z"/>
			<path class="st2" d="M962.6,348.2l7,7.4c0.2-0.5,0.3-1,0.4-1.6C970,351.7,966.9,348.5,962.6,348.2z"/>
			<path class="st3" d="M964.1,346.5c-4.2,0.4-6.7,2.4-6.7,3l17.9,19.1l1.5-0.6c1.8-0.7,2.3-2.2,1.3-3.3l-8.5-9l-7-7.4
				c4.2,0.3,7.4,3.5,7.4,5.9c0,0.5-0.1,1.1-0.4,1.6c1.5-1,2.5-2.3,2.5-3.8C972.2,348.9,968.9,346.2,964.1,346.5z"/>
			<path class="st3" d="M936.2,357.4c-2.6,2.6-0.4,5.8,3.7,7.1c2,0.7,4.3,0.7,6.3,0.3c-0.8-0.1-1.6-0.3-2.3-0.5
				c-3.3-1.1-6.2-4.4-4.7-6.9l7,7.4l8.5,9c1.1,1.1,3.4,1.5,5.1,0.8l1.5-0.6l-17.9-19.1C942.6,354.7,938.7,355.1,936.2,357.4z"/>
		</g>
	</g>
	<g>
		<path class="st0" d="M1027.6,264.7c-14.3,1.6-25.3,4.8-37,9.7c-7.9,3.7-10.4,10-7.1,14.9c3.2,4.9,12,7.2,19.6,5.1
			c2.1-0.6,3.9-1.4,5.3-2.4l0.1,0l6.4,9.7c0.8,1.2,2.9,1.8,4.8,1.3l18.7-5.1c1.9-0.5,2.7-1.9,1.9-3.1l-6.4-9.7l0.2-0.1
			c2.1,0.1,4.3-0.2,6.4-0.8c7.6-2.1,11.2-7.7,8-12.6C1045.1,266.8,1036.9,264.3,1027.6,264.7z"/>
		<g class="st1">
			<path class="st2" d="M1006.3,291.2c0.7,0.3,1.4,0.6,2.2,0.7l-5.2-8C1001.2,286.3,1003.3,289.9,1006.3,291.2z"/>
			<path class="st2" d="M1028.5,277.1l5.2,8c0.3-0.5,0.6-1,0.7-1.5C1035.1,281.2,1032.6,277.8,1028.5,277.1z"/>
			<path class="st3" d="M1030.3,275.5c-4.3,0-7.2,1.8-7.3,2.3l13.4,20.6l1.7-0.5c1.9-0.5,2.8-1.9,2-3.2l-6.4-9.7l-5.2-8
				c4.1,0.7,6.5,4.1,5.9,6.5c-0.1,0.5-0.4,1-0.7,1.5c1.7-0.8,3-2,3.3-3.5C1037.8,278.7,1035.1,275.7,1030.3,275.5z"/>
			<path class="st3" d="M1000.3,283.7c-3.1,2.4-1.7,5.7,2,7.4c1.9,0.9,4.1,1.1,6.2,0.9c-0.8-0.2-1.5-0.4-2.2-0.7
				c-3-1.4-5.2-4.9-3.1-7.3l5.2,8l6.4,9.7c0.8,1.2,3,1.8,4.9,1.3l1.7-0.5L1008,282C1007.3,281.6,1003.3,281.7,1000.3,283.7z"/>
		</g>
	</g>
	<g>
		<path class="st0" d="M841.2,397.8c-14.3,1.6-25.3,4.8-37,9.7c-7.9,3.7-10.4,10-7.1,14.9c3.2,4.9,12,7.2,19.6,5.1
			c2.1-0.6,3.9-1.4,5.3-2.4l0.1,0l6.4,9.7c0.8,1.2,2.9,1.8,4.8,1.3l18.7-5.1c1.9-0.5,2.7-1.9,1.9-3.1l-6.4-9.7l0.2-0.1
			c2.1,0.1,4.3-0.2,6.4-0.8c7.6-2.1,11.2-7.7,8-12.6S850.5,397.4,841.2,397.8z"/>
		<g class="st1">
			<path class="st2" d="M820,424.3c0.7,0.3,1.4,0.6,2.2,0.7l-5.2-8C814.8,419.4,817,422.9,820,424.3z"/>
			<path class="st2" d="M842.2,410.2l5.2,8c0.3-0.5,0.6-1,0.7-1.5C848.7,414.3,846.3,410.8,842.2,410.2z"/>
			<path class="st3" d="M844,408.6c-4.3,0-7.2,1.8-7.3,2.3l13.4,20.6l1.7-0.5c1.9-0.5,2.8-1.9,2-3.2l-6.4-9.7l-5.2-8
				c4.1,0.7,6.5,4.1,5.9,6.5c-0.1,0.5-0.4,1-0.7,1.5c1.7-0.8,3-2,3.3-3.5C851.5,411.8,848.8,408.8,844,408.6z"/>
			<path class="st3" d="M813.9,416.7c-3.1,2.4-1.7,5.7,2,7.4c1.9,0.9,4.1,1.1,6.2,0.9c-0.8-0.2-1.5-0.4-2.2-0.7
				c-3-1.4-5.2-4.9-3.1-7.3l5.2,8l6.4,9.7c0.8,1.2,3,1.8,4.9,1.3l1.7-0.5L821.6,415C820.9,414.7,816.9,414.8,813.9,416.7z"/>
		</g>
	</g>
	<g>
		<path class="st0" d="M817.5,184.1c6-8.5,8.2-16.2,8.6-25.2c-0.2-6.3-6.9-11.2-15-12.2c-8.1-1.1-16,2.3-17.7,7.5
			c-0.5,1.4-0.4,2.8,0.1,4.2l0,0.1l-16.1-2.1c-2-0.3-3.9,0.6-4.3,1.8l-4.1,12.8c-0.4,1.3,0.9,2.5,2.8,2.8l16.1,2.1l-0.1,0.2
			c-1.3,1.1-2.2,2.4-2.6,3.8c-1.7,5.2,3.5,10.3,11.6,11.4C804.9,192.3,812.7,189.3,817.5,184.1z"/>
		<g class="st1">
			<path class="st2" d="M795.6,157.8c-0.8,0.2-1.5,0.4-2.2,0.7l13.2,1.8C804.9,157.9,799.1,157,795.6,157.8z"/>
			<path class="st2" d="M801.1,177.6l-13.2-1.8c0.4,0.4,0.9,0.9,1.5,1.2C792.1,178.8,798,179.4,801.1,177.6z"/>
			<path class="st3" d="M802.1,179.5c2.4-2.3,1.8-4.8,1.1-5.2l-33.9-4.5l-0.4,1.1c-0.4,1.3,0.9,2.6,2.9,2.8l16,2.1l13.2,1.8
				c-3.2,1.8-9,1.1-11.7-0.5c-0.6-0.4-1.1-0.8-1.5-1.2c0,1.4,0.9,2.7,2.6,3.8C793.8,181.7,799.1,181.9,802.1,179.5z"/>
			<path class="st3" d="M808.7,158.9c-1.3-3-6.3-4.1-10.6-3.1c-2.2,0.5-3.8,1.5-4.7,2.8c0.7-0.3,1.4-0.5,2.2-0.7
				c3.5-0.8,9.2,0,11.1,2.5l-13.2-1.8l-16-2.1c-2-0.3-4,0.6-4.4,1.9l-0.4,1.1l33.9,4.5C807.4,163.8,809.6,161.6,808.7,158.9z"/>
		</g>
	</g>
	<g>
		<path class="st0" d="M683.1,156.2c-14.5,0.2-26.2,2.3-38.8,6.1c-8.7,2.9-12.5,8.9-10.5,14.1c2.1,5.2,10.2,8.3,18.2,6.9
			c2.2-0.4,4.1-1,5.8-1.9l0.1,0l4.1,10.2c0.5,1.3,2.5,2,4.4,1.7l19.6-3.2c2-0.3,3.1-1.6,2.6-2.9l-4.1-10.2l0.2,0
			c2.1,0.3,4.3,0.2,6.5-0.1c8-1.3,12.8-6.6,10.8-11.7C700,159.9,692.4,156.7,683.1,156.2z"/>
		<g class="st1">
			<path class="st2" d="M656.1,180.5c0.6,0.4,1.3,0.7,2,0.9l-3.4-8.4C652,175.1,653.4,178.8,656.1,180.5z"/>
			<path class="st2" d="M681.2,168.6l3.4,8.4c0.4-0.4,0.8-0.9,1-1.4C686.7,173.3,685.1,169.6,681.2,168.6z"/>
			<path class="st3" d="M683.4,167.2c-4.2-0.4-7.5,1.1-7.7,1.6l8.6,21.6l1.7-0.3c2-0.3,3.2-1.6,2.7-2.9l-4.1-10.2l-3.4-8.4
				c3.9,1.1,5.5,4.7,4.4,7c-0.3,0.5-0.6,1-1,1.4c1.9-0.6,3.4-1.7,4.1-3.1C690.1,171.1,688.1,167.9,683.4,167.2z"/>
			<path class="st3" d="M651.8,172.4c-3.6,2.1-3,5.5,0.3,7.5c1.7,1,3.8,1.5,5.9,1.5c-0.7-0.3-1.4-0.6-2-0.9c-2.7-1.6-4-5.4-1.4-7.5
				l3.4,8.4l4.1,10.2c0.5,1.3,2.5,2.1,4.5,1.7l1.7-0.3l-8.6-21.6C659.2,171,655.2,170.7,651.8,172.4z"/>
		</g>
	</g>
	<g>
		<path class="st0" d="M145.2,263.2c-14.5,0.2-26.2,2.3-38.8,6.1c-8.7,2.9-12.5,8.9-10.5,14.1c2.1,5.2,10.2,8.3,18.2,6.9
			c2.2-0.4,4.1-1,5.8-1.9l0.1,0l4.1,10.2c0.5,1.3,2.5,2,4.4,1.7l19.6-3.2c2-0.3,3.1-1.6,2.6-2.9l-4.1-10.2l0.2,0
			c2.1,0.3,4.3,0.2,6.5-0.1c8-1.3,12.8-6.6,10.8-11.7C162.1,266.9,154.5,263.7,145.2,263.2z"/>
		<g class="st1">
			<path class="st2" d="M118.2,287.4c0.6,0.4,1.3,0.7,2,0.9l-3.4-8.4C114.2,282.1,115.5,285.8,118.2,287.4z"/>
			<path class="st2" d="M143.4,275.5l3.4,8.4c0.4-0.4,0.8-0.9,1-1.4C148.9,280.3,147.3,276.6,143.4,275.5z"/>
			<path class="st3" d="M145.5,274.1c-4.2-0.4-7.5,1.1-7.7,1.6l8.6,21.6l1.7-0.3c2-0.3,3.2-1.6,2.7-2.9l-4.1-10.2l-3.4-8.4
				c3.9,1.1,5.5,4.7,4.4,7c-0.3,0.5-0.6,1-1,1.4c1.9-0.6,3.4-1.7,4.1-3.1C152.2,278,150.2,274.8,145.5,274.1z"/>
			<path class="st3" d="M113.9,279.4c-3.6,2.1-3,5.5,0.3,7.5c1.7,1,3.8,1.5,5.9,1.5c-0.7-0.3-1.4-0.6-2-0.9c-2.7-1.6-4-5.4-1.4-7.5
				l3.4,8.4l4.1,10.2c0.5,1.3,2.5,2.1,4.5,1.7l1.7-0.3l-8.6-21.6C121.3,278,117.3,277.7,113.9,279.4z"/>
		</g>
	</g>
	<g>
		<path class="st0" d="M742.6,356.2c-13.6,3.2-23.6,7.6-33.7,13.8c-6.8,4.5-7.4,11-2.9,15.5c4.5,4.5,13.8,5.7,20.7,2.8
			c1.9-0.8,3.4-1.8,4.5-3l0.1,0l9,8.9c1.1,1.1,3.4,1.4,5.1,0.7l17-7.1c1.7-0.7,2.2-2.2,1.1-3.3l-9-8.9l0.2-0.1
			c2.1-0.2,4.2-0.7,6-1.5c6.9-2.9,8.9-8.9,4.4-13.3C760.5,356.2,751.7,354.7,742.6,356.2z"/>
		<g class="st1">
			<path class="st2" d="M729.1,384.7c0.8,0.2,1.6,0.4,2.3,0.5l-7.4-7.3C722.6,380.4,725.7,383.7,729.1,384.7z"/>
			<path class="st2" d="M747,368.2l7.4,7.3c0.2-0.5,0.3-1,0.3-1.6C754.6,371.5,751.2,368.4,747,368.2z"/>
			<path class="st3" d="M748.3,366.5c-4.2,0.5-6.5,2.6-6.5,3.1l18.9,18.7l1.5-0.6c1.7-0.7,2.2-2.2,1.1-3.3l-8.9-8.8l-7.4-7.3
				c4.2,0.2,7.6,3.3,7.6,5.7c0,0.5-0.1,1.1-0.3,1.6c1.5-1,2.4-2.3,2.3-3.8C756.6,368.7,753.1,366.1,748.3,366.5z"/>
			<path class="st3" d="M721,377.9c-2.4,2.7-0.1,5.8,4,7c2.1,0.6,4.4,0.6,6.4,0.2c-0.8-0.1-1.6-0.2-2.3-0.5c-3.4-1-6.5-4.3-5-6.8
				l7.4,7.3l8.9,8.8c1.1,1.1,3.4,1.4,5.2,0.7l1.5-0.6l-18.9-18.7C727.3,375.1,723.4,375.7,721,377.9z"/>
		</g>
	</g>
	<g>
		<path class="st0" d="M373.9,127.3c-13.6,3.2-23.6,7.6-33.7,13.8c-6.8,4.5-7.4,11-2.9,15.5c4.5,4.5,13.8,5.7,20.7,2.8
			c1.9-0.8,3.4-1.8,4.5-3l0.1,0l9,8.9c1.1,1.1,3.4,1.4,5.1,0.7l17-7.1c1.7-0.7,2.2-2.2,1.1-3.3l-9-8.9l0.2-0.1
			c2.1-0.2,4.2-0.7,6-1.5c6.9-2.9,8.9-8.9,4.4-13.3C391.8,127.3,383,125.8,373.9,127.3z"/>
		<g class="st1">
			<path class="st2" d="M360.3,155.8c0.8,0.2,1.6,0.4,2.3,0.5l-7.4-7.3C353.9,151.6,357,154.8,360.3,155.8z"/>
			<path class="st2" d="M378.3,139.4l7.4,7.3c0.2-0.5,0.3-1,0.3-1.6C385.8,142.7,382.5,139.6,378.3,139.4z"/>
			<path class="st3" d="M379.6,137.6c-4.2,0.5-6.5,2.6-6.5,3.1l18.9,18.7l1.5-0.6c1.7-0.7,2.2-2.2,1.1-3.3l-8.9-8.8l-7.4-7.3
				c4.2,0.2,7.6,3.3,7.6,5.7c0,0.5-0.1,1.1-0.3,1.6c1.5-1,2.4-2.3,2.3-3.8C387.9,139.9,384.4,137.3,379.6,137.6z"/>
			<path class="st3" d="M352.3,149.1c-2.4,2.7-0.1,5.8,4,7c2.1,0.6,4.4,0.6,6.4,0.2c-0.8-0.1-1.6-0.2-2.3-0.5c-3.4-1-6.5-4.3-5-6.8
				l7.4,7.3l8.9,8.8c1.1,1.1,3.4,1.4,5.2,0.7l1.5-0.6l-18.9-18.7C358.6,146.3,354.7,146.8,352.3,149.1z"/>
		</g>
	</g>
	<g>
		<path class="st0" d="M334.9,392.3c-13.6,3.2-23.6,7.6-33.7,13.8c-6.8,4.5-7.4,11-2.9,15.5c4.5,4.5,13.8,5.7,20.7,2.8
			c1.9-0.8,3.4-1.8,4.5-3l0.1,0l9,8.9c1.1,1.1,3.4,1.4,5.1,0.7l17-7.1c1.7-0.7,2.2-2.2,1.1-3.3l-9-8.9l0.2-0.1
			c2.1-0.2,4.2-0.7,6-1.5c6.9-2.9,8.9-8.9,4.4-13.3C352.8,392.3,344,390.8,334.9,392.3z"/>
		<g class="st1">
			<path class="st2" d="M321.4,420.8c0.8,0.2,1.6,0.4,2.3,0.5l-7.4-7.3C314.9,416.6,318,419.8,321.4,420.8z"/>
			<path class="st2" d="M339.3,404.4l7.4,7.3c0.2-0.5,0.3-1,0.3-1.6C346.9,407.7,343.5,404.6,339.3,404.4z"/>
			<path class="st3" d="M340.6,402.6c-4.2,0.5-6.5,2.6-6.5,3.1l18.9,18.7l1.5-0.6c1.7-0.7,2.2-2.2,1.1-3.3l-8.9-8.8l-7.4-7.3
				c4.2,0.2,7.6,3.3,7.6,5.7c0,0.5-0.1,1.1-0.3,1.6c1.5-1,2.4-2.3,2.3-3.8C348.9,404.9,345.4,402.3,340.6,402.6z"/>
			<path class="st3" d="M313.3,414.1c-2.4,2.7-0.1,5.8,4,7c2.1,0.6,4.4,0.6,6.4,0.2c-0.8-0.1-1.6-0.2-2.3-0.5c-3.4-1-6.5-4.3-5-6.8
				l7.4,7.3l8.9,8.8c1.1,1.1,3.4,1.4,5.2,0.7l1.5-0.6l-18.9-18.7C319.6,411.3,315.7,411.8,313.3,414.1z"/>
		</g>
	</g>
	<g>
		<path class="st0" d="M511.2,158.9c12.5-4.7,21.2-10.2,29.4-17.4c5.5-5.2,4.3-11.7-1.4-15.6c-5.7-3.9-15.1-4.1-21.1-0.4
			c-1.6,1-2.9,2.2-3.6,3.4l-0.1,0.1l-11.2-7.7c-1.4-0.9-3.7-1-5.2-0.1l-14.8,9c-1.5,0.9-1.5,2.4-0.2,3.3l11.2,7.7l-0.2,0.1
			c-2,0.4-3.9,1.1-5.5,2.1c-6,3.7-6.3,9.8-0.6,13.6C493.6,160.9,502.6,161.4,511.2,158.9z"/>
		<g class="st1">
			<path class="st2" d="M516.7,129.2c-0.8-0.1-1.6-0.2-2.4-0.2l9.3,6.3C524.2,132.7,520.3,129.9,516.7,129.2z"/>
			<path class="st2" d="M503.6,147.5l-9.3-6.3c0,0.5,0,1,0.2,1.6C495.2,145.1,499.4,147.8,503.6,147.5z"/>
			<path class="st3" d="M502.7,149.4c4-1,5.7-3.3,5.6-3.8l-23.7-16.3l-1.3,0.8c-1.5,0.9-1.6,2.4-0.2,3.4l11.2,7.7l9.3,6.3
				c-4.2,0.3-8.4-2.4-9.1-4.8c-0.2-0.5-0.2-1.1-0.2-1.6c-1.2,1.1-1.7,2.6-1.2,4C494,148.1,498.1,150.3,502.7,149.4z"/>
			<path class="st3" d="M526.5,135c1.6-2.9-1.5-5.7-5.9-6.5c-2.2-0.4-4.5-0.1-6.3,0.6c0.8,0,1.6,0.1,2.4,0.2
				c3.6,0.6,7.5,3.4,6.8,6.1l-9.3-6.3l-11.2-7.7c-1.4-1-3.8-1-5.3-0.1l-1.3,0.8l23.7,16.3C521,138.5,524.7,137.5,526.5,135z"/>
		</g>
	</g>
	<g>
		<path class="st0" d="M609.3,508.8c12.5-4.7,21.2-10.2,29.4-17.4c5.5-5.2,4.3-11.7-1.4-15.6s-15.1-4.1-21.1-0.4
			c-1.6,1-2.9,2.2-3.6,3.4l-0.1,0.1l-11.2-7.7c-1.4-0.9-3.7-1-5.2-0.1l-14.8,9c-1.5,0.9-1.5,2.4-0.2,3.3l11.2,7.7l-0.2,0.1
			c-2,0.4-3.9,1.1-5.5,2.1c-6,3.7-6.3,9.8-0.6,13.6C591.7,510.8,600.8,511.3,609.3,508.8z"/>
		<g class="st1">
			<path class="st2" d="M614.9,479.1c-0.8-0.1-1.6-0.2-2.4-0.2l9.3,6.3C622.4,482.6,618.5,479.7,614.9,479.1z"/>
			<path class="st2" d="M601.7,497.4l-9.3-6.3c0,0.5,0,1,0.2,1.6C593.4,495,597.5,497.7,601.7,497.4z"/>
			<path class="st3" d="M600.9,499.3c4-1,5.7-3.3,5.6-3.8l-23.7-16.3l-1.3,0.8c-1.5,0.9-1.6,2.4-0.2,3.4l11.2,7.7l9.3,6.3
				c-4.2,0.3-8.4-2.4-9.1-4.8c-0.2-0.5-0.2-1.1-0.2-1.6c-1.2,1.1-1.7,2.6-1.2,4C592.1,497.9,596.3,500.1,600.9,499.3z"/>
			<path class="st3" d="M624.6,484.9c1.6-2.9-1.5-5.7-5.9-6.5c-2.2-0.4-4.5-0.1-6.3,0.6c0.8,0,1.6,0.1,2.4,0.2
				c3.6,0.6,7.5,3.4,6.8,6.1l-9.3-6.3l-11.2-7.7c-1.4-1-3.8-1-5.3-0.1l-1.3,0.8l23.7,16.3C619.2,488.3,622.9,487.4,624.6,484.9z"/>
		</g>
	</g>
	<g>
		<path class="st0" d="M442.1,93.1c-10-6.8-20.2-10.9-33.1-14.5c-9.2-2.2-18.6,0-23.2,4.4c-4.6,4.4-2.7,10.4,4.2,13.4
			c1.9,0.8,3.9,1.3,6,1.5l0.1,0l-9,8.8c-1.1,1.1-0.7,2.5,1,3.3l16.9,7.2c1.7,0.7,3.9,0.4,5.1-0.7l9-8.8l0.2,0.1
			c1.1,1.2,2.6,2.2,4.5,3c6.9,2.9,16.2,1.7,20.7-2.7C449.2,103.7,447.8,97.9,442.1,93.1z"/>
		<g class="st1">
			<path class="st2" d="M396.1,96.4c0,0.5,0.1,1.1,0.3,1.6l7.5-7.3C399.5,90.9,396.2,94,396.1,96.4z"/>
			<path class="st2" d="M426.6,100.5l-7.5,7.3c0.8-0.1,1.6-0.2,2.3-0.5C424.9,106.3,428,103.1,426.6,100.5z"/>
			<path class="st3" d="M429.6,100.6c-2.4-2.3-6.3-2.8-7.1-2.6l-19.1,18.6l1.5,0.6c1.7,0.7,4,0.4,5.2-0.7l9-8.8l7.5-7.3
				c1.4,2.6-1.7,5.8-5.1,6.8c-0.8,0.2-1.6,0.4-2.3,0.5c2,0.5,4.3,0.5,6.4-0.1C429.7,106.4,432,103.3,429.6,100.6z"/>
			<path class="st3" d="M402.5,89c-4.8-0.4-8.3,2.3-8.4,5.2c-0.1,1.5,0.8,2.8,2.3,3.8c-0.2-0.5-0.3-1-0.3-1.6
				c0.1-2.4,3.5-5.5,7.7-5.7l-7.5,7.3l-9,8.8c-1.1,1.1-0.7,2.6,1.1,3.3l1.5,0.6L409,92.2C409,91.6,406.6,89.5,402.5,89z"/>
		</g>
	</g>
	<g>
		<path class="st0" d="M695.3,63.9c-14.4-1-26.4,0.1-39.7,2.8c-9.2,2.1-14.2,7.8-13.2,13.1c1,5.3,8.4,9.1,16.6,8.4
			c2.2-0.2,4.3-0.7,6.1-1.4l0.1,0l2,10.5c0.2,1.3,2.1,2.2,4.1,2.1l20.1-1.6c2-0.2,3.4-1.3,3.2-2.6l-2-10.5l0.2,0
			c2,0.4,4.2,0.6,6.4,0.4c8.2-0.6,14-5.4,13.1-10.7C711.3,68.9,704.4,65.1,695.3,63.9z"/>
		<g class="st1">
			<path class="st2" d="M663.6,85.6c0.5,0.4,1.1,0.8,1.8,1.1l-1.6-8.6C660.7,79.9,661.3,83.7,663.6,85.6z"/>
			<path class="st2" d="M691,75.9l1.6,8.6c0.5-0.4,1-0.8,1.3-1.3C695.5,81.1,694.6,77.3,691,75.9z"/>
			<path class="st3" d="M693.3,74.7c-4.1-0.7-7.6,0.5-8,1l4.2,22.2l1.8-0.1c2-0.2,3.5-1.4,3.3-2.7l-2-10.5l-1.6-8.6
				c3.7,1.4,4.5,5.1,2.9,7.3c-0.4,0.5-0.8,0.9-1.3,1.3c2-0.5,3.7-1.4,4.7-2.8C699.2,79.1,697.9,75.8,693.3,74.7z"/>
			<path class="st3" d="M661,77.3c-4,1.7-4.1,5.2-1.2,7.5c1.4,1.2,3.5,1.8,5.6,2c-0.6-0.3-1.2-0.7-1.8-1.1c-2.3-1.9-2.9-5.7,0.2-7.6
				l1.6,8.6l2,10.5c0.2,1.3,2.1,2.3,4.2,2.1l1.8-0.1L669.1,77C668.6,76.5,664.7,75.9,661,77.3z"/>
		</g>
	</g>
</g>
<g id="Ham">
</g>
<g id="Pineapple">
</g>
<g id="Bacon">
</g>
<g id="Sausage">
</g>
<g id="Crust">
</g>
</svg>
