<?xml version="1.0" encoding="utf-8"?>
<!-- Generator: Adobe Illustrator 21.0.0, SVG Export Plug-In . SVG Version: 6.00 Build 0)  -->
<!DOCTYPE svg PUBLIC "-//W3C//DTD SVG 1.1//EN" "http://www.w3.org/Graphics/SVG/1.1/DTD/svg11.dtd">
<svg version="1.1" xmlns="http://www.w3.org/2000/svg" xmlns:xlink="http://www.w3.org/1999/xlink" x="0px" y="0px"
	 viewBox="0 0 1131.4 754.4" style="enable-background:new 0 0 1131.4 754.4;" xml:space="preserve">
<style type="text/css">
	.st0{fill:#F2E3C4;}
	.st1{opacity:0.25;}
	.st2{fill:none;}
	.st3{fill:#754C29;}
</style>
<g id="Background">
</g>
<g id="Cheese">
</g>
<g id="Pepperoni">
</g>
<g id="Peppers">
</g>
<g id="Mushrooms">
	<g>
		<path class="st0" d="M642.1,278c-6.3-8.4-14-14.4-24.5-20.3c-7.7-3.9-17.7-3.7-24.2-0.4c-6.5,3.3-7.5,9.4-2.4,13.6
			c1.4,1.1,3.1,2,5,2.6l0.1,0.1l-12.8,6.6c-1.6,0.8-1.8,2.3-0.6,3.3l12.6,10.2c1.3,1,3.6,1.2,5.1,0.4l12.8-6.6l0.2,0.1
			c0.5,1.3,1.4,2.6,2.8,3.7c5.1,4.2,14.6,4.9,21,1.5C643.8,289.4,645.3,283.6,642.1,278z"/>
		<g class="st1">
			<path class="st2" d="M596.8,272c-0.3,0.5-0.4,1-0.5,1.5l10.6-5.4C602.7,267.4,598,269.7,596.8,272z"/>
			<path class="st2" d="M623.9,281.9l-10.6,5.4c0.8,0.1,1.6,0.1,2.5,0C619.5,287.1,624,284.6,623.9,281.9z"/>
			<path class="st3" d="M626.7,282.6c-1.2-2.6-4.6-4-5.5-3.9l-27.1,13.9l1.1,0.9c1.3,1,3.6,1.2,5.3,0.4l12.8-6.6l10.6-5.4
				c0.1,2.7-4.4,5.2-8.1,5.5c-0.8,0.1-1.7,0-2.5,0c1.7,0.9,3.8,1.3,6.1,1.1C624,288.1,627.7,285.7,626.7,282.6z"/>
			<path class="st3" d="M606.4,266.2c-4.4-1.3-9,0.5-10.5,3.3c-0.8,1.4-0.6,2.9,0.3,4.1c0.1-0.5,0.2-1,0.5-1.5
				c1.2-2.2,5.9-4.6,10.1-3.9l-10.6,5.4l-12.8,6.6c-1.6,0.8-1.9,2.3-0.6,3.4l1.1,0.9l27.1-13.9C611.4,269.9,610.1,267.5,606.4,266.2
				z"/>
		</g>
	</g>
	<g>
		<path class="st0" d="M507.4,300.9c-13.7,3.1-23.7,7.5-34,13.6c-6.9,4.5-7.6,11-3.2,15.5c4.4,4.5,13.7,5.8,20.7,3
			c1.9-0.8,3.4-1.8,4.6-2.9l0.1,0l8.8,8.9c1.1,1.1,3.3,1.4,5,0.7l17.1-7c1.7-0.7,2.2-2.2,1.1-3.3l-8.8-8.9l0.2-0.1
			c2.1-0.2,4.2-0.6,6.1-1.4c7-2.9,9-8.8,4.6-13.3C525.2,301,516.4,299.4,507.4,300.9z"/>
		<g class="st1">
			<path class="st2" d="M493.3,329.3c0.8,0.2,1.5,0.4,2.3,0.5l-7.3-7.3C486.9,325,490,328.3,493.3,329.3z"/>
			<path class="st2" d="M511.5,312.9l7.3,7.3c0.2-0.5,0.3-1,0.3-1.6C519,316.3,515.7,313.2,511.5,312.9z"/>
			<path class="st3" d="M512.9,311.2c-4.2,0.5-6.6,2.5-6.6,3.1l18.6,18.8l1.5-0.6c1.7-0.7,2.3-2.2,1.1-3.3l-8.8-8.9l-7.3-7.3
				c4.2,0.2,7.5,3.4,7.6,5.8c0,0.5-0.1,1.1-0.3,1.6c1.5-1,2.4-2.3,2.4-3.8C521.1,313.6,517.7,310.9,512.9,311.2z"/>
			<path class="st3" d="M485.4,322.5c-2.5,2.7-0.2,5.8,3.9,7.1c2.1,0.6,4.4,0.7,6.4,0.2c-0.8-0.1-1.6-0.3-2.3-0.5
				c-3.3-1-6.4-4.3-4.9-6.9l7.3,7.3l8.8,8.9c1.1,1.1,3.4,1.5,5.2,0.7l1.5-0.6L492.5,320C491.7,319.7,487.8,320.2,485.4,322.5z"/>
		</g>
	</g>
	<g>
		<path class="st0" d="M309,178.1c-12,5.2-20.1,11-27.7,18.6c-4.9,5.5-3.1,11.8,2.9,15.5c6,3.6,15.5,3.4,21.1-0.5
			c1.5-1.1,2.6-2.3,3.3-3.6l0.1-0.1l12,7.2c1.5,0.9,3.8,0.8,5.2-0.1l13.9-9.5c1.4-0.9,1.3-2.4-0.2-3.3l-12-7.2l0.2-0.1
			c2-0.5,3.8-1.3,5.3-2.4c5.6-3.9,5.3-10-0.7-13.6C326.4,175.4,317.3,175.3,309,178.1z"/>
		<g class="st1">
			<path class="st2" d="M306.4,207.9c0.8,0.1,1.6,0.1,2.5,0.1l-9.9-5.9C298.5,204.8,302.8,207.5,306.4,207.9z"/>
			<path class="st2" d="M317.7,189.2l9.9,6c0-0.5-0.1-1-0.3-1.6C326.3,191.2,321.9,188.7,317.7,189.2z"/>
			<path class="st3" d="M318.4,187.3c-3.9,1.1-5.4,3.5-5.2,4.1l25.3,15.3l1.2-0.8c1.4-1,1.3-2.5-0.2-3.4l-11.9-7.2l-9.9-6
				c4.2-0.5,8.6,2.1,9.5,4.4c0.2,0.5,0.3,1.1,0.3,1.6c1.1-1.2,1.4-2.6,0.8-4.1C327.2,188.2,322.9,186.2,318.4,187.3z"/>
			<path class="st3" d="M296.1,202.6c-1.4,3,2.1,5.7,6.5,6.2c2.3,0.3,4.5,0,6.2-0.8c-0.8,0-1.6,0-2.5-0.1c-3.6-0.5-7.9-3.1-7.4-5.8
				l9.9,5.9l11.9,7.2c1.5,0.9,3.9,0.9,5.3-0.1l1.2-0.8L302,199C301.2,198.9,297.6,200,296.1,202.6z"/>
		</g>
	</g>
	<g>
		<path class="st0" d="M317.1,273.7c-12.7,4.5-21.6,9.8-30.2,16.9c-5.7,5.1-4.8,11.6,0.7,15.6s14.9,4.3,21.1,0.8
			c1.7-1,2.9-2.1,3.8-3.4l0.1,0l10.9,7.9c1.3,1,3.6,1.1,5.2,0.2l15.2-8.7c1.5-0.9,1.6-2.4,0.3-3.3l-10.9-7.9l0.2-0.1
			c2-0.4,4-1.1,5.6-2c6.2-3.5,6.7-9.6,1.2-13.6C334.8,272,325.7,271.4,317.1,273.7z"/>
		<g class="st1">
			<path class="st2" d="M310.2,303.2c0.8,0.2,1.6,0.2,2.4,0.2l-9-6.5C302.9,299.7,306.7,302.6,310.2,303.2z"/>
			<path class="st2" d="M324.2,285.2l9,6.5c0.1-0.5,0-1-0.1-1.6C332.4,287.8,328.4,285,324.2,285.2z"/>
			<path class="st3" d="M325.1,283.4c-4,0.9-5.9,3.2-5.7,3.7l23,16.7l1.3-0.8c1.5-0.9,1.7-2.4,0.3-3.4l-10.9-7.9l-9-6.5
				c4.2-0.2,8.2,2.6,8.9,4.9c0.1,0.5,0.2,1.1,0.1,1.6c1.2-1.1,1.8-2.5,1.4-4C333.8,284.9,329.8,282.6,325.1,283.4z"/>
			<path class="st3" d="M300.7,297.3c-1.8,2.9,1.2,5.8,5.6,6.6c2.2,0.4,4.5,0.2,6.3-0.4c-0.8,0-1.6-0.1-2.4-0.2
				c-3.5-0.7-7.4-3.6-6.5-6.3l9,6.5l10.9,7.9c1.4,1,3.7,1.1,5.3,0.2l1.3-0.8l-23-16.7C306.3,294,302.6,294.9,300.7,297.3z"/>
		</g>
	</g>
	<g>
		<path class="st0" d="M224.2,185.2c-7-8.2-15.4-13.8-26.4-19.3c-8-3.6-18-3-24.2,0.6c-6.1,3.6-6.6,9.7-1.1,13.6
			c1.5,1.1,3.3,1.9,5.3,2.4l0.1,0.1l-12.2,7.1c-1.5,0.9-1.6,2.4-0.3,3.3l13.6,9.7c1.4,1,3.7,1,5.2,0.2l12.2-7.1l0.2,0.1
			c0.6,1.3,1.7,2.5,3.2,3.6c5.5,4,15,4.3,21.1,0.7C227,196.6,227.9,190.8,224.2,185.2z"/>
		<g class="st1">
			<path class="st2" d="M178.4,181c-0.2,0.5-0.3,1-0.4,1.6l10-5.8C183.9,176.3,179.4,178.7,178.4,181z"/>
			<path class="st2" d="M206.4,189.9l-10,5.8c0.8,0,1.6,0,2.5-0.1C202.5,195.2,206.8,192.6,206.4,189.9z"/>
			<path class="st3" d="M209.3,190.5c-1.4-2.6-5-3.8-5.8-3.7l-25.7,15l1.2,0.9c1.4,1,3.7,1.1,5.3,0.2l12.1-7.1l10-5.8
				c0.4,2.7-3.9,5.3-7.6,5.8c-0.8,0.1-1.7,0.1-2.5,0.1c1.7,0.8,4,1.1,6.2,0.9C207.1,196.1,210.6,193.5,209.3,190.5z"/>
			<path class="st3" d="M187.5,174.9c-4.5-1.1-8.9,0.8-10.2,3.7c-0.6,1.4-0.3,2.9,0.7,4.1c0-0.5,0.1-1,0.4-1.6
				c1-2.3,5.5-4.8,9.7-4.3l-10,5.8l-12.1,7.1c-1.5,0.9-1.7,2.4-0.3,3.4l1.2,0.9l25.7-15C192.7,178.4,191.3,176,187.5,174.9z"/>
		</g>
	</g>
	<g>
		<path class="st0" d="M230,346.2c8.6-7.5,13.2-14.8,16.4-23.5c1.8-6.2-3.2-11.8-10.8-14c-7.6-2.1-16.4,0.1-19.7,5
			c-0.9,1.3-1.3,2.7-1.2,4.1l0,0.1l-15-4.2c-1.9-0.5-4,0-4.8,1.2l-8.1,12c-0.8,1.2,0,2.6,1.9,3.1l15,4.2l-0.1,0.1
			c-1.6,0.9-2.9,2-3.8,3.4c-3.3,4.9,0.2,10.6,7.8,12.7C215.1,352.5,223.7,350.7,230,346.2z"/>
		<g class="st1">
			<path class="st2" d="M217,317.6c-0.8,0.1-1.6,0.2-2.4,0.4l12.4,3.5C226,318.8,220.6,317.2,217,317.6z"/>
			<path class="st2" d="M216.1,337.7l-12.4-3.5c0.3,0.5,0.6,1,1.1,1.4C206.9,337.6,212.4,339,216.1,337.7z"/>
			<path class="st3" d="M216.5,339.6c3.1-1.9,3.3-4.5,2.8-4.9l-31.8-8.9l-0.7,1.1c-0.8,1.2,0,2.6,1.9,3.2l15,4.2l12.4,3.5
				c-3.7,1.3-9.2-0.1-11.3-2.1c-0.5-0.4-0.8-0.9-1.1-1.4c-0.4,1.3,0,2.8,1.3,4C207.6,340.6,212.7,341.6,216.5,339.6z"/>
			<path class="st3" d="M229.4,320.3c-0.3-3.1-4.9-4.9-9.4-4.5c-2.3,0.2-4.2,1-5.5,2.1c0.7-0.2,1.5-0.4,2.4-0.4
				c3.7-0.3,9,1.3,10,3.9l-12.4-3.5l-15-4.2c-1.9-0.5-4.1,0-4.9,1.3l-0.7,1.1l31.8,8.9C226.6,324.9,229.4,323.1,229.4,320.3z"/>
		</g>
	</g>
	<g>
		<path class="st0" d="M200.5,409c-13.5,3.3-23.4,7.8-33.4,14.1c-6.7,4.6-7.2,11.1-2.6,15.5c4.6,4.4,13.9,5.6,20.8,2.6
			c1.9-0.8,3.4-1.8,4.5-3l0.1,0l9.2,8.8c1.1,1.1,3.4,1.4,5.1,0.6l16.8-7.3c1.7-0.7,2.1-2.2,1-3.3l-9.2-8.8l0.2-0.1
			c2.1-0.2,4.1-0.7,6-1.5c6.9-3,8.7-9,4.1-13.4C218.3,408.8,209.5,407.4,200.5,409z"/>
		<g class="st1">
			<path class="st2" d="M187.5,437.6c0.8,0.2,1.6,0.4,2.4,0.5l-7.5-7.2C181,433.5,184.2,436.7,187.5,437.6z"/>
			<path class="st2" d="M205.1,421l7.5,7.2c0.2-0.5,0.3-1,0.2-1.6C212.7,424.3,209.3,421.2,205.1,421z"/>
			<path class="st3" d="M206.4,419.2c-4.2,0.5-6.5,2.6-6.5,3.2l19.3,18.5l1.5-0.6c1.7-0.7,2.2-2.2,1-3.3l-9.1-8.7l-7.5-7.2
				c4.2,0.2,7.6,3.3,7.8,5.7c0,0.5-0.1,1.1-0.2,1.6c1.5-1,2.3-2.4,2.2-3.8C214.7,421.5,211.2,418.9,206.4,419.2z"/>
			<path class="st3" d="M179.3,431c-2.4,2.7,0,5.8,4.2,7c2.1,0.6,4.4,0.6,6.4,0.1c-0.8-0.1-1.6-0.2-2.4-0.5c-3.4-1-6.6-4.2-5.2-6.8
				l7.5,7.2l9.1,8.7c1.2,1.1,3.5,1.4,5.2,0.7l1.5-0.6l-19.3-18.5C185.6,428.1,181.7,428.7,179.3,431z"/>
		</g>
	</g>
	<g>
		<path class="st0" d="M314.6,503.8c-14.4,0.9-25.8,3.5-38.1,7.9c-8.4,3.3-11.5,9.5-8.9,14.5c2.6,5.1,11.1,7.8,18.9,6.1
			c2.1-0.5,4-1.2,5.5-2.1l0.1,0l5.2,10c0.6,1.2,2.7,1.9,4.6,1.5l19.2-4.1c1.9-0.4,2.9-1.7,2.3-3l-5.2-10l0.2-0.1
			c2.1,0.2,4.3,0,6.4-0.4c7.8-1.7,12.1-7.2,9.4-12.2C331.9,506.7,323.9,503.8,314.6,503.8z"/>
		<g class="st1">
			<path class="st2" d="M290.3,529.2c0.6,0.3,1.4,0.6,2.1,0.8l-4.3-8.3C285.7,524,287.5,527.6,290.3,529.2z"/>
			<path class="st2" d="M314.1,516.1l4.3,8.3c0.4-0.5,0.7-0.9,0.9-1.5C320.1,520.6,318.1,517,314.1,516.1z"/>
			<path class="st3" d="M316.1,514.7c-4.2-0.2-7.3,1.4-7.5,2l11,21.2l1.7-0.4c2-0.4,3-1.8,2.4-3l-5.2-10l-4.3-8.3
				c4,0.9,6,4.5,5.2,6.8c-0.2,0.5-0.5,1-0.9,1.5c1.8-0.7,3.2-1.9,3.7-3.3C323.2,518.2,320.9,515.1,316.1,514.7z"/>
			<path class="st3" d="M285.2,521.3c-3.4,2.2-2.4,5.6,1.1,7.5c1.8,0.9,4,1.3,6.1,1.2c-0.7-0.2-1.4-0.5-2.1-0.8
				c-2.8-1.5-4.6-5.2-2.2-7.4l4.3,8.3l5.2,10c0.7,1.3,2.8,1.9,4.7,1.5l1.7-0.4L293,520C292.4,519.6,288.4,519.5,285.2,521.3z"/>
		</g>
	</g>
	<g>
		<path class="st0" d="M202.8,544.9c-9.6-7-19.7-11.3-32.3-15.1c-9.1-2.4-18.6-0.4-23.4,4c-4.8,4.3-3.2,10.4,3.6,13.4
			c1.8,0.8,3.9,1.4,6,1.6l0.1,0l-9.5,8.6c-1.2,1.1-0.8,2.5,0.9,3.3l16.5,7.5c1.6,0.8,3.9,0.5,5.1-0.6l9.5-8.6l0.2,0.1
			c1,1.2,2.5,2.2,4.3,3.1c6.7,3.1,16.1,2,20.9-2.3C209.4,555.6,208.3,549.8,202.8,544.9z"/>
		<g class="st1">
			<path class="st2" d="M156.7,547.3c-0.1,0.5,0,1.1,0.2,1.6l7.8-7.1C160.4,541.8,156.9,544.9,156.7,547.3z"/>
			<path class="st2" d="M187.1,551.9l-7.8,7.1c0.8-0.1,1.6-0.2,2.4-0.4C185,557.7,188.3,554.5,187.1,551.9z"/>
			<path class="st3" d="M190.1,552.1c-2.3-2.3-6.1-3-6.9-2.8l-20,18.2l1.5,0.7c1.7,0.8,4,0.5,5.2-0.6l9.4-8.6l7.8-7.1
				c1.3,2.6-2,5.8-5.4,6.7c-0.8,0.2-1.6,0.3-2.4,0.4c2,0.5,4.2,0.6,6.4,0C189.8,557.9,192.3,554.9,190.1,552.1z"/>
			<path class="st3" d="M163.5,540c-4.8-0.5-8.4,2.1-8.7,5c-0.1,1.5,0.7,2.9,2.1,3.9c-0.2-0.5-0.2-1-0.2-1.6c0.2-2.4,3.7-5.4,8-5.5
				l-7.8,7.1l-9.4,8.6c-1.2,1.1-0.8,2.6,0.9,3.4l1.5,0.7l20-18.2C169.8,542.7,167.6,540.6,163.5,540z"/>
		</g>
	</g>
	<g>
		<path class="st0" d="M797.7,266.2c-9.6-7-19.7-11.3-32.3-15.1c-9.1-2.4-18.6-0.4-23.4,4c-4.8,4.3-3.2,10.4,3.6,13.4
			c1.8,0.8,3.9,1.4,6,1.6l0.1,0l-9.5,8.6c-1.2,1.1-0.8,2.5,0.9,3.3l16.5,7.5c1.6,0.8,3.9,0.5,5.1-0.6l9.5-8.6l0.2,0.1
			c1,1.2,2.5,2.2,4.3,3.1c6.7,3.1,16.1,2,20.9-2.3C804.3,276.9,803.2,271,797.7,266.2z"/>
		<g class="st1">
			<path class="st2" d="M751.5,268.5c-0.1,0.5,0,1.1,0.2,1.6l7.8-7.1C755.3,263.1,751.8,266.2,751.5,268.5z"/>
			<path class="st2" d="M781.9,273.2l-7.8,7.1c0.8-0.1,1.6-0.2,2.4-0.4C779.9,279,783.2,275.8,781.9,273.2z"/>
			<path class="st3" d="M784.9,273.4c-2.3-2.3-6.1-3-6.9-2.8l-20,18.2l1.5,0.7c1.7,0.8,4,0.5,5.2-0.6l9.4-8.6l7.8-7.1
				c1.3,2.6-2,5.8-5.4,6.7c-0.8,0.2-1.6,0.3-2.4,0.4c2,0.5,4.2,0.6,6.4,0C784.7,279.2,787.2,276.1,784.9,273.4z"/>
			<path class="st3" d="M758.3,261.2c-4.8-0.5-8.4,2.1-8.7,5c-0.1,1.5,0.7,2.9,2.1,3.9c-0.2-0.5-0.2-1-0.2-1.6
				c0.2-2.4,3.7-5.4,8-5.5l-7.8,7.1l-9.4,8.6c-1.2,1.1-0.8,2.6,0.9,3.4l1.5,0.7l20-18.2C764.7,264,762.5,261.8,758.3,261.2z"/>
		</g>
	</g>
	<g>
		<path class="st0" d="M403.5,600.2c-10.4-6.5-21-10.4-34-13.6c-9.3-2-18.6,0.5-22.9,5.1c-4.3,4.6-2,10.5,5.1,13.2
			c1.9,0.7,4,1.2,6.1,1.3l0.1,0l-8.5,9.1c-1,1.1-0.5,2.6,1.2,3.2l17.4,6.7c1.7,0.7,4,0.3,5-0.8l8.5-9.1l0.2,0.1
			c1.2,1.1,2.8,2.1,4.7,2.9c7.1,2.7,16.3,1.3,20.5-3.3C411.3,610.5,409.6,604.8,403.5,600.2z"/>
		<g class="st1">
			<path class="st2" d="M357.8,604.7c0,0.5,0.1,1.1,0.4,1.6l7-7.5C360.9,599.1,357.7,602.4,357.8,604.7z"/>
			<path class="st2" d="M388.6,608l-7,7.5c0.8-0.1,1.6-0.3,2.3-0.5C387.3,613.8,390.2,610.5,388.6,608z"/>
			<path class="st3" d="M391.6,608c-2.5-2.2-6.5-2.7-7.2-2.4l-17.8,19.1l1.5,0.6c1.8,0.7,4.1,0.3,5.1-0.8l8.4-9l7-7.5
				c1.6,2.5-1.4,5.8-4.6,6.9c-0.7,0.2-1.5,0.4-2.3,0.5c2,0.4,4.3,0.4,6.3-0.3C392,613.8,394.2,610.6,391.6,608z"/>
			<path class="st3" d="M363.7,597.1c-4.8-0.2-8.1,2.5-8.1,5.4c0,1.5,1,2.8,2.5,3.8c-0.2-0.5-0.3-1-0.4-1.6
				c-0.1-2.4,3.1-5.6,7.3-5.9l-7,7.5l-8.4,9c-1.1,1.1-0.5,2.6,1.3,3.3l1.5,0.6l17.8-19.1C370.4,599.6,367.9,597.5,363.7,597.1z"/>
		</g>
	</g>
	<g>
		<path class="st0" d="M570.6,539.4c-7.1-8.1-15.4-13.8-26.5-19.3c-8-3.6-18.1-3-24.2,0.6c-6.1,3.6-6.6,9.7-1,13.6
			c1.5,1.1,3.3,1.9,5.3,2.4l0.1,0.1l-12.1,7.1c-1.5,0.9-1.6,2.4-0.2,3.3l13.6,9.7c1.4,1,3.7,1,5.2,0.2l12.1-7.1l0.2,0.1
			c0.6,1.3,1.7,2.5,3.2,3.6c5.6,3.9,15,4.2,21.1,0.6C573.4,550.7,574.3,544.9,570.6,539.4z"/>
		<g class="st1">
			<path class="st2" d="M524.7,535.3c-0.2,0.5-0.3,1-0.4,1.6l10-5.9C530.2,530.5,525.7,533,524.7,535.3z"/>
			<path class="st2" d="M552.8,544.1l-10,5.9c0.8,0,1.6,0,2.5-0.1C548.9,549.4,553.2,546.8,552.8,544.1z"/>
			<path class="st3" d="M555.7,544.6c-1.4-2.6-5-3.8-5.8-3.7l-25.6,15l1.2,0.9c1.4,1,3.8,1.1,5.3,0.2l12.1-7.1l10-5.9
				c0.4,2.7-3.9,5.3-7.5,5.8c-0.8,0.1-1.6,0.1-2.5,0.1c1.7,0.8,4,1.1,6.2,0.9C553.5,550.3,557,547.6,555.7,544.6z"/>
			<path class="st3" d="M533.8,529.1c-4.5-1.1-8.9,0.9-10.1,3.7c-0.6,1.4-0.3,2.9,0.7,4.1c0-0.5,0.1-1,0.4-1.6
				c1-2.3,5.5-4.8,9.6-4.3l-10,5.9l-12.1,7.1c-1.5,0.9-1.6,2.4-0.3,3.4l1.2,0.9l25.6-15C539.1,532.7,537.6,530.2,533.8,529.1z"/>
		</g>
	</g>
	<g>
		<path class="st0" d="M668.5,645.3c-13.1,4-22.4,9-31.6,15.8c-6.1,4.9-5.8,11.4-0.7,15.6c5.1,4.2,14.5,4.9,21,1.6
			c1.8-0.9,3.1-2,4.1-3.2l0.1,0l10.2,8.3c1.3,1,3.6,1.2,5.1,0.4l15.9-8.1c1.6-0.8,1.8-2.3,0.6-3.3l-10.2-8.3l0.2-0.1
			c2.1-0.3,4-0.9,5.8-1.8c6.5-3.3,7.6-9.4,2.4-13.6C686.3,644.2,677.3,643.3,668.5,645.3z"/>
		<g class="st1">
			<path class="st2" d="M659.1,674.5c0.8,0.2,1.6,0.3,2.4,0.3l-8.4-6.8C652.1,670.7,655.6,673.7,659.1,674.5z"/>
			<path class="st2" d="M674.6,657l8.4,6.8c0.1-0.5,0.1-1,0-1.6C682.6,659.9,678.8,657,674.6,657z"/>
			<path class="st3" d="M675.7,655.2c-4.1,0.7-6.1,3-6,3.5l21.5,17.5l1.4-0.7c1.6-0.8,1.9-2.3,0.6-3.4l-10.2-8.3l-8.4-6.8
				c4.2-0.1,8,2.9,8.4,5.2c0.1,0.5,0.1,1.1,0,1.6c1.3-1.1,2-2.5,1.8-3.9C684.2,657,680.4,654.6,675.7,655.2z"/>
			<path class="st3" d="M650.1,668.3c-2,2.8,0.7,5.8,5,6.8c2.2,0.5,4.4,0.4,6.4-0.2c-0.8,0-1.6-0.1-2.4-0.3c-3.5-0.8-7.1-3.8-6-6.5
				l8.4,6.8l10.2,8.3c1.3,1,3.6,1.2,5.3,0.4l1.4-0.7l-21.5-17.5C656,665.1,652.2,665.9,650.1,668.3z"/>
		</g>
	</g>
	<g>
		<path class="st0" d="M542.3,415.1c-13.1-4-25-5.5-38.9-5.8c-9.8,0.1-17.4,4.3-19.1,9.5c-1.8,5.2,3.4,10.3,11.4,11.5
			c2.2,0.3,4.4,0.3,6.5,0l0.1,0l-3.5,10.3c-0.4,1.3,0.8,2.5,2.8,2.8l19.8,2.8c2,0.3,3.9-0.5,4.3-1.8l3.5-10.3l0.2,0
			c1.7,0.8,3.7,1.4,5.9,1.7c8.1,1.1,16-2.2,17.8-7.4C554.8,423.3,550.3,418.2,542.3,415.1z"/>
		<g class="st1">
			<path class="st2" d="M501.2,428.9c0.3,0.5,0.7,1,1.1,1.4l2.9-8.5C501.4,423,500,426.7,501.2,428.9z"/>
			<path class="st2" d="M532,425.6l-2.9,8.5c0.7-0.3,1.3-0.6,1.9-1C533.6,431.4,534.8,427.7,532,425.6z"/>
			<path class="st3" d="M534.9,425c-3.5-1.6-7.4-1.2-8-0.8l-7.4,21.8l1.8,0.2c2,0.3,4-0.5,4.4-1.8l3.5-10.3l2.9-8.5
				c2.8,2.1,1.6,5.8-0.9,7.5c-0.6,0.4-1.2,0.7-1.9,1c2.1,0,4.2-0.6,5.9-1.6C538.2,430.4,538.6,426.9,534.9,425z"/>
			<path class="st3" d="M503,420.5c-4.7,0.8-6.5,4-5,6.8c0.8,1.4,2.3,2.5,4.3,3c-0.5-0.4-0.8-0.9-1.1-1.4c-1.2-2.2,0.2-6,4-7.1
				l-2.9,8.5l-3.5,10.3c-0.4,1.3,0.8,2.6,2.9,2.9l1.8,0.2l7.4-21.8C510.6,421.4,507.2,420,503,420.5z"/>
		</g>
	</g>
	<g>
		<path class="st0" d="M736.1,463.8c-14.1-2.1-26.2-1.9-40-0.3c-9.5,1.4-15.6,6.6-15.6,11.9c0,5.3,6.7,9.6,15,9.6
			c2.3,0,4.4-0.3,6.3-0.9h0.1v10.6c0,1.3,1.6,2.4,3.7,2.4h20.3c2,0,3.7-1.1,3.7-2.4v-10.6h0.3c1.9,0.6,4.1,0.9,6.3,0.9
			c8.3,0,15-4.3,15-9.6C751.1,470.1,745,465.7,736.1,463.8z"/>
		<g class="st1">
			<path class="st2" d="M700.6,482.9c0.4,0.5,1,0.9,1.6,1.2v-8.7C698.8,477.1,698.6,480.9,700.6,482.9z"/>
			<path class="st2" d="M729.6,475.4v8.7c0.6-0.4,1.1-0.8,1.6-1.2C733.1,480.9,732.9,477.1,729.6,475.4z"/>
			<path class="st3" d="M732.1,474.4c-3.9-1.1-7.7-0.1-8.1,0.3v22.3h1.8c2.1,0,3.7-1.1,3.7-2.4v-10.5v-8.7c3.4,1.6,3.5,5.5,1.6,7.5
				c-0.4,0.5-1,0.9-1.6,1.2c2.1-0.3,4-1.1,5.2-2.4C737.1,479.2,736.5,475.8,732.1,474.4z"/>
			<path class="st3" d="M699.6,474.4c-4.3,1.4-5,4.8-2.6,7.3c1.2,1.3,3.1,2.1,5.2,2.4c-0.6-0.4-1.1-0.8-1.6-1.2
				c-2-2-1.8-5.8,1.6-7.5v8.7v10.5c0,1.3,1.7,2.4,3.7,2.4h1.8v-22.3C707.2,474.3,703.5,473.4,699.6,474.4z"/>
		</g>
	</g>
	<g>
		<path class="st0" d="M835.3,592.2c-12.7-4.4-24.5-6.4-38.4-7.2c-9.8-0.3-17.7,3.7-19.9,8.8c-2.2,5.1,2.5,10.4,10.4,11.9
			c2.2,0.4,4.4,0.4,6.5,0.2l0.1,0l-4.4,10.2c-0.5,1.3,0.6,2.6,2.5,2.9l19.5,3.5c1.9,0.3,4-0.4,4.5-1.6l4.4-10.2l0.2,0
			c1.6,0.9,3.5,1.6,5.7,2c8,1.4,16.2-1.6,18.4-6.7C847.1,600.8,843,595.6,835.3,592.2z"/>
		<g class="st1">
			<path class="st2" d="M793.1,604.5c0.2,0.5,0.6,1,1,1.4l3.6-8.4C793.8,598.6,792.1,602.2,793.1,604.5z"/>
			<path class="st2" d="M824.2,602.3l-3.6,8.4c0.7-0.2,1.4-0.5,2-0.9C825.3,608.1,826.7,604.4,824.2,602.3z"/>
			<path class="st3" d="M827.1,601.7c-3.3-1.7-7.3-1.5-8-1.1l-9.2,21.5l1.7,0.3c2,0.4,4-0.4,4.6-1.7l4.4-10.2l3.6-8.4
				c2.6,2.2,1.1,5.9-1.6,7.5c-0.6,0.4-1.3,0.7-2,0.9c2.1,0.1,4.3-0.4,6-1.4C829.9,607.3,830.6,603.8,827.1,601.7z"/>
			<path class="st3" d="M795.7,596.1c-4.7,0.6-6.8,3.8-5.5,6.6c0.6,1.4,2.1,2.5,4,3.2c-0.4-0.4-0.8-0.9-1-1.4
				c-1-2.3,0.7-5.9,4.6-6.9l-3.6,8.4l-4.4,10.2c-0.6,1.3,0.6,2.6,2.6,3l1.7,0.3l9.2-21.5C803.1,597.3,799.9,595.8,795.7,596.1z"/>
		</g>
	</g>
	<g>
		<path class="st0" d="M884.7,472.1c-14.3,1.4-25.5,4.4-37.4,9.1c-8.1,3.6-10.7,9.8-7.7,14.8c3,5,11.7,7.4,19.4,5.5
			c2.1-0.5,3.9-1.3,5.4-2.3l0.1,0l6,9.8c0.7,1.2,2.9,1.8,4.7,1.3l18.9-4.8c1.9-0.5,2.8-1.8,2.1-3.1l-6-9.8l0.2-0.1
			c2.1,0.1,4.3-0.1,6.4-0.6c7.7-1.9,11.5-7.5,8.5-12.5C902.2,474.4,894,471.8,884.7,472.1z"/>
		<g class="st1">
			<path class="st2" d="M862.4,498.3c0.7,0.3,1.4,0.6,2.1,0.8l-4.9-8.1C857.4,493.2,859.5,496.8,862.4,498.3z"/>
			<path class="st2" d="M885.2,484.5l4.9,8.1c0.3-0.5,0.6-1,0.8-1.5C891.5,488.7,889.3,485.2,885.2,484.5z"/>
			<path class="st3" d="M887,482.9c-4.2-0.1-7.2,1.7-7.4,2.2l12.6,20.8l1.7-0.4c1.9-0.5,2.9-1.9,2.1-3.1l-6-9.8l-4.9-8.1
				c4.1,0.7,6.4,4.3,5.7,6.6c-0.2,0.5-0.4,1-0.8,1.5c1.8-0.8,3.1-2,3.5-3.4C894.4,486.3,891.8,483.2,887,482.9z"/>
			<path class="st3" d="M856.7,490.6c-3.2,2.3-1.9,5.7,1.7,7.4c1.8,0.9,4.1,1.2,6.2,1c-0.7-0.2-1.5-0.4-2.1-0.8c-3-1.4-5-5-2.8-7.3
				l4.9,8.1l6,9.8c0.8,1.2,2.9,1.9,4.8,1.4l1.7-0.4L864.4,489C863.7,488.7,859.7,488.7,856.7,490.6z"/>
		</g>
	</g>
	<g>
		<path class="st0" d="M1051.6,471.7c-11-6.1-21.9-9.5-35.2-12.2c-9.5-1.6-18.5,1.2-22.3,6c-3.8,4.7-0.9,10.6,6.4,13
			c2,0.7,4.1,1,6.2,1.1l0.1,0l-7.6,9.4c-0.9,1.2-0.2,2.6,1.6,3.2l18,6c1.8,0.6,4,0.1,4.9-1l7.6-9.4l0.2,0.1c1.3,1.1,3,2,5,2.7
			c7.3,2.5,16.4,0.6,20.2-4.1S1058,476,1051.6,471.7z"/>
		<g class="st1">
			<path class="st2" d="M1006.4,478.1c0.1,0.5,0.2,1.1,0.5,1.5l6.2-7.7C1008.9,472.4,1006.1,475.7,1006.4,478.1z"/>
			<path class="st2" d="M1037.4,480.1l-6.2,7.7c0.8-0.1,1.5-0.3,2.3-0.6C1036.7,486,1039.3,482.5,1037.4,480.1z"/>
			<path class="st3" d="M1040.4,480c-2.7-2.1-6.7-2.4-7.5-2.1l-16,19.8l1.6,0.5c1.8,0.6,4.1,0.2,5-1l7.5-9.4l6.2-7.7
				c1.8,2.5-0.8,5.9-4,7.1c-0.7,0.3-1.5,0.5-2.3,0.6c2.1,0.3,4.3,0.2,6.3-0.6C1041.4,485.7,1043.3,482.5,1040.4,480z"/>
			<path class="st3" d="M1011.5,470.3c-4.8,0-7.9,2.8-7.5,5.7c0.2,1.5,1.3,2.8,2.9,3.7c-0.3-0.5-0.4-1-0.5-1.5
				c-0.3-2.4,2.6-5.7,6.7-6.2l-6.2,7.7l-7.5,9.4c-1,1.2-0.2,2.6,1.6,3.2l1.6,0.5l16-19.8C1018.4,472.4,1015.8,470.5,1011.5,470.3z"
				/>
		</g>
	</g>
	<g>
		<path class="st0" d="M958.9,325.5c-13.8,2.9-24,7.1-34.4,13.1c-7,4.4-8,10.9-3.7,15.4s13.5,6,20.5,3.2c1.9-0.8,3.5-1.7,4.7-2.9
			l0.1,0l8.5,9c1,1.1,3.3,1.5,5,0.8l17.3-6.8c1.7-0.7,2.3-2.1,1.2-3.2l-8.5-9l0.2-0.1c2.1-0.1,4.2-0.6,6.1-1.3
			c7.1-2.8,9.3-8.7,5-13.2C976.8,325.8,968,324.2,958.9,325.5z"/>
		<g class="st1">
			<path class="st2" d="M943.9,353.7c0.8,0.2,1.5,0.4,2.3,0.5l-7-7.4C937.6,349.3,940.6,352.6,943.9,353.7z"/>
			<path class="st2" d="M962.6,337.6l7,7.4c0.2-0.5,0.3-1,0.4-1.6C970,341.1,966.9,337.9,962.6,337.6z"/>
			<path class="st3" d="M964.1,335.9c-4.2,0.4-6.7,2.4-6.7,3l17.9,19.1l1.5-0.6c1.8-0.7,2.3-2.2,1.3-3.3l-8.5-9l-7-7.4
				c4.2,0.3,7.4,3.5,7.4,5.9c0,0.5-0.1,1.1-0.4,1.6c1.5-1,2.5-2.3,2.5-3.8C972.2,338.3,968.9,335.6,964.1,335.9z"/>
			<path class="st3" d="M936.2,346.8c-2.6,2.6-0.4,5.8,3.7,7.1c2,0.7,4.3,0.7,6.3,0.3c-0.8-0.1-1.6-0.3-2.3-0.5
				c-3.3-1.1-6.2-4.4-4.7-6.9l7,7.4l8.5,9c1.1,1.1,3.4,1.5,5.1,0.8l1.5-0.6l-17.9-19.1C942.6,344.1,938.7,344.6,936.2,346.8z"/>
		</g>
	</g>
	<g>
		<path class="st0" d="M1027.6,254.1c-14.3,1.6-25.3,4.8-37,9.7c-7.9,3.7-10.4,10-7.1,14.9c3.2,4.9,12,7.2,19.6,5.1
			c2.1-0.6,3.9-1.4,5.3-2.4l0.1,0l6.4,9.7c0.8,1.2,2.9,1.8,4.8,1.3l18.7-5.1c1.9-0.5,2.7-1.9,1.9-3.1l-6.4-9.7l0.2-0.1
			c2.1,0.1,4.3-0.2,6.4-0.8c7.6-2.1,11.2-7.7,8-12.6S1036.9,253.7,1027.6,254.1z"/>
		<g class="st1">
			<path class="st2" d="M1006.3,280.7c0.7,0.3,1.4,0.6,2.2,0.7l-5.2-8C1001.2,275.7,1003.3,279.3,1006.3,280.7z"/>
			<path class="st2" d="M1028.5,266.5l5.2,8c0.3-0.5,0.6-1,0.7-1.5C1035.1,270.6,1032.6,267.2,1028.5,266.5z"/>
			<path class="st3" d="M1030.3,264.9c-4.3,0-7.2,1.8-7.3,2.3l13.4,20.6l1.7-0.5c1.9-0.5,2.8-1.9,2-3.2l-6.4-9.7l-5.2-8
				c4.1,0.7,6.5,4.1,5.9,6.5c-0.1,0.5-0.4,1-0.7,1.5c1.7-0.8,3-2,3.3-3.5C1037.8,268.1,1035.1,265.1,1030.3,264.9z"/>
			<path class="st3" d="M1000.3,273.1c-3.1,2.4-1.7,5.7,2,7.4c1.9,0.9,4.1,1.1,6.2,0.9c-0.8-0.2-1.5-0.4-2.2-0.7
				c-3-1.4-5.2-4.9-3.1-7.3l5.2,8l6.4,9.7c0.8,1.2,3,1.8,4.9,1.3l1.7-0.5l-13.4-20.6C1007.3,271,1003.3,271.1,1000.3,273.1z"/>
		</g>
	</g>
	<g>
		<path class="st0" d="M817.5,173.6c6-8.5,8.2-16.2,8.6-25.2c-0.2-6.3-6.9-11.2-15-12.2c-8.1-1.1-16,2.3-17.7,7.5
			c-0.5,1.4-0.4,2.8,0.1,4.2l0,0.1l-16.1-2.1c-2-0.3-3.9,0.6-4.3,1.8l-4.1,12.8c-0.4,1.3,0.9,2.5,2.8,2.8l16.1,2.1l-0.1,0.2
			c-1.3,1.1-2.2,2.4-2.6,3.8c-1.7,5.2,3.5,10.3,11.6,11.4C804.9,181.7,812.7,178.7,817.5,173.6z"/>
		<g class="st1">
			<path class="st2" d="M795.6,147.2c-0.8,0.2-1.5,0.4-2.2,0.7l13.2,1.8C804.9,147.3,799.1,146.4,795.6,147.2z"/>
			<path class="st2" d="M801.1,167.1l-13.2-1.8c0.4,0.4,0.9,0.9,1.5,1.2C792.1,168.2,798,168.9,801.1,167.1z"/>
			<path class="st3" d="M802.1,168.9c2.4-2.3,1.8-4.8,1.1-5.2l-33.9-4.5l-0.4,1.1c-0.4,1.3,0.9,2.6,2.9,2.8l16,2.1l13.2,1.8
				c-3.2,1.8-9,1.1-11.7-0.5c-0.6-0.4-1.1-0.8-1.5-1.2c0,1.4,0.9,2.7,2.6,3.8C793.8,171.1,799.1,171.3,802.1,168.9z"/>
			<path class="st3" d="M808.7,148.3c-1.3-3-6.3-4.1-10.6-3.1c-2.2,0.5-3.8,1.5-4.7,2.8c0.7-0.3,1.4-0.5,2.2-0.7
				c3.5-0.8,9.2,0,11.1,2.5l-13.2-1.8l-16-2.1c-2-0.3-4,0.6-4.4,1.9l-0.4,1.1l33.9,4.5C807.4,153.2,809.6,151,808.7,148.3z"/>
		</g>
	</g>
	<g>
		<path class="st0" d="M683.1,145.7c-14.5,0.2-26.2,2.3-38.8,6.1c-8.7,2.9-12.5,8.9-10.5,14.1c2.1,5.2,10.2,8.3,18.2,6.9
			c2.2-0.4,4.1-1,5.8-1.9l0.1,0l4.1,10.2c0.5,1.3,2.5,2,4.4,1.7l19.6-3.2c2-0.3,3.1-1.6,2.6-2.9l-4.1-10.2l0.2,0
			c2.1,0.3,4.3,0.2,6.5-0.1c8-1.3,12.8-6.6,10.8-11.7C700,149.3,692.4,146.1,683.1,145.7z"/>
		<g class="st1">
			<path class="st2" d="M656.1,169.9c0.6,0.4,1.3,0.7,2,0.9l-3.4-8.4C652,164.5,653.4,168.2,656.1,169.9z"/>
			<path class="st2" d="M681.2,158l3.4,8.4c0.4-0.4,0.8-0.9,1-1.4C686.7,162.7,685.1,159,681.2,158z"/>
			<path class="st3" d="M683.4,156.6c-4.2-0.4-7.5,1.1-7.7,1.6l8.6,21.6l1.7-0.3c2-0.3,3.2-1.6,2.7-2.9l-4.1-10.2l-3.4-8.4
				c3.9,1.1,5.5,4.7,4.4,7c-0.3,0.5-0.6,1-1,1.4c1.9-0.6,3.4-1.7,4.1-3.1C690.1,160.5,688.1,157.3,683.4,156.6z"/>
			<path class="st3" d="M651.8,161.8c-3.6,2.1-3,5.5,0.3,7.5c1.7,1,3.8,1.5,5.9,1.5c-0.7-0.3-1.4-0.6-2-0.9c-2.7-1.6-4-5.4-1.4-7.5
				l3.4,8.4l4.1,10.2c0.5,1.3,2.5,2.1,4.5,1.7l1.7-0.3l-8.6-21.6C659.2,160.5,655.2,160.2,651.8,161.8z"/>
		</g>
	</g>
	<g>
		<path class="st0" d="M742.6,345.6c-13.6,3.2-23.6,7.6-33.7,13.8c-6.8,4.5-7.4,11-2.9,15.5c4.5,4.5,13.8,5.7,20.7,2.8
			c1.9-0.8,3.4-1.8,4.5-3l0.1,0l9,8.9c1.1,1.1,3.4,1.4,5.1,0.7l17-7.1c1.7-0.7,2.2-2.2,1.1-3.3l-9-8.9l0.2-0.1
			c2.1-0.2,4.2-0.7,6-1.5c6.9-2.9,8.9-8.9,4.4-13.3C760.5,345.6,751.7,344.1,742.6,345.6z"/>
		<g class="st1">
			<path class="st2" d="M729.1,374.1c0.8,0.2,1.6,0.4,2.3,0.5l-7.4-7.3C722.6,369.8,725.7,373.1,729.1,374.1z"/>
			<path class="st2" d="M747,357.6l7.4,7.3c0.2-0.5,0.3-1,0.3-1.6C754.6,361,751.2,357.8,747,357.6z"/>
			<path class="st3" d="M748.3,355.9c-4.2,0.5-6.5,2.6-6.5,3.1l18.9,18.7l1.5-0.6c1.7-0.7,2.2-2.2,1.1-3.3l-8.9-8.8l-7.4-7.3
				c4.2,0.2,7.6,3.3,7.6,5.7c0,0.5-0.1,1.1-0.3,1.6c1.5-1,2.4-2.3,2.3-3.8C756.6,358.2,753.1,355.5,748.3,355.9z"/>
			<path class="st3" d="M721,367.4c-2.4,2.7-0.1,5.8,4,7c2.1,0.6,4.4,0.6,6.4,0.2c-0.8-0.1-1.6-0.2-2.3-0.5c-3.4-1-6.5-4.3-5-6.8
				l7.4,7.3l8.9,8.8c1.1,1.1,3.4,1.4,5.2,0.7l1.5-0.6l-18.9-18.7C727.3,364.5,723.4,365.1,721,367.4z"/>
		</g>
	</g>
	<g>
		<path class="st0" d="M511.2,148.3c12.5-4.7,21.2-10.2,29.4-17.4c5.5-5.2,4.3-11.7-1.4-15.6c-5.7-3.9-15.1-4.1-21.1-0.4
			c-1.6,1-2.9,2.2-3.6,3.4l-0.1,0.1l-11.2-7.7c-1.4-0.9-3.7-1-5.2-0.1l-14.8,9c-1.5,0.9-1.5,2.4-0.2,3.3l11.2,7.7l-0.2,0.1
			c-2,0.4-3.9,1.1-5.5,2.1c-6,3.7-6.3,9.8-0.6,13.6C493.6,150.3,502.6,150.8,511.2,148.3z"/>
		<g class="st1">
			<path class="st2" d="M516.7,118.7c-0.8-0.1-1.6-0.2-2.4-0.2l9.3,6.3C524.2,122.1,520.3,119.3,516.7,118.7z"/>
			<path class="st2" d="M503.6,136.9l-9.3-6.3c0,0.5,0,1,0.2,1.6C495.2,134.5,499.4,137.2,503.6,136.9z"/>
			<path class="st3" d="M502.7,138.8c4-1,5.7-3.3,5.6-3.8l-23.7-16.3l-1.3,0.8c-1.5,0.9-1.6,2.4-0.2,3.4l11.2,7.7l9.3,6.3
				c-4.2,0.3-8.4-2.4-9.1-4.8c-0.2-0.5-0.2-1.1-0.2-1.6c-1.2,1.1-1.7,2.6-1.2,4C494,137.5,498.1,139.7,502.7,138.8z"/>
			<path class="st3" d="M526.5,124.4c1.6-2.9-1.5-5.7-5.9-6.5c-2.2-0.4-4.5-0.1-6.3,0.6c0.8,0,1.6,0.1,2.4,0.2
				c3.6,0.6,7.5,3.4,6.8,6.1l-9.3-6.3l-11.2-7.7c-1.4-1-3.8-1-5.3-0.1l-1.3,0.8l23.7,16.3C521,127.9,524.7,126.9,526.5,124.4z"/>
		</g>
	</g>
	<g>
		<path class="st0" d="M442.1,82.5c-10-6.8-20.2-10.9-33.1-14.5c-9.2-2.2-18.6,0-23.2,4.4c-4.6,4.4-2.7,10.4,4.2,13.4
			c1.9,0.8,3.9,1.3,6,1.5l0.1,0l-9,8.8c-1.1,1.1-0.7,2.5,1,3.3l16.9,7.2c1.7,0.7,3.9,0.4,5.1-0.7l9-8.8l0.2,0.1
			c1.1,1.2,2.6,2.2,4.5,3c6.9,2.9,16.2,1.7,20.7-2.7C449.2,93.1,447.8,87.3,442.1,82.5z"/>
		<g class="st1">
			<path class="st2" d="M396.1,85.8c0,0.5,0.1,1.1,0.3,1.6l7.5-7.3C399.5,80.3,396.2,83.5,396.1,85.8z"/>
			<path class="st2" d="M426.6,89.9l-7.5,7.3c0.8-0.1,1.6-0.2,2.3-0.5C424.9,95.7,428,92.5,426.6,89.9z"/>
			<path class="st3" d="M429.6,90c-2.4-2.3-6.3-2.8-7.1-2.6L403.5,106l1.5,0.6c1.7,0.7,4,0.4,5.2-0.7l9-8.8l7.5-7.3
				c1.4,2.6-1.7,5.8-5.1,6.8c-0.8,0.2-1.6,0.4-2.3,0.5c2,0.5,4.3,0.5,6.4-0.1C429.7,95.8,432,92.7,429.6,90z"/>
			<path class="st3" d="M402.5,78.4c-4.8-0.4-8.3,2.3-8.4,5.2c-0.1,1.5,0.8,2.8,2.3,3.8c-0.2-0.5-0.3-1-0.3-1.6
				c0.1-2.4,3.5-5.5,7.7-5.7l-7.5,7.3l-9,8.8c-1.1,1.1-0.7,2.6,1.1,3.3l1.5,0.6L409,81.6C409,81,406.6,78.9,402.5,78.4z"/>
		</g>
	</g>
	<g>
		<path class="st0" d="M695.3,53.3c-14.4-1-26.4,0.1-39.7,2.8c-9.2,2.1-14.2,7.8-13.2,13.1c1,5.3,8.4,9.1,16.6,8.4
			c2.2-0.2,4.3-0.7,6.1-1.4l0.1,0l2,10.5c0.2,1.3,2.1,2.2,4.1,2.1l20.1-1.6c2-0.2,3.4-1.3,3.2-2.6l-2-10.5l0.2,0
			c2,0.4,4.2,0.6,6.4,0.4c8.2-0.6,14-5.4,13.1-10.7C711.3,58.4,704.4,54.5,695.3,53.3z"/>
		<g class="st1">
			<path class="st2" d="M663.6,75c0.5,0.4,1.1,0.8,1.8,1.1l-1.6-8.6C660.7,69.4,661.3,73.1,663.6,75z"/>
			<path class="st2" d="M691,65.3l1.6,8.6c0.5-0.4,1-0.8,1.3-1.3C695.5,70.5,694.6,66.7,691,65.3z"/>
			<path class="st3" d="M693.3,64.1c-4.1-0.7-7.6,0.5-8,1l4.2,22.2l1.8-0.1c2-0.2,3.5-1.4,3.3-2.7l-2-10.5l-1.6-8.6
				c3.7,1.4,4.5,5.1,2.9,7.3c-0.4,0.5-0.8,0.9-1.3,1.3c2-0.5,3.7-1.4,4.7-2.8C699.2,68.6,697.9,65.2,693.3,64.1z"/>
			<path class="st3" d="M661,66.7c-4,1.7-4.1,5.2-1.2,7.5c1.4,1.2,3.5,1.8,5.6,2c-0.6-0.3-1.2-0.7-1.8-1.1c-2.3-1.9-2.9-5.7,0.2-7.6
				l1.6,8.6l2,10.5c0.2,1.3,2.1,2.3,4.2,2.1l1.8-0.1l-4.2-22.2C668.6,65.9,664.7,65.3,661,66.7z"/>
		</g>
	</g>
</g>
<g id="Ham">
</g>
<g id="Pineapple">
</g>
<g id="Bacon">
</g>
<g id="Sausage">
</g>
<g id="Crust">
</g>
</svg>
