<?xml version="1.0" encoding="utf-8"?>
<!-- Generator: Adobe Illustrator 21.0.0, SVG Export Plug-In . SVG Version: 6.00 Build 0)  -->
<!DOCTYPE svg PUBLIC "-//W3C//DTD SVG 1.1//EN" "http://www.w3.org/Graphics/SVG/1.1/DTD/svg11.dtd">
<svg version="1.1" xmlns="http://www.w3.org/2000/svg" xmlns:xlink="http://www.w3.org/1999/xlink" x="0px" y="0px"
	 viewBox="0 0 1131.4 754.4" style="enable-background:new 0 0 1131.4 754.4;" xml:space="preserve">
<style type="text/css">
	.st0{fill:#BE1E2D;}
	.st1{opacity:0.43;fill:#231F20;}
</style>
<g id="Background">
</g>
<g id="Cheese">
</g>
<g id="Pepperoni">
	<g>
		<path class="st0" d="M274.2,146.9c-0.5-3-2.4-6.8-6.5-9.8s-14.8-8.3-23.5-9.8c-8.7-1.5-19.8,1.7-27.6,4
			c-7.8,2.3-14.8,5.3-18.6,10.6c-3.4,4.7-3.1,9.5-3.2,12.9c-0.1,3.4-2.4,8.2,4.5,14.6c6.9,6.5,12.3,8.4,26.9,10.4s26.1,1.2,32.8-2.1
			c6.7-3.3,11.5-8.8,15.9-16.2C279.2,154,274.7,149.9,274.2,146.9z"/>
		<path class="st1" d="M241.7,139.2c-0.8,1.5-3.3,2.3-5.7,1.8c-2.4-0.5-3.6-2.2-2.8-3.7c0.8-1.5,3.3-2.3,5.7-1.8
			C241.2,136.1,242.5,137.7,241.7,139.2z"/>
		<path class="st1" d="M262.7,147.9c-0.8,1.5-3.3,2.3-5.7,1.8c-2.4-0.5-3.6-2.2-2.8-3.7c0.8-1.5,3.3-2.3,5.7-1.8
			C262.2,144.7,263.5,146.4,262.7,147.9z"/>
		<path class="st1" d="M245.2,152.8c-0.8,1.5-3.3,2.3-5.7,1.8c-2.4-0.5-3.6-2.2-2.8-3.7s3.3-2.3,5.7-1.8S246,151.3,245.2,152.8z"/>
		<path class="st1" d="M216.8,158.2c-0.8,1.5-3.3,2.3-5.7,1.8c-2.4-0.5-3.6-2.2-2.8-3.7s3.3-2.3,5.7-1.8
			C216.3,155,217.6,156.7,216.8,158.2z"/>
		<path class="st1" d="M228,171.6c-0.8,1.5-3.3,2.3-5.7,1.8s-3.6-2.2-2.8-3.7c0.8-1.5,3.3-2.3,5.7-1.8
			C227.5,168.5,228.8,170.1,228,171.6z"/>
		<path class="st1" d="M251.8,172.5c-0.8,1.5-3.3,2.3-5.7,1.8c-2.4-0.5-3.6-2.2-2.8-3.7c0.8-1.5,3.3-2.3,5.7-1.8
			C251.4,169.3,252.6,171,251.8,172.5z"/>
		<path class="st1" d="M260.6,160.9c-0.8,1.5-3.3,2.3-5.7,1.8c-2.4-0.5-3.6-2.2-2.8-3.7c0.8-1.5,3.3-2.3,5.7-1.8
			C260.1,157.8,261.4,159.4,260.6,160.9z"/>
		<path class="st1" d="M218,146.9c-0.8,1.5-3.3,2.3-5.7,1.8c-2.4-0.5-3.6-2.2-2.8-3.7c0.8-1.5,3.3-2.3,5.7-1.8
			C217.5,143.7,218.8,145.4,218,146.9z"/>
		<path class="st1" d="M232.2,159.5c-0.8,1.5-3.3,2.3-5.7,1.8c-2.4-0.5-3.6-2.2-2.8-3.7c0.8-1.5,3.3-2.3,5.7-1.8
			C231.7,156.3,233,158,232.2,159.5z"/>
	</g>
	<g>
		<path class="st0" d="M287.7,254.7c-0.7-2.9-3-6.7-7.2-9.6c-4.3-2.9-15.5-7.9-24.3-9.1c-8.8-1.2-19.6,2.3-27.3,4.9
			c-7.6,2.6-14.4,5.8-17.8,11.2c-3,4.8-2.3,9.6-2.2,13c0.1,3.4-1.7,8.2,5.7,14.5c7.4,6.2,13,8,27.6,9.5c14.7,1.6,26.1,0.3,32.6-3.2
			c6.4-3.5,10.8-9.1,14.6-16.7C293.2,261.6,288.5,257.7,287.7,254.7z"/>
		<path class="st1" d="M254.6,248.1c-0.7,1.5-3.2,2.4-5.5,2c-2.4-0.4-3.8-2-3.1-3.6c0.7-1.5,3.2-2.4,5.5-2
			C253.9,245,255.3,246.6,254.6,248.1z"/>
		<path class="st1" d="M276.3,256.1c-0.7,1.5-3.2,2.4-5.5,2c-2.4-0.4-3.8-2-3.1-3.6s3.2-2.4,5.5-2S276.9,254.5,276.3,256.1z"/>
		<path class="st1" d="M259.2,261.6c-0.7,1.5-3.2,2.4-5.5,2c-2.4-0.4-3.8-2-3.1-3.6c0.7-1.5,3.2-2.4,5.5-2
			C258.5,258.4,259.9,260,259.2,261.6z"/>
		<path class="st1" d="M231.3,267.9c-0.7,1.5-3.2,2.4-5.5,2s-3.8-2-3.1-3.6s3.2-2.4,5.5-2S232,266.3,231.3,267.9z"/>
		<path class="st1" d="M243.5,280.9c-0.7,1.5-3.2,2.4-5.5,2c-2.4-0.4-3.8-2-3.1-3.6c0.7-1.5,3.2-2.4,5.5-2S244.2,279.4,243.5,280.9z
			"/>
		<path class="st1" d="M267.4,281c-0.7,1.5-3.2,2.4-5.5,2c-2.4-0.4-3.8-2-3.1-3.6s3.2-2.4,5.5-2S268.1,279.5,267.4,281z"/>
		<path class="st1" d="M275.2,269.2c-0.7,1.5-3.2,2.4-5.5,2s-3.8-2-3.1-3.6s3.2-2.4,5.5-2S275.9,267.6,275.2,269.2z"/>
		<path class="st1" d="M231.6,256.5c-0.7,1.5-3.2,2.4-5.5,2s-3.8-2-3.1-3.6s3.2-2.4,5.5-2C230.8,253.4,232.2,255,231.6,256.5z"/>
		<path class="st1" d="M246.8,268.7c-0.7,1.5-3.2,2.4-5.5,2c-2.4-0.4-3.8-2-3.1-3.6c0.7-1.5,3.2-2.4,5.5-2
			C246.1,265.5,247.4,267.1,246.8,268.7z"/>
	</g>
	<g>
		<path class="st0" d="M434.7,275.3c-1.9-2.7-5.6-5.9-11-8c-5.4-2.1-18.2-4.9-27.1-4.5s-17.9,5.7-24.2,9.5s-11.4,8-12.4,13.9
			c-0.9,5.2,1.8,9.7,3.4,12.9c1.5,3.2,1.8,8.2,11.5,12.9c9.8,4.7,15.9,5.4,30.6,4.4c14.8-1,25.3-4.2,30-8.8s6.6-10.7,7-18.6
			C442.9,281,436.7,278,434.7,275.3z"/>
		<ellipse class="st1" cx="395.6" cy="274.7" rx="4.5" ry="2.9"/>
		<ellipse class="st1" cx="419.8" cy="278.6" rx="4.5" ry="2.9"/>
		<ellipse class="st1" cx="405.7" cy="286.9" rx="4.5" ry="2.9"/>
		<ellipse class="st1" cx="381.4" cy="297.8" rx="4.5" ry="2.9"/>
		<ellipse class="st1" cx="398.7" cy="308.2" rx="4.5" ry="2.9"/>
		<ellipse class="st1" cx="421.7" cy="304.2" rx="4.5" ry="2.9"/>
		<ellipse class="st1" cx="424.3" cy="291.4" rx="4.5" ry="2.9"/>
		<ellipse class="st1" cx="376.9" cy="286.9" rx="4.5" ry="2.9"/>
		<ellipse class="st1" cx="396.7" cy="295.9" rx="4.5" ry="2.9"/>
	</g>
	<g>
		<path class="st0" d="M647.4,219.3c1-2.9,0.9-6.9-1.5-10.7c-2.4-3.7-10.1-10.9-17.7-14c-7.6-3.1-19.6-2.3-28.2-1.7
			c-8.5,0.6-16.6,2.1-22.8,6.4c-5.5,3.8-7.5,8.4-9.2,11.6c-1.7,3.2-6.2,7.3-2.7,14.8s7.7,10.4,20.6,15.3c12.8,4.8,24.2,6.3,32.2,4.5
			c8-1.8,15.1-6,22.8-12.3C648.7,227.1,646.4,222.2,647.4,219.3z"/>
		<path class="st1" d="M620.1,205.6c-1.5,1.3-4.3,1.6-6.3,0.6c-2-1-2.4-2.8-0.9-4.1c1.5-1.3,4.3-1.6,6.3-0.6
			C621.1,202.5,621.5,204.3,620.1,205.6z"/>
		<path class="st1" d="M635.9,218c-1.5,1.3-4.3,1.6-6.3,0.6s-2.4-2.8-0.9-4.1c1.5-1.3,4.3-1.6,6.3-0.6
			C637,214.9,637.4,216.7,635.9,218z"/>
		<path class="st1" d="M616.9,219.2c-1.5,1.3-4.3,1.6-6.3,0.6c-2-1-2.4-2.8-0.9-4.1c1.5-1.3,4.3-1.6,6.3-0.6
			C618,216.1,618.4,217.9,616.9,219.2z"/>
		<path class="st1" d="M587.4,218.7c-1.5,1.3-4.3,1.6-6.3,0.6c-2-1-2.4-2.8-0.9-4.1c1.5-1.3,4.3-1.6,6.3-0.6
			C588.4,215.6,588.8,217.4,587.4,218.7z"/>
		<path class="st1" d="M591.6,233.7c-1.5,1.3-4.3,1.6-6.3,0.6c-2-1-2.4-2.8-0.9-4.1c1.5-1.3,4.3-1.6,6.3-0.6
			C592.6,230.6,593.1,232.4,591.6,233.7z"/>
		<path class="st1" d="M613.8,239.2c-1.5,1.3-4.3,1.6-6.3,0.6c-2-1-2.4-2.8-0.9-4.1c1.5-1.3,4.3-1.6,6.3-0.6
			C614.9,236.1,615.3,237.9,613.8,239.2z"/>
		<path class="st1" d="M627.7,230c-1.5,1.3-4.3,1.6-6.3,0.6c-2-1-2.4-2.8-0.9-4.1c1.5-1.3,4.3-1.6,6.3-0.6
			C628.8,226.9,629.2,228.7,627.7,230z"/>
		<path class="st1" d="M593.9,208.2c-1.5,1.3-4.3,1.6-6.3,0.6s-2.4-2.8-0.9-4.1c1.5-1.3,4.3-1.6,6.3-0.6
			C594.9,205.1,595.3,206.9,593.9,208.2z"/>
		<path class="st1" d="M601.4,223c-1.5,1.3-4.3,1.6-6.3,0.6c-2-1-2.4-2.8-0.9-4.1c1.5-1.3,4.3-1.6,6.3-0.6
			C602.4,219.9,602.8,221.7,601.4,223z"/>
	</g>
	<g>
		<path class="st0" d="M448.9,130.2c-3.2-2.2-8.3-4.4-14.4-5.3s-19.6-0.9-27.9,1.3c-8.3,2.2-14.2,9.1-18.2,14
			c-4,4.9-6.8,10-4.9,15.7c1.7,5.1,6.5,8.8,9.5,11.5c3.1,2.7,5.8,7.4,17.3,9.9s17.7,1.9,31.2-2.2s21.9-9.2,24.1-14.5
			c2.2-5.3,0.9-11.5-2.6-19.1C459.5,133.9,452.1,132.3,448.9,130.2z"/>
		<path class="st1" d="M415.8,136.8c0.8,1.5-0.5,3.2-2.8,3.7c-2.4,0.5-4.9-0.3-5.7-1.8c-0.8-1.5,0.5-3.2,2.8-3.7
			C412.5,134.4,415,135.3,415.8,136.8z"/>
		<path class="st1" d="M440.6,135.5c0.8,1.5-0.5,3.2-2.8,3.7c-2.4,0.5-4.9-0.3-5.7-1.8s0.5-3.2,2.8-3.7
			C437.3,133.1,439.8,133.9,440.6,135.5z"/>
		<path class="st1" d="M431.4,146.2c0.8,1.5-0.5,3.2-2.8,3.7c-2.4,0.5-4.9-0.3-5.7-1.8s0.5-3.2,2.8-3.7
			C428,143.9,430.6,144.7,431.4,146.2z"/>
		<path class="st1" d="M413.8,161.6c0.8,1.5-0.5,3.2-2.8,3.7c-2.4,0.5-4.9-0.3-5.7-1.8c-0.8-1.5,0.5-3.2,2.8-3.7
			C410.5,159.2,413,160,413.8,161.6z"/>
		<path class="st1" d="M435.3,167.9c0.8,1.5-0.5,3.2-2.8,3.7c-2.4,0.5-4.9-0.3-5.7-1.8s0.5-3.2,2.8-3.7
			C432,165.6,434.5,166.4,435.3,167.9z"/>
		<path class="st1" d="M455.1,159.3c0.8,1.5-0.5,3.2-2.8,3.7c-2.4,0.5-4.9-0.3-5.7-1.8c-0.8-1.5,0.5-3.2,2.8-3.7
			C451.8,157,454.3,157.8,455.1,159.3z"/>
		<path class="st1" d="M451.2,146.7c0.8,1.5-0.5,3.2-2.8,3.7c-2.4,0.5-4.9-0.3-5.7-1.8c-0.8-1.5,0.5-3.2,2.8-3.7
			C447.9,144.3,450.4,145.1,451.2,146.7z"/>
		<path class="st1" d="M404.1,152.1c0.8,1.5-0.5,3.2-2.8,3.7c-2.4,0.5-4.9-0.3-5.7-1.8c-0.8-1.5,0.5-3.2,2.8-3.7
			C400.8,149.8,403.3,150.6,404.1,152.1z"/>
		<path class="st1" d="M427.3,156.6c0.8,1.5-0.5,3.2-2.8,3.7c-2.4,0.5-4.9-0.3-5.7-1.8s0.5-3.2,2.8-3.7
			C424,154.3,426.5,155.1,427.3,156.6z"/>
	</g>
	<g>
		<path class="st0" d="M688.5,379.4c1.2-2.9,1.5-6.9-0.5-10.7c-2.1-3.8-9.2-11.2-16.4-14.6c-7.3-3.4-19.4-3-28-2.7
			c-8.6,0.3-16.7,1.5-23.3,5.5c-5.8,3.6-8.2,8.2-10.2,11.3c-2,3.1-6.8,7.1-4,14.7c2.8,7.7,6.8,10.7,19.2,16s23.6,7.2,31.7,5.6
			c8.1-1.5,15.6-5.5,23.9-11.4C689.2,387.2,687.3,382.3,688.5,379.4z"/>
		<path class="st1" d="M662.5,364.7c-1.6,1.2-4.4,1.4-6.3,0.4s-2.2-2.9-0.6-4.1s4.4-1.4,6.3-0.4S664.1,363.5,662.5,364.7z"/>
		<path class="st1" d="M677.2,377.6c-1.6,1.2-4.4,1.4-6.3,0.4c-1.9-1-2.2-2.9-0.6-4.1s4.4-1.4,6.3-0.4S678.8,376.4,677.2,377.6z"/>
		<path class="st1" d="M658.2,378.2c-1.6,1.2-4.4,1.4-6.3,0.4s-2.2-2.9-0.6-4.1c1.6-1.2,4.4-1.4,6.3-0.4
			C659.5,375.1,659.8,376.9,658.2,378.2z"/>
		<path class="st1" d="M628.7,376.6c-1.6,1.2-4.4,1.4-6.3,0.4s-2.2-2.9-0.6-4.1c1.6-1.2,4.4-1.4,6.3-0.4S630.3,375.4,628.7,376.6z"
			/>
		<path class="st1" d="M631.6,391.7c-1.6,1.2-4.4,1.4-6.3,0.4c-1.9-1-2.2-2.9-0.6-4.1c1.6-1.2,4.4-1.4,6.3-0.4
			C632.9,388.7,633.2,390.5,631.6,391.7z"/>
		<path class="st1" d="M653.3,398.1c-1.6,1.2-4.4,1.4-6.3,0.4c-1.9-1-2.2-2.9-0.6-4.1s4.4-1.4,6.3-0.4S654.9,396.8,653.3,398.1z"/>
		<path class="st1" d="M668,389.3c-1.6,1.2-4.4,1.4-6.3,0.4c-1.9-1-2.2-2.9-0.6-4.1c1.6-1.2,4.4-1.4,6.3-0.4S669.6,388.1,668,389.3z
			"/>
		<path class="st1" d="M636.1,366.3c-1.6,1.2-4.4,1.4-6.3,0.4s-2.2-2.9-0.6-4.1c1.6-1.2,4.4-1.4,6.3-0.4S637.7,365.1,636.1,366.3z"
			/>
		<path class="st1" d="M642.3,381.4c-1.6,1.2-4.4,1.4-6.3,0.4s-2.2-2.9-0.6-4.1c1.6-1.2,4.4-1.4,6.3-0.4
			C643.6,378.3,643.9,380.2,642.3,381.4z"/>
	</g>
	<g>
		<path class="st0" d="M892.2,279.8c-1.9-2.7-5.6-5.9-11-8s-18.2-4.9-27.1-4.5c-9,0.4-17.9,5.7-24.2,9.5c-6.2,3.8-11.4,8-12.4,13.9
			c-0.9,5.2,1.8,9.7,3.4,12.9c1.5,3.2,1.8,8.2,11.5,12.9c9.8,4.7,15.9,5.4,30.6,4.4s25.3-4.2,30-8.8c4.7-4.5,6.6-10.7,7-18.6
			C900.5,285.5,894.2,282.5,892.2,279.8z"/>
		<ellipse class="st1" cx="853.1" cy="279.2" rx="4.5" ry="2.9"/>
		<ellipse class="st1" cx="877.3" cy="283.1" rx="4.5" ry="2.9"/>
		<ellipse class="st1" cx="863.2" cy="291.4" rx="4.5" ry="2.9"/>
		<ellipse class="st1" cx="838.9" cy="302.3" rx="4.5" ry="2.9"/>
		<ellipse class="st1" cx="856.2" cy="312.8" rx="4.5" ry="2.9"/>
		<ellipse class="st1" cx="879.2" cy="308.7" rx="4.5" ry="2.9"/>
		<ellipse class="st1" cx="881.8" cy="295.9" rx="4.5" ry="2.9"/>
		<ellipse class="st1" cx="834.4" cy="291.4" rx="4.5" ry="2.9"/>
		<ellipse class="st1" cx="854.2" cy="300.4" rx="4.5" ry="2.9"/>
	</g>
	<g>
		<path class="st0" d="M915.3,416.3c-1.9-2.7-5.6-5.9-11-8c-5.4-2.1-18.2-4.9-27.1-4.5c-9,0.4-17.9,5.7-24.2,9.5s-11.4,8-12.4,13.9
			c-0.9,5.2,1.8,9.7,3.4,12.9c1.5,3.2,1.8,8.2,11.5,12.9c9.8,4.7,15.9,5.4,30.6,4.4c14.8-1,25.3-4.2,30-8.8c4.7-4.5,6.6-10.7,7-18.6
			S917.3,419,915.3,416.3z"/>
		<ellipse class="st1" cx="876.2" cy="415.7" rx="4.5" ry="2.9"/>
		<ellipse class="st1" cx="900.4" cy="419.6" rx="4.5" ry="2.9"/>
		<ellipse class="st1" cx="886.3" cy="427.8" rx="4.5" ry="2.9"/>
		<ellipse class="st1" cx="862" cy="438.8" rx="4.5" ry="2.9"/>
		<ellipse class="st1" cx="879.3" cy="449.2" rx="4.5" ry="2.9"/>
		<ellipse class="st1" cx="902.3" cy="445.1" rx="4.5" ry="2.9"/>
		<ellipse class="st1" cx="904.9" cy="432.4" rx="4.5" ry="2.9"/>
		<ellipse class="st1" cx="857.5" cy="427.8" rx="4.5" ry="2.9"/>
		<ellipse class="st1" cx="877.3" cy="436.9" rx="4.5" ry="2.9"/>
	</g>
	<g>
		<path class="st0" d="M700.1,509.8c-1.9-2.7-5.6-5.9-11-8c-5.4-2.1-18.2-4.9-27.1-4.5c-9,0.4-17.9,5.7-24.2,9.5s-11.4,8-12.4,13.9
			c-0.9,5.2,1.8,9.7,3.4,12.9c1.5,3.2,1.8,8.2,11.5,12.9s15.9,5.4,30.6,4.4c14.8-1,25.3-4.2,30-8.8c4.7-4.5,6.6-10.7,7-18.6
			C708.3,515.5,702,512.5,700.1,509.8z"/>
		<ellipse class="st1" cx="661" cy="509.2" rx="4.5" ry="2.9"/>
		<ellipse class="st1" cx="685.1" cy="513.1" rx="4.5" ry="2.9"/>
		<ellipse class="st1" cx="671" cy="521.3" rx="4.5" ry="2.9"/>
		<ellipse class="st1" cx="646.8" cy="532.3" rx="4.5" ry="2.9"/>
		<ellipse class="st1" cx="664.1" cy="542.7" rx="4.5" ry="2.9"/>
		<ellipse class="st1" cx="687.1" cy="538.6" rx="4.5" ry="2.9"/>
		<ellipse class="st1" cx="689.6" cy="525.9" rx="4.5" ry="2.9"/>
		<ellipse class="st1" cx="642.3" cy="521.3" rx="4.5" ry="2.9"/>
		<ellipse class="st1" cx="662" cy="530.4" rx="4.5" ry="2.9"/>
	</g>
	<g>
		<path class="st0" d="M510,555.1c0-3-1.3-6.9-4.9-10.2c-3.5-3.3-13.4-9.3-21.8-11.3c-8.4-2.1-20,0.4-28.1,2.1
			c-8.1,1.8-15.6,4.3-20.2,9.3c-4.1,4.5-4.6,9.3-5.3,12.6s-3.7,8,2.1,14.9c5.8,6.9,10.9,9.2,25,12.2c14.1,3,25.7,2.9,32.9,0.1
			c7.2-2.8,12.8-7.9,18.4-15.1C513.8,562.5,510,558.1,510,555.1z"/>
		<path class="st1" d="M478.8,545.3c-1,1.5-3.7,2.1-6,1.4s-3.3-2.4-2.2-3.8c1-1.5,3.7-2.1,6-1.4S479.9,543.9,478.8,545.3z"/>
		<path class="st1" d="M498.3,555.3c-1,1.5-3.7,2.1-6,1.4c-2.3-0.7-3.3-2.4-2.2-3.8c1-1.5,3.7-2.1,6-1.4
			C498.4,552.1,499.4,553.9,498.3,555.3z"/>
		<path class="st1" d="M480.2,559.1c-1,1.5-3.7,2.1-6,1.4c-2.3-0.7-3.3-2.4-2.2-3.8c1-1.5,3.7-2.1,6-1.4
			C480.2,555.9,481.2,557.6,480.2,559.1z"/>
		<path class="st1" d="M451.1,562.5c-1,1.5-3.7,2.1-6,1.4c-2.3-0.7-3.3-2.4-2.2-3.8c1-1.5,3.7-2.1,6-1.4
			C451.1,559.3,452.1,561.1,451.1,562.5z"/>
		<path class="st1" d="M460.1,576.6c-1,1.5-3.7,2.1-6,1.4c-2.3-0.7-3.3-2.4-2.2-3.8c1-1.5,3.7-2.1,6-1.4
			C460.1,573.4,461.1,575.2,460.1,576.6z"/>
		<path class="st1" d="M483.6,579.1c-1,1.5-3.7,2.1-6,1.4s-3.3-2.4-2.2-3.8s3.7-2.1,6-1.4S484.6,577.6,483.6,579.1z"/>
		<path class="st1" d="M494.2,568.1c-1,1.5-3.7,2.1-6,1.4s-3.3-2.4-2.2-3.8c1-1.5,3.7-2.1,6-1.4S495.2,566.7,494.2,568.1z"/>
		<path class="st1" d="M454,551.4c-1,1.5-3.7,2.1-6,1.4c-2.3-0.7-3.3-2.4-2.2-3.8c1-1.5,3.7-2.1,6-1.4
			C454.1,548.2,455.1,549.9,454,551.4z"/>
		<path class="st1" d="M466.2,564.9c-1,1.5-3.7,2.1-6,1.4s-3.3-2.4-2.2-3.8c1-1.5,3.7-2.1,6-1.4S467.2,563.4,466.2,564.9z"/>
	</g>
	<g>
		<path class="st0" d="M466.8,462.8c-1.9-2.7-5.6-5.9-11-8s-18.2-4.9-27.1-4.5c-9,0.4-17.9,5.7-24.2,9.5s-11.4,8-12.4,13.9
			c-0.9,5.2,1.8,9.7,3.4,12.9c1.5,3.2,1.8,8.2,11.5,12.9c9.8,4.7,15.9,5.4,30.6,4.4c14.8-1,25.3-4.2,30-8.8c4.7-4.5,6.6-10.7,7-18.6
			C475,468.5,468.8,465.5,466.8,462.8z"/>
		<ellipse class="st1" cx="427.7" cy="462.2" rx="4.5" ry="2.9"/>
		<ellipse class="st1" cx="451.9" cy="466.1" rx="4.5" ry="2.9"/>
		<ellipse class="st1" cx="437.8" cy="474.4" rx="4.5" ry="2.9"/>
		<ellipse class="st1" cx="413.5" cy="485.3" rx="4.5" ry="2.9"/>
		<ellipse class="st1" cx="430.8" cy="495.7" rx="4.5" ry="2.9"/>
		<ellipse class="st1" cx="453.8" cy="491.7" rx="4.5" ry="2.9"/>
		<ellipse class="st1" cx="456.4" cy="478.9" rx="4.5" ry="2.9"/>
		<ellipse class="st1" cx="409" cy="474.4" rx="4.5" ry="2.9"/>
		<ellipse class="st1" cx="428.8" cy="483.4" rx="4.5" ry="2.9"/>
	</g>
	<g>
		<path class="st0" d="M307.9,407.4c-1.9-2.7-5.6-5.9-11-8c-5.4-2.1-18.2-4.9-27.1-4.5c-9,0.4-17.9,5.7-24.2,9.5s-11.4,8-12.4,13.9
			c-0.9,5.2,1.8,9.7,3.4,12.9c1.5,3.2,1.8,8.2,11.5,12.9c9.8,4.7,15.9,5.4,30.6,4.4c14.8-1,25.3-4.2,30-8.8c4.7-4.5,6.6-10.7,7-18.6
			C316.1,413.1,309.9,410.1,307.9,407.4z"/>
		<ellipse class="st1" cx="268.8" cy="406.8" rx="4.5" ry="2.9"/>
		<ellipse class="st1" cx="293" cy="410.7" rx="4.5" ry="2.9"/>
		<ellipse class="st1" cx="278.9" cy="418.9" rx="4.5" ry="2.9"/>
		<ellipse class="st1" cx="254.6" cy="429.9" rx="4.5" ry="2.9"/>
		<ellipse class="st1" cx="271.9" cy="440.3" rx="4.5" ry="2.9"/>
		<ellipse class="st1" cx="294.9" cy="436.2" rx="4.5" ry="2.9"/>
		<ellipse class="st1" cx="297.5" cy="423.5" rx="4.5" ry="2.9"/>
		<ellipse class="st1" cx="250.1" cy="418.9" rx="4.5" ry="2.9"/>
		<ellipse class="st1" cx="269.9" cy="428" rx="4.5" ry="2.9"/>
	</g>
	<g>
		<path class="st0" d="M129.3,370.2c-1-2.9-3.5-6.6-8-9.4c-4.5-2.8-16.1-7.3-25-8.2s-19.4,3-26.8,5.8c-7.4,2.8-13.9,6.2-16.8,11.8
			c-2.6,4.9-1.5,9.7-1.1,13c0.4,3.4-1.1,8.3,6.9,14.3c7.9,6,13.6,7.5,28.4,8.6c14.8,1.1,26.1-0.6,32.2-4.3c6.1-3.7,10-9.5,13.2-17.2
			C135.4,376.9,130.3,373.1,129.3,370.2z"/>
		<path class="st1" d="M95.7,364.8c-0.5,1.6-2.9,2.5-5.4,2.2c-2.4-0.4-3.9-1.9-3.4-3.5c0.5-1.6,2.9-2.5,5.4-2.2
			C94.8,361.7,96.3,363.2,95.7,364.8z"/>
		<path class="st1" d="M118,372c-0.5,1.6-2.9,2.5-5.4,2.2s-3.9-1.9-3.4-3.5s2.9-2.5,5.4-2.2C117,368.8,118.6,370.4,118,372z"/>
		<path class="st1" d="M101.4,378c-0.5,1.6-2.9,2.5-5.4,2.2s-3.9-1.9-3.4-3.5s2.9-2.5,5.4-2.2C100.5,374.9,102,376.5,101.4,378z"/>
		<path class="st1" d="M74.1,385.3c-0.5,1.6-2.9,2.5-5.4,2.2c-2.4-0.4-3.9-1.9-3.4-3.5s2.9-2.5,5.4-2.2
			C73.1,382.2,74.6,383.7,74.1,385.3z"/>
		<path class="st1" d="M87.4,397.9c-0.5,1.6-2.9,2.5-5.4,2.2c-2.4-0.4-3.9-1.9-3.4-3.5s2.9-2.5,5.4-2.2S87.9,396.3,87.4,397.9z"/>
		<path class="st1" d="M111.2,397.2c-0.5,1.6-2.9,2.5-5.4,2.2c-2.4-0.4-3.9-1.9-3.4-3.5s2.9-2.5,5.4-2.2S111.7,395.6,111.2,397.2z"
			/>
		<path class="st1" d="M118.1,385.1c-0.5,1.6-2.9,2.5-5.4,2.2s-3.9-1.9-3.4-3.5s2.9-2.5,5.4-2.2
			C117.1,381.9,118.6,383.5,118.1,385.1z"/>
		<path class="st1" d="M73.4,374c-0.5,1.6-2.9,2.5-5.4,2.2c-2.4-0.4-3.9-1.9-3.4-3.5s2.9-2.5,5.4-2.2S73.9,372.4,73.4,374z"/>
		<path class="st1" d="M89.6,385.6c-0.5,1.6-2.9,2.5-5.4,2.2c-2.4-0.4-3.9-1.9-3.4-3.5c0.5-1.6,2.9-2.5,5.4-2.2
			C88.6,382.5,90.1,384,89.6,385.6z"/>
	</g>
	<g>
		<path class="st0" d="M221.7,488.4c-0.9-2.9-3.3-6.6-7.7-9.5s-15.9-7.5-24.7-8.5c-8.8-1-19.5,2.8-27,5.5s-14,6.1-17.2,11.6
			c-2.8,4.9-1.8,9.7-1.5,13s-1.3,8.3,6.4,14.3c7.7,6.1,13.4,7.7,28.1,8.9s26.1-0.2,32.4-3.9c6.2-3.7,10.3-9.3,13.7-17
			C227.6,495.2,222.6,491.3,221.7,488.4z"/>
		<path class="st1" d="M188.3,482.5c-0.6,1.6-3,2.5-5.4,2.1c-2.4-0.4-3.9-2-3.3-3.5s3-2.5,5.4-2.1
			C187.4,479.4,188.9,480.9,188.3,482.5z"/>
		<path class="st1" d="M210.3,490c-0.6,1.6-3,2.5-5.4,2.1c-2.4-0.4-3.9-2-3.3-3.5s3-2.5,5.4-2.1C209.4,486.8,210.9,488.4,210.3,490z
			"/>
		<path class="st1" d="M193.6,495.8c-0.6,1.6-3,2.5-5.4,2.1c-2.4-0.4-3.9-2-3.3-3.5s3-2.5,5.4-2.1
			C192.7,492.7,194.2,494.3,193.6,495.8z"/>
		<path class="st1" d="M166,502.7c-0.6,1.6-3,2.5-5.4,2.1c-2.4-0.4-3.9-2-3.3-3.5s3-2.5,5.4-2.1C165.1,499.6,166.6,501.2,166,502.7z
			"/>
		<path class="st1" d="M178.9,515.5c-0.6,1.6-3,2.5-5.4,2.1c-2.4-0.4-3.9-2-3.3-3.5c0.6-1.6,3-2.5,5.4-2.1
			C178,512.4,179.5,514,178.9,515.5z"/>
		<path class="st1" d="M202.7,515.1c-0.6,1.6-3,2.5-5.4,2.1s-3.9-2-3.3-3.5c0.6-1.6,3-2.5,5.4-2.1
			C201.9,512,203.3,513.5,202.7,515.1z"/>
		<path class="st1" d="M210,503.1c-0.6,1.6-3,2.5-5.4,2.1c-2.4-0.4-3.9-2-3.3-3.5c0.6-1.6,3-2.5,5.4-2.1
			C209.1,499.9,210.6,501.5,210,503.1z"/>
		<path class="st1" d="M165.7,491.4c-0.6,1.6-3,2.5-5.4,2.1s-3.9-2-3.3-3.5c0.6-1.6,3-2.5,5.4-2.1
			C164.8,488.3,166.3,489.9,165.7,491.4z"/>
		<path class="st1" d="M181.5,503.2c-0.6,1.6-3,2.5-5.4,2.1c-2.4-0.4-3.9-2-3.3-3.5s3-2.5,5.4-2.1
			C180.6,500.1,182.1,501.7,181.5,503.2z"/>
	</g>
	<g>
		<path class="st0" d="M333.3,607.4c-1.9-2.7-5.6-5.9-11-8c-5.4-2.1-18.2-4.9-27.1-4.5c-9,0.4-17.9,5.7-24.2,9.5
			c-6.2,3.8-11.4,8-12.4,13.9c-0.9,5.2,1.8,9.7,3.4,12.9c1.5,3.2,1.8,8.2,11.5,12.9c9.8,4.7,15.9,5.4,30.6,4.4
			c14.8-1,25.3-4.2,30-8.8c4.7-4.5,6.6-10.7,7-18.6S335.2,610.2,333.3,607.4z"/>
		<ellipse class="st1" cx="294.1" cy="606.9" rx="4.5" ry="2.9"/>
		<ellipse class="st1" cx="318.3" cy="610.8" rx="4.5" ry="2.9"/>
		<ellipse class="st1" cx="304.2" cy="619" rx="4.5" ry="2.9"/>
		<ellipse class="st1" cx="280" cy="630" rx="4.5" ry="2.9"/>
		<ellipse class="st1" cx="297.2" cy="640.4" rx="4.5" ry="2.9"/>
		<ellipse class="st1" cx="320.2" cy="636.3" rx="4.5" ry="2.9"/>
		<ellipse class="st1" cx="322.8" cy="623.5" rx="4.5" ry="2.9"/>
		<ellipse class="st1" cx="275.5" cy="619" rx="4.5" ry="2.9"/>
		<ellipse class="st1" cx="295.2" cy="628.1" rx="4.5" ry="2.9"/>
	</g>
	<g>
		<path class="st0" d="M510.8,694.5c4,1.5,9.9,2.8,16.1,2.5c6.3-0.3,19.2-2.7,26.3-6.3c7-3.6,9.7-11.3,11.5-16.7
			c1.8-5.4,2.3-10.8-2.1-15.9c-3.8-4.6-10-7.3-14.1-9.3s-8.7-6.1-20.9-6.4c-12.2-0.3-17.8,1.4-29,7.7c-11.2,6.3-17,12.8-16.9,18.2
			c0.1,5.4,4,11.2,10.7,17.9S506.8,693,510.8,694.5z"/>
		<path class="st1" d="M539.7,682.2c-1.4-1.3-0.9-3.1,1.1-4c2-0.9,4.8-0.6,6.3,0.7c1.4,1.3,0.9,3.1-1.1,4
			C544,683.9,541.2,683.6,539.7,682.2z"/>
		<path class="st1" d="M516.5,687.9c-1.4-1.3-0.9-3.1,1.1-4c2-0.9,4.8-0.6,6.3,0.7c1.4,1.3,0.9,3.1-1.1,4
			C520.7,689.6,517.9,689.3,516.5,687.9z"/>
		<path class="st1" d="M520.8,676c-1.4-1.3-0.9-3.1,1.1-4c2-0.9,4.8-0.6,6.3,0.7c1.4,1.3,0.9,3.1-1.1,4
			C525,677.6,522.2,677.3,520.8,676z"/>
		<path class="st1" d="M531,658.1c-1.4-1.3-0.9-3.1,1.1-4c2-0.9,4.8-0.6,6.3,0.7c1.4,1.3,0.9,3.1-1.1,4
			C535.2,659.7,532.4,659.4,531,658.1z"/>
		<path class="st1" d="M507.6,655.8c-1.4-1.3-0.9-3.1,1.1-4c2-0.9,4.8-0.6,6.3,0.7c1.4,1.3,0.9,3.1-1.1,4
			C511.8,657.5,509,657.2,507.6,655.8z"/>
		<path class="st1" d="M492.3,667.6c-1.4-1.3-0.9-3.1,1.1-4c2-0.9,4.8-0.6,6.3,0.7c1.4,1.3,0.9,3.1-1.1,4
			C496.5,669.3,493.7,669,492.3,667.6z"/>
		<path class="st1" d="M501.5,679.1c-1.4-1.3-0.9-3.1,1.1-4c2-0.9,4.8-0.6,6.3,0.7c1.4,1.3,0.9,3.1-1.1,4
			C505.7,680.7,502.9,680.4,501.5,679.1z"/>
		<path class="st1" d="M544.4,665.4c-1.4-1.3-0.9-3.1,1.1-4s4.8-0.6,6.3,0.7c1.4,1.3,0.9,3.1-1.1,4S545.8,666.7,544.4,665.4z"/>
		<path class="st1" d="M520.2,665.2c-1.4-1.3-0.9-3.1,1.1-4c2-0.9,4.8-0.6,6.3,0.7c1.4,1.3,0.9,3.1-1.1,4
			C524.4,666.9,521.6,666.6,520.2,665.2z"/>
	</g>
	<g>
		<path class="st0" d="M742.8,596.2c-4.6,0-10.7,0.9-15.9,3.1c-5.2,2.3-14.4,8.6-17.6,14.1s0.5,12.9,3.3,18.1
			c2.7,5.2,6.6,10,14.4,13c6.9,2.7,14.4,3,19.5,3.4c5.2,0.4,12.3,2.4,23.1-1.4s14.2-7,18.9-16.1s4.6-16.6,0.1-21.2
			c-4.4-4.6-12.3-8.3-23.3-11.9C754.3,593.8,747.4,596.2,742.8,596.2z"/>
		<path class="st1" d="M727.6,616.3c2.3,0.7,3.3,2.4,2.2,3.8c-1,1.5-3.7,2.1-6,1.4c-2.3-0.7-3.3-2.4-2.2-3.8
			C722.7,616.3,725.3,615.6,727.6,616.3z"/>
		<path class="st1" d="M743.1,603.7c2.3,0.7,3.3,2.4,2.2,3.8c-1,1.5-3.7,2.1-6,1.4c-2.3-0.7-3.3-2.4-2.2-3.8
			C738.2,603.7,740.8,603.1,743.1,603.7z"/>
		<path class="st1" d="M748.9,615.4c2.3,0.7,3.3,2.4,2.2,3.8c-1,1.5-3.7,2.1-6,1.4c-2.3-0.7-3.3-2.4-2.2-3.8
			C744,615.4,746.6,614.8,748.9,615.4z"/>
		<path class="st1" d="M754.2,634.2c2.3,0.7,3.3,2.4,2.2,3.8c-1,1.5-3.7,2.1-6,1.4c-2.3-0.7-3.3-2.4-2.2-3.8
			C749.3,634.2,752,633.5,754.2,634.2z"/>
		<path class="st1" d="M776.1,628.4c2.3,0.7,3.3,2.4,2.2,3.8c-1,1.5-3.7,2.1-6,1.4c-2.3-0.7-3.3-2.4-2.2-3.8
			C771.2,628.4,773.9,627.8,776.1,628.4z"/>
		<path class="st1" d="M779.9,613.2c2.3,0.7,3.3,2.4,2.2,3.8c-1,1.5-3.7,2.1-6,1.4c-2.3-0.7-3.3-2.4-2.2-3.8
			C775,613.2,777.7,612.6,779.9,613.2z"/>
		<path class="st1" d="M763,606.4c2.3,0.7,3.3,2.4,2.2,3.8c-1,1.5-3.7,2.1-6,1.4c-2.3-0.7-3.3-2.4-2.2-3.8
			C758.1,606.4,760.7,605.7,763,606.4z"/>
		<path class="st1" d="M736.9,632.3c2.3,0.7,3.3,2.4,2.2,3.8c-1,1.5-3.7,2.1-6,1.4c-2.3-0.7-3.3-2.4-2.2-3.8
			C732,632.3,734.7,631.6,736.9,632.3z"/>
		<path class="st1" d="M757.9,624.5c2.3,0.7,3.3,2.4,2.2,3.8c-1,1.5-3.7,2.1-6,1.4c-2.3-0.7-3.3-2.4-2.2-3.8
			C752.9,624.4,755.6,623.8,757.9,624.5z"/>
	</g>
	<g>
		<path class="st0" d="M962.7,537.6c-4.1-1.3-10.2-2.3-16.4-1.8c-6.2,0.6-18.9,3.6-25.5,7.5c-6.6,3.9-8.4,11.7-9.6,17.2
			c-1.2,5.5-1,10.9,3.9,15.8c4.3,4.4,10.8,6.8,15.1,8.7c4.3,1.9,9.4,5.7,21.6,5.4s17.6-2.2,28.1-9s15.6-13.5,14.8-19
			c-0.7-5.4-5.3-11-12.7-17.3C974.7,538.8,966.9,539,962.7,537.6z"/>
		<path class="st1" d="M935.3,551.2c1.6,1.2,1.3,3.1-0.7,4.1c-1.9,1-4.8,0.8-6.3-0.4s-1.3-3.1,0.7-4.1S933.7,550,935.3,551.2z"/>
		<path class="st1" d="M957.8,544.5c1.6,1.2,1.3,3.1-0.7,4.1c-1.9,1-4.8,0.8-6.3-0.4s-1.3-3.1,0.7-4.1S956.3,543.2,957.8,544.5z"/>
		<path class="st1" d="M954.9,556.6c1.6,1.2,1.3,3.1-0.7,4.1s-4.8,0.8-6.3-0.4c-1.6-1.2-1.3-3.1,0.7-4.1
			C950.5,555.2,953.3,555.4,954.9,556.6z"/>
		<path class="st1" d="M946.7,574.9c1.6,1.2,1.3,3.1-0.7,4.1c-1.9,1-4.8,0.8-6.3-0.4c-1.6-1.2-1.3-3.1,0.7-4.1
			S945.2,573.7,946.7,574.9z"/>
		<path class="st1" d="M970.3,576.1c1.6,1.2,1.3,3.1-0.7,4.1c-1.9,1-4.8,0.8-6.3-0.4c-1.6-1.2-1.3-3.1,0.7-4.1
			S968.7,574.8,970.3,576.1z"/>
		<path class="st1" d="M984.2,563.6c1.6,1.2,1.3,3.1-0.7,4.1c-1.9,1-4.8,0.8-6.3-0.4c-1.6-1.2-1.3-3.1,0.7-4.1
			C979.8,562.1,982.7,562.3,984.2,563.6z"/>
		<path class="st1" d="M973.8,552.6c1.6,1.2,1.3,3.1-0.7,4.1s-4.8,0.8-6.3-0.4c-1.6-1.2-1.3-3.1,0.7-4.1
			C969.4,551.1,972.2,551.3,973.8,552.6z"/>
		<path class="st1" d="M932.5,568.2c1.6,1.2,1.3,3.1-0.7,4.1c-1.9,1-4.8,0.8-6.3-0.4s-1.3-3.1,0.7-4.1
			C928.2,566.8,931,567,932.5,568.2z"/>
		<path class="st1" d="M956.7,567.3c1.6,1.2,1.3,3.1-0.7,4.1s-4.8,0.8-6.3-0.4c-1.6-1.2-1.3-3.1,0.7-4.1S955.1,566,956.7,567.3z"/>
	</g>
	<g>
		<path class="st0" d="M1066.1,358.9c-3.5-1.9-9-3.8-15.2-4.2c-6.2-0.4-19.7,0.6-27.5,3.4c-7.9,2.8-12.5,10-15.7,15.2
			s-5,10.4-2.1,15.9c2.6,4.9,8,8.2,11.5,10.7c3.5,2.5,7,7,19,8.6c11.9,1.6,17.9,0.6,30.6-4.4c12.7-5,20.1-10.7,21.4-16.1
			s-1.1-11.5-5.9-18.8C1077.3,361.8,1069.6,360.8,1066.1,358.9z"/>
		<path class="st1" d="M1034.3,367.9c1.1,1.5,0.1,3.2-2.2,3.9s-4.9,0.1-6-1.4s-0.1-3.2,2.2-3.9S1033.3,366.4,1034.3,367.9z"/>
		<path class="st1" d="M1058.8,364.8c1.1,1.5,0.1,3.2-2.2,3.9s-4.9,0.1-6-1.4c-1.1-1.5-0.1-3.2,2.2-3.9S1057.7,363.3,1058.8,364.8z"
			/>
		<path class="st1" d="M1051.4,376.1c1.1,1.5,0.1,3.2-2.2,3.9s-4.9,0.1-6-1.4s-0.1-3.2,2.2-3.9S1050.4,374.7,1051.4,376.1z"/>
		<path class="st1" d="M1036.7,392.7c1.1,1.5,0.1,3.2-2.2,3.9s-4.9,0.1-6-1.4c-1.1-1.5-0.1-3.2,2.2-3.9S1035.6,391.2,1036.7,392.7z"
			/>
		<path class="st1" d="M1059.1,397.4c1.1,1.5,0.1,3.2-2.2,3.9c-2.3,0.7-4.9,0.1-6-1.4s-0.1-3.2,2.2-3.9
			C1055.4,395.3,1058.1,395.9,1059.1,397.4z"/>
		<path class="st1" d="M1077.3,387.4c1.1,1.5,0.1,3.2-2.2,3.9c-2.3,0.7-4.9,0.1-6-1.4s-0.1-3.2,2.2-3.9
			C1073.6,385.3,1076.2,385.9,1077.3,387.4z"/>
		<path class="st1" d="M1071.2,375.1c1.1,1.5,0.1,3.2-2.2,3.9s-4.9,0.1-6-1.4c-1.1-1.5-0.1-3.2,2.2-3.9
			C1067.5,373,1070.2,373.7,1071.2,375.1z"/>
		<path class="st1" d="M1025.4,384c1.1,1.5,0.1,3.2-2.2,3.9c-2.3,0.7-4.9,0.1-6-1.4c-1.1-1.5-0.1-3.2,2.2-3.9
			C1021.7,381.9,1024.3,382.5,1025.4,384z"/>
		<path class="st1" d="M1049.2,386.7c1.1,1.5,0.1,3.2-2.2,3.9s-4.9,0.1-6-1.4c-1.1-1.5-0.1-3.2,2.2-3.9S1048.2,385.3,1049.2,386.7z"
			/>
	</g>
	<g>
		<path class="st0" d="M955.6,165.6c-1.9-2.7-5.6-5.9-11-8c-5.4-2.1-18.2-4.9-27.1-4.5c-9,0.4-17.9,5.7-24.2,9.5s-11.4,8-12.4,13.9
			c-0.9,5.2,1.8,9.7,3.4,12.9c1.5,3.2,1.8,8.2,11.5,12.9c9.8,4.7,15.9,5.4,30.6,4.4s25.3-4.2,30-8.8s6.6-10.7,7-18.6
			S957.5,168.3,955.6,165.6z"/>
		<ellipse class="st1" cx="916.4" cy="165" rx="4.5" ry="2.9"/>
		<ellipse class="st1" cx="940.6" cy="168.9" rx="4.5" ry="2.9"/>
		<ellipse class="st1" cx="926.5" cy="177.1" rx="4.5" ry="2.9"/>
		<ellipse class="st1" cx="902.3" cy="188.1" rx="4.5" ry="2.9"/>
		<ellipse class="st1" cx="919.5" cy="198.5" rx="4.5" ry="2.9"/>
		<ellipse class="st1" cx="942.5" cy="194.4" rx="4.5" ry="2.9"/>
		<ellipse class="st1" cx="945.1" cy="181.7" rx="4.5" ry="2.9"/>
		<ellipse class="st1" cx="897.8" cy="177.1" rx="4.5" ry="2.9"/>
		<ellipse class="st1" cx="917.5" cy="186.2" rx="4.5" ry="2.9"/>
	</g>
	<g>
		<path class="st0" d="M824.2,85.2c-1.9-2.7-5.6-5.9-11-8c-5.4-2.1-18.2-4.9-27.1-4.5c-9,0.4-17.9,5.7-24.2,9.5
			c-6.2,3.8-11.4,8-12.4,13.9c-0.9,5.2,1.8,9.7,3.4,12.9c1.5,3.2,1.8,8.2,11.5,12.9c9.8,4.7,15.9,5.4,30.6,4.4
			c14.8-1,25.3-4.2,30-8.8c4.7-4.5,6.6-10.7,7-18.6C832.4,91,826.1,88,824.2,85.2z"/>
		<ellipse class="st1" cx="785" cy="84.7" rx="4.5" ry="2.9"/>
		<ellipse class="st1" cx="809.2" cy="88.6" rx="4.5" ry="2.9"/>
		<ellipse class="st1" cx="795.1" cy="96.8" rx="4.5" ry="2.9"/>
		<ellipse class="st1" cx="770.9" cy="107.8" rx="4.5" ry="2.9"/>
		<ellipse class="st1" cx="788.1" cy="118.2" rx="4.5" ry="2.9"/>
		<ellipse class="st1" cx="811.1" cy="114.1" rx="4.5" ry="2.9"/>
		<ellipse class="st1" cx="813.7" cy="101.3" rx="4.5" ry="2.9"/>
		<ellipse class="st1" cx="766.4" cy="96.8" rx="4.5" ry="2.9"/>
		<ellipse class="st1" cx="786.1" cy="105.9" rx="4.5" ry="2.9"/>
	</g>
	<g>
		<path class="st0" d="M796.9,202c-1.9-2.7-5.6-5.9-11-8c-5.4-2.1-18.2-4.9-27.1-4.5c-9,0.4-17.9,5.7-24.2,9.5s-11.4,8-12.4,13.9
			c-0.9,5.2,1.8,9.7,3.4,12.9c1.5,3.2,1.8,8.2,11.5,12.9s15.9,5.4,30.6,4.4c14.8-1,25.3-4.2,30-8.8c4.7-4.5,6.6-10.7,7-18.6
			C805.1,207.7,798.8,204.7,796.9,202z"/>
		<ellipse class="st1" cx="757.8" cy="201.4" rx="4.5" ry="2.9"/>
		<ellipse class="st1" cx="781.9" cy="205.3" rx="4.5" ry="2.9"/>
		<ellipse class="st1" cx="767.8" cy="213.6" rx="4.5" ry="2.9"/>
		<ellipse class="st1" cx="743.6" cy="224.5" rx="4.5" ry="2.9"/>
		<ellipse class="st1" cx="760.9" cy="234.9" rx="4.5" ry="2.9"/>
		<ellipse class="st1" cx="783.9" cy="230.8" rx="4.5" ry="2.9"/>
		<ellipse class="st1" cx="786.4" cy="218.1" rx="4.5" ry="2.9"/>
		<ellipse class="st1" cx="739.1" cy="213.6" rx="4.5" ry="2.9"/>
		<ellipse class="st1" cx="758.8" cy="222.6" rx="4.5" ry="2.9"/>
	</g>
	<g>
		<path class="st0" d="M599.2,47.1c-1.9-2.7-5.6-5.9-11-8c-5.4-2.1-18.2-4.9-27.1-4.5c-9,0.4-17.9,5.7-24.2,9.5s-11.4,8-12.4,13.9
			c-0.9,5.2,1.8,9.7,3.4,12.9c1.5,3.2,1.8,8.2,11.5,12.9c9.8,4.7,15.9,5.4,30.6,4.4c14.8-1,25.3-4.2,30-8.8c4.7-4.5,6.6-10.7,7-18.6
			S601.2,49.8,599.2,47.1z"/>
		<ellipse class="st1" cx="560.1" cy="46.5" rx="4.5" ry="2.9"/>
		<ellipse class="st1" cx="584.3" cy="50.4" rx="4.5" ry="2.9"/>
		<ellipse class="st1" cx="570.2" cy="58.7" rx="4.5" ry="2.9"/>
		<ellipse class="st1" cx="545.9" cy="69.6" rx="4.5" ry="2.9"/>
		<ellipse class="st1" cx="563.2" cy="80" rx="4.5" ry="2.9"/>
		<ellipse class="st1" cx="586.2" cy="76" rx="4.5" ry="2.9"/>
		<ellipse class="st1" cx="588.8" cy="63.2" rx="4.5" ry="2.9"/>
		<ellipse class="st1" cx="541.4" cy="58.7" rx="4.5" ry="2.9"/>
		<ellipse class="st1" cx="561.2" cy="67.7" rx="4.5" ry="2.9"/>
	</g>
	<g>
		<path class="st0" d="M514.5,350.8c-3-2.2-8-4.6-14.1-5.6c-6.1-1-19.6-1.3-28,0.7c-8.4,2-14.7,8.8-19,13.5
			c-4.3,4.8-7.3,9.8-5.7,15.6c1.4,5.1,6,8.9,8.9,11.7c2.9,2.8,5.4,7.6,16.8,10.3s17.6,2.2,31.3-1.5c13.7-3.7,22.4-8.7,24.9-13.9
			c2.5-5.2,1.6-11.4-1.6-19.1S517.5,353.1,514.5,350.8z"/>
		<path class="st1" d="M481,356.7c0.7,1.5-0.6,3.2-3,3.6c-2.4,0.5-4.9-0.4-5.6-1.9c-0.7-1.5,0.6-3.2,3-3.6
			C477.8,354.3,480.3,355.1,481,356.7z"/>
		<path class="st1" d="M505.9,355.9c0.7,1.5-0.6,3.2-3,3.6c-2.4,0.5-4.9-0.4-5.6-1.9c-0.7-1.5,0.6-3.2,3-3.6
			C502.7,353.5,505.2,354.4,505.9,355.9z"/>
		<path class="st1" d="M496.1,366.4c0.7,1.5-0.6,3.2-3,3.6c-2.4,0.5-4.9-0.4-5.6-1.9c-0.7-1.5,0.6-3.2,3-3.6
			C492.8,364,495.3,364.9,496.1,366.4z"/>
		<path class="st1" d="M477.7,381.4c0.7,1.5-0.6,3.2-3,3.6c-2.4,0.5-4.9-0.4-5.6-1.9c-0.7-1.5,0.6-3.2,3-3.6
			C474.5,379,477,379.9,477.7,381.4z"/>
		<path class="st1" d="M498.9,388.2c0.7,1.5-0.6,3.2-3,3.6c-2.4,0.5-4.9-0.4-5.6-1.9c-0.7-1.5,0.6-3.2,3-3.6
			C495.7,385.8,498.2,386.7,498.9,388.2z"/>
		<path class="st1" d="M519.1,380.1c0.7,1.5-0.6,3.2-3,3.6c-2.4,0.5-4.9-0.4-5.6-1.9c-0.7-1.5,0.6-3.2,3-3.6
			C515.9,377.6,518.4,378.5,519.1,380.1z"/>
		<path class="st1" d="M515.9,367.3c0.7,1.5-0.6,3.2-3,3.6c-2.4,0.5-4.9-0.4-5.6-1.9c-0.7-1.5,0.6-3.2,3-3.6
			C512.7,364.9,515.2,365.8,515.9,367.3z"/>
		<path class="st1" d="M468.5,371.8c0.7,1.5-0.6,3.2-3,3.6c-2.4,0.5-4.9-0.4-5.6-1.9c-0.7-1.5,0.6-3.2,3-3.6
			C465.3,369.3,467.8,370.2,468.5,371.8z"/>
		<path class="st1" d="M491.4,376.8c0.7,1.5-0.6,3.2-3,3.6c-2.4,0.5-4.9-0.4-5.6-1.9c-0.7-1.5,0.6-3.2,3-3.6
			C488.2,374.3,490.7,375.2,491.4,376.8z"/>
	</g>
</g>
<g id="Peppers">
</g>
<g id="Mushrooms">
</g>
<g id="Ham">
</g>
<g id="Pineapple">
</g>
<g id="Bacon">
</g>
<g id="Sausage">
</g>
<g id="Crust">
</g>
</svg>
