<?xml version="1.0" encoding="utf-8"?>
<!-- Generator: Adobe Illustrator 21.0.0, SVG Export Plug-In . SVG Version: 6.00 Build 0)  -->
<!DOCTYPE svg PUBLIC "-//W3C//DTD SVG 1.1//EN" "http://www.w3.org/Graphics/SVG/1.1/DTD/svg11.dtd">
<svg version="1.1" xmlns="http://www.w3.org/2000/svg" xmlns:xlink="http://www.w3.org/1999/xlink" x="0px" y="0px"
	 viewBox="0 0 1131.4 775.6" style="enable-background:new 0 0 1131.4 775.6;" xml:space="preserve">
<style type="text/css">
	.st0{fill:#D9CE2C;}
	.st1{fill:#F9ED32;}
</style>
<g id="Background">
</g>
<g id="Cheese">
</g>
<g id="Pepperoni">
</g>
<g id="Peppers">
</g>
<g id="Mushrooms">
</g>
<g id="Ham">
</g>
<g id="Pineapple">
	<g>
		<g>
			<path class="st0" d="M688.8,421.2l18.5,17.8c1.4,1.4,4.3,1.6,6.2,0.5l11.5-6.6l-35.5-15.5l0,0C687.8,418.4,687.5,420,688.8,421.2
				z"/>
			<path class="st1" d="M698.1,412.6l-8.6,4.9l35.5,15.5l3.2-1.8l3.7-2.1c2.2-1.2,2-3.5-0.5-4.6l-27.9-12.2
				C701.9,411.6,699.6,411.7,698.1,412.6z"/>
		</g>
		<path class="st0" d="M726.1,426.9l-21.9-9.7c-0.5-0.2-0.6-0.6-0.3-1l0.2-0.2c0.3-0.3,1-0.4,1.5-0.2l21.9,9.7
			c0.5,0.2,0.6,0.6,0.3,1l-0.2,0.2C727.2,427,726.6,427.1,726.1,426.9z"/>
		<path class="st0" d="M720.8,428.5l-21.9-9.7c-0.5-0.2-0.6-0.6-0.3-1l0.2-0.2c0.3-0.3,1-0.4,1.5-0.2l21.9,9.7
			c0.5,0.2,0.6,0.6,0.3,1l-0.2,0.2C722,428.6,721.3,428.7,720.8,428.5z"/>
	</g>
	<g>
		<g>
			<path class="st0" d="M624.2,531.3l18.5,17.8c1.4,1.4,4.3,1.6,6.2,0.5l11.5-6.6L625,527.6l0,0C623.3,528.5,623,530.1,624.2,531.3z
				"/>
			<path class="st1" d="M633.6,522.7l-8.6,4.9l35.5,15.5l3.2-1.8l3.7-2.1c2.2-1.2,2-3.5-0.5-4.5L639,522.5
				C637.3,521.7,635.1,521.8,633.6,522.7z"/>
		</g>
		<path class="st0" d="M661.5,537l-21.9-9.7c-0.5-0.2-0.6-0.6-0.3-1l0.2-0.2c0.3-0.3,1-0.4,1.5-0.2l21.9,9.7c0.5,0.2,0.6,0.6,0.3,1
			l-0.2,0.2C662.7,537.1,662,537.2,661.5,537z"/>
		<path class="st0" d="M656.3,538.6l-21.9-9.7c-0.5-0.2-0.6-0.6-0.3-1l0.2-0.2c0.3-0.3,1-0.4,1.5-0.2l21.9,9.7
			c0.5,0.2,0.6,0.6,0.3,1l-0.2,0.2C657.5,538.8,656.8,538.8,656.3,538.6z"/>
	</g>
	<g>
		<g>
			<path class="st0" d="M953.1,546.9l18.5,17.8c1.4,1.4,4.3,1.6,6.2,0.5l11.5-6.6l-35.5-15.5l0,0
				C952.1,544.1,951.8,545.7,953.1,546.9z"/>
			<path class="st1" d="M962.4,538.3l-8.6,4.9l35.5,15.5l3.2-1.8l3.7-2.1c2.2-1.2,2-3.5-0.5-4.5L967.9,538
				C966.2,537.3,963.9,537.4,962.4,538.3z"/>
		</g>
		<path class="st0" d="M990.4,552.6l-21.9-9.7c-0.5-0.2-0.6-0.6-0.3-1l0.2-0.2c0.3-0.3,1-0.4,1.5-0.2l21.9,9.7
			c0.5,0.2,0.6,0.6,0.3,1l-0.2,0.2C991.5,552.7,990.9,552.8,990.4,552.6z"/>
		<path class="st0" d="M985.1,554.2l-21.9-9.7c-0.5-0.2-0.6-0.6-0.3-1l0.2-0.2c0.3-0.3,1-0.4,1.5-0.2l21.9,9.7
			c0.5,0.2,0.6,0.6,0.3,1l-0.2,0.2C986.3,554.3,985.6,554.4,985.1,554.2z"/>
	</g>
	<g>
		<g>
			<path class="st0" d="M462.9,290.4l28.7,10.8c2.2,0.8,5,0.2,6-1.3l5.9-9.2l-42.4-3.9l0,0C460.2,288.1,461,289.6,462.9,290.4z"/>
			<path class="st1" d="M465.4,280l-4.4,6.8l42.4,3.9l1.6-2.5l1.9-2.9c1.1-1.7-0.6-3.7-3.5-4l-33.3-3.1
				C468.2,278,466.2,278.7,465.4,280z"/>
		</g>
		<path class="st0" d="M500.3,284.9l-26.3-2.6c-0.6-0.1-1-0.4-0.9-0.8l0.1-0.3c0.1-0.4,0.6-0.6,1.2-0.6l26.3,2.6
			c0.6,0.1,1,0.4,0.9,0.8l-0.1,0.3C501.4,284.7,500.9,285,500.3,284.9z"/>
		<path class="st0" d="M496.7,287.9l-26.3-2.6c-0.6-0.1-1-0.4-0.9-0.8l0.1-0.3c0.1-0.4,0.6-0.6,1.2-0.6l26.3,2.6
			c0.6,0.1,1,0.4,0.9,0.8l-0.1,0.3C497.8,287.7,497.3,287.9,496.7,287.9z"/>
	</g>
	<g>
		<g>
			<path class="st0" d="M223.7,237.9l28.7,10.8c2.2,0.8,5,0.2,6-1.3l5.9-9.2l-42.4-3.9l0,0C220.9,235.6,221.7,237.2,223.7,237.9z"/>
			<path class="st1" d="M226.2,227.5l-4.4,6.8l42.4,3.9l1.6-2.5l1.9-2.9c1.1-1.7-0.6-3.7-3.5-4l-33.3-3.1
				C228.9,225.6,227,226.3,226.2,227.5z"/>
		</g>
		<path class="st0" d="M261.1,232.5l-26.3-2.6c-0.6-0.1-1-0.4-0.9-0.8l0.1-0.3c0.1-0.4,0.6-0.6,1.2-0.6l26.3,2.6
			c0.6,0.1,1,0.4,0.9,0.8l-0.1,0.3C262.2,232.3,261.6,232.5,261.1,232.5z"/>
		<path class="st0" d="M257.5,235.4l-26.3-2.6c-0.6-0.1-1-0.4-0.9-0.8l0.1-0.3c0.1-0.4,0.6-0.6,1.2-0.6l26.3,2.6
			c0.6,0.1,1,0.4,0.9,0.8l-0.1,0.3C258.6,235.2,258,235.5,257.5,235.4z"/>
	</g>
	<g>
		<g>
			<path class="st0" d="M258.6,329.4l11.8,20c0.9,1.5,3.7,2.2,5.9,1.4l13.5-4.7l-29.1-20.3l0,0C258.7,326.5,257.8,328,258.6,329.4z"
				/>
			<path class="st1" d="M270.7,322.3l-10.1,3.5l29.1,20.3l3.7-1.3l4.3-1.5c2.6-0.9,3.1-3.1,1.2-4.5l-22.9-15.9
				C274.7,321.9,272.5,321.7,270.7,322.3z"/>
		</g>
		<path class="st0" d="M292.9,340.3L275,327.7c-0.4-0.3-0.4-0.7,0.1-1l0.3-0.2c0.4-0.3,1.1-0.2,1.5,0l17.9,12.7
			c0.4,0.3,0.4,0.7-0.1,1l-0.3,0.2C294,340.6,293.3,340.6,292.9,340.3z"/>
		<path class="st0" d="M287.2,341.2l-17.9-12.7c-0.4-0.3-0.4-0.7,0.1-1l0.3-0.2c0.4-0.3,1.1-0.2,1.5,0l17.9,12.7
			c0.4,0.3,0.4,0.7-0.1,1l-0.3,0.2C288.3,341.5,287.6,341.4,287.2,341.2z"/>
	</g>
	<g>
		<g>
			<path class="st0" d="M601.1,445.1l11.8,20c0.9,1.5,3.7,2.2,5.9,1.4l13.5-4.7l-29.1-20.3h0C601.2,442.2,600.3,443.7,601.1,445.1z"
				/>
			<path class="st1" d="M613.2,438l-10.1,3.5l29.1,20.3l3.7-1.3l4.3-1.5c2.6-0.9,3.1-3.1,1.2-4.5l-22.9-15.9
				C617.2,437.6,615,437.4,613.2,438z"/>
		</g>
		<path class="st0" d="M635.4,456.1l-17.9-12.7c-0.4-0.3-0.4-0.7,0.1-1l0.3-0.2c0.4-0.3,1.1-0.2,1.5,0l17.9,12.7
			c0.4,0.3,0.4,0.7-0.1,1l-0.3,0.2C636.5,456.4,635.8,456.4,635.4,456.1z"/>
		<path class="st0" d="M629.7,456.9l-17.9-12.7c-0.4-0.3-0.4-0.7,0.1-1l0.3-0.2c0.4-0.3,1.1-0.2,1.5,0l17.9,12.7
			c0.4,0.3,0.4,0.7-0.1,1l-0.3,0.2C630.8,457.2,630.1,457.2,629.7,456.9z"/>
	</g>
	<g>
		<g>
			<path class="st0" d="M710.3,119l11.8,20c0.9,1.5,3.7,2.2,5.9,1.4l13.5-4.7l-29.1-20.3l0,0C710.4,116.1,709.5,117.7,710.3,119z"/>
			<path class="st1" d="M722.5,111.9l-10.1,3.5l29.1,20.3l3.7-1.3l4.3-1.5c2.6-0.9,3.1-3.1,1.2-4.5l-22.9-15.9
				C726.5,111.6,724.3,111.3,722.5,111.9z"/>
		</g>
		<path class="st0" d="M744.7,130l-17.9-12.7c-0.4-0.3-0.4-0.7,0.1-1l0.3-0.2c0.4-0.3,1.1-0.2,1.5,0l17.9,12.7
			c0.4,0.3,0.4,0.7-0.1,1l-0.3,0.2C745.7,130.3,745.1,130.3,744.7,130z"/>
		<path class="st0" d="M739,130.8l-17.9-12.7c-0.4-0.3-0.4-0.7,0.1-1l0.3-0.2c0.4-0.3,1.1-0.2,1.5,0l17.9,12.7
			c0.4,0.3,0.4,0.7-0.1,1l-0.3,0.2C740.1,131.1,739.4,131.1,739,130.8z"/>
	</g>
	<g>
		<g>
			<path class="st0" d="M1024.5,309.2l11.8,20c0.9,1.5,3.7,2.2,5.9,1.4l13.5-4.7l-29.1-20.3l0,0
				C1024.6,306.3,1023.7,307.8,1024.5,309.2z"/>
			<path class="st1" d="M1036.6,302.1l-10.1,3.5l29.1,20.3l3.7-1.3l4.3-1.5c2.6-0.9,3.1-3.1,1.2-4.5l-22.9-15.9
				C1040.6,301.7,1038.4,301.5,1036.6,302.1z"/>
		</g>
		<path class="st0" d="M1058.8,320.2l-17.9-12.7c-0.4-0.3-0.4-0.7,0.1-1l0.3-0.2c0.4-0.3,1.1-0.2,1.5,0l17.9,12.7
			c0.4,0.3,0.4,0.7-0.1,1l-0.3,0.2C1059.9,320.5,1059.2,320.4,1058.8,320.2z"/>
		<path class="st0" d="M1053.2,321l-17.9-12.7c-0.4-0.3-0.4-0.7,0.1-1l0.3-0.2c0.4-0.3,1.1-0.2,1.5,0l17.9,12.7
			c0.4,0.3,0.4,0.7-0.1,1l-0.3,0.2C1054.2,321.3,1053.5,321.3,1053.2,321z"/>
	</g>
	<g>
		<g>
			<path class="st0" d="M421.7,208.1l11.8,20c0.9,1.5,3.7,2.2,5.9,1.4l13.5-4.7l-29.1-20.3l0,0C421.8,205.3,420.9,206.8,421.7,208.1
				z"/>
			<path class="st1" d="M433.8,201.1l-10.1,3.5l29.1,20.3l3.7-1.3l4.3-1.5c2.6-0.9,3.1-3.1,1.2-4.5l-22.9-15.9
				C437.8,200.7,435.6,200.4,433.8,201.1z"/>
		</g>
		<path class="st0" d="M456,219.1l-17.9-12.7c-0.4-0.3-0.4-0.7,0.1-1l0.3-0.2c0.4-0.3,1.1-0.2,1.5,0l17.9,12.7
			c0.4,0.3,0.4,0.7-0.1,1l-0.3,0.2C457.1,219.4,456.4,219.4,456,219.1z"/>
		<path class="st0" d="M450.3,219.9l-17.9-12.7c-0.4-0.3-0.4-0.7,0.1-1l0.3-0.2c0.4-0.3,1.1-0.2,1.5,0l17.9,12.7
			c0.4,0.3,0.4,0.7-0.1,1l-0.3,0.2C451.4,220.2,450.7,220.2,450.3,219.9z"/>
	</g>
	<g>
		<g>
			<path class="st0" d="M185.4,399.7l32.9-3c2.5-0.2,4.1-1.8,3.4-3.4l-4.1-9.6l-37.1,13.8l0,0C181,399,183.2,399.9,185.4,399.7z"/>
			<path class="st1" d="M177.4,390.5l3.1,7.1l37.1-13.8l-1.1-2.6l-1.3-3.1c-0.8-1.8-4-2.7-6.5-1.7l-29.1,10.9
				C177.7,387.9,176.8,389.2,177.4,390.5z"/>
		</g>
		<path class="st0" d="M209.6,380.5l-23.1,8.5c-0.5,0.2-1.2,0.1-1.4-0.3l-0.2-0.2c-0.3-0.3-0.1-0.7,0.4-0.9l23.1-8.5
			c0.5-0.2,1.2-0.1,1.4,0.3l0.2,0.2C210.2,379.9,210.1,380.3,209.6,380.5z"/>
		<path class="st0" d="M209.5,384.2l-23.1,8.5c-0.5,0.2-1.2,0.1-1.4-0.3l-0.2-0.2c-0.3-0.3-0.1-0.7,0.4-0.9l23.1-8.5
			c0.5-0.2,1.2-0.1,1.4,0.3l0.2,0.2C210.2,383.6,210,384,209.5,384.2z"/>
	</g>
	<g>
		<g>
			<path class="st0" d="M935,322l32.9-3c2.5-0.2,4.1-1.8,3.4-3.4l-4.1-9.6L930,319.9l0,0C930.6,321.3,932.8,322.2,935,322z"/>
			<path class="st1" d="M927,312.9l3.1,7.1l37.1-13.8l-1.1-2.6l-1.3-3.1c-0.8-1.8-4-2.7-6.5-1.7L929,309.6
				C927.3,310.2,926.4,311.6,927,312.9z"/>
		</g>
		<path class="st0" d="M959.2,302.9l-23.1,8.5c-0.5,0.2-1.2,0.1-1.4-0.3l-0.2-0.2c-0.3-0.3-0.1-0.7,0.4-0.9l23.1-8.5
			c0.5-0.2,1.2-0.1,1.4,0.3l0.2,0.2C959.8,302.3,959.7,302.7,959.2,302.9z"/>
		<path class="st0" d="M959.1,306.6l-23.1,8.5c-0.5,0.2-1.2,0.1-1.4-0.3l-0.2-0.2c-0.3-0.3-0.1-0.7,0.4-0.9l23.1-8.5
			c0.5-0.2,1.2-0.1,1.4,0.3l0.2,0.2C959.8,306,959.6,306.4,959.1,306.6z"/>
	</g>
	<g>
		<g>
			<path class="st0" d="M156.3,506l32.9-3c2.5-0.2,4.1-1.8,3.4-3.4l-4.1-9.6l-37.1,13.8l0,0C152,505.3,154.1,506.2,156.3,506z"/>
			<path class="st1" d="M148.3,496.8l3.1,7.1l37.1-13.8l-1.1-2.6l-1.3-3.1c-0.8-1.8-4-2.7-6.5-1.7l-29.1,10.9
				C148.6,494.2,147.7,495.5,148.3,496.8z"/>
		</g>
		<path class="st0" d="M180.5,486.8l-23.1,8.5c-0.5,0.2-1.2,0.1-1.4-0.3l-0.2-0.2c-0.3-0.3-0.1-0.7,0.4-0.9l23.1-8.5
			c0.5-0.2,1.2-0.1,1.4,0.3l0.2,0.2C181.2,486.2,181,486.6,180.5,486.8z"/>
		<path class="st0" d="M180.4,490.5l-23.1,8.5c-0.5,0.2-1.2,0.1-1.4-0.3l-0.2-0.2c-0.3-0.3-0.1-0.7,0.4-0.9l23.1-8.5
			c0.5-0.2,1.2-0.1,1.4,0.3l0.2,0.2C181.1,489.9,180.9,490.3,180.4,490.5z"/>
	</g>
	<g>
		<g>
			<path class="st0" d="M381.7,307l32.9-3c2.5-0.2,4.1-1.8,3.4-3.4l-4.1-9.6l-37.1,13.8l0,0C377.4,306.3,379.5,307.2,381.7,307z"/>
			<path class="st1" d="M373.7,297.8l3.1,7.1l37.1-13.8l-1.1-2.6l-1.3-3.1c-0.8-1.8-4-2.7-6.5-1.7l-29.1,10.9
				C374,295.2,373.1,296.5,373.7,297.8z"/>
		</g>
		<path class="st0" d="M405.9,287.8l-23.1,8.5c-0.5,0.2-1.2,0.1-1.4-0.3l-0.2-0.2c-0.3-0.3-0.1-0.7,0.4-0.9l23.1-8.5
			c0.5-0.2,1.2-0.1,1.4,0.3l0.2,0.2C406.6,287.2,406.4,287.6,405.9,287.8z"/>
		<path class="st0" d="M405.8,291.5l-23.1,8.5c-0.5,0.2-1.2,0.1-1.4-0.3l-0.2-0.2c-0.3-0.3-0.1-0.7,0.4-0.9l23.1-8.5
			c0.5-0.2,1.2-0.1,1.4,0.3l0.2,0.2C406.5,290.9,406.4,291.3,405.8,291.5z"/>
	</g>
	<g>
		<g>
			<path class="st0" d="M234.2,510.7l9,20.6c0.7,1.6,3.4,2.4,5.7,1.7l14.1-3.9l-26.3-21.8l0,0C234.6,507.9,233.5,509.3,234.2,510.7z
				"/>
			<path class="st1" d="M247.2,504.4l-10.5,2.9l26.3,21.8l3.9-1.1l4.5-1.3c2.7-0.7,3.6-2.9,1.8-4.4l-20.6-17.1
				C251.2,504.2,249.1,503.8,247.2,504.4z"/>
		</g>
		<path class="st0" d="M266.9,523.6l-16.1-13.6c-0.4-0.3-0.3-0.7,0.2-1l0.3-0.2c0.5-0.2,1.1-0.2,1.5,0.1l16.1,13.6
			c0.4,0.3,0.3,0.7-0.2,1l-0.3,0.2C267.9,523.9,267.2,523.9,266.9,523.6z"/>
		<path class="st0" d="M261.1,524.1L245,510.4c-0.4-0.3-0.3-0.7,0.2-1l0.3-0.2c0.5-0.2,1.1-0.2,1.5,0.1l16.1,13.6
			c0.4,0.3,0.3,0.7-0.2,1l-0.3,0.2C262.2,524.4,261.5,524.4,261.1,524.1z"/>
	</g>
	<g>
		<g>
			<path class="st0" d="M453.2,507.1l9,20.6c0.7,1.6,3.4,2.4,5.7,1.7l14.1-3.9l-26.3-21.8l0,0C453.7,504.2,452.6,505.7,453.2,507.1z
				"/>
			<path class="st1" d="M466.3,500.7l-10.5,2.9l26.3,21.8l3.9-1.1l4.5-1.3c2.7-0.7,3.6-2.9,1.8-4.4l-20.6-17.1
				C470.3,500.6,468.1,500.2,466.3,500.7z"/>
		</g>
		<path class="st0" d="M486,519.9l-16.1-13.6c-0.4-0.3-0.3-0.7,0.2-1l0.3-0.2c0.5-0.2,1.1-0.2,1.5,0.1L488,519
			c0.4,0.3,0.3,0.7-0.2,1l-0.3,0.2C487,520.3,486.3,520.2,486,519.9z"/>
		<path class="st0" d="M480.2,520.4l-16.1-13.6c-0.4-0.3-0.3-0.7,0.2-1l0.3-0.2c0.5-0.2,1.1-0.2,1.5,0.1l16.1,13.6
			c0.4,0.3,0.3,0.7-0.2,1l-0.3,0.2C481.2,520.8,480.6,520.7,480.2,520.4z"/>
	</g>
	<g>
		<g>
			<path class="st0" d="M781.6,488.6l9,20.6c0.7,1.6,3.4,2.4,5.7,1.7l14.1-3.9l-26.3-21.8l0,0C782.1,485.7,781,487.2,781.6,488.6z"
				/>
			<path class="st1" d="M794.6,482.2l-10.5,2.9l26.3,21.8l3.9-1.1l4.5-1.3c2.7-0.7,3.6-2.9,1.8-4.4L800,483.1
				C798.7,482.1,796.5,481.7,794.6,482.2z"/>
		</g>
		<path class="st0" d="M814.4,501.4l-16.1-13.6c-0.4-0.3-0.3-0.7,0.2-1l0.3-0.2c0.5-0.2,1.1-0.2,1.5,0.1l16.1,13.6
			c0.4,0.3,0.3,0.7-0.2,1l-0.3,0.2C815.4,501.8,814.7,501.7,814.4,501.4z"/>
		<path class="st0" d="M808.6,501.9l-16.1-13.6c-0.4-0.3-0.3-0.7,0.2-1l0.3-0.2c0.5-0.2,1.1-0.2,1.5,0.1l16.1,13.6
			c0.4,0.3,0.3,0.7-0.2,1l-0.3,0.2C809.6,502.3,809,502.2,808.6,501.9z"/>
	</g>
	<g>
		<g>
			<path class="st0" d="M704.6,670.3l9,20.6c0.7,1.6,3.4,2.4,5.7,1.7l14.1-3.9l-26.3-21.8l0,0C705,667.4,703.9,668.9,704.6,670.3z"
				/>
			<path class="st1" d="M717.6,663.9l-10.5,2.9l26.3,21.8l3.9-1.1l4.5-1.3c2.7-0.7,3.6-2.9,1.8-4.4l-20.6-17.1
				C721.6,663.8,719.4,663.4,717.6,663.9z"/>
		</g>
		<path class="st0" d="M737.3,683.1l-16.1-13.6c-0.4-0.3-0.3-0.7,0.2-1l0.3-0.2c0.5-0.2,1.1-0.2,1.5,0.1l16.1,13.6
			c0.4,0.3,0.3,0.7-0.2,1l-0.3,0.2C738.3,683.5,737.6,683.4,737.3,683.1z"/>
		<path class="st0" d="M731.5,683.6L715.4,670c-0.4-0.3-0.3-0.7,0.2-1l0.3-0.2c0.5-0.2,1.1-0.2,1.5,0.1l16.1,13.6
			c0.4,0.3,0.3,0.7-0.2,1l-0.3,0.2C732.6,684,731.9,683.9,731.5,683.6z"/>
	</g>
	<g>
		<g>
			<path class="st0" d="M392.5,577.7l32.6-3.9c2.5-0.3,4-1.9,3.2-3.5l-4.8-9.4l-36.1,14.9l0,0C388.2,577.2,390.3,578,392.5,577.7z"
				/>
			<path class="st1" d="M383.9,568.8l3.6,7l36.1-14.9l-1.3-2.6l-1.5-3c-0.9-1.8-4.2-2.5-6.7-1.5l-28.3,11.7
				C384,566.2,383.3,567.6,383.9,568.8z"/>
		</g>
		<path class="st0" d="M415.3,557.9l-22.5,9.1c-0.5,0.2-1.2,0.1-1.5-0.2l-0.2-0.2c-0.3-0.3-0.2-0.7,0.3-0.9l22.5-9.1
			c0.5-0.2,1.2-0.1,1.5,0.2l0.2,0.2C416,557.3,415.8,557.7,415.3,557.9z"/>
		<path class="st0" d="M415.6,561.6l-22.5,9.1c-0.5,0.2-1.2,0.1-1.5-0.2l-0.2-0.2c-0.3-0.3-0.2-0.7,0.3-0.9l22.5-9.1
			c0.5-0.2,1.2-0.1,1.5,0.2l0.2,0.2C416.2,561,416.1,561.4,415.6,561.6z"/>
	</g>
	<g>
		<g>
			<path class="st0" d="M538.9,388.1l32.6-3.9c2.5-0.3,4-1.9,3.2-3.5l-4.8-9.4l-36.1,14.9l0,0C534.5,387.5,536.7,388.4,538.9,388.1z
				"/>
			<path class="st1" d="M530.3,379.2l3.6,7l36.1-14.9l-1.3-2.6l-1.5-3c-0.9-1.8-4.2-2.5-6.7-1.5l-28.3,11.7
				C530.4,376.5,529.6,377.9,530.3,379.2z"/>
		</g>
		<path class="st0" d="M561.7,368.2l-22.5,9.1c-0.5,0.2-1.2,0.1-1.5-0.2l-0.2-0.2c-0.3-0.3-0.2-0.7,0.3-0.9l22.5-9.1
			c0.5-0.2,1.2-0.1,1.5,0.2l0.2,0.2C562.4,367.6,562.2,368,561.7,368.2z"/>
		<path class="st0" d="M562,372l-22.5,9.1c-0.5,0.2-1.2,0.1-1.5-0.2l-0.2-0.2c-0.3-0.3-0.2-0.7,0.3-0.9l22.5-9.1
			c0.5-0.2,1.2-0.1,1.5,0.2l0.2,0.2C562.6,371.3,562.4,371.8,562,372z"/>
	</g>
	<g>
		<g>
			<path class="st0" d="M426.3,631.7l28.7,10.8c2.2,0.8,5,0.2,6-1.3l5.9-9.2l-42.4-3.9l0,0C423.5,629.5,424.3,631,426.3,631.7z"/>
			<path class="st1" d="M428.8,621.3l-4.4,6.8l42.4,3.9l1.6-2.5l1.9-2.9c1.1-1.7-0.6-3.7-3.5-4l-33.3-3.1
				C431.5,619.4,429.6,620.1,428.8,621.3z"/>
		</g>
		<path class="st0" d="M463.7,626.3l-26.3-2.6c-0.6-0.1-1-0.4-0.9-0.8l0.1-0.3c0.1-0.4,0.6-0.6,1.2-0.6l26.3,2.6
			c0.6,0.1,1,0.4,0.9,0.8l-0.1,0.3C464.8,626.1,464.2,626.4,463.7,626.3z"/>
		<path class="st0" d="M460.1,629.3l-26.3-2.6c-0.6-0.1-1-0.4-0.9-0.8l0.1-0.3c0.1-0.4,0.6-0.6,1.2-0.6l26.3,2.6
			c0.6,0.1,1,0.4,0.9,0.8l-0.1,0.3C461.2,629.1,460.6,629.3,460.1,629.3z"/>
	</g>
	<g>
		<g>
			<path class="st0" d="M574.7,237.9l28.7,10.8c2.2,0.8,5,0.2,6-1.3l5.9-9.2l-42.4-3.9l0,0C572,235.6,572.8,237.2,574.7,237.9z"/>
			<path class="st1" d="M577.2,227.5l-4.4,6.8l42.4,3.9l1.6-2.5l1.9-2.9c1.1-1.7-0.6-3.7-3.5-4l-33.3-3.1
				C580,225.6,578,226.3,577.2,227.5z"/>
		</g>
		<path class="st0" d="M612.1,232.5l-26.3-2.6c-0.6-0.1-1-0.4-0.9-0.8l0.1-0.3c0.1-0.4,0.6-0.6,1.2-0.6l26.3,2.6
			c0.6,0.1,1,0.4,0.9,0.8l-0.1,0.3C613.2,232.3,612.7,232.5,612.1,232.5z"/>
		<path class="st0" d="M608.5,235.4l-26.3-2.6c-0.6-0.1-1-0.4-0.9-0.8l0.1-0.3c0.1-0.4,0.6-0.6,1.2-0.6l26.3,2.6
			c0.6,0.1,1,0.4,0.9,0.8l-0.1,0.3C609.6,235.2,609.1,235.5,608.5,235.4z"/>
	</g>
	<g>
		<g>
			<path class="st0" d="M600.7,632.8l-26.5,12.9c-2,1-2.2,2.9-0.5,4l10.8,7.1l22.1-23.7l0,0C605,632,602.5,631.9,600.7,632.8z"/>
			<path class="st1" d="M614.6,638.3l-8-5.2l-22.1,23.7l3,1.9l3.5,2.3c2.1,1.3,5.5,1.1,7-0.5l17.3-18.6
				C616.3,640.7,616,639.2,614.6,638.3z"/>
		</g>
		<path class="st0" d="M593.9,657.1l13.9-14.6c0.3-0.3,1-0.4,1.5-0.2l0.4,0.1c0.5,0.2,0.7,0.6,0.4,0.9l-13.9,14.6
			c-0.3,0.3-1,0.4-1.5,0.2l-0.4-0.1C593.8,657.8,593.6,657.4,593.9,657.1z"/>
		<path class="st0" d="M591.2,653.8l13.9-14.6c0.3-0.3,1-0.4,1.5-0.2l0.4,0.1c0.5,0.2,0.7,0.6,0.4,0.9l-13.9,14.6
			c-0.3,0.3-1,0.4-1.5,0.2l-0.4-0.1C591,654.6,590.8,654.1,591.2,653.8z"/>
	</g>
	<g>
		<g>
			<path class="st0" d="M977.3,223.2L950.8,236c-2,1-2.2,2.9-0.5,4l10.8,7.1l22.1-23.7l0,0C981.6,222.4,979.1,222.3,977.3,223.2z"/>
			<path class="st1" d="M991.2,228.7l-8-5.2l-22.1,23.7l3,1.9l3.5,2.3c2.1,1.3,5.5,1.1,7-0.5l17.3-18.6
				C992.9,231.1,992.7,229.6,991.2,228.7z"/>
		</g>
		<path class="st0" d="M970.6,247.5l13.9-14.6c0.3-0.3,1-0.4,1.5-0.2l0.4,0.1c0.5,0.2,0.7,0.6,0.4,0.9l-13.9,14.6
			c-0.3,0.3-1,0.4-1.5,0.2l-0.4-0.1C970.4,248.2,970.3,247.8,970.6,247.5z"/>
		<path class="st0" d="M967.8,244.2l13.9-14.6c0.3-0.3,1-0.4,1.5-0.2l0.4,0.1c0.5,0.2,0.7,0.6,0.4,0.9L970,245.1
			c-0.3,0.3-1,0.4-1.5,0.2l-0.4-0.1C967.6,244.9,967.5,244.5,967.8,244.2z"/>
	</g>
	<g>
		<g>
			<path class="st0" d="M976.5,373.6L950,386.4c-2,1-2.2,2.9-0.5,4l10.8,7.1l22.1-23.7l0,0C980.8,372.8,978.3,372.7,976.5,373.6z"/>
			<path class="st1" d="M990.4,379.1l-8-5.2l-22.1,23.7l3,1.9l3.5,2.3c2.1,1.3,5.5,1.1,7-0.5l17.3-18.6
				C992.1,381.5,991.9,380,990.4,379.1z"/>
		</g>
		<path class="st0" d="M969.8,397.9l13.9-14.6c0.3-0.3,1-0.4,1.5-0.2l0.4,0.1c0.5,0.2,0.7,0.6,0.4,0.9l-13.9,14.6
			c-0.3,0.3-1,0.4-1.5,0.2l-0.4-0.1C969.6,398.6,969.5,398.2,969.8,397.9z"/>
		<path class="st0" d="M967,394.6l13.9-14.6c0.3-0.3,1-0.4,1.5-0.2l0.4,0.1c0.5,0.2,0.7,0.6,0.4,0.9l-13.9,14.6
			c-0.3,0.3-1,0.4-1.5,0.2l-0.4-0.1C966.8,395.4,966.7,394.9,967,394.6z"/>
	</g>
	<g>
		<g>
			<path class="st0" d="M540,649.2l-26.5,12.9c-2,1-2.2,2.9-0.5,4l10.8,7.1l22.1-23.7l0,0C544.3,648.5,541.8,648.4,540,649.2z"/>
			<path class="st1" d="M553.9,654.8l-8-5.2l-22.1,23.7l3,1.9l3.5,2.3c2.1,1.3,5.5,1.1,7-0.5l17.3-18.6
				C555.6,657.1,555.3,655.7,553.9,654.8z"/>
		</g>
		<path class="st0" d="M533.3,673.6l13.9-14.6c0.3-0.3,1-0.4,1.5-0.2l0.4,0.1c0.5,0.2,0.7,0.6,0.4,0.9l-13.9,14.6
			c-0.3,0.3-1,0.4-1.5,0.2l-0.4-0.1C533.1,674.3,532.9,673.9,533.3,673.6z"/>
		<path class="st0" d="M530.5,670.3l13.9-14.6c0.3-0.3,1-0.4,1.5-0.2l0.4,0.1c0.5,0.2,0.7,0.6,0.4,0.9l-13.9,14.6
			c-0.3,0.3-1,0.4-1.5,0.2l-0.4-0.1C530.3,671,530.2,670.6,530.5,670.3z"/>
	</g>
	<g>
		<g>
			<path class="st0" d="M673,606l28.7,10.8c2.2,0.8,5,0.2,6-1.3l5.9-9.2l-42.4-3.9l0,0C670.3,603.8,671.1,605.3,673,606z"/>
			<path class="st1" d="M675.5,595.6l-4.4,6.8l42.4,3.9l1.6-2.5l1.9-2.9c1.1-1.7-0.6-3.7-3.5-4l-33.3-3.1
				C678.3,593.7,676.3,594.4,675.5,595.6z"/>
		</g>
		<path class="st0" d="M710.4,600.6l-26.3-2.6c-0.6-0.1-1-0.4-0.9-0.8l0.1-0.3c0.1-0.4,0.6-0.6,1.2-0.6l26.3,2.6
			c0.6,0.1,1,0.4,0.9,0.8l-0.1,0.3C711.5,600.4,711,600.7,710.4,600.6z"/>
		<path class="st0" d="M706.8,603.6l-26.3-2.6c-0.6-0.1-1-0.4-0.9-0.8l0.1-0.3c0.1-0.4,0.6-0.6,1.2-0.6l26.3,2.6
			c0.6,0.1,1,0.4,0.9,0.8L708,603C707.9,603.4,707.4,603.6,706.8,603.6z"/>
	</g>
	<g>
		<g>
			<path class="st0" d="M544.6,576.3l28.7,10.8c2.2,0.8,5,0.2,6-1.3l5.9-9.2l-42.4-3.9l0,0C541.8,574.1,542.6,575.6,544.6,576.3z"/>
			<path class="st1" d="M547.1,565.9l-4.4,6.8l42.4,3.9l1.6-2.5l1.9-2.9c1.1-1.7-0.6-3.7-3.5-4l-33.3-3.1
				C549.8,564,547.9,564.7,547.1,565.9z"/>
		</g>
		<path class="st0" d="M582,570.9l-26.3-2.6c-0.6-0.1-1-0.4-0.9-0.8l0.1-0.3c0.1-0.4,0.6-0.6,1.2-0.6l26.3,2.6
			c0.6,0.1,1,0.4,0.9,0.8l-0.1,0.3C583.1,570.7,582.5,571,582,570.9z"/>
		<path class="st0" d="M578.4,573.8l-26.3-2.6c-0.6-0.1-1-0.4-0.9-0.8l0.1-0.3c0.1-0.4,0.6-0.6,1.2-0.6l26.3,2.6
			c0.6,0.1,1,0.4,0.9,0.8l-0.1,0.3C579.5,573.6,578.9,573.9,578.4,573.8z"/>
	</g>
	<g>
		<g>
			<path class="st0" d="M755.3,340.5l28.7,10.8c2.2,0.8,5,0.2,6-1.3l5.9-9.2l-42.4-3.9l0,0C752.5,338.2,753.3,339.7,755.3,340.5z"/>
			<path class="st1" d="M757.8,330.1l-4.4,6.8l42.4,3.9l1.6-2.5l1.9-2.9c1.1-1.7-0.6-3.7-3.5-4l-33.3-3.1
				C760.5,328.1,758.6,328.9,757.8,330.1z"/>
		</g>
		<path class="st0" d="M792.7,335l-26.3-2.6c-0.6-0.1-1-0.4-0.9-0.8l0.1-0.3c0.1-0.4,0.6-0.6,1.2-0.6l26.3,2.6
			c0.6,0.1,1,0.4,0.9,0.8l-0.1,0.3C793.8,334.8,793.2,335.1,792.7,335z"/>
		<path class="st0" d="M789.1,338l-26.3-2.6c-0.6-0.1-1-0.4-0.9-0.8l0.1-0.3c0.1-0.4,0.6-0.6,1.2-0.6l26.3,2.6
			c0.6,0.1,1,0.4,0.9,0.8l-0.1,0.3C790.2,337.8,789.6,338,789.1,338z"/>
	</g>
	<g>
		<g>
			<path class="st0" d="M514.4,463.9l6.4,21c0.5,1.6,3,2.6,5.4,2l14.6-3.2l-23.5-23.1l0,0C515.2,461.1,514,462.5,514.4,463.9z"/>
			<path class="st1" d="M528.2,458.3l-10.8,2.4l23.5,23.1l4-0.9l4.7-1c2.8-0.6,3.9-2.7,2.3-4.3l-18.4-18.2
				C532.2,458.3,530.1,457.8,528.2,458.3z"/>
		</g>
		<path class="st0" d="M545.4,478.4L531,464c-0.3-0.3-0.2-0.7,0.3-0.9l0.4-0.1c0.5-0.2,1.2-0.1,1.5,0.2l14.4,14.4
			c0.3,0.3,0.2,0.7-0.3,0.9l-0.4,0.1C546.4,478.9,545.7,478.8,545.4,478.4z"/>
		<path class="st0" d="M539.6,478.6l-14.4-14.4c-0.3-0.3-0.2-0.7,0.3-0.9l0.4-0.1c0.5-0.2,1.2-0.1,1.5,0.2l14.4,14.4
			c0.3,0.3,0.2,0.7-0.3,0.9l-0.4,0.1C540.6,479,539.9,479,539.6,478.6z"/>
	</g>
	<g>
		<g>
			<path class="st0" d="M809.6,414.3l6.4,21c0.5,1.6,3,2.6,5.4,2l14.6-3.2L812.6,411l0,0C810.5,411.4,809.2,412.8,809.6,414.3z"/>
			<path class="st1" d="M823.4,408.6l-10.8,2.4l23.5,23.1l4-0.9l4.7-1c2.8-0.6,3.9-2.7,2.3-4.3l-18.4-18.2
				C827.5,408.7,825.3,408.2,823.4,408.6z"/>
		</g>
		<path class="st0" d="M840.6,428.8l-14.4-14.4c-0.3-0.3-0.2-0.7,0.3-0.9l0.4-0.1c0.5-0.2,1.2-0.1,1.5,0.2l14.4,14.4
			c0.3,0.3,0.2,0.7-0.3,0.9l-0.4,0.1C841.6,429.2,841,429.1,840.6,428.8z"/>
		<path class="st0" d="M834.8,429l-14.4-14.4c-0.3-0.3-0.2-0.7,0.3-0.9l0.4-0.1c0.5-0.2,1.2-0.1,1.5,0.2l14.4,14.4
			c0.3,0.3,0.2,0.7-0.3,0.9l-0.4,0.1C835.8,429.4,835.2,429.3,834.8,429z"/>
	</g>
	<g>
		<g>
			<path class="st0" d="M673.2,195.5l6.4,21c0.5,1.6,3,2.6,5.4,2l14.6-3.2l-23.5-23.1l0,0C674,192.6,672.8,194,673.2,195.5z"/>
			<path class="st1" d="M687,189.8l-10.8,2.4l23.5,23.1l4-0.9l4.7-1c2.8-0.6,3.9-2.7,2.3-4.3l-18.4-18.2
				C691,189.8,688.9,189.4,687,189.8z"/>
		</g>
		<path class="st0" d="M704.2,210l-14.4-14.4c-0.3-0.3-0.2-0.7,0.3-0.9l0.4-0.1c0.5-0.2,1.2-0.1,1.5,0.2l14.4,14.4
			c0.3,0.3,0.2,0.7-0.3,0.9l-0.4,0.1C705.2,210.4,704.5,210.3,704.2,210z"/>
		<path class="st0" d="M698.4,210.2L684,195.7c-0.3-0.3-0.2-0.7,0.3-0.9l0.4-0.1c0.5-0.2,1.2-0.1,1.5,0.2l14.4,14.4
			c0.3,0.3,0.2,0.7-0.3,0.9l-0.4,0.1C699.4,210.6,698.7,210.5,698.4,210.2z"/>
	</g>
	<g>
		<g>
			<path class="st0" d="M431.7,356.9l8.1,20.8c0.6,1.6,3.2,2.4,5.6,1.8l14.3-3.7l-25.3-22.3l0,0
				C432.3,354.1,431.1,355.5,431.7,356.9z"/>
			<path class="st1" d="M445,350.8l-10.6,2.7l25.3,22.3l3.9-1l4.6-1.2c2.7-0.7,3.7-2.9,2-4.4l-19.8-17.5
				C449,350.8,446.9,350.4,445,350.8z"/>
		</g>
		<path class="st0" d="M463.8,370.4l-15.5-13.9c-0.3-0.3-0.2-0.7,0.2-1l0.3-0.2c0.5-0.2,1.1-0.2,1.5,0.2l15.5,13.9
			c0.3,0.3,0.2,0.7-0.2,1l-0.3,0.2C464.8,370.8,464.1,370.7,463.8,370.4z"/>
		<path class="st0" d="M458,370.8l-15.5-13.9c-0.3-0.3-0.2-0.7,0.2-1l0.3-0.2c0.5-0.2,1.1-0.2,1.5,0.2l15.5,13.9
			c0.3,0.3,0.2,0.7-0.2,1l-0.3,0.2C459,371.2,458.3,371.1,458,370.8z"/>
	</g>
	<g>
		<g>
			<path class="st0" d="M316,512l8.1,20.8c0.6,1.6,3.2,2.4,5.6,1.8l14.3-3.7l-25.3-22.3l0,0C316.6,509.1,315.4,510.6,316,512z"/>
			<path class="st1" d="M329.3,505.9l-10.6,2.7l25.3,22.3l3.9-1l4.6-1.2c2.7-0.7,3.7-2.9,2-4.4l-19.8-17.5
				C333.3,505.8,331.2,505.4,329.3,505.9z"/>
		</g>
		<path class="st0" d="M348.1,525.4l-15.5-13.9c-0.3-0.3-0.2-0.7,0.2-1l0.3-0.2c0.5-0.2,1.1-0.2,1.5,0.2l15.5,13.9
			c0.3,0.3,0.2,0.7-0.2,1l-0.3,0.2C349.1,525.8,348.4,525.7,348.1,525.4z"/>
		<path class="st0" d="M342.3,525.8l-15.5-13.9c-0.3-0.3-0.2-0.7,0.2-1l0.3-0.2c0.5-0.2,1.1-0.2,1.5,0.2l15.5,13.9
			c0.3,0.3,0.2,0.7-0.2,1l-0.3,0.2C343.3,526.2,342.7,526.1,342.3,525.8z"/>
	</g>
	<g>
		<g>
			<path class="st0" d="M310.1,272.3l8.1,20.8c0.6,1.6,3.2,2.4,5.6,1.8l14.3-3.7l-25.3-22.3l0,0
				C310.7,269.5,309.6,270.9,310.1,272.3z"/>
			<path class="st1" d="M323.4,266.2l-10.6,2.7l25.3,22.3l3.9-1l4.6-1.2c2.7-0.7,3.7-2.9,2-4.4l-19.8-17.5
				C327.5,266.1,325.3,265.7,323.4,266.2z"/>
		</g>
		<path class="st0" d="M342.3,285.8l-15.5-13.9c-0.3-0.3-0.2-0.7,0.2-1l0.3-0.2c0.5-0.2,1.1-0.2,1.5,0.2l15.5,13.9
			c0.3,0.3,0.2,0.7-0.2,1l-0.3,0.2C343.3,286.2,342.6,286.1,342.3,285.8z"/>
		<path class="st0" d="M336.5,286.2L321,272.2c-0.3-0.3-0.2-0.7,0.2-1l0.3-0.2c0.5-0.2,1.1-0.2,1.5,0.2l15.5,13.9
			c0.3,0.3,0.2,0.7-0.2,1l-0.3,0.2C337.5,286.5,336.8,286.5,336.5,286.2z"/>
	</g>
	<g>
		<g>
			<path class="st0" d="M783.3,187.7l8.1,20.8c0.6,1.6,3.2,2.4,5.6,1.8l14.3-3.7L786,184.4v0C783.9,184.9,782.7,186.3,783.3,187.7z"
				/>
			<path class="st1" d="M796.6,181.6l-10.6,2.7l25.3,22.3l3.9-1l4.6-1.2c2.7-0.7,3.7-2.9,2-4.4l-19.8-17.5
				C800.6,181.6,798.5,181.1,796.6,181.6z"/>
		</g>
		<path class="st0" d="M815.4,201.2l-15.5-13.9c-0.3-0.3-0.2-0.7,0.2-1l0.3-0.2c0.5-0.2,1.1-0.2,1.5,0.2l15.5,13.9
			c0.3,0.3,0.2,0.7-0.2,1l-0.3,0.2C816.4,201.6,815.7,201.5,815.4,201.2z"/>
		<path class="st0" d="M809.6,201.6l-15.5-13.9c-0.3-0.3-0.2-0.7,0.2-1l0.3-0.2c0.5-0.2,1.1-0.2,1.5,0.2l15.5,13.9
			c0.3,0.3,0.2,0.7-0.2,1l-0.3,0.2C810.6,202,810,201.9,809.6,201.6z"/>
	</g>
	<g>
		<g>
			<path class="st0" d="M241.1,440.8l8.1,20.8c0.6,1.6,3.2,2.4,5.6,1.8l14.3-3.7l-25.3-22.3l0,0
				C241.7,437.9,240.5,439.4,241.1,440.8z"/>
			<path class="st1" d="M254.4,434.7l-10.6,2.7l25.3,22.3l3.9-1l4.6-1.2c2.7-0.7,3.7-2.9,2-4.4l-19.8-17.5
				C258.4,434.6,256.3,434.2,254.4,434.7z"/>
		</g>
		<path class="st0" d="M273.2,454.2l-15.5-13.9c-0.3-0.3-0.2-0.7,0.2-1l0.3-0.2c0.5-0.2,1.1-0.2,1.5,0.2l15.5,13.9
			c0.3,0.3,0.2,0.7-0.2,1l-0.3,0.2C274.2,454.6,273.5,454.5,273.2,454.2z"/>
		<path class="st0" d="M267.4,454.6l-15.5-13.9c-0.3-0.3-0.2-0.7,0.2-1l0.3-0.2c0.5-0.2,1.1-0.2,1.5,0.2l15.5,13.9
			c0.3,0.3,0.2,0.7-0.2,1l-0.3,0.2C268.4,455,267.8,454.9,267.4,454.6z"/>
	</g>
	<g>
		<g>
			<path class="st0" d="M497.2,193.8l33,2.1c2.5,0.2,4.7-1.1,4.6-2.8l-0.5-9.9l-41.2,7.8l0,0C493.3,192.5,495,193.7,497.2,193.8z"/>
			<path class="st1" d="M492.8,183.7l0.4,7.4l41.2-7.8l-0.1-2.7l-0.2-3.2c-0.1-1.9-2.9-3.2-5.7-2.7l-32.3,6.1
				C494.1,181.2,492.7,182.4,492.8,183.7z"/>
		</g>
		<path class="st0" d="M527.7,178.9l-25.6,4.7c-0.6,0.1-1.2-0.1-1.3-0.5l-0.1-0.3c-0.2-0.4,0.2-0.7,0.7-0.8l25.6-4.7
			c0.6-0.1,1.2,0.1,1.3,0.5l0.1,0.3C528.6,178.4,528.3,178.8,527.7,178.9z"/>
		<path class="st0" d="M526.3,182.5l-25.6,4.7c-0.6,0.1-1.2-0.1-1.3-0.5l-0.1-0.3c-0.2-0.4,0.2-0.7,0.7-0.8l25.6-4.7
			c0.6-0.1,1.2,0.1,1.3,0.5l0.1,0.3C527.2,182.1,526.9,182.4,526.3,182.5z"/>
	</g>
	<g>
		<g>
			<path class="st0" d="M347,186.5l9.1-20.6c0.7-1.6-0.9-3.2-3.4-3.4l-15.2-1.4l4.6,27.5l0,0C344.3,188.8,346.4,187.9,347,186.5z"/>
			<path class="st1" d="M330.8,187.5l11.3,1.1l-4.6-27.5l-4.2-0.4l-4.9-0.5c-2.9-0.3-5.4,1.3-5.1,3.2L327,185
				C327.2,186.3,328.8,187.3,330.8,187.5z"/>
		</g>
		<path class="st0" d="M329.7,164.5l2.6,17.1c0.1,0.4-0.4,0.7-1,0.7l-0.4,0c-0.6,0-1.1-0.2-1.2-0.6l-2.6-17.1
			c-0.1-0.4,0.4-0.7,1-0.7l0.4,0C329.1,163.9,329.6,164.1,329.7,164.5z"/>
		<path class="st0" d="M335,166l2.6,17.1c0.1,0.4-0.4,0.7-1,0.7l-0.4,0c-0.6,0-1.1-0.2-1.2-0.6l-2.6-17.1c-0.1-0.4,0.4-0.7,1-0.7
			l0.4,0C334.4,165.4,334.9,165.7,335,166z"/>
	</g>
	<g>
		<g>
			<path class="st0" d="M626.6,338.6l15.8-18.8c1.2-1.4,0.2-3.2-2.2-3.8l-14.4-3.5l-4.7,27.5l0,0
				C623.2,340.5,625.6,339.9,626.6,338.6z"/>
			<path class="st1" d="M610.4,337.3l10.7,2.6l4.7-27.5l-3.9-1l-4.6-1.1c-2.7-0.7-5.7,0.5-6,2.4l-3.7,21.6
				C607.3,335.6,608.5,336.9,610.4,337.3z"/>
		</g>
		<path class="st0" d="M617,314.7l-3.2,17c-0.1,0.4-0.6,0.6-1.2,0.6l-0.4,0c-0.6,0-1-0.4-0.9-0.8l3.2-17c0.1-0.4,0.6-0.6,1.2-0.6
			l0.4,0C616.7,314,617.1,314.3,617,314.7z"/>
		<path class="st0" d="M621.7,316.9l-3.2,17c-0.1,0.4-0.6,0.6-1.2,0.6l-0.4,0c-0.6,0-1-0.4-0.9-0.8l3.2-17c0.1-0.4,0.6-0.6,1.2-0.6
			l0.4,0C621.4,316.2,621.8,316.6,621.7,316.9z"/>
	</g>
	<g>
		<g>
			<path class="st0" d="M338.9,417.5l15.8-18.8c1.2-1.4,0.2-3.2-2.2-3.8l-14.4-3.5l-4.7,27.5l0,0
				C335.5,419.3,337.8,418.7,338.9,417.5z"/>
			<path class="st1" d="M322.7,416.2l10.7,2.6l4.7-27.5l-3.9-1l-4.6-1.1c-2.7-0.7-5.7,0.5-6,2.4l-3.7,21.6
				C319.6,414.5,320.8,415.7,322.7,416.2z"/>
		</g>
		<path class="st0" d="M329.3,393.5l-3.2,17c-0.1,0.4-0.6,0.6-1.2,0.6l-0.4,0c-0.6,0-1-0.4-0.9-0.8l3.2-17c0.1-0.4,0.6-0.6,1.2-0.6
			l0.4,0C329,392.8,329.4,393.2,329.3,393.5z"/>
		<path class="st0" d="M334,395.8l-3.2,17c-0.1,0.4-0.6,0.6-1.2,0.6l-0.4,0c-0.6,0-1-0.4-0.9-0.8l3.2-17c0.1-0.4,0.6-0.6,1.2-0.6
			l0.4,0C333.6,395.1,334,395.4,334,395.8z"/>
	</g>
	<g>
		<g>
			<path class="st0" d="M387.9,114.9L403,134c1.2,1.5,4,1.9,6.1,1l12.6-5.7l-32.4-18.1v0C387.5,112,386.9,113.6,387.9,114.9z"/>
			<path class="st1" d="M398.7,107l-9.4,4.2l32.4,18.1l3.5-1.5l4-1.8c2.4-1.1,2.6-3.3,0.4-4.6l-25.5-14.2
				C402.7,106.3,400.4,106.3,398.7,107z"/>
		</g>
		<path class="st0" d="M423.9,123.4l-20-11.3c-0.4-0.2-0.5-0.7-0.1-1l0.3-0.2c0.4-0.3,1.1-0.3,1.5-0.1l20,11.3
			c0.4,0.2,0.5,0.7,0.1,1l-0.3,0.2C425,123.6,424.3,123.6,423.9,123.4z"/>
		<path class="st0" d="M418.4,124.6l-20-11.3c-0.4-0.2-0.5-0.7-0.1-1l0.3-0.2c0.4-0.3,1.1-0.3,1.5-0.1l20,11.3
			c0.4,0.2,0.5,0.7,0.1,1l-0.3,0.2C419.5,124.8,418.9,124.8,418.4,124.6z"/>
	</g>
	<g>
		<g>
			<path class="st0" d="M137.9,338.2l15.1,19.1c1.2,1.5,4,1.9,6.1,1l12.6-5.7l-32.4-18.1l0,0C137.5,335.3,136.9,336.9,137.9,338.2z"
				/>
			<path class="st1" d="M148.7,330.3l-9.4,4.2l32.4,18.1l3.5-1.5l4-1.8c2.4-1.1,2.6-3.3,0.4-4.6l-25.5-14.2
				C152.6,329.6,150.4,329.5,148.7,330.3z"/>
		</g>
		<path class="st0" d="M173.9,346.6l-20-11.3c-0.4-0.2-0.5-0.7-0.1-1l0.3-0.2c0.4-0.3,1.1-0.3,1.5-0.1l20,11.3
			c0.4,0.2,0.5,0.7,0.1,1l-0.3,0.2C175,346.9,174.3,346.9,173.9,346.6z"/>
		<path class="st0" d="M168.4,347.8l-20-11.3c-0.4-0.2-0.5-0.7-0.1-1l0.3-0.2c0.4-0.3,1.1-0.3,1.5-0.1l20,11.3
			c0.4,0.2,0.5,0.7,0.1,1l-0.3,0.2C169.5,348.1,168.8,348.1,168.4,347.8z"/>
	</g>
	<g>
		<g>
			<path class="st0" d="M641.3,105.3l-4.8,21.2c-0.4,1.6,1.6,3.1,4.1,3.1l15.4,0.1l-10.2-26.9l0,0
				C643.5,102.8,641.6,103.9,641.3,105.3z"/>
			<path class="st1" d="M657.2,102.9l-11.4-0.1l10.2,26.9l4.2,0l4.9,0c2.9,0,5.1-1.7,4.4-3.6l-8-21.1
				C661,103.9,659.2,103,657.2,102.9z"/>
		</g>
		<path class="st0" d="M663,125.7l-6.1-16.7c-0.1-0.4,0.2-0.7,0.8-0.8l0.4-0.1c0.6-0.1,1.1,0.1,1.3,0.5l6.1,16.7
			c0.1,0.4-0.2,0.7-0.8,0.8l-0.4,0.1C663.7,126.3,663.1,126,663,125.7z"/>
		<path class="st0" d="M657.4,124.6l-6.1-16.7c-0.1-0.4,0.2-0.7,0.8-0.8l0.4-0.1c0.6-0.1,1.1,0.1,1.3,0.5l6.1,16.7
			c0.1,0.4-0.2,0.7-0.8,0.8l-0.4,0.1C658.2,125.2,657.6,125,657.4,124.6z"/>
	</g>
	<g>
		<g>
			<path class="st0" d="M371.6,438.3l-4.8,21.2c-0.4,1.6,1.6,3.1,4.1,3.1l15.4,0.1l-10.2-26.9h0
				C373.8,435.8,371.9,436.8,371.6,438.3z"/>
			<path class="st1" d="M387.5,435.9l-11.4-0.1l10.2,26.9l4.2,0l4.9,0c2.9,0,5.1-1.7,4.4-3.6l-8-21.1
				C391.3,436.8,389.5,435.9,387.5,435.9z"/>
		</g>
		<path class="st0" d="M393.3,458.6l-6.1-16.7c-0.1-0.4,0.2-0.7,0.8-0.8l0.4-0.1c0.6-0.1,1.1,0.1,1.3,0.5l6.1,16.7
			c0.1,0.4-0.2,0.7-0.8,0.8l-0.4,0.1C394,459.2,393.5,459,393.3,458.6z"/>
		<path class="st0" d="M387.8,457.6l-6.1-16.7c-0.1-0.4,0.2-0.7,0.8-0.8l0.4-0.1c0.6-0.1,1.1,0.1,1.3,0.5l6.1,16.7
			c0.1,0.4-0.2,0.7-0.8,0.8l-0.4,0.1C388.5,458.2,387.9,457.9,387.8,457.6z"/>
	</g>
	<g>
		<g>
			<path class="st0" d="M875.4,254.6l3.8,21.3c0.3,1.6,2.7,2.7,5.2,2.3l14.9-2.4l-20.6-24.3l0,0
				C876.5,251.8,875.1,253.2,875.4,254.6z"/>
			<path class="st1" d="M889.8,249.7l-11.1,1.8l20.6,24.3l4.1-0.7l4.8-0.8c2.8-0.5,4.2-2.5,2.8-4.2l-16.1-19
				C893.8,249.9,891.8,249.3,889.8,249.7z"/>
		</g>
		<path class="st0" d="M904.5,270.6l-12.6-15.1c-0.3-0.3-0.1-0.7,0.4-0.9l0.4-0.1c0.5-0.2,1.2-0.1,1.4,0.3l12.6,15.1
			c0.3,0.3,0.1,0.7-0.4,0.9l-0.4,0.1C905.4,271.1,904.8,271,904.5,270.6z"/>
		<path class="st0" d="M898.7,270.5l-12.6-15.1c-0.3-0.3-0.1-0.7,0.4-0.9l0.4-0.1c0.5-0.2,1.2-0.1,1.4,0.3l12.6,15.1
			c0.3,0.3,0.1,0.7-0.4,0.9l-0.4,0.1C899.6,271,899,270.9,898.7,270.5z"/>
	</g>
	<g>
		<g>
			<path class="st0" d="M507,114l3.8,21.3c0.3,1.6,2.7,2.7,5.2,2.3l14.9-2.4l-20.6-24.3l0,0C508.2,111.2,506.8,112.6,507,114z"/>
			<path class="st1" d="M521.5,109.1l-11.1,1.8l20.6,24.3l4.1-0.7l4.8-0.8c2.8-0.5,4.2-2.5,2.8-4.2l-16.1-19
				C525.5,109.3,523.4,108.7,521.5,109.1z"/>
		</g>
		<path class="st0" d="M536.2,130.1l-12.6-15.1c-0.3-0.3-0.1-0.7,0.4-0.9l0.4-0.1c0.5-0.2,1.2-0.1,1.4,0.3l12.6,15.1
			c0.3,0.3,0.1,0.7-0.4,0.9l-0.4,0.1C537.1,130.5,536.4,130.4,536.2,130.1z"/>
		<path class="st0" d="M530.4,130l-12.6-15.1c-0.3-0.3-0.1-0.7,0.4-0.9l0.4-0.1c0.5-0.2,1.2-0.1,1.4,0.3l12.6,15.1
			c0.3,0.3,0.1,0.7-0.4,0.9l-0.4,0.1C531.3,130.4,530.6,130.3,530.4,130z"/>
	</g>
	<g>
		<g>
			<path class="st0" d="M719,265.6L705.1,285c-1.1,1.5,0.1,3.2,2.6,3.7l14.7,2.9l2-27.6l0,0C722.3,263.6,720,264.3,719,265.6z"/>
			<path class="st1" d="M735.3,266.2l-10.9-2.2l-2,27.6l4,0.8l4.7,0.9c2.8,0.6,5.6-0.7,5.8-2.6l1.6-21.7
				C738.6,267.8,737.3,266.6,735.3,266.2z"/>
		</g>
		<path class="st0" d="M731,289.1l1.5-17.1c0-0.4,0.5-0.7,1.1-0.6l0.4,0c0.6,0,1,0.3,1,0.7l-1.5,17.1c0,0.4-0.5,0.7-1.1,0.6l-0.4,0
			C731.4,289.8,730.9,289.5,731,289.1z"/>
		<path class="st0" d="M726.1,287l1.5-17.1c0-0.4,0.5-0.7,1.1-0.6l0.4,0c0.6,0,1,0.3,1,0.7l-1.5,17.1c0,0.4-0.5,0.7-1.1,0.6l-0.4,0
			C726.5,287.7,726.1,287.4,726.1,287z"/>
	</g>
	<g>
		<g>
			<path class="st0" d="M866.4,372.6l32.2,5.3c2.5,0.4,4.9-0.7,5.2-2.3l1.8-9.9l-42.5,3.8l0,0C862.8,370.9,864.2,372.2,866.4,372.6z
				"/>
			<path class="st1" d="M864.4,362.1l-1.3,7.3l42.5-3.8l0.5-2.7l0.6-3.2c0.3-1.9-2.2-3.4-5.1-3.2l-33.3,3
				C866.2,359.8,864.6,360.8,864.4,362.1z"/>
		</g>
		<path class="st0" d="M900,360.7l-26.4,2.2c-0.6,0-1.1-0.2-1.2-0.6l-0.1-0.3c-0.1-0.4,0.3-0.7,0.9-0.8l26.4-2.2
			c0.6,0,1.1,0.2,1.2,0.6l0.1,0.3C901,360.3,900.6,360.7,900,360.7z"/>
		<path class="st0" d="M897.8,364.2l-26.4,2.2c-0.6,0-1.1-0.2-1.2-0.6l-0.1-0.3c-0.1-0.4,0.3-0.7,0.9-0.8l26.4-2.2
			c0.6,0,1.1,0.2,1.2,0.6l0.1,0.3C898.8,363.8,898.4,364.1,897.8,364.2z"/>
	</g>
	<g>
		<g>
			<path class="st0" d="M281.7,599.2l32.2,5.3c2.5,0.4,4.9-0.7,5.2-2.3l1.8-9.9l-42.5,3.8l0,0C278.1,597.5,279.5,598.8,281.7,599.2z
				"/>
			<path class="st1" d="M279.7,588.7l-1.3,7.3l42.5-3.8l0.5-2.7l0.6-3.2c0.3-1.9-2.2-3.4-5.1-3.2l-33.3,3
				C281.5,586.4,279.9,587.4,279.7,588.7z"/>
		</g>
		<path class="st0" d="M315.3,587.3l-26.4,2.2c-0.6,0-1.1-0.2-1.2-0.6l-0.1-0.3c-0.1-0.4,0.3-0.7,0.9-0.8l26.4-2.2
			c0.6,0,1.1,0.2,1.2,0.6l0.1,0.3C316.3,586.9,315.9,587.3,315.3,587.3z"/>
		<path class="st0" d="M313.1,590.8l-26.4,2.2c-0.6,0-1.1-0.2-1.2-0.6l-0.1-0.3c-0.1-0.4,0.3-0.7,0.9-0.8l26.4-2.2
			c0.6,0,1.1,0.2,1.2,0.6l0.1,0.3C314.1,590.4,313.7,590.7,313.1,590.8z"/>
	</g>
	<g>
		<g>
			<path class="st0" d="M1028.4,440.6l28.7,10.8c2.2,0.8,5,0.2,6-1.3l5.9-9.2l-42.4-3.9v0C1025.7,438.3,1026.5,439.8,1028.4,440.6z"
				/>
			<path class="st1" d="M1030.9,430.2l-4.4,6.8l42.4,3.9l1.6-2.5l1.9-2.9c1.1-1.7-0.6-3.7-3.5-4l-33.3-3.1
				C1033.7,428.2,1031.7,428.9,1030.9,430.2z"/>
		</g>
		<path class="st0" d="M1065.8,435.1l-26.3-2.6c-0.6-0.1-1-0.4-0.9-0.8l0.1-0.3c0.1-0.4,0.6-0.6,1.2-0.6l26.3,2.6
			c0.6,0.1,1,0.4,0.9,0.8l-0.1,0.3C1066.9,434.9,1066.4,435.2,1065.8,435.1z"/>
		<path class="st0" d="M1062.2,438.1l-26.3-2.6c-0.6-0.1-1-0.4-0.9-0.8l0.1-0.3c0.1-0.4,0.6-0.6,1.2-0.6l26.3,2.6
			c0.6,0.1,1,0.4,0.9,0.8l-0.1,0.3C1063.3,437.9,1062.8,438.1,1062.2,438.1z"/>
	</g>
	<g>
		<g>
			<path class="st0" d="M945.7,484l-30.3-8.7c-2.3-0.7-5,0.1-5.7,1.7l-4.3,9.5l42.9,0.9v0C948.8,486,947.7,484.6,945.7,484z"/>
			<path class="st1" d="M944.9,494.5l3.2-7.1l-42.9-0.9l-1.2,2.6l-1.4,3c-0.8,1.8,1.2,3.6,4.1,3.7l33.6,0.7
				C942.5,496.6,944.3,495.8,944.9,494.5z"/>
		</g>
		<path class="st0" d="M909.4,492l26.6,0.7c0.6,0,1,0.3,1,0.7l0,0.3c0,0.4-0.5,0.7-1.1,0.7l-26.6-0.7c-0.6,0-1-0.3-1-0.7l0-0.3
			C908.3,492.3,908.8,492,909.4,492z"/>
		<path class="st0" d="M912.5,488.8l26.6,0.7c0.6,0,1,0.3,1,0.7l0,0.3c0,0.4-0.5,0.7-1.1,0.7l-26.6-0.7c-0.6,0-1-0.3-1-0.7l0-0.3
			C911.4,489.1,911.9,488.8,912.5,488.8z"/>
	</g>
	<g>
		<g>
			<path class="st0" d="M808.8,541.7l5.4,21.1c0.4,1.6,2.9,2.6,5.3,2.1l14.7-2.9l-22.4-23.6l0,0
				C809.8,538.8,808.5,540.2,808.8,541.7z"/>
			<path class="st1" d="M822.9,536.3l-10.9,2.2l22.4,23.6l4-0.8l4.7-0.9c2.8-0.6,4-2.7,2.5-4.3L828,537.5
				C826.9,536.4,824.8,535.9,822.9,536.3z"/>
		</g>
		<path class="st0" d="M839.1,556.8l-13.7-14.7c-0.3-0.3-0.1-0.7,0.4-0.9l0.4-0.1c0.5-0.2,1.2-0.1,1.5,0.2l13.7,14.7
			c0.3,0.3,0.1,0.7-0.4,0.9l-0.4,0.1C840.1,557.2,839.4,557.1,839.1,556.8z"/>
		<path class="st0" d="M833.3,556.8l-13.7-14.7c-0.3-0.3-0.1-0.7,0.4-0.9l0.4-0.1c0.5-0.2,1.2-0.1,1.5,0.2l13.7,14.7
			c0.3,0.3,0.1,0.7-0.4,0.9l-0.4,0.1C834.3,557.3,833.6,557.2,833.3,556.8z"/>
	</g>
	<g>
		<g>
			<path class="st0" d="M74.2,446.5l8.6,20.7c0.7,1.6,3.3,2.4,5.6,1.8l14.2-3.8l-25.8-22.1l0,0C74.7,443.7,73.6,445.1,74.2,446.5z"
				/>
			<path class="st1" d="M87.3,440.3l-10.6,2.8l25.8,22.1l3.9-1l4.5-1.2c2.7-0.7,3.6-2.9,1.9-4.4l-20.3-17.3
				C91.4,440.1,89.2,439.8,87.3,440.3z"/>
		</g>
		<path class="st0" d="M106.6,459.6l-15.8-13.8c-0.3-0.3-0.3-0.7,0.2-1l0.3-0.2c0.5-0.2,1.1-0.2,1.5,0.1l15.8,13.8
			c0.3,0.3,0.3,0.7-0.2,1l-0.3,0.2C107.6,460,107,460,106.6,459.6z"/>
		<path class="st0" d="M100.9,460.1L85,446.3c-0.3-0.3-0.3-0.7,0.2-1l0.3-0.2c0.5-0.2,1.1-0.2,1.5,0.1l15.8,13.8
			c0.3,0.3,0.3,0.7-0.2,1l-0.3,0.2C101.9,460.5,101.2,460.4,100.9,460.1z"/>
	</g>
	<g>
		<g>
			<path class="st0" d="M368,655.3l17.5,18.2c1.3,1.4,4.3,1.7,6.2,0.7l11.9-6.3L369,651.5l0,0C367.3,652.5,366.9,654.1,368,655.3z"
				/>
			<path class="st1" d="M377.8,646.9l-8.8,4.7l34.6,16.3l3.2-1.7l3.8-2c2.3-1.2,2.2-3.4-0.2-4.6l-27.2-12.8
				C381.7,646,379.4,646,377.8,646.9z"/>
		</g>
		<path class="st0" d="M405,661.8l-21.3-10.2c-0.5-0.2-0.6-0.7-0.2-1l0.2-0.2c0.4-0.3,1-0.4,1.5-0.1l21.3,10.2
			c0.5,0.2,0.6,0.7,0.2,1l-0.2,0.2C406.1,662,405.5,662.1,405,661.8z"/>
		<path class="st0" d="M399.7,663.3l-21.3-10.2c-0.5-0.2-0.6-0.7-0.2-1l0.2-0.2c0.4-0.3,1-0.4,1.5-0.1l21.3,10.2
			c0.5,0.2,0.6,0.7,0.2,1l-0.2,0.2C400.8,663.5,400.2,663.5,399.7,663.3z"/>
	</g>
	<g>
		<g>
			<path class="st0" d="M605.3,712.5l26.5-12.9c2-1,2.2-2.9,0.5-4l-10.8-7.1l-22.1,23.7l0,0C601,713.3,603.5,713.4,605.3,712.5z"/>
			<path class="st1" d="M591.4,707l8,5.3l22.1-23.7l-3-1.9l-3.5-2.3c-2.1-1.3-5.5-1.1-7,0.5l-17.3,18.6
				C589.7,704.6,589.9,706.1,591.4,707z"/>
		</g>
		<path class="st0" d="M612,688.2l-13.9,14.6c-0.3,0.3-1,0.4-1.5,0.2l-0.4-0.1c-0.5-0.2-0.7-0.6-0.4-0.9l13.9-14.6
			c0.3-0.3,1-0.4,1.5-0.2l0.4,0.1C612.2,687.5,612.4,687.9,612,688.2z"/>
		<path class="st0" d="M614.8,691.5L601,706.1c-0.3,0.3-1,0.4-1.5,0.2l-0.4-0.1c-0.5-0.2-0.7-0.6-0.4-0.9l13.9-14.6
			c0.3-0.3,1-0.4,1.5-0.2l0.4,0.1C615,690.7,615.1,691.2,614.8,691.5z"/>
	</g>
	<g>
		<g>
			<path class="st0" d="M851.9,650l8.2-20.8c0.6-1.6-1.1-3.2-3.6-3.3l-15.3-1.1l5.8,27.4l0,0C849.3,652.3,851.4,651.4,851.9,650z"/>
			<path class="st1" d="M835.7,651.3l11.4,0.8l-5.8-27.4l-4.2-0.3l-4.9-0.4c-2.9-0.2-5.3,1.4-4.9,3.3l4.6,21.5
				C832.1,650.1,833.7,651.1,835.7,651.3z"/>
		</g>
		<path class="st0" d="M833.6,628.3l3.4,17c0.1,0.4-0.3,0.7-0.9,0.8l-0.4,0c-0.6,0-1.1-0.2-1.2-0.6l-3.4-17
			c-0.1-0.4,0.3-0.7,0.9-0.8l0.4,0C832.9,627.6,833.5,627.9,833.6,628.3z"/>
		<path class="st0" d="M838.9,629.7l3.4,17c0.1,0.4-0.3,0.7-0.9,0.8l-0.4,0c-0.6,0-1.1-0.2-1.2-0.6l-3.4-17
			c-0.1-0.4,0.3-0.7,0.9-0.8l0.4,0C838.3,629.1,838.8,629.3,838.9,629.7z"/>
	</g>
	<g>
		<g>
			<path class="st0" d="M120.6,238.8l7.2,20.9c0.5,1.6,3.1,2.5,5.5,1.9l14.4-3.4l-24.3-22.8h0C121.3,235.9,120.1,237.4,120.6,238.8z
				"/>
			<path class="st1" d="M134.2,232.9l-10.7,2.5l24.3,22.8l3.9-0.9l4.6-1.1c2.7-0.6,3.8-2.8,2.1-4.3L139.4,234
				C138.2,232.9,136.1,232.5,134.2,232.9z"/>
		</g>
		<path class="st0" d="M152.2,252.8l-14.9-14.2c-0.3-0.3-0.2-0.7,0.3-1l0.3-0.2c0.5-0.2,1.1-0.1,1.5,0.2l14.9,14.2
			c0.3,0.3,0.2,0.7-0.3,1l-0.3,0.2C153.2,253.2,152.5,253.1,152.2,252.8z"/>
		<path class="st0" d="M146.4,253.1l-14.9-14.2c-0.3-0.3-0.2-0.7,0.3-1l0.3-0.2c0.5-0.2,1.1-0.1,1.5,0.2l14.9,14.2
			c0.3,0.3,0.2,0.7-0.3,1l-0.3,0.2C147.4,253.5,146.7,253.4,146.4,253.1z"/>
	</g>
	<g>
		<g>
			<path class="st0" d="M841.9,151.7l28.7,10.8c2.2,0.8,5,0.2,6-1.3l5.9-9.2l-42.4-3.9l0,0C839.2,149.4,840,150.9,841.9,151.7z"/>
			<path class="st1" d="M844.5,141.2l-4.4,6.8l42.4,3.9l1.6-2.5l1.9-2.9c1.1-1.7-0.6-3.7-3.5-4l-33.3-3.1
				C847.2,139.3,845.2,140,844.5,141.2z"/>
		</g>
		<path class="st0" d="M879.3,146.2l-26.3-2.6c-0.6-0.1-1-0.4-0.9-0.8l0.1-0.3c0.1-0.4,0.6-0.6,1.2-0.6l26.3,2.6
			c0.6,0.1,1,0.4,0.9,0.8l-0.1,0.3C880.4,146,879.9,146.3,879.3,146.2z"/>
		<path class="st0" d="M875.7,149.2l-26.3-2.6c-0.6-0.1-1-0.4-0.9-0.8l0.1-0.3c0.1-0.4,0.6-0.6,1.2-0.6l26.3,2.6
			c0.6,0.1,1,0.4,0.9,0.8l-0.1,0.3C876.8,149,876.3,149.2,875.7,149.2z"/>
	</g>
</g>
<g id="Bacon">
</g>
<g id="Sausage">
</g>
<g id="Crust">
</g>
</svg>
