<?xml version="1.0" encoding="utf-8"?>
<!-- Generator: Adobe Illustrator 21.0.0, SVG Export Plug-In . SVG Version: 6.00 Build 0)  -->
<!DOCTYPE svg PUBLIC "-//W3C//DTD SVG 1.1//EN" "http://www.w3.org/Graphics/SVG/1.1/DTD/svg11.dtd">
<svg version="1.1" xmlns="http://www.w3.org/2000/svg" xmlns:xlink="http://www.w3.org/1999/xlink" x="0px" y="0px"
	 viewBox="0 0 1131.4 775.6" style="enable-background:new 0 0 1131.4 775.6;" xml:space="preserve">
<style type="text/css">
	.st0{fill:#F1634D;}
	.st1{fill:#E8AB98;}
</style>
<g id="Background">
</g>
<g id="Cheese">
</g>
<g id="Pepperoni">
</g>
<g id="Peppers">
</g>
<g id="Mushrooms">
</g>
<g id="Ham">
</g>
<g id="Pineapple">
</g>
<g id="Bacon">
	<g>
		<path class="st0" d="M897.3,407.4c14.3-0.5,27,1.9,38.3,6.8l2.6-6c0.4-1-0.2-2.1-1.6-2.6c-10.7-4.2-22.6-6.2-36-5.8
			c-12.7,0.2-24.5-1.8-35.5-5.5c-2.1-0.7-4.6,0-5.3,1.4l-2,4.8C870,405.1,883.1,407.6,897.3,407.4z"/>
		<path class="st0" d="M892.3,419.1c12.6-0.4,24,1.4,34.3,5.2c2.1,0.8,4.7,0.1,5.3-1.4l0,0c-11.3-4.9-24-7.2-38.3-6.8
			c-14.2,0.2-27.3-2.3-39.6-7l-0.5,1.3c-0.4,1.1,0.3,2.2,1.8,2.7C866.8,417.2,879.1,419.3,892.3,419.1z"/>
		<path class="st1" d="M893.6,416.1c14.3-0.5,27,1.9,38.3,6.8l2.4-5.7l0.9-2l0.4-1c-11.3-4.9-24-7.2-38.3-6.8
			c-14.2,0.2-27.3-2.3-39.6-7l-0.4,1l-0.9,2l-2.4,5.7C866.3,413.8,879.4,416.3,893.6,416.1z"/>
	</g>
	<g>
		<path class="st0" d="M518.6,430.4c14.3-0.5,27,1.9,38.3,6.8l2.6-6c0.4-1-0.2-2.1-1.6-2.6c-10.7-4.2-22.6-6.2-36-5.8
			c-12.7,0.2-24.5-1.8-35.5-5.5c-2.1-0.7-4.6,0-5.3,1.4l-2,4.8C491.3,428.1,504.4,430.6,518.6,430.4z"/>
		<path class="st0" d="M513.6,442.1c12.6-0.4,24,1.4,34.3,5.2c2.1,0.8,4.7,0.1,5.3-1.4l0,0c-11.3-4.9-24-7.2-38.3-6.8
			c-14.2,0.2-27.3-2.3-39.6-7l-0.5,1.3c-0.4,1.1,0.3,2.2,1.8,2.7C488.1,440.1,500.4,442.3,513.6,442.1z"/>
		<path class="st1" d="M514.9,439.1c14.3-0.5,27,1.9,38.3,6.8l2.4-5.7l0.9-2l0.4-1c-11.3-4.9-24-7.2-38.3-6.8
			c-14.2,0.2-27.3-2.3-39.6-7l-0.4,1l-0.9,2l-2.4,5.7C487.6,436.8,500.7,439.3,514.9,439.1z"/>
	</g>
	<g>
		<path class="st0" d="M276,455.6c14.3-0.5,27,1.9,38.3,6.8l2.6-6c0.4-1-0.2-2.1-1.6-2.6c-10.7-4.2-22.6-6.2-36-5.8
			c-12.7,0.2-24.5-1.8-35.5-5.5c-2.1-0.7-4.6,0-5.3,1.4l-2,4.8C248.7,453.3,261.8,455.8,276,455.6z"/>
		<path class="st0" d="M271,467.3c12.6-0.4,24,1.4,34.3,5.2c2.1,0.8,4.7,0.1,5.3-1.4l0,0c-11.3-4.9-24-7.2-38.3-6.8
			c-14.2,0.2-27.3-2.3-39.6-7l-0.5,1.3c-0.4,1.1,0.3,2.2,1.8,2.7C245.5,465.3,257.7,467.5,271,467.3z"/>
		<path class="st1" d="M272.3,464.3c14.3-0.5,27,1.9,38.3,6.8l2.4-5.7l0.9-2l0.4-1c-11.3-4.9-24-7.2-38.3-6.8
			c-14.2,0.2-27.3-2.3-39.6-7l-0.4,1l-0.9,2l-2.4,5.7C244.9,462,258.1,464.5,272.3,464.3z"/>
	</g>
	<g>
		<path class="st0" d="M1065.6,450.1c14.3-0.5,27,1.9,38.3,6.8l2.6-6c0.4-1-0.2-2.1-1.6-2.6c-10.7-4.2-22.6-6.2-36-5.8
			c-12.7,0.2-24.5-1.8-35.5-5.5c-2.1-0.7-4.6,0-5.3,1.4l-2,4.8C1038.3,447.8,1051.4,450.3,1065.6,450.1z"/>
		<path class="st0" d="M1060.6,461.8c12.6-0.4,24,1.4,34.3,5.2c2.1,0.8,4.7,0.1,5.3-1.4l0,0c-11.3-4.9-24-7.2-38.3-6.8
			c-14.2,0.2-27.3-2.3-39.6-7l-0.5,1.3c-0.4,1.1,0.3,2.2,1.8,2.7C1035.1,459.8,1047.4,462,1060.6,461.8z"/>
		<path class="st1" d="M1061.9,458.8c14.3-0.5,27,1.9,38.3,6.8l2.4-5.7l0.9-2l0.4-1c-11.3-4.9-24-7.2-38.3-6.8
			c-14.2,0.2-27.3-2.3-39.6-7l-0.4,1l-0.9,2l-2.4,5.7C1034.6,456.5,1047.7,459,1061.9,458.8z"/>
	</g>
	<g>
		<path class="st0" d="M636.8,494.7c-10.6-6.2-16.9-13.7-19.5-22.3l-8.4,3.1c-1.4,0.5-2.1,1.6-1.8,2.6c2.9,7.9,9.1,14.8,18.9,20.6
			c9.1,5.7,15.3,12.4,18.9,20.2c0.7,1.5,3.3,2.1,5.3,1.4l6.7-2.4C653.5,508.8,647,501,636.8,494.7z"/>
		<path class="st0" d="M653.2,488.7c-9.3-5.5-15.4-12-18.4-19.3c-0.6-1.5-3.2-2.2-5.3-1.4l0,0c2.6,8.6,8.9,16.1,19.5,22.3
			c10.3,6.3,16.7,14.1,20.2,23l1.8-0.6c1.5-0.5,2.2-1.7,1.7-2.7C669,501.8,662.8,494.6,653.2,488.7z"/>
		<path class="st1" d="M649,490.2c-10.6-6.2-16.9-13.7-19.5-22.3l-7.9,2.9l-2.8,1l-1.4,0.5c2.6,8.6,8.9,16.1,19.5,22.3
			c10.3,6.3,16.7,14.1,20.2,23l1.4-0.5l2.8-1l7.9-2.9C665.7,504.4,659.2,496.6,649,490.2z"/>
	</g>
	<g>
		<path class="st0" d="M176.8,536.8c-10.6-6.2-16.9-13.7-19.5-22.3l-8.4,3.1c-1.4,0.5-2.1,1.6-1.8,2.6c2.9,7.9,9.1,14.8,18.9,20.6
			c9.1,5.7,15.3,12.4,18.9,20.2c0.7,1.5,3.3,2.1,5.3,1.4l6.7-2.4C193.5,550.9,187.1,543.1,176.8,536.8z"/>
		<path class="st0" d="M193.3,530.8c-9.3-5.5-15.4-12-18.4-19.3c-0.6-1.5-3.2-2.2-5.3-1.4l0,0c2.6,8.6,8.9,16.1,19.5,22.3
			c10.3,6.3,16.7,14.1,20.2,23l1.8-0.6c1.5-0.5,2.2-1.7,1.7-2.7C209.1,543.9,202.8,536.7,193.3,530.8z"/>
		<path class="st1" d="M189,532.4c-10.6-6.2-16.9-13.7-19.5-22.3l-7.9,2.9l-2.8,1l-1.4,0.5c2.6,8.6,8.9,16.1,19.5,22.3
			c10.3,6.3,16.7,14.1,20.2,23l1.4-0.5l2.8-1l7.9-2.9C205.7,546.5,199.3,538.7,189,532.4z"/>
	</g>
	<g>
		<path class="st0" d="M679.5,590.4c-13.6,2.9-26.8,2.8-39.7,0v6.2c0,1.1,1.1,2,2.7,2.3c12,2.2,24.4,2.2,37.1-0.5
			c12.1-2.4,24.3-2.5,36.6-0.7c2.3,0.3,4.5-0.8,4.5-2.3v-5C706.8,588,693.1,587.8,679.5,590.4z"/>
		<path class="st0" d="M679.5,578.3c-12,2.6-23.7,2.8-35.2,0.9c-2.3-0.4-4.5,0.7-4.5,2.3l0,0c12.9,2.8,26.1,2.9,39.7,0
			c13.6-2.6,27.3-2.5,41,0v-1.3c0-1.1-1.2-2-2.8-2.3C704.9,575.8,692.2,575.8,679.5,578.3z"/>
		<path class="st1" d="M679.5,581.4c-13.6,2.9-26.8,2.8-39.7,0v5.9v2.1v1c12.9,2.8,26.1,2.9,39.7,0c13.6-2.6,27.3-2.5,41,0v-1v-2.1
			v-5.9C706.8,579,693.1,578.8,679.5,581.4z"/>
	</g>
	<g>
		<path class="st0" d="M875,608c-3.9-13.4-4.8-26.5-3.1-39.6l-6.2,0.5c-1.1,0.1-1.9,1.2-2.1,2.8c-1.3,12.2-0.3,24.5,3.4,36.9
			c3.3,11.9,4.3,24,3.5,36.4c-0.1,2.3,1.1,4.4,2.6,4.3l5-0.4C879.6,635,878.7,621.3,875,608z"/>
		<path class="st0" d="M887.1,607c-3.5-11.8-4.6-23.4-3.6-35c0.2-2.3-1.1-4.5-2.6-4.4l0,0c-1.8,13.1-0.9,26.2,3.1,39.6
			c3.7,13.4,4.6,27,3.2,40.9l1.3-0.1c1.1-0.1,1.9-1.3,2.1-3C891.6,632.2,890.6,619.5,887.1,607z"/>
		<path class="st1" d="M884,607.3c-3.9-13.4-4.8-26.5-3.1-39.6l-5.9,0.5l-2.1,0.2l-1,0.1c-1.8,13.1-0.9,26.2,3.1,39.6
			c3.7,13.4,4.6,27,3.2,40.9l1-0.1l2.1-0.2l5.9-0.5C888.6,634.3,887.7,620.6,884,607.3z"/>
	</g>
	<g>
		<path class="st0" d="M438.2,689.8c-13.6,2.9-26.8,2.8-39.7,0v6.2c0,1.1,1.1,2,2.7,2.3c12,2.2,24.4,2.2,37.1-0.5
			c12.1-2.4,24.3-2.5,36.6-0.7c2.3,0.3,4.5-0.8,4.5-2.3v-5C465.5,687.3,451.8,687.2,438.2,689.8z"/>
		<path class="st0" d="M438.2,677.6c-12,2.6-23.7,2.8-35.2,0.9c-2.3-0.4-4.5,0.7-4.5,2.3l0,0c12.9,2.8,26.1,2.9,39.7,0
			c13.6-2.6,27.3-2.5,41,0v-1.3c0-1.1-1.2-2-2.8-2.3C463.6,675.2,450.8,675.2,438.2,677.6z"/>
		<path class="st1" d="M438.2,680.8c-13.6,2.9-26.8,2.8-39.7,0v5.9v2.1v1c12.9,2.8,26.1,2.9,39.7,0c13.6-2.6,27.3-2.5,41,0v-1v-2.1
			v-5.9C465.5,678.3,451.8,678.1,438.2,680.8z"/>
	</g>
	<g>
		<path class="st0" d="M533.1,206c-13.6,2.9-26.8,2.8-39.7,0v6.2c0,1.1,1.1,2,2.7,2.3c12,2.2,24.4,2.2,37.1-0.5
			c12.1-2.4,24.3-2.5,36.6-0.7c2.3,0.3,4.5-0.8,4.5-2.3v-5C560.3,203.5,546.7,203.3,533.1,206z"/>
		<path class="st0" d="M533.1,193.8c-12,2.6-23.7,2.8-35.2,0.9c-2.3-0.4-4.5,0.7-4.5,2.3l0,0c12.9,2.8,26.1,2.9,39.7,0
			c13.6-2.6,27.3-2.5,41,0v-1.3c0-1.1-1.2-2-2.8-2.3C558.5,191.3,545.7,191.3,533.1,193.8z"/>
		<path class="st1" d="M533.1,196.9c-13.6,2.9-26.8,2.8-39.7,0v5.9v2.1v1c12.9,2.8,26.1,2.9,39.7,0c13.6-2.6,27.3-2.5,41,0v-1v-2.1
			v-5.9C560.3,194.5,546.7,194.3,533.1,196.9z"/>
	</g>
	<g>
		<path class="st0" d="M277.9,559.5c-8.7,7.3-19.7,12.1-32.8,14.5l5.5,5.1c0.9,0.9,2.6,1.2,4.2,0.9c11.9-2.5,22-7.1,30.1-13.9
			c7.9-6.4,17.9-10.9,29.5-13.9c2.2-0.6,3-2.3,1.7-3.5l-4.4-4.1C298.3,547.5,286.8,552.3,277.9,559.5z"/>
		<path class="st0" d="M267.2,549.4c-7.7,6.5-17.2,10.9-28.3,13.5c-2.2,0.5-3.1,2.3-1.7,3.5l0,0c13-2.4,24.1-7.1,32.8-14.5
			c8.9-7.1,20.4-12,33.9-15l-1.2-1.1c-1-0.9-2.8-1.3-4.3-0.9C286,538.1,275.5,542.8,267.2,549.4z"/>
		<path class="st1" d="M270,552c-8.7,7.3-19.7,12.1-32.8,14.5l5.2,4.9l1.8,1.7l0.9,0.9c13-2.4,24.1-7.1,32.8-14.5
			c8.9-7.1,20.4-12,33.9-15l-0.9-0.9l-1.8-1.7l-5.2-4.9C290.4,540.1,278.9,544.9,270,552z"/>
	</g>
	<g>
		<path class="st0" d="M802,126.4c-8.7,7.3-19.7,12.1-32.8,14.5l5.5,5.1c0.9,0.9,2.6,1.2,4.2,0.9c11.9-2.5,22-7.1,30.1-13.9
			c7.9-6.4,17.9-10.9,29.5-13.9c2.2-0.6,3-2.3,1.7-3.5l-4.4-4.1C822.3,114.4,810.9,119.3,802,126.4z"/>
		<path class="st0" d="M791.3,116.4c-7.7,6.5-17.2,10.9-28.3,13.5c-2.2,0.5-3.1,2.3-1.7,3.5l0,0c13-2.4,24.1-7.1,32.8-14.5
			c8.9-7.1,20.4-12,33.9-15l-1.2-1.1c-1-0.9-2.8-1.3-4.3-0.9C810.1,105.1,799.6,109.7,791.3,116.4z"/>
		<path class="st1" d="M794.1,119c-8.7,7.3-19.7,12.1-32.8,14.5l5.2,4.9l1.8,1.7l0.9,0.9c13-2.4,24.1-7.1,32.8-14.5
			c8.9-7.1,20.4-12,33.9-15l-0.9-0.9l-1.8-1.7l-5.2-4.9C814.4,107,803,111.8,794.1,119z"/>
	</g>
	<g>
		<path class="st0" d="M590.4,103.5c-8.7,7.3-19.7,12.1-32.8,14.5l5.5,5.1c0.9,0.9,2.6,1.2,4.2,0.9c11.9-2.5,22-7.1,30.1-13.9
			c7.9-6.4,17.9-10.9,29.5-13.9c2.2-0.6,3-2.3,1.7-3.5l-4.4-4.1C610.7,91.6,599.3,96.4,590.4,103.5z"/>
		<path class="st0" d="M579.7,93.5c-7.7,6.5-17.2,10.9-28.3,13.5c-2.2,0.5-3.1,2.3-1.7,3.5l0,0c13-2.4,24.1-7.1,32.8-14.5
			c8.9-7.1,20.4-12,33.9-15l-1.2-1.1c-1-0.9-2.8-1.3-4.3-0.9C598.5,82.2,588,86.9,579.7,93.5z"/>
		<path class="st1" d="M582.4,96.1c-8.7,7.3-19.7,12.1-32.8,14.5l5.2,4.9l1.8,1.7l0.9,0.9c13-2.4,24.1-7.1,32.8-14.5
			c8.9-7.1,20.4-12,33.9-15l-0.9-0.9l-1.8-1.7l-5.2-4.9C602.8,84.1,591.4,89,582.4,96.1z"/>
	</g>
	<g>
		<path class="st0" d="M303.3,652.4c-8.7,7.3-19.7,12.1-32.8,14.5l5.5,5.1c0.9,0.9,2.6,1.2,4.2,0.9c11.9-2.5,22-7.1,30.1-13.9
			c7.9-6.4,17.9-10.9,29.5-13.9c2.2-0.6,3-2.3,1.7-3.5l-4.4-4.1C323.6,640.4,312.2,645.3,303.3,652.4z"/>
		<path class="st0" d="M292.6,642.4c-7.7,6.5-17.2,10.9-28.3,13.5c-2.2,0.5-3.1,2.3-1.7,3.5l0,0c13-2.4,24.1-7.1,32.8-14.5
			c8.9-7.1,20.4-12,33.9-15l-1.2-1.1c-1-0.9-2.8-1.3-4.3-0.9C311.4,631.1,300.9,635.7,292.6,642.4z"/>
		<path class="st1" d="M295.4,645c-8.7,7.3-19.7,12.1-32.8,14.5l5.2,4.9l1.8,1.7l0.9,0.9c13-2.4,24.1-7.1,32.8-14.5
			c8.9-7.1,20.4-12,33.9-15l-0.9-0.9l-1.8-1.7l-5.2-4.9C315.7,633,304.3,637.8,295.4,645z"/>
	</g>
	<g>
		<path class="st0" d="M1025.3,347.2c-8.7,7.3-19.7,12.1-32.8,14.5l5.5,5.1c0.9,0.9,2.6,1.2,4.2,0.9c11.9-2.5,22-7.1,30.1-13.9
			c7.9-6.4,17.9-10.9,29.5-13.9c2.2-0.6,3-2.3,1.7-3.5l-4.4-4.1C1045.6,335.2,1034.2,340.1,1025.3,347.2z"/>
		<path class="st0" d="M1014.6,337.2c-7.7,6.5-17.2,10.9-28.3,13.5c-2.2,0.5-3.1,2.3-1.7,3.5l0,0c13-2.4,24.1-7.1,32.8-14.5
			c8.9-7.1,20.4-12,33.9-15l-1.2-1.1c-1-0.9-2.8-1.3-4.3-0.9C1033.4,325.9,1022.9,330.5,1014.6,337.2z"/>
		<path class="st1" d="M1017.4,339.7c-8.7,7.3-19.7,12.1-32.8,14.5l5.2,4.9l1.8,1.7l0.9,0.9c13-2.4,24.1-7.1,32.8-14.5
			c8.9-7.1,20.4-12,33.9-15l-0.9-0.9l-1.8-1.7l-5.2-4.9C1037.7,327.8,1026.3,332.6,1017.4,339.7z"/>
	</g>
	<g>
		<path class="st0" d="M106.7,367.4c-8.7,7.3-19.7,12.1-32.8,14.5l5.5,5.1c0.9,0.9,2.6,1.2,4.2,0.9c11.9-2.5,22-7.1,30.1-13.9
			c7.9-6.4,17.9-10.9,29.5-13.9c2.2-0.6,3-2.3,1.7-3.5l-4.4-4.1C127,355.4,115.6,360.3,106.7,367.4z"/>
		<path class="st0" d="M96,357.4c-7.7,6.5-17.2,10.9-28.3,13.5c-2.2,0.5-3.1,2.3-1.7,3.5l0,0c13-2.4,24.1-7.1,32.8-14.5
			c8.9-7.1,20.4-12,33.9-15l-1.2-1.1c-1-0.9-2.8-1.3-4.3-0.9C114.8,346.1,104.3,350.7,96,357.4z"/>
		<path class="st1" d="M98.8,360C90.1,367.3,79,372,66,374.4l5.2,4.9L73,381l0.9,0.9c13-2.4,24.1-7.1,32.8-14.5
			c8.9-7.1,20.4-12,33.9-15l-0.9-0.9l-1.8-1.7l-5.2-4.9C119.1,348,107.7,352.8,98.8,360z"/>
	</g>
	<g>
		<path class="st0" d="M474.7,538.2c-7.9-7.7-11.2-16-10.5-24.7l-9.3,1.6c-1.6,0.3-2.7,1.2-2.7,2.2c-0.2,8.1,3.2,15.7,10.6,22.9
			c6.7,6.9,10.1,14.5,10.7,22.5c0.1,1.5,2.3,2.6,4.6,2.2l7.4-1.3C485.6,554.5,482.3,545.9,474.7,538.2z"/>
		<path class="st0" d="M493,535c-7-6.8-10.4-14-10.5-21.6c0-1.5-2.3-2.6-4.6-2.2l0,0c-0.7,8.7,2.5,17,10.5,24.7
			c7.5,7.8,10.9,16.3,10.8,25.5l2-0.3c1.6-0.3,2.7-1.3,2.7-2.4C503.3,550.1,500,542.2,493,535z"/>
		<path class="st1" d="M488.2,535.8c-7.9-7.7-11.2-16-10.5-24.7l-8.8,1.5l-3.1,0.6l-1.6,0.3c-0.7,8.7,2.5,17,10.5,24.7
			c7.5,7.8,10.9,16.3,10.8,25.5l1.6-0.3l3.1-0.6l8.8-1.5C499.1,552.1,495.8,543.6,488.2,535.8z"/>
	</g>
	<g>
		<path class="st0" d="M93.1,446.8c-12.4-4.7-20.9-11.2-26.2-19.2l-7.3,4.1c-1.2,0.7-1.6,1.8-0.9,2.8c5.3,7.3,13.6,13.2,25.1,17.6
			c10.7,4.3,18.9,10.2,25,17.2c1.1,1.3,3.9,1.7,5.6,0.7l5.8-3.3C114,458.4,105.1,451.7,93.1,446.8z"/>
		<path class="st0" d="M107.3,438.8c-10.9-4.1-18.9-9.7-24.2-16.5c-1.1-1.4-3.9-1.7-5.7-0.7l0,0c5.3,8.1,13.9,14.6,26.2,19.2
			c12.1,4.8,20.9,11.6,27.1,19.9l1.5-0.9c1.3-0.7,1.6-1.9,0.8-2.9C126.9,449.5,118.5,443.3,107.3,438.8z"/>
		<path class="st1" d="M103.6,440.9c-12.4-4.7-20.9-11.2-26.2-19.2l-6.9,3.9l-2.4,1.4l-1.2,0.7c5.3,8.1,13.9,14.6,26.2,19.2
			c12.1,4.8,20.9,11.6,27.1,19.9l1.2-0.7l2.4-1.4l6.9-3.9C124.5,452.5,115.7,445.7,103.6,440.9z"/>
	</g>
	<g>
		<path class="st0" d="M675.2,167.8c-5.8-8.4-7-16.9-4-25.5l-9.6,0.6c-1.6,0.1-2.9,0.9-3.2,1.9c-2.2,7.9-0.9,15.9,4.6,23.7
			c4.9,7.5,6.3,15.3,4.8,23.4c-0.3,1.5,1.7,2.8,4,2.6l7.7-0.5C681.8,185.1,680.7,176.3,675.2,167.8z"/>
		<path class="st0" d="M694,166.6c-5.2-7.5-6.7-14.9-4.9-22.5c0.4-1.5-1.6-2.8-4-2.7l0,0c-3,8.5-1.8,17,4,25.5
			c5.5,8.5,6.5,17.3,4.2,26.3l2-0.1c1.7-0.1,3-1,3.3-2C700.4,182.6,699.1,174.4,694,166.6z"/>
		<path class="st1" d="M689.1,166.9c-5.8-8.4-7-16.9-4-25.5L676,142l-3.2,0.2l-1.6,0.1c-3,8.5-1.8,17,4,25.5
			c5.5,8.5,6.5,17.3,4.2,26.3l1.6-0.1l3.2-0.2l9.1-0.6C695.7,184.1,694.6,175.3,689.1,166.9z"/>
	</g>
	<g>
		<path class="st0" d="M450.4,117.3c-14.3,0.4-27-2.1-38.2-7l-2.6,6c-0.4,1,0.2,2.1,1.6,2.7c10.6,4.3,22.5,6.4,35.9,6
			c12.7-0.1,24.4,1.9,35.5,5.7c2.1,0.7,4.6,0,5.3-1.4l2.1-4.8C477.7,119.7,464.6,117.1,450.4,117.3z"/>
		<path class="st0" d="M455.5,105.6c-12.6,0.3-24-1.5-34.2-5.3c-2.1-0.8-4.7-0.1-5.3,1.4v0c11.2,4.9,23.9,7.4,38.2,7
			c14.2-0.2,27.3,2.4,39.5,7.2l0.6-1.3c0.5-1.1-0.3-2.2-1.7-2.7C481,107.6,468.8,105.4,455.5,105.6z"/>
		<path class="st1" d="M454.2,108.6c-14.3,0.4-27-2.1-38.2-7l-2.5,5.7l-0.9,2l-0.4,1c11.2,4.9,23.9,7.4,38.2,7
			c14.2-0.2,27.3,2.4,39.5,7.2l0.4-1l0.9-2l2.5-5.7C481.5,111,468.4,108.4,454.2,108.6z"/>
	</g>
	<g>
		<path class="st0" d="M367.9,219.2c11.7-5.4,24.3-7.8,37.9-7.6l-2.9-6c-0.5-1-2-1.7-3.6-1.7c-12.5,0.2-24.3,2.6-35.1,7.6
			c-10.5,4.6-22.1,7-34.6,7.7c-2.3,0.1-3.9,1.6-3.2,3.1l2.3,4.7C343,226.8,356.1,224.4,367.9,219.2z"/>
		<path class="st0" d="M373.5,230.8c10.3-4.7,21.4-7.2,33.2-7.6c2.4-0.1,4-1.6,3.3-3l0,0c-13.6-0.2-26.2,2.3-37.9,7.6
			c-11.8,5.1-24.9,7.6-39.2,7.9l0.6,1.3c0.5,1,2.1,1.7,3.8,1.7C350.4,238.1,362.5,235.6,373.5,230.8z"/>
		<path class="st1" d="M372,227.8c11.7-5.4,24.3-7.8,37.9-7.6l-2.7-5.6l-1-2l-0.5-1c-13.6-0.2-26.2,2.3-37.9,7.6
			c-11.8,5.1-24.9,7.6-39.2,7.9l0.5,1l1,2l2.7,5.6C347.1,235.4,360.3,233,372,227.8z"/>
	</g>
	<g>
		<path class="st0" d="M557.3,635.4c11.7-5.4,24.3-7.8,37.9-7.6l-2.9-6c-0.5-1-2-1.7-3.6-1.7c-12.5,0.2-24.3,2.6-35.1,7.6
			c-10.5,4.6-22.1,7-34.6,7.7c-2.3,0.1-3.9,1.6-3.2,3.1l2.3,4.7C532.4,643,545.5,640.5,557.3,635.4z"/>
		<path class="st0" d="M562.9,647c10.3-4.7,21.4-7.2,33.2-7.6c2.4-0.1,4-1.6,3.3-3l0,0c-13.6-0.2-26.2,2.3-37.9,7.6
			c-11.8,5.1-24.9,7.6-39.2,7.9l0.6,1.3c0.5,1,2.1,1.7,3.8,1.7C539.8,654.2,552,651.8,562.9,647z"/>
		<path class="st1" d="M561.5,644c11.7-5.4,24.3-7.8,37.9-7.6l-2.7-5.6l-1-2l-0.5-1c-13.6-0.2-26.2,2.3-37.9,7.6
			c-11.8,5.1-24.9,7.6-39.2,7.9l0.5,1l1,2l2.7,5.6C536.6,651.6,549.7,649.1,561.5,644z"/>
	</g>
	<g>
		<path class="st0" d="M292.4,293c-7.5,7.9-17.8,13.2-30.4,16.5l6.2,4.8c1.1,0.8,2.8,1.1,4.3,0.6c11.4-3.3,20.8-8.4,27.9-15.8
			c6.9-6.8,16.2-12,27.3-15.7c2.1-0.7,2.7-2.5,1.1-3.6l-5-3.8C310.8,279.9,300.2,285.4,292.4,293z"/>
		<path class="st0" d="M280.2,283.7c-6.7,6.9-15.4,11.9-26.1,15.2c-2.1,0.7-2.7,2.5-1.2,3.6v0c12.6-3.2,22.9-8.6,30.4-16.5
			c7.8-7.7,18.5-13.2,31.4-17l-1.3-1c-1.1-0.8-2.9-1.1-4.5-0.6C297.3,271.3,287.5,276.6,280.2,283.7z"/>
		<path class="st1" d="M283.4,286.1c-7.5,7.9-17.8,13.2-30.4,16.5l5.9,4.5l2.1,1.6l1,0.8c12.6-3.2,22.9-8.6,30.4-16.5
			c7.8-7.7,18.5-13.2,31.4-17l-1-0.8l-2.1-1.6l-5.9-4.5C301.8,272.9,291.2,278.5,283.4,286.1z"/>
	</g>
	<g>
		<path class="st0" d="M793.1,481.3c-7.5,7.9-17.8,13.2-30.4,16.5l6.2,4.8c1.1,0.8,2.8,1.1,4.3,0.6c11.4-3.3,20.8-8.4,27.9-15.8
			c6.9-6.8,16.2-12,27.3-15.7c2.1-0.7,2.7-2.5,1.1-3.6l-5-3.8C811.6,468.1,800.9,473.7,793.1,481.3z"/>
		<path class="st0" d="M781,472c-6.7,6.9-15.4,11.9-26.1,15.2c-2.1,0.7-2.7,2.5-1.2,3.6l0,0c12.6-3.2,22.9-8.6,30.4-16.5
			c7.8-7.7,18.5-13.2,31.4-17l-1.3-1c-1.1-0.8-2.9-1.1-4.5-0.6C798,459.6,788.3,464.9,781,472z"/>
		<path class="st1" d="M784.1,474.4c-7.5,7.9-17.8,13.2-30.4,16.5l5.9,4.5l2.1,1.6l1,0.8c12.6-3.2,22.9-8.6,30.4-16.5
			c7.8-7.7,18.5-13.2,31.4-17l-1-0.8l-2.1-1.6l-5.9-4.5C802.6,461.2,791.9,466.7,784.1,474.4z"/>
	</g>
	<g>
		<path class="st0" d="M334.8,386.8c-13.6,2.9-26.8,2.8-39.7,0v6.2c0,1.1,1.1,2,2.7,2.3c12,2.2,24.4,2.2,37.1-0.5
			c12.1-2.4,24.3-2.5,36.6-0.7c2.3,0.3,4.5-0.8,4.5-2.3v-5C362.1,384.3,348.4,384.2,334.8,386.8z"/>
		<path class="st0" d="M334.8,374.6c-12,2.6-23.7,2.8-35.2,0.9c-2.3-0.4-4.5,0.7-4.5,2.3l0,0c12.9,2.8,26.1,2.9,39.7,0
			c13.6-2.6,27.3-2.5,41,0v-1.3c0-1.1-1.2-2-2.8-2.3C360.2,372.2,347.5,372.2,334.8,374.6z"/>
		<path class="st1" d="M334.8,377.8c-13.6,2.9-26.8,2.8-39.7,0v5.9v2.1v1c12.9,2.8,26.1,2.9,39.7,0c13.6-2.6,27.3-2.5,41,0v-1v-2.1
			v-5.9C362.1,375.3,348.4,375.1,334.8,377.8z"/>
	</g>
	<g>
		<path class="st0" d="M556.8,359.3c-13.6,2.9-26.8,2.8-39.7,0v6.2c0,1.1,1.1,2,2.7,2.3c12,2.2,24.4,2.2,37.1-0.5
			c12.1-2.4,24.3-2.5,36.6-0.7c2.3,0.3,4.5-0.8,4.5-2.3v-5C584.1,356.9,570.4,356.7,556.8,359.3z"/>
		<path class="st0" d="M556.8,347.2c-12,2.6-23.7,2.8-35.2,0.9c-2.3-0.4-4.5,0.7-4.5,2.3l0,0c12.9,2.8,26.1,2.9,39.7,0
			c13.6-2.6,27.3-2.5,41,0V349c0-1.1-1.2-2-2.8-2.3C582.2,344.7,569.5,344.7,556.8,347.2z"/>
		<path class="st1" d="M556.8,350.3c-13.6,2.9-26.8,2.8-39.7,0v5.9v2.1v1c12.9,2.8,26.1,2.9,39.7,0c13.6-2.6,27.3-2.5,41,0v-1v-2.1
			v-5.9C584.1,347.9,570.4,347.7,556.8,350.3z"/>
	</g>
	<g>
		<path class="st0" d="M668.9,280.5c-13.6,2.9-26.8,2.8-39.7,0v6.2c0,1.1,1.1,2,2.7,2.3c12,2.2,24.4,2.2,37.1-0.5
			c12.1-2.4,24.3-2.5,36.6-0.7c2.3,0.3,4.5-0.8,4.5-2.3v-5C696.2,278,682.5,277.8,668.9,280.5z"/>
		<path class="st0" d="M668.9,268.3c-12,2.6-23.7,2.8-35.2,0.9c-2.3-0.4-4.5,0.7-4.5,2.3l0,0c12.9,2.8,26.1,2.9,39.7,0
			c13.6-2.6,27.3-2.5,41,0v-1.3c0-1.1-1.2-2-2.8-2.3C694.3,265.8,681.6,265.8,668.9,268.3z"/>
		<path class="st1" d="M668.9,271.4c-13.6,2.9-26.8,2.8-39.7,0v5.9v2.1v1c12.9,2.8,26.1,2.9,39.7,0c13.6-2.6,27.3-2.5,41,0v-1v-2.1
			v-5.9C696.2,269,682.5,268.8,668.9,271.4z"/>
	</g>
	<g>
		<path class="st0" d="M126.1,271.8c-9.4-10.3-16-21.7-20.2-34.2l-5.4,3.2c-0.9,0.5-1.2,1.9-0.6,3.4c4.2,11.5,10.5,22.1,19.3,31.6
			c8.2,9.2,14.5,19.7,19.2,31.1c0.9,2.1,3,3.5,4.3,2.7l4.3-2.5C142.1,294,135.3,282.2,126.1,271.8z"/>
		<path class="st0" d="M136.6,265.6c-8.3-9-14.4-19-18.6-29.8c-0.8-2.2-3-3.5-4.3-2.8l0,0c4.2,12.5,10.8,23.9,20.2,34.2
			c9.2,10.4,16,22.2,20.9,35.3l1.1-0.7c0.9-0.6,1.2-2,0.5-3.6C151.7,286.2,145.2,275.3,136.6,265.6z"/>
		<path class="st1" d="M133.9,267.2c-9.4-10.3-16-21.7-20.2-34.2l-5.1,3l-1.8,1.1l-0.9,0.5c4.2,12.5,10.8,23.9,20.2,34.2
			c9.2,10.4,16,22.2,20.9,35.3l0.9-0.5l1.8-1.1l5.1-3C149.9,289.5,143.1,277.6,133.9,267.2z"/>
	</g>
	<g>
		<path class="st0" d="M747,649.7c-9.4-10.3-16-21.7-20.2-34.2l-5.4,3.2c-0.9,0.5-1.2,1.9-0.6,3.4c4.2,11.5,10.5,22.1,19.3,31.6
			c8.2,9.2,14.5,19.7,19.2,31.1c0.9,2.1,3,3.5,4.3,2.7l4.3-2.5C763,672,756.2,660.1,747,649.7z"/>
		<path class="st0" d="M757.5,643.6c-8.3-9-14.4-19-18.6-29.8c-0.8-2.2-3-3.5-4.3-2.8l0,0c4.2,12.5,10.8,23.9,20.2,34.2
			c9.2,10.4,16,22.2,20.9,35.3l1.1-0.7c0.9-0.6,1.2-2,0.5-3.6C772.5,664.2,766,653.2,757.5,643.6z"/>
		<path class="st1" d="M754.8,645.2c-9.4-10.3-16-21.7-20.2-34.2l-5.1,3l-1.8,1.1l-0.9,0.5c4.2,12.5,10.8,23.9,20.2,34.2
			c9.2,10.4,16,22.2,20.9,35.3l0.9-0.5l1.8-1.1l5.1-3C770.8,667.4,764,655.5,754.8,645.2z"/>
	</g>
	<g>
		<path class="st0" d="M689.3,394.3c-9.4-10.3-16-21.7-20.2-34.2l-5.4,3.2c-0.9,0.5-1.2,1.9-0.6,3.4c4.2,11.5,10.5,22.1,19.3,31.6
			c8.2,9.2,14.5,19.7,19.2,31.1c0.9,2.1,3,3.5,4.3,2.7l4.3-2.5C705.3,416.6,698.5,404.7,689.3,394.3z"/>
		<path class="st0" d="M699.8,388.1c-8.3-9-14.4-19-18.6-29.8c-0.8-2.2-3-3.5-4.3-2.8h0c4.2,12.5,10.8,23.9,20.2,34.2
			c9.2,10.4,16,22.2,20.9,35.3l1.1-0.7c0.9-0.6,1.2-2,0.5-3.6C714.9,408.8,708.4,397.8,699.8,388.1z"/>
		<path class="st1" d="M697.1,389.7c-9.4-10.3-16-21.7-20.2-34.2l-5.1,3l-1.8,1.1l-0.9,0.5c4.2,12.5,10.8,23.9,20.2,34.2
			c9.2,10.4,16,22.2,20.9,35.3l0.9-0.5l1.8-1.1l5.1-3C713.1,412,706.3,400.1,697.1,389.7z"/>
	</g>
	<g>
		<path class="st0" d="M828.6,240.7c-12.8-4.2-21.9-10.4-27.9-18.2l-6.9,4.4c-1.2,0.7-1.4,1.9-0.6,2.8c6,7.1,14.7,12.7,26.6,16.6
			c11.1,3.9,19.8,9.4,26.5,16.3c1.3,1.3,4,1.5,5.7,0.4l5.5-3.5C850.5,251.5,841.1,245.1,828.6,240.7z"/>
		<path class="st0" d="M842.1,232.2c-11.3-3.7-19.7-9-25.6-15.5c-1.2-1.3-4-1.6-5.7-0.5v0c6,7.9,15.1,14,27.9,18.2
			c12.5,4.4,21.9,10.8,28.8,18.8l1.5-0.9c1.2-0.8,1.4-2,0.6-2.9C862.6,242.1,853.7,236.3,842.1,232.2z"/>
		<path class="st1" d="M838.6,234.4c-12.8-4.2-21.9-10.4-27.9-18.2l-6.5,4.1l-2.3,1.5l-1.2,0.7c6,7.9,15.1,14,27.9,18.2
			c12.5,4.4,21.9,10.8,28.8,18.8l1.2-0.7l2.3-1.5l6.5-4.1C860.4,245.2,851.1,238.8,838.6,234.4z"/>
	</g>
	<g>
		<path class="st0" d="M428.5,301.3c-12.8-4.2-21.9-10.4-27.9-18.2l-6.9,4.4c-1.2,0.7-1.4,1.9-0.6,2.8c6,7.1,14.7,12.7,26.6,16.6
			c11.1,3.9,19.8,9.4,26.5,16.3c1.3,1.3,4,1.5,5.7,0.4l5.5-3.5C450.3,312.1,440.9,305.7,428.5,301.3z"/>
		<path class="st0" d="M441.9,292.7c-11.3-3.7-19.7-9-25.6-15.5c-1.2-1.3-4-1.6-5.7-0.5l0,0c6,7.9,15.1,14,27.9,18.2
			c12.5,4.4,21.9,10.8,28.8,18.8l1.5-0.9c1.2-0.8,1.4-2,0.6-2.9C462.5,302.7,453.5,296.8,441.9,292.7z"/>
		<path class="st1" d="M438.4,294.9c-12.8-4.2-21.9-10.4-27.9-18.2l-6.5,4.1l-2.3,1.5l-1.2,0.7c6,7.9,15.1,14,27.9,18.2
			c12.5,4.4,21.9,10.8,28.8,18.8l1.2-0.7l2.3-1.5l6.5-4.1C460.3,305.8,450.9,299.3,438.4,294.9z"/>
	</g>
	<g>
		<path class="st0" d="M785.5,356.4c-11.6-5.5-19.1-12.5-23.1-20.8l-7.9,3.6c-1.3,0.6-1.9,1.7-1.3,2.7c4.2,7.6,11.5,14,22.3,19.1
			c10,5,17.3,11.3,22.2,18.7c0.9,1.4,3.6,1.9,5.5,1l6.3-2.9C804.5,369.3,796.8,362,785.5,356.4z"/>
		<path class="st0" d="M800.9,349.4c-10.2-4.8-17.3-10.8-21.6-17.9c-0.9-1.4-3.6-1.9-5.5-1.1l0,0c4,8.4,11.6,15.4,23.1,20.8
			c11.3,5.6,19,12.9,23.9,21.5l1.7-0.8c1.4-0.6,1.9-1.8,1.3-2.8C818.8,361.2,811.4,354.6,800.9,349.4z"/>
		<path class="st1" d="M796.9,351.2c-11.6-5.5-19.1-12.5-23.1-20.8l-7.4,3.4l-2.6,1.2l-1.3,0.6c4,8.4,11.6,15.4,23.1,20.8
			c11.3,5.6,19,12.9,23.9,21.5l1.3-0.6l2.6-1.2l7.4-3.4C815.9,364.1,808.2,356.8,796.9,351.2z"/>
	</g>
	<g>
		<path class="st0" d="M233.6,179.1c-11.6-5.5-19.1-12.5-23.1-20.8l-7.9,3.6c-1.3,0.6-1.9,1.7-1.3,2.7c4.2,7.6,11.5,14,22.3,19.1
			c10,5,17.3,11.3,22.2,18.7c0.9,1.4,3.6,1.9,5.5,1l6.3-2.9C252.6,192,244.9,184.7,233.6,179.1z"/>
		<path class="st0" d="M249,172c-10.2-4.8-17.3-10.8-21.6-17.9c-0.9-1.4-3.6-1.9-5.5-1.1l0,0c4,8.4,11.6,15.4,23.1,20.8
			c11.3,5.6,19,12.9,23.9,21.5l1.7-0.8c1.4-0.6,1.9-1.8,1.3-2.8C266.9,183.9,259.4,177.2,249,172z"/>
		<path class="st1" d="M245,173.9c-11.6-5.5-19.1-12.5-23.1-20.8l-7.4,3.4l-2.6,1.2l-1.3,0.6c4,8.4,11.6,15.4,23.1,20.8
			c11.3,5.6,19,12.9,23.9,21.5l1.3-0.6l2.6-1.2l7.4-3.4C264,186.7,256.3,179.5,245,173.9z"/>
	</g>
	<g>
		<path class="st0" d="M626.5,676.6c-11.6-5.5-19.1-12.5-23.1-20.8l-7.9,3.6c-1.3,0.6-1.9,1.7-1.3,2.7c4.2,7.6,11.5,14,22.3,19.1
			c10,5,17.3,11.3,22.2,18.7c0.9,1.4,3.6,1.9,5.5,1l6.3-2.9C645.5,689.4,637.7,682.1,626.5,676.6z"/>
		<path class="st0" d="M641.8,669.5c-10.2-4.8-17.3-10.8-21.6-17.9c-0.9-1.4-3.6-1.9-5.5-1.1l0,0c4,8.4,11.6,15.4,23.1,20.8
			c11.3,5.6,19,12.9,23.9,21.5l1.7-0.8c1.4-0.6,1.9-1.8,1.3-2.8C659.7,681.4,652.3,674.7,641.8,669.5z"/>
		<path class="st1" d="M637.9,671.3c-11.6-5.5-19.1-12.5-23.1-20.8l-7.4,3.4l-2.6,1.2l-1.3,0.6c4,8.4,11.6,15.4,23.1,20.8
			c11.3,5.6,19,12.9,23.9,21.5l1.3-0.6l2.6-1.2l7.4-3.4C656.8,684.2,649.1,676.9,637.9,671.3z"/>
	</g>
	<g>
		<path class="st0" d="M974.7,236.1c-12,5.1-24.8,7.1-38.4,6.6l2.5,6c0.4,1,1.8,1.7,3.5,1.8c12.5,0.2,24.4-2,35.6-6.7
			c10.8-4.3,22.5-6.4,35-6.8c2.4-0.1,4-1.5,3.4-3l-2-4.8C1000.1,229.2,986.8,231.2,974.7,236.1z"/>
		<path class="st0" d="M969.9,224.3c-10.6,4.5-21.8,6.6-33.6,6.7c-2.4,0-4.1,1.5-3.5,3v0c13.5,0.5,26.4-1.5,38.4-6.6
			c12.1-4.8,25.4-6.9,39.7-6.8l-0.5-1.3c-0.4-1.1-1.9-1.8-3.6-1.8C993.4,217.7,981.1,219.8,969.9,224.3z"/>
		<path class="st1" d="M971.1,227.3c-12,5.1-24.8,7.1-38.4,6.6l2.3,5.7l0.8,2l0.4,1c13.5,0.5,26.4-1.5,38.4-6.6
			c12.1-4.8,25.4-6.9,39.7-6.8l-0.4-1l-0.8-2l-2.3-5.7C996.5,220.4,983.2,222.5,971.1,227.3z"/>
	</g>
	<g>
		<path class="st0" d="M389.4,588.1c-12,5.1-24.8,7.1-38.4,6.6l2.5,6c0.4,1,1.8,1.7,3.5,1.8c12.5,0.2,24.4-2,35.6-6.7
			c10.8-4.3,22.5-6.4,35-6.8c2.4-0.1,4-1.5,3.4-3l-2-4.8C414.8,581.2,401.5,583.3,389.4,588.1z"/>
		<path class="st0" d="M384.6,576.4c-10.6,4.5-21.8,6.6-33.6,6.7c-2.4,0-4.1,1.5-3.5,3l0,0c13.5,0.5,26.4-1.5,38.4-6.6
			c12.1-4.8,25.4-6.9,39.7-6.8l-0.5-1.3c-0.4-1.1-1.9-1.8-3.6-1.8C408.2,569.8,395.9,571.9,384.6,576.4z"/>
		<path class="st1" d="M385.8,579.4c-12,5.1-24.8,7.1-38.4,6.6l2.3,5.7l0.8,2l0.4,1c13.5,0.5,26.4-1.5,38.4-6.6
			c12.1-4.8,25.4-6.9,39.7-6.8l-0.4-1l-0.8-2l-2.3-5.7C411.2,572.5,397.9,574.6,385.8,579.4z"/>
	</g>
	<g>
		<path class="st0" d="M982.5,504.8c-11.5,5.5-24.1,8.1-37.7,8.1l3.1,5.9c0.5,1,2,1.7,3.6,1.6c12.5-0.3,24.2-2.9,34.9-8.1
			c10.3-4.7,21.9-7.3,34.3-8.1c2.3-0.2,3.9-1.7,3.1-3.1l-2.4-4.7C1007.2,496.9,994.1,499.6,982.5,504.8z"/>
		<path class="st0" d="M976.5,493.3c-10.1,4.9-21.2,7.5-32.9,8c-2.4,0.1-3.9,1.6-3.2,3.1l0,0c13.6,0,26.2-2.6,37.7-8.1
			c11.6-5.3,24.7-7.9,38.9-8.4l-0.6-1.2c-0.5-1-2.1-1.7-3.8-1.6C999.4,485.8,987.3,488.4,976.5,493.3z"/>
		<path class="st1" d="M978.1,496.3c-11.5,5.5-24.1,8.1-37.7,8.1l2.9,5.6l1,2l0.5,1c13.6,0,26.2-2.6,37.7-8.1
			c11.6-5.3,24.7-7.9,38.9-8.4l-0.5-1l-1-2l-2.9-5.6C1002.7,488.4,989.7,491,978.1,496.3z"/>
	</g>
</g>
<g id="Sausage">
</g>
<g id="Crust">
</g>
</svg>
