<?xml version="1.0" encoding="utf-8"?>
<!-- Generator: Adobe Illustrator 21.0.0, SVG Export Plug-In . SVG Version: 6.00 Build 0)  -->
<!DOCTYPE svg PUBLIC "-//W3C//DTD SVG 1.1//EN" "http://www.w3.org/Graphics/SVG/1.1/DTD/svg11.dtd">
<svg version="1.1" id="Layer_1" xmlns="http://www.w3.org/2000/svg" xmlns:xlink="http://www.w3.org/1999/xlink" x="0px" y="0px"
	 viewBox="0 0 1131.4 775.6" style="enable-background:new 0 0 1131.4 775.6;" xml:space="preserve">
<style type="text/css">
	.st0{fill:#3C2415;}
	.st1{fill:#603913;}
</style>
<g id="Background">
</g>
<g id="Cheese">
</g>
<g id="Pepperoni">
</g>
<g id="Peppers">
</g>
<g id="Mushrooms">
</g>
<g id="Ham">
</g>
<g id="Pineapple">
</g>
<g id="Bacon">
</g>
<g id="Sausage">
	<g>
		<path class="st0" d="M424.5,231.7c0.2-0.3,0.4-0.6,0.6-0.9c-2.1-1.3-3.5-3.1-3.7-5.1c-4.6,1.1-8,3.9-8,7.3c0,2.4,1.8,4.6,4.5,6
			c0-0.1,0-0.3,0-0.4C418,235.5,420.6,232.9,424.5,231.7z"/>
		<path class="st1" d="M453.6,229.8c-2.2,1.9-5.7,3.1-9.6,3.1c-6.6,0-11.9-3.4-11.9-7.7c0-3,2.7-5.6,6.6-6.9
			c-1.6-0.5-3.4-0.8-5.3-0.8c-6.6,0-11.9,3.4-11.9,7.7c0,0.2,0,0.3,0,0.4c0.2,2,1.6,3.8,3.7,5.1c-0.2,0.3-0.4,0.6-0.6,0.9
			c-3.9,1.3-6.6,3.9-6.6,6.9c0,0.1,0,0.3,0,0.4c0.3,4.1,5.5,7.3,11.9,7.3c4.4,0,8.2-1.5,10.3-3.8c2.1,1.1,4.7,1.7,7.6,1.7
			c6.6,0,11.9-3.4,11.9-7.7C459.7,233.6,457.2,231.1,453.6,229.8z"/>
		<path class="st0" d="M432,225.2c0,4.3,5.3,7.7,11.9,7.7c3.9,0,7.4-1.2,9.6-3.1c1.5-1.3,2.3-2.9,2.3-4.6c0-4.3-5.3-7.7-11.9-7.7
			c-1.9,0-3.7,0.3-5.3,0.8C434.7,219.6,432,222.2,432,225.2z"/>
	</g>
	<g>
		<path class="st0" d="M268.1,247.1c0.2-0.3,0.4-0.6,0.6-0.9c-2.1-1.3-3.5-3.1-3.7-5.1c-4.6,1.1-8,3.9-8,7.3c0,2.4,1.8,4.6,4.5,6
			c0-0.1,0-0.3,0-0.4C261.6,250.9,264.2,248.3,268.1,247.1z"/>
		<path class="st1" d="M297.2,245.2c-2.2,1.9-5.7,3.1-9.6,3.1c-6.6,0-11.9-3.4-11.9-7.7c0-3,2.7-5.6,6.6-6.9
			c-1.6-0.5-3.4-0.8-5.3-0.8c-6.6,0-11.9,3.4-11.9,7.7c0,0.2,0,0.3,0,0.4c0.2,2,1.6,3.8,3.7,5.1c-0.2,0.3-0.4,0.6-0.6,0.9
			c-3.9,1.3-6.6,3.9-6.6,6.9c0,0.1,0,0.3,0,0.4c0.3,4.1,5.5,7.3,11.9,7.3c4.4,0,8.2-1.5,10.3-3.8c2.1,1.1,4.7,1.7,7.6,1.7
			c6.6,0,11.9-3.4,11.9-7.7C303.3,249,300.8,246.5,297.2,245.2z"/>
		<path class="st0" d="M275.6,240.6c0,4.3,5.3,7.7,11.9,7.7c3.9,0,7.4-1.2,9.6-3.1c1.5-1.3,2.3-2.9,2.3-4.6c0-4.3-5.3-7.7-11.9-7.7
			c-1.9,0-3.7,0.3-5.3,0.8C278.3,235,275.6,237.6,275.6,240.6z"/>
	</g>
	<g>
		<path class="st0" d="M572,170.1c0.2-0.3,0.4-0.6,0.6-0.9c-2.1-1.3-3.5-3.1-3.7-5.1c-4.6,1.1-8,3.9-8,7.3c0,2.4,1.8,4.6,4.5,6
			c0-0.1,0-0.3,0-0.4C565.5,174,568.1,171.4,572,170.1z"/>
		<path class="st1" d="M601.1,168.2c-2.2,1.9-5.7,3.1-9.6,3.1c-6.6,0-11.9-3.4-11.9-7.7c0-3,2.7-5.6,6.6-6.9
			c-1.6-0.5-3.4-0.8-5.3-0.8c-6.6,0-11.9,3.4-11.9,7.7c0,0.2,0,0.3,0,0.4c0.2,2,1.6,3.8,3.7,5.1c-0.2,0.3-0.4,0.6-0.6,0.9
			c-3.9,1.3-6.6,3.9-6.6,6.9c0,0.1,0,0.3,0,0.4c0.3,4.1,5.5,7.3,11.9,7.3c4.4,0,8.2-1.5,10.3-3.8c2.1,1.1,4.7,1.7,7.6,1.7
			c6.6,0,11.9-3.4,11.9-7.7C607.2,172,604.7,169.5,601.1,168.2z"/>
		<path class="st0" d="M579.5,163.6c0,4.3,5.3,7.7,11.9,7.7c3.9,0,7.4-1.2,9.6-3.1c1.5-1.3,2.3-2.9,2.3-4.6c0-4.3-5.3-7.7-11.9-7.7
			c-1.9,0-3.7,0.3-5.3,0.8C582.2,158,579.5,160.6,579.5,163.6z"/>
	</g>
	<g>
		<path class="st0" d="M484.4,78.7c0.2-0.3,0.4-0.6,0.6-0.9c-2.1-1.3-3.5-3.1-3.7-5.1c-4.6,1.1-8,3.9-8,7.3c0,2.4,1.8,4.6,4.5,6
			c0-0.1,0-0.3,0-0.4C477.8,82.6,480.5,80,484.4,78.7z"/>
		<path class="st1" d="M513.4,76.8c-2.2,1.9-5.7,3.1-9.6,3.1c-6.6,0-11.9-3.4-11.9-7.7c0-3,2.7-5.6,6.6-6.9
			c-1.6-0.5-3.4-0.8-5.3-0.8c-6.6,0-11.9,3.4-11.9,7.7c0,0.2,0,0.3,0,0.4c0.2,2,1.6,3.8,3.7,5.1c-0.2,0.3-0.4,0.6-0.6,0.9
			c-3.9,1.3-6.6,3.9-6.6,6.9c0,0.1,0,0.3,0,0.4c0.3,4.1,5.5,7.3,11.9,7.3c4.4,0,8.2-1.5,10.3-3.8c2.1,1.1,4.7,1.7,7.6,1.7
			c6.6,0,11.9-3.4,11.9-7.7C519.6,80.6,517.1,78.1,513.4,76.8z"/>
		<path class="st0" d="M491.9,72.2c0,4.3,5.3,7.7,11.9,7.7c3.9,0,7.4-1.2,9.6-3.1c1.5-1.3,2.3-2.9,2.3-4.6c0-4.3-5.3-7.7-11.9-7.7
			c-1.9,0-3.7,0.3-5.3,0.8C494.6,66.6,491.9,69.2,491.9,72.2z"/>
	</g>
	<g>
		<path class="st0" d="M681.2,256.4c0.5,0,1-0.1,1.5-0.1c0.8-1.8,2.7-3.4,5.4-4.5c-3.6-2.2-9-2.8-13.6-1.3c-3.4,1.1-5.6,3.1-6.3,5.3
			c0.2-0.1,0.3-0.1,0.5-0.2C672.9,254.3,677.7,254.7,681.2,256.4z"/>
		<path class="st1" d="M697.1,272.2c-3.6-0.4-6.9-1.8-8.7-4.1c-3-3.8-0.7-8.4,5.2-10.4c4.2-1.4,9-1,12.5,0.7c0-1.2-0.4-2.3-1.3-3.4
			c-3-3.8-10.2-5.3-16.1-3.3c-0.2,0.1-0.4,0.1-0.6,0.2c-2.7,1-4.6,2.6-5.4,4.5c-0.5,0-1,0-1.5,0.1c-3.5-1.7-8.3-2-12.5-0.6
			c-0.2,0.1-0.3,0.1-0.5,0.2c-5.5,2-7.6,6.5-4.7,10.2c2,2.5,5.9,4,9.9,4.2c-0.6,1.7-0.3,3.5,1,5.1c3,3.8,10.2,5.3,16.1,3.3
			C694.6,277.4,696.9,274.9,697.1,272.2z"/>
		<path class="st0" d="M693.6,257.7c-5.9,1.9-8.2,6.6-5.2,10.4c1.8,2.3,5.1,3.7,8.7,4.1c2.4,0.3,5,0,7.4-0.7
			c5.9-1.9,8.2-6.6,5.2-10.4c-0.9-1.1-2.1-2-3.5-2.7C702.6,256.7,697.7,256.3,693.6,257.7z"/>
	</g>
	<g>
		<path class="st0" d="M825.8,163c0.5,0,1-0.1,1.5-0.1c0.8-1.8,2.7-3.4,5.4-4.5c-3.6-2.2-9-2.8-13.6-1.3c-3.4,1.1-5.6,3.1-6.3,5.3
			c0.2-0.1,0.3-0.1,0.5-0.2C817.5,161,822.3,161.4,825.8,163z"/>
		<path class="st1" d="M841.7,178.8c-3.6-0.4-6.9-1.8-8.7-4.1c-3-3.8-0.7-8.4,5.2-10.4c4.2-1.4,9-1,12.5,0.7c0-1.2-0.4-2.3-1.3-3.4
			c-3-3.8-10.2-5.3-16.1-3.3c-0.2,0.1-0.4,0.1-0.6,0.2c-2.7,1-4.6,2.6-5.4,4.5c-0.5,0-1,0-1.5,0.1c-3.5-1.7-8.3-2-12.5-0.6
			c-0.2,0.1-0.3,0.1-0.5,0.2c-5.5,2-7.6,6.5-4.7,10.2c2,2.5,5.9,4,9.9,4.2c-0.6,1.7-0.3,3.5,1,5.1c3,3.8,10.2,5.3,16.1,3.3
			C839.2,184.1,841.5,181.5,841.7,178.8z"/>
		<path class="st0" d="M838.2,164.4c-5.9,1.9-8.2,6.6-5.2,10.4c1.8,2.3,5.1,3.7,8.7,4.1c2.4,0.3,5,0,7.4-0.7
			c5.9-1.9,8.2-6.6,5.2-10.4c-0.9-1.1-2.1-2-3.5-2.7C847.2,163.4,842.4,163,838.2,164.4z"/>
	</g>
	<g>
		<path class="st0" d="M837.9,237c0.2-0.3,0.4-0.6,0.6-0.9c-2.1-1.3-3.5-3.1-3.7-5.1c-4.6,1.1-8,3.9-8,7.3c0,2.4,1.8,4.6,4.5,6
			c0-0.1,0-0.3,0-0.4C831.3,240.9,834,238.3,837.9,237z"/>
		<path class="st1" d="M866.9,235.1c-2.2,1.9-5.7,3.1-9.6,3.1c-6.6,0-11.9-3.4-11.9-7.7c0-3,2.7-5.6,6.6-6.9
			c-1.6-0.5-3.4-0.8-5.3-0.8c-6.6,0-11.9,3.4-11.9,7.7c0,0.2,0,0.3,0,0.4c0.2,2,1.6,3.8,3.7,5.1c-0.2,0.3-0.4,0.6-0.6,0.9
			c-3.9,1.3-6.6,3.9-6.6,6.9c0,0.1,0,0.3,0,0.4c0.3,4.1,5.5,7.3,11.9,7.3c4.4,0,8.2-1.5,10.3-3.8c2.1,1.1,4.7,1.7,7.6,1.7
			c6.6,0,11.9-3.4,11.9-7.7C873,238.9,870.6,236.4,866.9,235.1z"/>
		<path class="st0" d="M845.4,230.6c0,4.3,5.3,7.7,11.9,7.7c3.9,0,7.4-1.2,9.6-3.1c1.5-1.3,2.3-2.9,2.3-4.6c0-4.3-5.3-7.7-11.9-7.7
			c-1.9,0-3.7,0.3-5.3,0.8C848.1,224.9,845.4,227.5,845.4,230.6z"/>
	</g>
	<g>
		<path class="st0" d="M723.9,109.1c0.2-0.3,0.4-0.6,0.6-0.9c-2.1-1.3-3.5-3.1-3.7-5.1c-4.6,1.1-8,3.9-8,7.3c0,2.4,1.8,4.6,4.5,6
			c0-0.1,0-0.3,0-0.4C717.3,113,720,110.4,723.9,109.1z"/>
		<path class="st1" d="M752.9,107.2c-2.2,1.9-5.7,3.1-9.6,3.1c-6.6,0-11.9-3.4-11.9-7.7c0-3,2.7-5.6,6.6-6.9
			c-1.6-0.5-3.4-0.8-5.3-0.8c-6.6,0-11.9,3.4-11.9,7.7c0,0.2,0,0.3,0,0.4c0.2,2,1.6,3.8,3.7,5.1c-0.2,0.3-0.4,0.6-0.6,0.9
			c-3.9,1.3-6.6,3.9-6.6,6.9c0,0.1,0,0.3,0,0.4c0.3,4.1,5.5,7.3,11.9,7.3c4.4,0,8.2-1.5,10.3-3.8c2.1,1.1,4.7,1.7,7.6,1.7
			c6.6,0,11.9-3.4,11.9-7.7C759,111.1,756.6,108.5,752.9,107.2z"/>
		<path class="st0" d="M731.3,102.7c0,4.3,5.3,7.7,11.9,7.7c3.9,0,7.4-1.2,9.6-3.1c1.5-1.3,2.3-2.9,2.3-4.6c0-4.3-5.3-7.7-11.9-7.7
			c-1.9,0-3.7,0.3-5.3,0.8C734,97,731.3,99.6,731.3,102.7z"/>
	</g>
	<g>
		<path class="st0" d="M318.8,111.3c0.1-0.3,0.1-0.6,0.3-0.9c-2.5-1-4.5-2.5-5.4-4.5c-4.1,1.7-6.4,5-5.2,8.2
			c0.9,2.4,3.3,4.2,6.5,5.2c-0.1-0.1-0.1-0.2-0.2-0.4C313.7,116,315.4,113.1,318.8,111.3z"/>
		<path class="st1" d="M346.4,105.2c-1.5,2.2-4.4,3.9-8.3,4.5c-6.4,1-12.8-1.6-14.3-5.8c-1.1-2.9,0.7-5.9,4-7.7
			c-1.7-0.3-3.6-0.3-5.5,0c-6.4,1-10.4,5.1-8.9,9.2c0.1,0.1,0.1,0.3,0.2,0.4c0.9,1.9,2.9,3.5,5.4,4.5c-0.1,0.3-0.2,0.6-0.3,0.9
			c-3.4,1.8-5.1,4.7-4,7.7c0,0.1,0.1,0.2,0.2,0.4c1.7,3.9,7.9,6.3,14.2,5.4c4.3-0.6,7.5-2.7,8.7-5.2c2.4,0.8,5.2,1,8,0.6
			c6.4-1,10.4-5.1,8.9-9.2C353.7,108.1,350.4,106,346.4,105.2z"/>
		<path class="st0" d="M323.8,103.9c1.5,4.1,7.9,6.7,14.3,5.8c3.8-0.6,6.8-2.3,8.3-4.5c1-1.5,1.3-3.1,0.7-4.8
			c-1.5-4.1-7.9-6.7-14.3-5.8c-1.9,0.3-3.5,0.8-4.9,1.6C324.5,98,322.8,101,323.8,103.9z"/>
	</g>
	<g>
		<path class="st0" d="M295.3,172.9c0.1-0.3,0.1-0.6,0.3-0.9c-2.5-1-4.5-2.5-5.4-4.5c-4.1,1.7-6.4,5-5.2,8.2
			c0.9,2.4,3.3,4.2,6.5,5.2c-0.1-0.1-0.1-0.2-0.2-0.4C290.3,177.7,292,174.7,295.3,172.9z"/>
		<path class="st1" d="M323,166.9c-1.5,2.2-4.4,3.9-8.3,4.5c-6.4,1-12.8-1.6-14.3-5.8c-1.1-2.9,0.7-5.9,4-7.7
			c-1.7-0.3-3.6-0.3-5.5,0c-6.4,1-10.4,5.1-8.9,9.2c0.1,0.1,0.1,0.3,0.2,0.4c0.9,1.9,2.9,3.5,5.4,4.5c-0.1,0.3-0.2,0.6-0.3,0.9
			c-3.4,1.8-5.1,4.7-4,7.7c0,0.1,0.1,0.2,0.2,0.4c1.7,3.9,7.9,6.3,14.2,5.4c4.3-0.6,7.5-2.7,8.7-5.2c2.4,0.8,5.2,1,8,0.6
			c6.4-1,10.4-5.1,8.9-9.2C330.3,169.7,327,167.6,323,166.9z"/>
		<path class="st0" d="M300.4,165.5c1.5,4.1,7.9,6.7,14.3,5.8c3.8-0.6,6.8-2.3,8.3-4.5c1-1.5,1.3-3.1,0.7-4.8
			c-1.5-4.1-7.9-6.7-14.3-5.8c-1.9,0.3-3.5,0.8-4.9,1.6C301,159.7,299.3,162.6,300.4,165.5z"/>
	</g>
	<g>
		<path class="st0" d="M170.2,214.8c0.4-0.2,0.8-0.4,1.2-0.6c-0.9-1.8-0.7-3.8,0.7-5.6c-4.8-0.5-9.9,0.9-12.4,3.8
			c-1.9,2.1-2,4.6-0.6,6.7c0.1-0.1,0.2-0.2,0.3-0.3C161.5,216.1,165.8,214.7,170.2,214.8z"/>
		<path class="st1" d="M197,222.3c-3.3,1-7.3,1-10.8-0.3c-5.8-2.1-7.8-6.8-4.6-10.5c2.3-2.6,6.6-4.1,11-3.9c-1-1-2.4-1.8-4-2.4
			c-5.8-2.1-13-0.8-16.3,2.9c-0.1,0.1-0.2,0.3-0.3,0.4c-1.4,1.8-1.5,3.8-0.7,5.6c-0.4,0.2-0.8,0.4-1.2,0.6c-4.4-0.1-8.7,1.3-11,3.9
			c-0.1,0.1-0.2,0.2-0.3,0.3c-2.8,3.7-0.7,8.1,4.8,10.1c3.8,1.4,8.3,1.3,11.9-0.1c1,1.6,2.8,3,5.3,3.9c5.8,2.1,13,0.8,16.3-2.9
			C199.4,227.6,199.2,224.6,197,222.3z"/>
		<path class="st0" d="M181.6,211.5c-3.2,3.7-1.2,8.4,4.6,10.5c3.4,1.2,7.4,1.3,10.8,0.3c2.2-0.7,4.2-1.8,5.5-3.2
			c3.2-3.7,1.2-8.4-4.6-10.5c-1.7-0.6-3.5-0.9-5.3-1C188.3,207.5,183.9,208.9,181.6,211.5z"/>
	</g>
	<g>
		<path class="st0" d="M157.8,327.4c0.2-0.3,0.4-0.6,0.6-0.9c-2.1-1.3-3.5-3.1-3.7-5.1c-4.6,1.1-8,3.9-8,7.3c0,2.4,1.8,4.6,4.5,6
			c0-0.1,0-0.3,0-0.4C151.2,331.3,153.9,328.7,157.8,327.4z"/>
		<path class="st1" d="M186.8,325.5c-2.2,1.9-5.7,3.1-9.6,3.1c-6.6,0-11.9-3.4-11.9-7.7c0-3,2.7-5.6,6.6-6.9
			c-1.6-0.5-3.4-0.8-5.3-0.8c-6.6,0-11.9,3.4-11.9,7.7c0,0.2,0,0.3,0,0.4c0.2,2,1.6,3.8,3.7,5.1c-0.2,0.3-0.4,0.6-0.6,0.9
			c-3.9,1.3-6.6,3.9-6.6,6.9c0,0.1,0,0.3,0,0.4c0.3,4.1,5.5,7.3,11.9,7.3c4.4,0,8.2-1.5,10.3-3.8c2.1,1.1,4.7,1.7,7.6,1.7
			c6.6,0,11.9-3.4,11.9-7.7C192.9,329.4,190.5,326.9,186.8,325.5z"/>
		<path class="st0" d="M165.3,321c0,4.3,5.3,7.7,11.9,7.7c3.9,0,7.4-1.2,9.6-3.1c1.5-1.3,2.3-2.9,2.3-4.6c0-4.3-5.3-7.7-11.9-7.7
			c-1.9,0-3.7,0.3-5.3,0.8C168,315.4,165.3,318,165.3,321z"/>
	</g>
	<g>
		<path class="st0" d="M137.6,419.3c0.4-0.2,0.9-0.3,1.3-0.4c-0.4-1.9,0.4-3.8,2.2-5.5c-4.6-1.1-10-0.3-13.3,2.3
			c-2.4,1.9-3.2,4.3-2.5,6.5c0.1-0.1,0.2-0.2,0.4-0.3C128.7,419.6,133.3,418.7,137.6,419.3z"/>
		<path class="st1" d="M161.9,429.8c-3.6,0.6-7.5,0.1-10.5-1.5c-5.1-2.7-5.8-7.6-1.6-10.8c3-2.3,7.6-3.2,11.9-2.6
			c-0.7-1.1-1.8-2-3.3-2.8c-5.1-2.7-12.6-2.2-16.8,1c-0.1,0.1-0.3,0.2-0.4,0.4c-1.9,1.6-2.6,3.6-2.2,5.5c-0.5,0.1-0.9,0.3-1.3,0.4
			c-4.3-0.6-8.9,0.3-11.9,2.6c-0.1,0.1-0.2,0.2-0.4,0.3c-3.8,3.3-3,7.9,2,10.5c3.4,1.8,7.8,2.2,11.7,1.3c0.5,1.7,1.9,3.3,4.1,4.5
			c5.1,2.7,12.6,2.2,16.8-1C162.8,435.2,163.4,432.3,161.9,429.8z"/>
		<path class="st0" d="M149.8,417.4c-4.2,3.3-3.5,8.1,1.6,10.8c3,1.6,7,2.1,10.5,1.5c2.4-0.4,4.6-1.2,6.3-2.6
			c4.2-3.3,3.5-8.1-1.6-10.8c-1.5-0.8-3.2-1.3-4.9-1.6C157.4,414.2,152.7,415.1,149.8,417.4z"/>
	</g>
	<g>
		<path class="st0" d="M222.6,411.6c0.4-0.2,0.9-0.3,1.3-0.4c-0.4-1.9,0.4-3.8,2.2-5.5c-4.6-1.1-10-0.3-13.3,2.3
			c-2.4,1.9-3.2,4.3-2.5,6.5c0.1-0.1,0.2-0.2,0.4-0.3C213.7,411.9,218.4,411,222.6,411.6z"/>
		<path class="st1" d="M246.9,422c-3.6,0.6-7.5,0.1-10.5-1.5c-5.1-2.7-5.8-7.6-1.6-10.8c3-2.3,7.6-3.2,11.9-2.6
			c-0.7-1.1-1.8-2-3.3-2.8c-5.1-2.7-12.6-2.2-16.8,1c-0.1,0.1-0.3,0.2-0.4,0.4c-1.9,1.6-2.6,3.6-2.2,5.5c-0.5,0.1-0.9,0.3-1.3,0.4
			c-4.3-0.6-8.9,0.3-11.9,2.6c-0.1,0.1-0.2,0.2-0.4,0.3c-3.8,3.3-3,7.9,2,10.5c3.4,1.8,7.8,2.2,11.7,1.3c0.5,1.7,1.9,3.3,4.1,4.5
			c5.1,2.7,12.6,2.2,16.8-1C247.9,427.5,248.4,424.6,246.9,422z"/>
		<path class="st0" d="M234.8,409.7c-4.2,3.3-3.5,8.1,1.6,10.8c3,1.6,7,2.1,10.5,1.5c2.4-0.4,4.6-1.2,6.3-2.6
			c4.2-3.3,3.5-8.1-1.6-10.8c-1.5-0.8-3.2-1.3-4.9-1.6C242.4,406.4,237.8,407.4,234.8,409.7z"/>
	</g>
	<g>
		<path class="st0" d="M108.9,495.6c0.3-0.3,0.6-0.5,0.9-0.8c-1.6-1.6-2.4-3.5-1.8-5.5c-4.9,0.4-9.1,2.7-10.3,5.9
			c-0.8,2.4,0.1,4.8,2.3,6.5c0-0.1,0.1-0.3,0.1-0.4C101.2,498.4,104.7,496.3,108.9,495.6z"/>
		<path class="st1" d="M137.9,497.9c-2.8,1.5-6.6,2.2-10.5,1.7c-6.4-0.9-10.5-5.1-9-9.2c1-2.9,4.6-5.1,8.8-5.8
			c-1.4-0.7-3-1.3-4.9-1.6c-6.4-0.9-12.8,1.6-14.3,5.8c-0.1,0.1-0.1,0.3-0.1,0.4c-0.5,2,0.2,4,1.8,5.5c-0.3,0.2-0.6,0.5-0.9,0.8
			c-4.2,0.7-7.8,2.8-8.8,5.8c0,0.1-0.1,0.3-0.1,0.4c-1.1,4,2.9,7.9,9.1,8.8c4.3,0.6,8.5-0.3,11.3-2.2c1.6,1.4,4,2.4,6.8,2.8
			c6.4,0.9,12.8-1.6,14.3-5.8C142.5,502.6,141,499.7,137.9,497.9z"/>
		<path class="st0" d="M118.5,490.4c-1.5,4.1,2.6,8.3,9,9.2c3.8,0.6,7.7-0.1,10.5-1.7c1.9-1,3.3-2.4,3.9-4.1c1.5-4.1-2.6-8.3-9-9.2
			c-1.9-0.3-3.7-0.2-5.5,0C123,485.3,119.5,487.4,118.5,490.4z"/>
	</g>
	<g>
		<path class="st0" d="M222.3,610.2c0.2-0.3,0.4-0.6,0.6-0.9c-2.1-1.3-3.5-3.1-3.7-5.1c-4.6,1.1-8,3.9-8,7.3c0,2.4,1.8,4.6,4.5,6
			c0-0.1,0-0.3,0-0.4C215.7,614,218.4,611.4,222.3,610.2z"/>
		<path class="st1" d="M251.3,608.3c-2.2,1.9-5.7,3.1-9.6,3.1c-6.6,0-11.9-3.4-11.9-7.7c0-3,2.7-5.6,6.6-6.9
			c-1.6-0.5-3.4-0.8-5.3-0.8c-6.6,0-11.9,3.4-11.9,7.7c0,0.2,0,0.3,0,0.4c0.2,2,1.6,3.8,3.7,5.1c-0.2,0.3-0.4,0.6-0.6,0.9
			c-3.9,1.3-6.6,3.9-6.6,6.9c0,0.1,0,0.3,0,0.4c0.3,4.1,5.5,7.3,11.9,7.3c4.4,0,8.2-1.5,10.3-3.8c2.1,1.1,4.7,1.7,7.6,1.7
			c6.6,0,11.9-3.4,11.9-7.7C257.4,612.1,255,609.6,251.3,608.3z"/>
		<path class="st0" d="M229.8,603.7c0,4.3,5.3,7.7,11.9,7.7c3.9,0,7.4-1.2,9.6-3.1c1.5-1.3,2.3-2.9,2.3-4.6c0-4.3-5.3-7.7-11.9-7.7
			c-1.9,0-3.7,0.3-5.3,0.8C232.5,598.1,229.8,600.7,229.8,603.7z"/>
	</g>
	<g>
		<path class="st0" d="M224.5,526c0.2-0.3,0.4-0.6,0.6-0.9c-2.1-1.3-3.5-3.1-3.7-5.1c-4.6,1.1-8,3.9-8,7.3c0,2.4,1.8,4.6,4.5,6
			c0-0.1,0-0.3,0-0.4C217.9,529.8,220.6,527.2,224.5,526z"/>
		<path class="st1" d="M253.6,524.1c-2.2,1.9-5.7,3.1-9.6,3.1c-6.6,0-11.9-3.4-11.9-7.7c0-3,2.7-5.6,6.6-6.9
			c-1.6-0.5-3.4-0.8-5.3-0.8c-6.6,0-11.9,3.4-11.9,7.7c0,0.2,0,0.3,0,0.4c0.2,2,1.6,3.8,3.7,5.1c-0.2,0.3-0.4,0.6-0.6,0.9
			c-3.9,1.3-6.6,3.9-6.6,6.9c0,0.1,0,0.3,0,0.4c0.3,4.1,5.5,7.3,11.9,7.3c4.4,0,8.2-1.5,10.3-3.8c2.1,1.1,4.7,1.7,7.6,1.7
			c6.6,0,11.9-3.4,11.9-7.7C259.7,527.9,257.2,525.4,253.6,524.1z"/>
		<path class="st0" d="M232,519.5c0,4.3,5.3,7.7,11.9,7.7c3.9,0,7.4-1.2,9.6-3.1c1.5-1.3,2.3-2.9,2.3-4.6c0-4.3-5.3-7.7-11.9-7.7
			c-1.9,0-3.7,0.3-5.3,0.8C234.7,513.9,232,516.5,232,519.5z"/>
	</g>
	<g>
		<path class="st0" d="M350.8,577.2c0.4-0.2,0.8-0.4,1.2-0.6c-0.9-1.8-0.7-3.8,0.7-5.6c-4.8-0.6-9.9,0.9-12.5,3.8
			c-1.9,2.1-2,4.6-0.7,6.7c0.1-0.1,0.2-0.2,0.3-0.3C342.1,578.5,346.4,577.1,350.8,577.2z"/>
		<path class="st1" d="M377.5,584.8c-3.3,1-7.3,0.9-10.8-0.3c-5.7-2.1-7.8-6.8-4.5-10.5c2.3-2.6,6.7-4,11-3.9c-1-1-2.3-1.8-4-2.4
			c-5.7-2.1-13-0.8-16.3,2.9c-0.1,0.1-0.2,0.3-0.3,0.4c-1.4,1.8-1.6,3.8-0.7,5.6c-0.4,0.2-0.8,0.4-1.2,0.6c-4.4-0.1-8.7,1.3-11,3.9
			c-0.1,0.1-0.2,0.2-0.3,0.3c-2.8,3.6-0.8,8.1,4.8,10.2c3.8,1.4,8.3,1.3,11.9,0c1,1.6,2.8,3,5.3,3.9c5.7,2.1,13,0.8,16.3-2.9
			C379.9,590.1,379.7,587.1,377.5,584.8z"/>
		<path class="st0" d="M362.3,574c-3.3,3.7-1.2,8.4,4.5,10.5c3.4,1.3,7.4,1.3,10.8,0.3c2.3-0.6,4.2-1.7,5.5-3.2
			c3.3-3.7,1.2-8.4-4.5-10.5c-1.7-0.6-3.5-0.9-5.3-1C368.9,569.9,364.6,571.4,362.3,574z"/>
	</g>
	<g>
		<path class="st0" d="M408.7,653.1c0.4-0.2,0.8-0.4,1.2-0.6c-0.9-1.8-0.7-3.8,0.7-5.6c-4.8-0.6-9.9,0.9-12.5,3.8
			c-1.9,2.1-2,4.6-0.7,6.7c0.1-0.1,0.2-0.2,0.3-0.3C400,654.4,404.3,653,408.7,653.1z"/>
		<path class="st1" d="M435.4,660.7c-3.3,1-7.3,0.9-10.8-0.3c-5.7-2.1-7.8-6.8-4.5-10.5c2.3-2.6,6.7-4,11-3.9c-1-1-2.3-1.8-4-2.4
			c-5.7-2.1-13-0.8-16.3,2.9c-0.1,0.1-0.2,0.3-0.3,0.4c-1.4,1.8-1.6,3.8-0.7,5.6c-0.4,0.2-0.8,0.4-1.2,0.6c-4.4-0.1-8.7,1.3-11,3.9
			c-0.1,0.1-0.2,0.2-0.3,0.3c-2.8,3.6-0.8,8.1,4.8,10.2c3.8,1.4,8.3,1.3,11.9,0c1,1.6,2.8,3,5.3,3.9c5.7,2.1,13,0.8,16.3-2.9
			C437.8,666,437.6,663,435.4,660.7z"/>
		<path class="st0" d="M420.1,649.9c-3.3,3.7-1.2,8.4,4.5,10.5c3.4,1.3,7.4,1.3,10.8,0.3c2.3-0.6,4.2-1.7,5.5-3.2
			c3.3-3.7,1.2-8.4-4.5-10.5c-1.7-0.6-3.5-0.9-5.3-1C426.8,645.8,422.4,647.2,420.1,649.9z"/>
	</g>
	<g>
		<path class="st0" d="M326,477.7c0.2-0.3,0.4-0.6,0.6-0.9c-2.1-1.3-3.5-3.1-3.7-5.1c-4.6,1.1-8,3.9-8,7.3c0,2.4,1.8,4.6,4.5,6
			c0-0.1,0-0.3,0-0.4C319.4,481.5,322,478.9,326,477.7z"/>
		<path class="st1" d="M355,475.7c-2.2,1.9-5.7,3.1-9.6,3.1c-6.6,0-11.9-3.4-11.9-7.7c0-3,2.7-5.6,6.6-6.9c-1.6-0.5-3.4-0.8-5.3-0.8
			c-6.6,0-11.9,3.4-11.9,7.7c0,0.2,0,0.3,0,0.4c0.2,2,1.6,3.8,3.7,5.1c-0.2,0.3-0.4,0.6-0.6,0.9c-3.9,1.3-6.6,3.9-6.6,6.9
			c0,0.1,0,0.3,0,0.4c0.3,4.1,5.5,7.3,11.9,7.3c4.4,0,8.2-1.5,10.3-3.8c2.1,1.1,4.7,1.7,7.6,1.7c6.6,0,11.9-3.4,11.9-7.7
			C361.1,479.6,358.6,477.1,355,475.7z"/>
		<path class="st0" d="M333.4,471.2c0,4.3,5.3,7.7,11.9,7.7c3.9,0,7.4-1.2,9.6-3.1c1.5-1.3,2.3-2.9,2.3-4.6c0-4.3-5.3-7.7-11.9-7.7
			c-1.9,0-3.7,0.3-5.3,0.8C336.1,465.6,333.4,468.2,333.4,471.2z"/>
	</g>
	<g>
		<path class="st0" d="M74.6,323.9c0.2-0.3,0.4-0.6,0.6-0.9c-2.1-1.3-3.5-3.1-3.7-5.1c-4.6,1.1-8,3.9-8,7.3c0,2.4,1.8,4.6,4.5,6
			c0-0.1,0-0.3,0-0.4C68,327.8,70.7,325.2,74.6,323.9z"/>
		<path class="st1" d="M103.7,322c-2.2,1.9-5.7,3.1-9.6,3.1c-6.6,0-11.9-3.4-11.9-7.7c0-3,2.7-5.6,6.6-6.9c-1.6-0.5-3.4-0.8-5.3-0.8
			c-6.6,0-11.9,3.4-11.9,7.7c0,0.2,0,0.3,0,0.4c0.2,2,1.6,3.8,3.7,5.1c-0.2,0.3-0.4,0.6-0.6,0.9c-3.9,1.3-6.6,3.9-6.6,6.9
			c0,0.1,0,0.3,0,0.4c0.3,4.1,5.5,7.3,11.9,7.3c4.4,0,8.2-1.5,10.3-3.8c2.1,1.1,4.7,1.7,7.6,1.7c6.6,0,11.9-3.4,11.9-7.7
			C109.8,325.8,107.3,323.3,103.7,322z"/>
		<path class="st0" d="M82.1,317.5c0,4.3,5.3,7.7,11.9,7.7c3.9,0,7.4-1.2,9.6-3.1c1.5-1.3,2.3-2.9,2.3-4.6c0-4.3-5.3-7.7-11.9-7.7
			c-1.9,0-3.7,0.3-5.3,0.8C84.8,311.8,82.1,314.4,82.1,317.5z"/>
	</g>
	<g>
		<path class="st0" d="M421.8,425.9c0.4-0.1,0.9-0.3,1.4-0.4c-0.1-1.9,0.9-3.8,3-5.3c-4.4-1.4-9.9-0.9-13.6,1.5
			c-2.7,1.7-3.8,4.1-3.4,6.3c0.1-0.1,0.3-0.2,0.4-0.3C412.9,425.6,417.6,425,421.8,425.9z"/>
		<path class="st1" d="M444.4,437.7c-3.6,0.4-7.4-0.3-10.2-2.1c-4.7-3-4.7-7.9,0-10.9c3.3-2.1,8.1-2.8,12.2-1.9
			c-0.6-1.1-1.5-2.1-2.9-3c-4.7-3-12.2-3-16.9,0c-0.2,0.1-0.3,0.2-0.5,0.3c-2.1,1.5-3.1,3.4-3,5.3c-0.5,0.1-0.9,0.2-1.4,0.4
			c-4.2-0.9-8.9-0.3-12.2,1.9c-0.1,0.1-0.3,0.2-0.4,0.3c-4.2,3-4.1,7.7,0.4,10.6c3.1,2,7.5,2.6,11.5,2c0.3,1.7,1.4,3.4,3.5,4.7
			c4.7,3,12.2,3,16.9,0C444.6,443.2,445.6,440.3,444.4,437.7z"/>
		<path class="st0" d="M434.1,424.7c-4.7,3-4.6,7.9,0,10.9c2.8,1.8,6.6,2.5,10.2,2.1c2.4-0.2,4.8-1,6.7-2.2c4.7-3,4.6-7.9,0-10.9
			c-1.4-0.9-3-1.5-4.7-1.8C442.2,421.9,437.4,422.5,434.1,424.7z"/>
	</g>
	<g>
		<path class="st0" d="M377.3,366c-0.1-0.3-0.3-0.6-0.3-0.9c-2.9-0.2-5.7-1.2-7.7-2.7c-2.8,2.6-2.8,6.2,0.3,8.9c2.2,2,5.7,3,9.2,3.1
			c-0.1-0.1-0.3-0.2-0.4-0.3C375.6,371.6,375.4,368.5,377.3,366z"/>
		<path class="st1" d="M399,353.3c0,2.4-1.7,4.7-4.9,6.2c-5.3,2.5-12.8,1.8-16.7-1.6c-2.8-2.4-3-5.6-1-8.1c-1.8,0.2-3.5,0.6-5,1.4
			c-5.3,2.5-6.5,7.3-2.5,10.8c0.1,0.1,0.3,0.2,0.4,0.3c2,1.6,4.8,2.5,7.7,2.7c0.1,0.3,0.2,0.6,0.3,0.9c-2,2.5-1.8,5.6,1,8.1
			c0.1,0.1,0.3,0.2,0.4,0.3c4,3.2,11.2,3.8,16.3,1.3c3.5-1.7,5.2-4.4,4.8-7c2.7,0.1,5.4-0.4,7.7-1.5c5.3-2.5,6.5-7.3,2.5-10.8
			C407.4,354.1,403.1,353,399,353.3z"/>
		<path class="st0" d="M377.4,357.9c3.9,3.4,11.4,4.2,16.7,1.6c3.2-1.5,4.8-3.8,4.9-6.2c0-1.6-0.7-3.2-2.3-4.6
			c-3.9-3.4-11.4-4.2-16.7-1.6c-1.5,0.7-2.7,1.7-3.5,2.7C374.4,352.3,374.7,355.5,377.4,357.9z"/>
	</g>
	<g>
		<path class="st0" d="M581.9,113.9c-0.1-0.3-0.3-0.6-0.3-0.9c-2.9-0.2-5.7-1.2-7.7-2.7c-2.8,2.6-2.8,6.2,0.3,8.9
			c2.2,2,5.7,3,9.2,3.1c-0.1-0.1-0.3-0.2-0.4-0.3C580.2,119.5,579.9,116.4,581.9,113.9z"/>
		<path class="st1" d="M603.6,101.3c0,2.4-1.7,4.7-4.9,6.2c-5.3,2.5-12.8,1.8-16.7-1.6c-2.8-2.4-3-5.6-1-8.1c-1.8,0.2-3.5,0.6-5,1.4
			c-5.3,2.5-6.5,7.3-2.5,10.8c0.1,0.1,0.3,0.2,0.4,0.3c2,1.6,4.8,2.5,7.7,2.7c0.1,0.3,0.2,0.6,0.3,0.9c-2,2.5-1.8,5.6,1,8.1
			c0.1,0.1,0.3,0.2,0.4,0.3c4,3.2,11.2,3.8,16.3,1.3c3.5-1.7,5.2-4.4,4.8-7c2.7,0.1,5.4-0.4,7.7-1.5c5.3-2.5,6.5-7.3,2.5-10.8
			C612,102,607.7,100.9,603.6,101.3z"/>
		<path class="st0" d="M582,105.8c3.9,3.4,11.4,4.2,16.7,1.6c3.2-1.5,4.8-3.8,4.9-6.2c0-1.6-0.7-3.2-2.3-4.6
			c-3.9-3.4-11.4-4.2-16.7-1.6c-1.5,0.7-2.7,1.7-3.5,2.7C579,100.3,579.2,103.4,582,105.8z"/>
	</g>
	<g>
		<path class="st0" d="M391.4,294c-0.1-0.3-0.3-0.6-0.3-0.9c-2.9-0.2-5.7-1.2-7.7-2.7c-2.8,2.6-2.8,6.2,0.3,8.9c2.2,2,5.7,3,9.2,3.1
			c-0.1-0.1-0.3-0.2-0.4-0.3C389.6,299.6,389.4,296.5,391.4,294z"/>
		<path class="st1" d="M413,281.4c0,2.4-1.7,4.7-4.9,6.2c-5.3,2.5-12.8,1.8-16.7-1.6c-2.8-2.4-3-5.6-1-8.1c-1.8,0.2-3.5,0.6-5,1.4
			c-5.3,2.5-6.5,7.3-2.5,10.8c0.1,0.1,0.3,0.2,0.4,0.3c2,1.6,4.8,2.5,7.7,2.7c0.1,0.3,0.2,0.6,0.3,0.9c-2,2.5-1.8,5.6,1,8.1
			c0.1,0.1,0.3,0.2,0.4,0.3c4,3.2,11.2,3.8,16.3,1.3c3.5-1.7,5.2-4.4,4.8-7c2.7,0.1,5.4-0.4,7.7-1.5c5.3-2.5,6.5-7.3,2.5-10.8
			C421.5,282.1,417.2,281,413,281.4z"/>
		<path class="st0" d="M391.5,285.9c3.9,3.4,11.4,4.2,16.7,1.6c3.2-1.5,4.8-3.8,4.9-6.2c0-1.6-0.7-3.2-2.3-4.6
			c-3.9-3.4-11.4-4.2-16.7-1.6c-1.5,0.7-2.7,1.7-3.5,2.7C388.5,280.4,388.7,283.5,391.5,285.9z"/>
	</g>
	<g>
		<path class="st0" d="M438.9,152.4c-0.1-0.3-0.3-0.6-0.3-0.9c-2.9-0.2-5.7-1.2-7.7-2.7c-2.8,2.6-2.8,6.2,0.3,8.9
			c2.2,2,5.7,3,9.2,3.1c-0.1-0.1-0.3-0.2-0.4-0.3C437.1,158.1,436.9,155,438.9,152.4z"/>
		<path class="st1" d="M460.5,139.8c0,2.4-1.7,4.7-4.9,6.2c-5.3,2.5-12.8,1.8-16.7-1.6c-2.8-2.4-3-5.6-1-8.1c-1.8,0.2-3.5,0.6-5,1.4
			c-5.3,2.5-6.5,7.3-2.5,10.8c0.1,0.1,0.3,0.2,0.4,0.3c2,1.6,4.8,2.5,7.7,2.7c0.1,0.3,0.2,0.6,0.3,0.9c-2,2.5-1.8,5.6,1,8.1
			c0.1,0.1,0.3,0.2,0.4,0.3c4,3.2,11.2,3.8,16.3,1.3c3.5-1.7,5.2-4.4,4.8-7c2.7,0.1,5.4-0.4,7.7-1.5c5.3-2.5,6.5-7.3,2.5-10.8
			C469,140.6,464.7,139.5,460.5,139.8z"/>
		<path class="st0" d="M439,144.4c3.9,3.4,11.4,4.2,16.7,1.6c3.2-1.5,4.8-3.8,4.9-6.2c0-1.6-0.7-3.2-2.3-4.6
			c-3.9-3.4-11.4-4.2-16.7-1.6c-1.5,0.7-2.7,1.7-3.5,2.7C436,138.8,436.2,141.9,439,144.4z"/>
	</g>
	<g>
		<path class="st0" d="M258.5,347.8c-0.1-0.3-0.3-0.6-0.3-0.9c-2.9-0.2-5.7-1.2-7.7-2.7c-2.8,2.6-2.8,6.2,0.3,8.9
			c2.2,2,5.7,3,9.2,3.1c-0.1-0.1-0.3-0.2-0.4-0.3C256.8,353.5,256.6,350.3,258.5,347.8z"/>
		<path class="st1" d="M280.2,335.2c0,2.4-1.7,4.7-4.9,6.2c-5.3,2.5-12.8,1.8-16.7-1.6c-2.8-2.4-3-5.6-1-8.1c-1.8,0.2-3.5,0.6-5,1.4
			c-5.3,2.5-6.5,7.3-2.5,10.8c0.1,0.1,0.3,0.2,0.4,0.3c2,1.6,4.8,2.5,7.7,2.7c0.1,0.3,0.2,0.6,0.3,0.9c-2,2.5-1.8,5.6,1,8.1
			c0.1,0.1,0.3,0.2,0.4,0.3c4,3.2,11.2,3.8,16.3,1.3c3.5-1.7,5.2-4.4,4.8-7c2.7,0.1,5.4-0.4,7.7-1.5c5.3-2.5,6.5-7.3,2.5-10.8
			C288.6,335.9,284.3,334.9,280.2,335.2z"/>
		<path class="st0" d="M258.6,339.8c3.9,3.4,11.4,4.2,16.7,1.6c3.2-1.5,4.8-3.8,4.9-6.2c0-1.6-0.7-3.2-2.3-4.6
			c-3.9-3.4-11.4-4.2-16.7-1.6c-1.5,0.7-2.7,1.7-3.5,2.7C255.6,334.2,255.9,337.3,258.6,339.8z"/>
	</g>
	<g>
		<path class="st0" d="M479.8,394.1c-0.1-0.3-0.3-0.6-0.3-0.9c-2.9-0.2-5.7-1.2-7.7-2.7c-2.8,2.6-2.8,6.2,0.3,8.9
			c2.2,2,5.7,3,9.2,3.1c-0.1-0.1-0.3-0.2-0.4-0.3C478,399.7,477.8,396.6,479.8,394.1z"/>
		<path class="st1" d="M501.4,381.4c0,2.4-1.7,4.7-4.9,6.2c-5.3,2.5-12.8,1.8-16.7-1.6c-2.8-2.4-3-5.6-1-8.1c-1.8,0.2-3.5,0.6-5,1.4
			c-5.3,2.5-6.5,7.3-2.5,10.8c0.1,0.1,0.3,0.2,0.4,0.3c2,1.6,4.8,2.5,7.7,2.7c0.1,0.3,0.2,0.6,0.3,0.9c-2,2.5-1.8,5.6,1,8.1
			c0.1,0.1,0.3,0.2,0.4,0.3c4,3.2,11.2,3.8,16.3,1.3c3.5-1.7,5.2-4.4,4.8-7c2.7,0.1,5.4-0.4,7.7-1.5c5.3-2.5,6.5-7.3,2.5-10.8
			C509.9,382.2,505.5,381.1,501.4,381.4z"/>
		<path class="st0" d="M479.8,386c3.9,3.4,11.4,4.2,16.7,1.6c3.2-1.5,4.8-3.8,4.9-6.2c0-1.6-0.7-3.2-2.3-4.6
			c-3.9-3.4-11.4-4.2-16.7-1.6c-1.5,0.7-2.7,1.7-3.5,2.7C476.8,380.4,477.1,383.6,479.8,386z"/>
	</g>
	<g>
		<path class="st0" d="M627.9,454.6c0-0.3,0.1-0.6,0.2-1c-2.6-0.9-4.7-2.4-5.7-4.3c-4,1.8-6.1,5.1-4.7,8.4c1,2.4,3.6,4.2,6.8,5
			c-0.1-0.1-0.1-0.2-0.2-0.4C623.1,459.4,624.7,456.4,627.9,454.6z"/>
		<path class="st1" d="M655.1,447.8c-1.3,2.2-4.2,4-8,4.7c-6.4,1.1-12.9-1.3-14.7-5.4c-1.2-2.9,0.3-5.9,3.6-7.8
			c-1.8-0.2-3.6-0.2-5.5,0.1c-6.4,1.1-10.1,5.4-8.4,9.5c0.1,0.1,0.1,0.3,0.2,0.4c1,1.9,3.1,3.4,5.7,4.3c-0.1,0.3-0.2,0.6-0.2,1
			c-3.2,1.9-4.8,4.9-3.5,7.8c0.1,0.1,0.1,0.2,0.2,0.4c2,3.9,8.3,6.1,14.5,5c4.2-0.7,7.3-2.9,8.4-5.4c2.4,0.7,5.2,0.9,8,0.4
			c6.4-1.1,10.1-5.4,8.4-9.5C662.6,450.4,659.2,448.4,655.1,447.8z"/>
		<path class="st0" d="M632.5,447c1.7,4.1,8.3,6.5,14.7,5.4c3.8-0.7,6.7-2.5,8-4.7c0.9-1.5,1.1-3.2,0.4-4.8
			c-1.7-4.1-8.3-6.5-14.7-5.4c-1.8,0.3-3.5,0.9-4.8,1.7C632.8,441.2,631.3,444.1,632.5,447z"/>
	</g>
	<g>
		<path class="st0" d="M693.2,198.2c0-0.3,0.1-0.6,0.2-1c-2.6-0.9-4.7-2.4-5.7-4.3c-4,1.8-6.1,5.1-4.7,8.4c1,2.4,3.6,4.2,6.8,5
			c-0.1-0.1-0.1-0.2-0.2-0.4C688.5,203.1,690,200.1,693.2,198.2z"/>
		<path class="st1" d="M720.5,191.4c-1.3,2.2-4.2,4-8,4.7c-6.4,1.1-12.9-1.3-14.7-5.4c-1.2-2.9,0.3-5.9,3.6-7.8
			c-1.8-0.2-3.6-0.2-5.5,0.1c-6.4,1.1-10.1,5.4-8.4,9.5c0.1,0.1,0.1,0.3,0.2,0.4c1,1.9,3.1,3.4,5.7,4.3c-0.1,0.3-0.2,0.6-0.2,1
			c-3.2,1.9-4.8,4.9-3.5,7.8c0.1,0.1,0.1,0.2,0.2,0.4c2,3.9,8.3,6.1,14.5,5c4.2-0.7,7.3-2.9,8.4-5.4c2.4,0.7,5.2,0.9,8,0.4
			c6.4-1.1,10.1-5.4,8.4-9.5C728,194.1,724.5,192.1,720.5,191.4z"/>
		<path class="st0" d="M697.8,190.7c1.7,4.1,8.3,6.5,14.7,5.4c3.8-0.7,6.7-2.5,8-4.7c0.9-1.5,1.1-3.2,0.4-4.8
			c-1.7-4.1-8.3-6.5-14.7-5.4c-1.8,0.3-3.5,0.9-4.8,1.7C698.1,184.8,696.6,187.8,697.8,190.7z"/>
	</g>
	<g>
		<path class="st0" d="M490.5,319.4c0.4-0.2,0.7-0.4,1.1-0.6c-1-1.8-1-3.8,0.2-5.7c-4.9-0.4-9.8,1.3-12.1,4.3
			c-1.7,2.2-1.5,4.7,0,6.7c0.1-0.1,0.1-0.2,0.2-0.4C481.9,321.1,486.1,319.5,490.5,319.4z"/>
		<path class="st1" d="M517.9,325.9c-3.2,1.1-7.2,1.2-10.8,0.1c-5.9-1.9-8.4-6.5-5.5-10.3c2-2.7,6.2-4.3,10.6-4.3
			c-1.1-0.9-2.5-1.7-4.2-2.2c-5.9-1.9-13.1-0.3-16,3.6c-0.1,0.1-0.2,0.3-0.3,0.4c-1.2,1.9-1.2,3.9-0.2,5.7c-0.4,0.2-0.8,0.4-1.1,0.6
			c-4.4,0-8.5,1.6-10.6,4.3c-0.1,0.1-0.2,0.2-0.2,0.4c-2.5,3.8,0,8.1,5.8,9.9c3.9,1.2,8.4,0.9,11.8-0.5c1.1,1.6,3,2.9,5.6,3.7
			c5.9,1.9,13.1,0.3,16-3.6C520.8,331.1,520.3,328.1,517.9,325.9z"/>
		<path class="st0" d="M501.6,315.7c-2.9,3.8-0.4,8.4,5.5,10.3c3.5,1.1,7.5,1,10.8-0.1c2.2-0.7,4-1.9,5.2-3.4
			c2.9-3.8,0.4-8.4-5.5-10.3c-1.7-0.5-3.5-0.8-5.3-0.8C507.9,311.4,503.7,313,501.6,315.7z"/>
	</g>
	<g>
		<path class="st0" d="M590.3,373.4c0.4-0.2,0.7-0.4,1.1-0.6c-1-1.8-1-3.8,0.2-5.7c-4.9-0.4-9.8,1.3-12.1,4.3
			c-1.7,2.2-1.5,4.7,0,6.7c0.1-0.1,0.1-0.2,0.2-0.4C581.8,375,586,373.4,590.3,373.4z"/>
		<path class="st1" d="M617.7,379.9c-3.2,1.1-7.2,1.2-10.8,0.1c-5.9-1.9-8.4-6.5-5.5-10.3c2-2.7,6.2-4.3,10.6-4.3
			c-1.1-0.9-2.5-1.7-4.2-2.2c-5.9-1.9-13.1-0.3-16,3.6c-0.1,0.1-0.2,0.3-0.3,0.4c-1.2,1.9-1.2,3.9-0.2,5.7c-0.4,0.2-0.8,0.4-1.1,0.6
			c-4.4,0-8.5,1.6-10.6,4.3c-0.1,0.1-0.2,0.2-0.2,0.4c-2.5,3.8,0,8.1,5.8,9.9c3.9,1.2,8.4,0.9,11.8-0.5c1.1,1.6,3,2.9,5.6,3.7
			c5.9,1.9,13.1,0.3,16-3.6C620.6,385,620.1,382.1,617.7,379.9z"/>
		<path class="st0" d="M601.5,369.7c-2.9,3.8-0.4,8.4,5.5,10.3c3.5,1.1,7.5,1,10.8-0.1c2.2-0.7,4-1.9,5.2-3.4
			c2.9-3.8,0.4-8.4-5.5-10.3c-1.7-0.5-3.5-0.8-5.3-0.8C607.7,365.4,603.5,367,601.5,369.7z"/>
	</g>
	<g>
		<path class="st0" d="M323.2,660.4c0.4-0.2,0.7-0.4,1.1-0.6c-1-1.8-1-3.8,0.2-5.7c-4.9-0.4-9.8,1.3-12.1,4.3
			c-1.7,2.2-1.5,4.7,0,6.7c0.1-0.1,0.1-0.2,0.2-0.4C314.6,662.1,318.8,660.5,323.2,660.4z"/>
		<path class="st1" d="M350.6,666.9c-3.2,1.1-7.2,1.2-10.8,0.1c-5.9-1.9-8.4-6.5-5.5-10.3c2-2.7,6.2-4.3,10.6-4.3
			c-1.1-0.9-2.5-1.7-4.2-2.2c-5.9-1.9-13.1-0.3-16,3.6c-0.1,0.1-0.2,0.3-0.3,0.4c-1.2,1.9-1.2,3.9-0.2,5.7c-0.4,0.2-0.8,0.4-1.1,0.6
			c-4.4,0-8.5,1.6-10.6,4.3c-0.1,0.1-0.2,0.2-0.2,0.4c-2.5,3.8,0,8.1,5.8,9.9c3.9,1.2,8.4,0.9,11.8-0.5c1.1,1.6,3,2.9,5.6,3.7
			c5.9,1.9,13.1,0.3,16-3.6C353.5,672.1,353,669.1,350.6,666.9z"/>
		<path class="st0" d="M334.3,656.7c-2.9,3.8-0.4,8.4,5.5,10.3c3.5,1.1,7.5,1,10.8-0.1c2.2-0.7,4-1.9,5.2-3.4
			c2.9-3.8,0.4-8.4-5.5-10.3c-1.7-0.5-3.5-0.8-5.3-0.8C340.6,652.4,336.4,654,334.3,656.7z"/>
	</g>
	<g>
		<path class="st0" d="M543,230.2c0.4-0.2,0.7-0.4,1.1-0.6c-1-1.8-1-3.8,0.2-5.7c-4.9-0.4-9.8,1.3-12.1,4.3c-1.7,2.2-1.5,4.7,0,6.7
			c0.1-0.1,0.1-0.2,0.2-0.4C534.4,231.9,538.6,230.3,543,230.2z"/>
		<path class="st1" d="M570.4,236.7c-3.2,1.1-7.2,1.2-10.8,0.1c-5.9-1.9-8.4-6.5-5.5-10.3c2-2.7,6.2-4.3,10.6-4.3
			c-1.1-0.9-2.5-1.7-4.2-2.2c-5.9-1.9-13.1-0.3-16,3.6c-0.1,0.1-0.2,0.3-0.3,0.4c-1.2,1.9-1.2,3.9-0.2,5.7c-0.4,0.2-0.8,0.4-1.1,0.6
			c-4.4,0-8.5,1.6-10.6,4.3c-0.1,0.1-0.2,0.2-0.2,0.4c-2.5,3.8,0,8.1,5.8,9.9c3.9,1.2,8.4,0.9,11.8-0.5c1.1,1.6,3,2.9,5.6,3.7
			c5.9,1.9,13.1,0.3,16-3.6C573.3,241.9,572.8,238.9,570.4,236.7z"/>
		<path class="st0" d="M554.1,226.5c-2.9,3.8-0.4,8.4,5.5,10.3c3.5,1.1,7.5,1,10.8-0.1c2.2-0.7,4-1.9,5.2-3.4
			c2.9-3.8,0.4-8.4-5.5-10.3c-1.7-0.5-3.5-0.8-5.3-0.8C560.3,222.2,556.1,223.8,554.1,226.5z"/>
	</g>
	<g>
		<path class="st0" d="M537.3,448.9c0.4-0.2,0.7-0.4,1.1-0.6c-1-1.8-1-3.8,0.2-5.7c-4.9-0.4-9.8,1.3-12.1,4.3
			c-1.7,2.2-1.5,4.7,0,6.7c0.1-0.1,0.1-0.2,0.2-0.4C528.8,450.6,533,449,537.3,448.9z"/>
		<path class="st1" d="M564.7,455.4c-3.2,1.1-7.2,1.2-10.8,0.1c-5.9-1.9-8.4-6.5-5.5-10.3c2-2.7,6.2-4.3,10.6-4.3
			c-1.1-0.9-2.5-1.7-4.2-2.2c-5.9-1.9-13.1-0.3-16,3.6c-0.1,0.1-0.2,0.3-0.3,0.4c-1.2,1.9-1.2,3.9-0.2,5.7c-0.4,0.2-0.8,0.4-1.1,0.6
			c-4.4,0-8.5,1.6-10.6,4.3c-0.1,0.1-0.2,0.2-0.2,0.4c-2.5,3.8,0,8.1,5.8,9.9c3.9,1.2,8.4,0.9,11.8-0.5c1.1,1.6,3,2.9,5.6,3.7
			c5.9,1.9,13.1,0.3,16-3.6C567.6,460.6,567.1,457.6,564.7,455.4z"/>
		<path class="st0" d="M548.4,445.2c-2.9,3.8-0.4,8.4,5.5,10.3c3.5,1.1,7.5,1,10.8-0.1c2.2-0.7,4-1.9,5.2-3.4
			c2.9-3.8,0.4-8.4-5.5-10.3c-1.7-0.5-3.5-0.8-5.3-0.8C554.7,440.9,550.5,442.5,548.4,445.2z"/>
	</g>
	<g>
		<path class="st0" d="M850.8,479.1c0.4-0.2,0.7-0.4,1.1-0.6c-1-1.8-1-3.8,0.2-5.7c-4.9-0.4-9.8,1.3-12.1,4.3
			c-1.7,2.2-1.5,4.7,0,6.7c0.1-0.1,0.1-0.2,0.2-0.4C842.3,480.7,846.5,479.1,850.8,479.1z"/>
		<path class="st1" d="M878.2,485.6c-3.2,1.1-7.2,1.2-10.8,0.1c-5.9-1.9-8.4-6.5-5.5-10.3c2-2.7,6.2-4.3,10.6-4.3
			c-1.1-0.9-2.5-1.7-4.2-2.2c-5.9-1.9-13.1-0.3-16,3.6c-0.1,0.1-0.2,0.3-0.3,0.4c-1.2,1.9-1.2,3.9-0.2,5.7c-0.4,0.2-0.8,0.4-1.1,0.6
			c-4.4,0-8.5,1.6-10.6,4.3c-0.1,0.1-0.2,0.2-0.2,0.4c-2.5,3.8,0,8.1,5.8,9.9c3.9,1.2,8.4,0.9,11.8-0.5c1.1,1.6,3,2.9,5.6,3.7
			c5.9,1.9,13.1,0.3,16-3.6C881.1,490.8,880.6,487.8,878.2,485.6z"/>
		<path class="st0" d="M861.9,475.4c-2.9,3.8-0.4,8.4,5.5,10.3c3.5,1.1,7.5,1,10.8-0.1c2.2-0.7,4-1.9,5.2-3.4
			c2.9-3.8,0.4-8.4-5.5-10.3c-1.7-0.5-3.5-0.8-5.3-0.8C868.2,471.1,864,472.7,861.9,475.4z"/>
	</g>
	<g>
		<path class="st0" d="M478.6,507.6c0.4-0.2,0.7-0.4,1.1-0.6c-1-1.8-1-3.8,0.2-5.7c-4.9-0.4-9.8,1.3-12.1,4.3
			c-1.7,2.2-1.5,4.7,0,6.7c0.1-0.1,0.1-0.2,0.2-0.4C470,509.2,474.2,507.6,478.6,507.6z"/>
		<path class="st1" d="M506,514.1c-3.2,1.1-7.2,1.2-10.8,0.1c-5.9-1.9-8.4-6.5-5.5-10.3c2-2.7,6.2-4.3,10.6-4.3
			c-1.1-0.9-2.5-1.7-4.2-2.2c-5.9-1.9-13.1-0.3-16,3.6c-0.1,0.1-0.2,0.3-0.3,0.4c-1.2,1.9-1.2,3.9-0.2,5.7c-0.4,0.2-0.8,0.4-1.1,0.6
			c-4.4,0-8.5,1.6-10.6,4.3c-0.1,0.1-0.2,0.2-0.2,0.4c-2.5,3.8,0,8.1,5.8,9.9c3.9,1.2,8.4,0.9,11.8-0.5c1.1,1.6,3,2.9,5.6,3.7
			c5.9,1.9,13.1,0.3,16-3.6C508.9,519.2,508.4,516.3,506,514.1z"/>
		<path class="st0" d="M489.7,503.9c-2.9,3.8-0.4,8.4,5.5,10.3c3.5,1.1,7.5,1,10.8-0.1c2.2-0.7,4-1.9,5.2-3.4
			c2.9-3.8,0.4-8.4-5.5-10.3c-1.7-0.5-3.5-0.8-5.3-0.8C495.9,499.6,491.7,501.2,489.7,503.9z"/>
	</g>
	<g>
		<path class="st0" d="M527.7,648.3c0.4-0.2,0.7-0.4,1.1-0.6c-1-1.8-1-3.8,0.2-5.7c-4.9-0.4-9.8,1.3-12.1,4.3
			c-1.7,2.2-1.5,4.7,0,6.7c0.1-0.1,0.1-0.2,0.2-0.4C519.1,649.9,523.3,648.3,527.7,648.3z"/>
		<path class="st1" d="M555.1,654.8c-3.2,1.1-7.2,1.2-10.8,0.1c-5.9-1.9-8.4-6.5-5.5-10.3c2-2.7,6.2-4.3,10.6-4.3
			c-1.1-0.9-2.5-1.7-4.2-2.2c-5.9-1.9-13.1-0.3-16,3.6c-0.1,0.1-0.2,0.3-0.3,0.4c-1.2,1.9-1.2,3.9-0.2,5.7c-0.4,0.2-0.8,0.4-1.1,0.6
			c-4.4,0-8.5,1.6-10.6,4.3c-0.1,0.1-0.2,0.2-0.2,0.4c-2.5,3.8,0,8.1,5.8,9.9c3.9,1.2,8.4,0.9,11.8-0.5c1.1,1.6,3,2.9,5.6,3.7
			c5.9,1.9,13.1,0.3,16-3.6C558,659.9,557.5,657,555.1,654.8z"/>
		<path class="st0" d="M538.8,644.6c-2.9,3.8-0.4,8.4,5.5,10.3c3.5,1.1,7.5,1,10.8-0.1c2.2-0.7,4-1.9,5.2-3.4
			c2.9-3.8,0.4-8.4-5.5-10.3c-1.7-0.5-3.5-0.8-5.3-0.8C545.1,640.3,540.9,641.9,538.8,644.6z"/>
	</g>
	<g>
		<path class="st0" d="M762.4,344.8c0-0.3,0-0.6,0-1c-2.8-0.7-5.1-2-6.5-3.8c-3.7,2.1-5,5.6-3,8.7c1.5,2.3,4.4,3.8,7.8,4.5
			c-0.1-0.1-0.2-0.2-0.3-0.3C758.6,350,759.5,346.9,762.4,344.8z"/>
		<path class="st1" d="M788.1,335.9c-0.9,2.3-3.4,4.3-7,5.3c-6.1,1.6-13.1-0.2-15.6-4.2c-1.8-2.8-0.8-5.9,2-8
			c-1.8-0.1-3.6,0.1-5.4,0.6c-6.1,1.6-9,6.1-6.5,10.1c0.1,0.1,0.2,0.3,0.3,0.4c1.4,1.8,3.7,3.2,6.5,3.8c0,0.3,0,0.6,0,1
			c-2.9,2.1-3.8,5.2-2,8c0.1,0.1,0.2,0.2,0.3,0.3c2.7,3.7,9.4,5.4,15.4,3.8c4.1-1.1,6.7-3.4,7.2-6.1c2.6,0.5,5.4,0.5,8-0.3
			c6.1-1.6,9-6.1,6.5-10.1C796,337.9,792.2,336.2,788.1,335.9z"/>
		<path class="st0" d="M765.5,337c2.5,3.9,9.5,5.8,15.6,4.2c3.6-1,6.1-3,7-5.3c0.6-1.5,0.5-3.2-0.6-4.8c-2.5-3.9-9.5-5.8-15.6-4.2
			c-1.8,0.5-3.3,1.2-4.4,2.1C764.6,331.1,763.7,334.2,765.5,337z"/>
	</g>
	<g>
		<path class="st0" d="M898,181.8c0-0.3,0-0.6,0-1c-2.8-0.7-5.1-2-6.5-3.8c-3.7,2.1-5,5.6-3,8.7c1.5,2.3,4.4,3.8,7.8,4.5
			c-0.1-0.1-0.2-0.2-0.3-0.3C894.2,187,895.1,184,898,181.8z"/>
		<path class="st1" d="M923.7,172.9c-0.9,2.3-3.4,4.3-7,5.3c-6.1,1.6-13.1-0.2-15.6-4.2c-1.8-2.8-0.8-5.9,2-8
			c-1.8-0.1-3.6,0.1-5.4,0.6c-6.1,1.6-9,6.1-6.5,10.1c0.1,0.1,0.2,0.3,0.3,0.4c1.4,1.8,3.7,3.2,6.5,3.8c0,0.3,0,0.6,0,1
			c-2.9,2.1-3.8,5.2-2,8c0.1,0.1,0.2,0.2,0.3,0.3c2.7,3.7,9.4,5.4,15.4,3.8c4.1-1.1,6.7-3.4,7.2-6.1c2.6,0.5,5.4,0.5,8-0.3
			c6.1-1.6,9-6.1,6.5-10.1C931.6,174.9,927.8,173.2,923.7,172.9z"/>
		<path class="st0" d="M901.1,174c2.5,3.9,9.5,5.8,15.6,4.2c3.6-1,6.1-3,7-5.3c0.6-1.5,0.5-3.2-0.6-4.8c-2.5-3.9-9.5-5.8-15.6-4.2
			c-1.8,0.5-3.3,1.2-4.4,2.1C900.2,168.1,899.3,171.2,901.1,174z"/>
	</g>
	<g>
		<path class="st0" d="M760.7,291.9c0-0.3,0-0.6,0-1c-2.8-0.7-5.1-2-6.5-3.8c-3.7,2.1-5,5.6-3,8.7c1.5,2.3,4.4,3.8,7.8,4.5
			c-0.1-0.1-0.2-0.2-0.3-0.3C756.9,297.1,757.9,294.1,760.7,291.9z"/>
		<path class="st1" d="M786.4,283c-0.9,2.3-3.4,4.3-7,5.3c-6.1,1.6-13.1-0.2-15.6-4.2c-1.8-2.8-0.8-5.9,2-8
			c-1.8-0.1-3.6,0.1-5.4,0.6c-6.1,1.6-9,6.1-6.5,10.1c0.1,0.1,0.2,0.3,0.3,0.4c1.4,1.8,3.7,3.2,6.5,3.8c0,0.3,0,0.6,0,1
			c-2.9,2.1-3.8,5.2-2,8c0.1,0.1,0.2,0.2,0.3,0.3c2.7,3.7,9.4,5.4,15.4,3.8c4.1-1.1,6.7-3.4,7.2-6.1c2.6,0.5,5.4,0.5,8-0.3
			c6.1-1.6,9-6.1,6.5-10.1C794.4,285,790.6,283.3,786.4,283z"/>
		<path class="st0" d="M763.8,284.1c2.5,3.9,9.5,5.8,15.6,4.2c3.6-1,6.1-3,7-5.3c0.6-1.5,0.5-3.2-0.6-4.8c-2.5-3.9-9.5-5.8-15.6-4.2
			c-1.8,0.5-3.3,1.2-4.4,2.1C763,278.3,762,281.3,763.8,284.1z"/>
	</g>
	<g>
		<path class="st0" d="M848.8,316.1c0-0.3,0-0.6,0-1c-2.8-0.7-5.1-2-6.5-3.8c-3.7,2.1-5,5.6-3,8.7c1.5,2.3,4.4,3.8,7.8,4.5
			c-0.1-0.1-0.2-0.2-0.3-0.3C845,321.3,846,318.3,848.8,316.1z"/>
		<path class="st1" d="M874.5,307.2c-0.9,2.3-3.4,4.3-7,5.3c-6.1,1.6-13.1-0.2-15.6-4.2c-1.8-2.8-0.8-5.9,2-8
			c-1.8-0.1-3.6,0.1-5.4,0.6c-6.1,1.6-9,6.1-6.5,10.1c0.1,0.1,0.2,0.3,0.3,0.4c1.4,1.8,3.7,3.2,6.5,3.8c0,0.3,0,0.6,0,1
			c-2.9,2.1-3.8,5.2-2,8c0.1,0.1,0.2,0.2,0.3,0.3c2.7,3.7,9.4,5.4,15.4,3.8c4.1-1.1,6.7-3.4,7.2-6.1c2.6,0.5,5.4,0.5,8-0.3
			c6.1-1.6,9-6.1,6.5-10.1C882.4,309.2,878.7,307.5,874.5,307.2z"/>
		<path class="st0" d="M851.9,308.3c2.5,3.9,9.5,5.8,15.6,4.2c3.6-1,6.1-3,7-5.3c0.6-1.5,0.5-3.2-0.6-4.8c-2.5-3.9-9.5-5.8-15.6-4.2
			c-1.8,0.5-3.3,1.2-4.4,2.1C851,302.5,850.1,305.5,851.9,308.3z"/>
	</g>
	<g>
		<path class="st0" d="M916.1,371.2c0-0.3,0-0.6,0-1c-2.8-0.7-5.1-2-6.5-3.8c-3.7,2.1-5,5.6-3,8.7c1.5,2.3,4.4,3.8,7.8,4.5
			c-0.1-0.1-0.2-0.2-0.3-0.3C912.3,376.4,913.3,373.3,916.1,371.2z"/>
		<path class="st1" d="M941.8,362.2c-0.9,2.3-3.4,4.3-7,5.3c-6.1,1.6-13.1-0.2-15.6-4.2c-1.8-2.8-0.8-5.9,2-8
			c-1.8-0.1-3.6,0.1-5.4,0.6c-6.1,1.6-9,6.1-6.5,10.1c0.1,0.1,0.2,0.3,0.3,0.4c1.4,1.8,3.7,3.2,6.5,3.8c0,0.3,0,0.6,0,1
			c-2.9,2.1-3.8,5.2-2,8c0.1,0.1,0.2,0.2,0.3,0.3c2.7,3.7,9.4,5.4,15.4,3.8c4.1-1.1,6.7-3.4,7.2-6.1c2.6,0.5,5.4,0.5,8-0.3
			c6.1-1.6,9-6.1,6.5-10.1C949.7,364.3,946,362.6,941.8,362.2z"/>
		<path class="st0" d="M919.2,363.4c2.5,3.9,9.5,5.8,15.6,4.2c3.6-1,6.1-3,7-5.3c0.6-1.5,0.5-3.2-0.6-4.8c-2.5-3.9-9.5-5.8-15.6-4.2
			c-1.8,0.5-3.3,1.2-4.4,2.1C918.3,357.5,917.4,360.6,919.2,363.4z"/>
	</g>
	<g>
		<path class="st0" d="M1005.4,394.5c0-0.3,0-0.6,0-1c-2.8-0.7-5.1-2-6.5-3.8c-3.7,2.1-5,5.6-3,8.7c1.5,2.3,4.4,3.8,7.8,4.5
			c-0.1-0.1-0.2-0.2-0.3-0.3C1001.6,399.7,1002.5,396.6,1005.4,394.5z"/>
		<path class="st1" d="M1031.1,385.5c-0.9,2.3-3.4,4.3-7,5.3c-6.1,1.6-13.1-0.2-15.6-4.2c-1.8-2.8-0.8-5.9,2-8
			c-1.8-0.1-3.6,0.1-5.4,0.6c-6.1,1.6-9,6.1-6.5,10.1c0.1,0.1,0.2,0.3,0.3,0.4c1.4,1.8,3.7,3.2,6.5,3.8c0,0.3,0,0.6,0,1
			c-2.9,2.1-3.8,5.2-2,8c0.1,0.1,0.2,0.2,0.3,0.3c2.7,3.7,9.4,5.4,15.4,3.8c4.1-1.1,6.7-3.4,7.2-6.1c2.6,0.5,5.4,0.5,8-0.3
			c6.1-1.6,9-6.1,6.5-10.1C1039,387.6,1035.2,385.9,1031.1,385.5z"/>
		<path class="st0" d="M1008.5,386.7c2.5,3.9,9.5,5.8,15.6,4.2c3.6-1,6.1-3,7-5.3c0.6-1.5,0.5-3.2-0.6-4.8
			c-2.5-3.9-9.5-5.8-15.6-4.2c-1.8,0.5-3.3,1.2-4.4,2.1C1007.6,380.8,1006.7,383.9,1008.5,386.7z"/>
	</g>
	<g>
		<path class="st0" d="M932.5,475.1c0-0.3,0-0.6,0-1c-2.8-0.7-5.1-2-6.5-3.8c-3.7,2.1-5,5.6-3,8.7c1.5,2.3,4.4,3.8,7.8,4.5
			c-0.1-0.1-0.2-0.2-0.3-0.3C928.7,480.3,929.7,477.2,932.5,475.1z"/>
		<path class="st1" d="M958.2,466.1c-0.9,2.3-3.4,4.3-7,5.3c-6.1,1.6-13.1-0.2-15.6-4.2c-1.8-2.8-0.8-5.9,2-8
			c-1.8-0.1-3.6,0.1-5.4,0.6c-6.1,1.6-9,6.1-6.5,10.1c0.1,0.1,0.2,0.3,0.3,0.4c1.4,1.8,3.7,3.2,6.5,3.8c0,0.3,0,0.6,0,1
			c-2.9,2.1-3.8,5.2-2,8c0.1,0.1,0.2,0.2,0.3,0.3c2.7,3.7,9.4,5.4,15.4,3.8c4.1-1.1,6.7-3.4,7.2-6.1c2.6,0.5,5.4,0.5,8-0.3
			c6.1-1.6,9-6.1,6.5-10.1C966.1,468.2,962.4,466.5,958.2,466.1z"/>
		<path class="st0" d="M935.6,467.3c2.5,3.9,9.5,5.8,15.6,4.2c3.6-1,6.1-3,7-5.3c0.6-1.5,0.5-3.2-0.6-4.8c-2.5-3.9-9.5-5.8-15.6-4.2
			c-1.8,0.5-3.3,1.2-4.4,2.1C934.7,461.4,933.8,464.5,935.6,467.3z"/>
	</g>
	<g>
		<path class="st0" d="M844.4,596.8c0-0.3,0-0.6,0-1c-2.8-0.7-5.1-2-6.5-3.8c-3.7,2.1-5,5.6-3,8.7c1.5,2.3,4.4,3.8,7.8,4.5
			c-0.1-0.1-0.2-0.2-0.3-0.3C840.6,602,841.5,598.9,844.4,596.8z"/>
		<path class="st1" d="M870.1,587.9c-0.9,2.3-3.4,4.3-7,5.3c-6.1,1.6-13.1-0.2-15.6-4.2c-1.8-2.8-0.8-5.9,2-8
			c-1.8-0.1-3.6,0.1-5.4,0.6c-6.1,1.6-9,6.1-6.5,10.1c0.1,0.1,0.2,0.3,0.3,0.4c1.4,1.8,3.7,3.2,6.5,3.8c0,0.3,0,0.6,0,1
			c-2.9,2.1-3.8,5.2-2,8c0.1,0.1,0.2,0.2,0.3,0.3c2.7,3.7,9.4,5.4,15.4,3.8c4.1-1.1,6.7-3.4,7.2-6.1c2.6,0.5,5.4,0.5,8-0.3
			c6.1-1.6,9-6.1,6.5-10.1C878,589.9,874.2,588.2,870.1,587.9z"/>
		<path class="st0" d="M847.5,589c2.5,3.9,9.5,5.8,15.6,4.2c3.6-1,6.1-3,7-5.3c0.6-1.5,0.5-3.2-0.6-4.8c-2.5-3.9-9.5-5.8-15.6-4.2
			c-1.8,0.5-3.3,1.2-4.4,2.1C846.6,583.1,845.7,586.2,847.5,589z"/>
	</g>
	<g>
		<path class="st0" d="M709.5,399.3c0-0.3,0-0.6,0-1c-2.8-0.7-5.1-2-6.5-3.8c-3.7,2.1-5,5.6-3,8.7c1.5,2.3,4.4,3.8,7.8,4.5
			c-0.1-0.1-0.2-0.2-0.3-0.3C705.8,404.5,706.7,401.4,709.5,399.3z"/>
		<path class="st1" d="M735.2,390.4c-0.9,2.3-3.4,4.3-7,5.3c-6.1,1.6-13.1-0.2-15.6-4.2c-1.8-2.8-0.8-5.9,2-8
			c-1.8-0.1-3.6,0.1-5.4,0.6c-6.1,1.6-9,6.1-6.5,10.1c0.1,0.1,0.2,0.3,0.3,0.4c1.4,1.8,3.7,3.2,6.5,3.8c0,0.3,0,0.6,0,1
			c-2.9,2.1-3.8,5.2-2,8c0.1,0.1,0.2,0.2,0.3,0.3c2.7,3.7,9.4,5.4,15.4,3.8c4.1-1.1,6.7-3.4,7.2-6.1c2.6,0.5,5.4,0.5,8-0.3
			c6.1-1.6,9-6.1,6.5-10.1C743.2,392.4,739.4,390.7,735.2,390.4z"/>
		<path class="st0" d="M712.6,391.5c2.5,3.9,9.5,5.8,15.6,4.2c3.6-1,6.1-3,7-5.3c0.6-1.5,0.5-3.2-0.6-4.8c-2.5-3.9-9.5-5.8-15.6-4.2
			c-1.8,0.5-3.3,1.2-4.4,2.1C711.8,385.6,710.8,388.7,712.6,391.5z"/>
	</g>
	<g>
		<path class="st0" d="M661.1,335.9c0-0.3,0-0.6,0-1c-2.8-0.7-5.1-2-6.5-3.8c-3.7,2.1-5,5.6-3,8.7c1.5,2.3,4.4,3.8,7.8,4.5
			c-0.1-0.1-0.2-0.2-0.3-0.3C657.3,341.1,658.3,338,661.1,335.9z"/>
		<path class="st1" d="M686.8,326.9c-0.9,2.3-3.4,4.3-7,5.3c-6.1,1.6-13.1-0.2-15.6-4.2c-1.8-2.8-0.8-5.9,2-8
			c-1.8-0.1-3.6,0.1-5.4,0.6c-6.1,1.6-9,6.1-6.5,10.1c0.1,0.1,0.2,0.3,0.3,0.4c1.4,1.8,3.7,3.2,6.5,3.8c0,0.3,0,0.6,0,1
			c-2.9,2.1-3.8,5.2-2,8c0.1,0.1,0.2,0.2,0.3,0.3c2.7,3.7,9.4,5.4,15.4,3.8c4.1-1.1,6.7-3.4,7.2-6.1c2.6,0.5,5.4,0.5,8-0.3
			c6.1-1.6,9-6.1,6.5-10.1C694.8,329,691,327.3,686.8,326.9z"/>
		<path class="st0" d="M664.2,328c2.5,3.9,9.5,5.8,15.6,4.2c3.6-1,6.1-3,7-5.3c0.6-1.5,0.5-3.2-0.6-4.8c-2.5-3.9-9.5-5.8-15.6-4.2
			c-1.8,0.5-3.3,1.2-4.4,2.1C663.4,322.2,662.4,325.3,664.2,328z"/>
	</g>
	<g>
		<path class="st0" d="M708.4,516.5c0-0.3,0-0.6,0-1c-2.8-0.7-5.1-2-6.5-3.8c-3.7,2.1-5,5.6-3,8.7c1.5,2.3,4.4,3.8,7.8,4.5
			c-0.1-0.1-0.2-0.2-0.3-0.3C704.6,521.7,705.5,518.6,708.4,516.5z"/>
		<path class="st1" d="M734.1,507.5c-0.9,2.3-3.4,4.3-7,5.3c-6.1,1.6-13.1-0.2-15.6-4.2c-1.8-2.8-0.8-5.9,2-8
			c-1.8-0.1-3.6,0.1-5.4,0.6c-6.1,1.6-9,6.1-6.5,10.1c0.1,0.1,0.2,0.3,0.3,0.4c1.4,1.8,3.7,3.2,6.5,3.8c0,0.3,0,0.6,0,1
			c-2.9,2.1-3.8,5.2-2,8c0.1,0.1,0.2,0.2,0.3,0.3c2.7,3.7,9.4,5.4,15.4,3.8c4.1-1.1,6.7-3.4,7.2-6.1c2.6,0.5,5.4,0.5,8-0.3
			c6.1-1.6,9-6.1,6.5-10.1C742,509.6,738.2,507.8,734.1,507.5z"/>
		<path class="st0" d="M711.4,508.6c2.5,3.9,9.5,5.8,15.6,4.2c3.6-1,6.1-3,7-5.3c0.6-1.5,0.5-3.2-0.6-4.8c-2.5-3.9-9.5-5.8-15.6-4.2
			c-1.8,0.5-3.3,1.2-4.4,2.1C710.6,502.8,709.6,505.9,711.4,508.6z"/>
	</g>
	<g>
		<path class="st0" d="M842.3,402.9c0.2-0.3,0.4-0.6,0.6-0.9c-2.1-1.3-3.5-3.1-3.7-5.1c-4.6,1.1-8,3.9-8,7.3c0,2.4,1.8,4.6,4.5,6
			c0-0.1,0-0.3,0-0.4C835.7,406.8,838.4,404.2,842.3,402.9z"/>
		<path class="st1" d="M871.3,401c-2.2,1.9-5.7,3.1-9.6,3.1c-6.6,0-11.9-3.4-11.9-7.7c0-3,2.7-5.6,6.6-6.9c-1.6-0.5-3.4-0.8-5.3-0.8
			c-6.6,0-11.9,3.4-11.9,7.7c0,0.2,0,0.3,0,0.4c0.2,2,1.6,3.8,3.7,5.1c-0.2,0.3-0.4,0.6-0.6,0.9c-3.9,1.3-6.6,3.9-6.6,6.9
			c0,0.1,0,0.3,0,0.4c0.3,4.1,5.5,7.3,11.9,7.3c4.4,0,8.2-1.5,10.3-3.8c2.1,1.1,4.7,1.7,7.6,1.7c6.6,0,11.9-3.4,11.9-7.7
			C877.5,404.9,875,402.4,871.3,401z"/>
		<path class="st0" d="M849.8,396.5c0,4.3,5.3,7.7,11.9,7.7c3.9,0,7.4-1.2,9.6-3.1c1.5-1.3,2.3-2.9,2.3-4.6c0-4.3-5.3-7.7-11.9-7.7
			c-1.9,0-3.7,0.3-5.3,0.8C852.5,390.9,849.8,393.5,849.8,396.5z"/>
	</g>
	<g>
		<path class="st0" d="M754.6,483c0.2-0.3,0.4-0.6,0.6-0.9c-2.1-1.3-3.5-3.1-3.7-5.1c-4.6,1.1-8,3.9-8,7.3c0,2.4,1.8,4.6,4.5,6
			c0-0.1,0-0.3,0-0.4C748,486.8,750.7,484.2,754.6,483z"/>
		<path class="st1" d="M783.7,481.1c-2.2,1.9-5.7,3.1-9.6,3.1c-6.6,0-11.9-3.4-11.9-7.7c0-3,2.7-5.6,6.6-6.9
			c-1.6-0.5-3.4-0.8-5.3-0.8c-6.6,0-11.9,3.4-11.9,7.7c0,0.2,0,0.3,0,0.4c0.2,2,1.6,3.8,3.7,5.1c-0.2,0.3-0.4,0.6-0.6,0.9
			c-3.9,1.3-6.6,3.9-6.6,6.9c0,0.1,0,0.3,0,0.4c0.3,4.1,5.5,7.3,11.9,7.3c4.4,0,8.2-1.5,10.3-3.8c2.1,1.1,4.7,1.7,7.6,1.7
			c6.6,0,11.9-3.4,11.9-7.7C789.8,484.9,787.3,482.4,783.7,481.1z"/>
		<path class="st0" d="M762.1,476.5c0,4.3,5.3,7.7,11.9,7.7c3.9,0,7.4-1.2,9.6-3.1c1.5-1.3,2.3-2.9,2.3-4.6c0-4.3-5.3-7.7-11.9-7.7
			c-1.9,0-3.7,0.3-5.3,0.8C764.8,470.9,762.1,473.5,762.1,476.5z"/>
	</g>
	<g>
		<path class="st0" d="M738.5,574.8c0.2-0.3,0.4-0.6,0.6-0.9c-2.1-1.3-3.5-3.1-3.7-5.1c-4.6,1.1-8,3.9-8,7.3c0,2.4,1.8,4.6,4.5,6
			c0-0.1,0-0.3,0-0.4C731.9,578.7,734.6,576.1,738.5,574.8z"/>
		<path class="st1" d="M767.5,572.9c-2.2,1.9-5.7,3.1-9.6,3.1c-6.6,0-11.9-3.4-11.9-7.7c0-3,2.7-5.6,6.6-6.9
			c-1.6-0.5-3.4-0.8-5.3-0.8c-6.6,0-11.9,3.4-11.9,7.7c0,0.2,0,0.3,0,0.4c0.2,2,1.6,3.8,3.7,5.1c-0.2,0.3-0.4,0.6-0.6,0.9
			c-3.9,1.3-6.6,3.9-6.6,6.9c0,0.1,0,0.3,0,0.4c0.3,4.1,5.5,7.3,11.9,7.3c4.4,0,8.2-1.5,10.3-3.8c2.1,1.1,4.7,1.7,7.6,1.7
			c6.6,0,11.9-3.4,11.9-7.7C773.7,576.7,771.2,574.2,767.5,572.9z"/>
		<path class="st0" d="M746,568.3c0,4.3,5.3,7.7,11.9,7.7c3.9,0,7.4-1.2,9.6-3.1c1.5-1.3,2.3-2.9,2.3-4.6c0-4.3-5.3-7.7-11.9-7.7
			c-1.9,0-3.7,0.3-5.3,0.8C748.7,562.7,746,565.3,746,568.3z"/>
	</g>
	<g>
		<path class="st0" d="M621.4,581.6c0.4-0.2,0.8-0.4,1.2-0.6c-0.9-1.8-0.7-3.8,0.7-5.6c-4.8-0.6-9.9,0.8-12.5,3.8
			c-1.9,2.1-2,4.6-0.7,6.7c0.1-0.1,0.2-0.2,0.3-0.3C612.8,582.9,617.1,581.5,621.4,581.6z"/>
		<path class="st1" d="M648.1,589.3c-3.3,1-7.3,0.9-10.8-0.3c-5.7-2.1-7.7-6.8-4.5-10.5c2.3-2.6,6.7-4,11-3.9c-1-1-2.3-1.8-4-2.4
			c-5.7-2.1-13-0.8-16.3,2.9c-0.1,0.1-0.2,0.3-0.3,0.4c-1.4,1.8-1.6,3.8-0.7,5.6c-0.4,0.2-0.8,0.4-1.2,0.6c-4.4-0.1-8.7,1.3-11,3.9
			c-0.1,0.1-0.2,0.2-0.3,0.3c-2.9,3.6-0.8,8.1,4.7,10.2c3.8,1.4,8.3,1.3,11.9,0c1,1.6,2.7,3,5.2,3.9c5.7,2.1,13,0.8,16.3-2.9
			C650.5,594.5,650.3,591.6,648.1,589.3z"/>
		<path class="st0" d="M632.9,578.4c-3.3,3.7-1.3,8.4,4.5,10.5c3.4,1.3,7.4,1.3,10.8,0.3c2.3-0.6,4.2-1.7,5.5-3.2
			c3.3-3.7,1.3-8.4-4.5-10.5c-1.7-0.6-3.5-0.9-5.2-1C639.6,574.4,635.2,575.8,632.9,578.4z"/>
	</g>
	<g>
		<path class="st0" d="M583.4,531.1c0.4-0.2,0.8-0.4,1.2-0.6c-0.9-1.8-0.7-3.8,0.7-5.6c-4.8-0.6-9.9,0.8-12.5,3.8
			c-1.9,2.1-2,4.6-0.7,6.7c0.1-0.1,0.2-0.2,0.3-0.3C574.7,532.3,579.1,530.9,583.4,531.1z"/>
		<path class="st1" d="M610.1,538.7c-3.3,1-7.3,0.9-10.8-0.3c-5.7-2.1-7.7-6.8-4.5-10.5c2.3-2.6,6.7-4,11-3.9c-1-1-2.3-1.8-4-2.4
			c-5.7-2.1-13-0.8-16.3,2.9c-0.1,0.1-0.2,0.3-0.3,0.4c-1.4,1.8-1.6,3.8-0.7,5.6c-0.4,0.2-0.8,0.4-1.2,0.6c-4.4-0.1-8.7,1.3-11,3.9
			c-0.1,0.1-0.2,0.2-0.3,0.3c-2.9,3.6-0.8,8.1,4.7,10.2c3.8,1.4,8.3,1.3,11.9,0c1,1.6,2.7,3,5.2,3.9c5.7,2.1,13,0.8,16.3-2.9
			C612.5,544,612.3,541,610.1,538.7z"/>
		<path class="st0" d="M594.9,527.9c-3.3,3.7-1.3,8.4,4.5,10.5c3.4,1.3,7.4,1.3,10.8,0.3c2.3-0.6,4.2-1.7,5.5-3.2
			c3.3-3.7,1.3-8.4-4.5-10.5c-1.7-0.6-3.5-0.9-5.2-1C601.6,523.8,597.2,525.2,594.9,527.9z"/>
	</g>
	<g>
		<path class="st0" d="M449.1,600.3c0.4-0.2,0.8-0.4,1.2-0.6c-0.9-1.8-0.7-3.8,0.7-5.6c-4.8-0.6-9.9,0.8-12.5,3.8
			c-1.9,2.1-2,4.6-0.7,6.7c0.1-0.1,0.2-0.2,0.3-0.3C440.4,601.5,444.7,600.1,449.1,600.3z"/>
		<path class="st1" d="M475.8,607.9c-3.3,1-7.3,0.9-10.8-0.3c-5.7-2.1-7.7-6.8-4.5-10.5c2.3-2.6,6.7-4,11-3.9c-1-1-2.3-1.8-4-2.4
			c-5.7-2.1-13-0.8-16.3,2.9c-0.1,0.1-0.2,0.3-0.3,0.4c-1.4,1.8-1.6,3.8-0.7,5.6c-0.4,0.2-0.8,0.4-1.2,0.6c-4.4-0.1-8.7,1.3-11,3.9
			c-0.1,0.1-0.2,0.2-0.3,0.3c-2.9,3.6-0.8,8.1,4.7,10.2c3.8,1.4,8.3,1.3,11.9,0c1,1.6,2.7,3,5.2,3.9c5.7,2.1,13,0.8,16.3-2.9
			C478.2,613.2,477.9,610.2,475.8,607.9z"/>
		<path class="st0" d="M460.6,597.1c-3.3,3.7-1.3,8.4,4.5,10.5c3.4,1.3,7.4,1.3,10.8,0.3c2.3-0.6,4.2-1.7,5.5-3.2
			c3.3-3.7,1.3-8.4-4.5-10.5c-1.7-0.6-3.5-0.9-5.2-1C467.2,593,462.9,594.4,460.6,597.1z"/>
	</g>
	<g>
		<path class="st0" d="M308.4,407.6c0.4-0.2,0.8-0.4,1.2-0.6c-0.9-1.8-0.7-3.8,0.7-5.6c-4.8-0.6-9.9,0.8-12.5,3.8
			c-1.9,2.1-2,4.6-0.7,6.7c0.1-0.1,0.2-0.2,0.3-0.3C299.7,408.9,304.1,407.5,308.4,407.6z"/>
		<path class="st1" d="M335.1,415.3c-3.3,1-7.3,0.9-10.8-0.3c-5.7-2.1-7.7-6.8-4.5-10.5c2.3-2.6,6.7-4,11-3.9c-1-1-2.3-1.8-4-2.4
			c-5.7-2.1-13-0.8-16.3,2.9c-0.1,0.1-0.2,0.3-0.3,0.4c-1.4,1.8-1.6,3.8-0.7,5.6c-0.4,0.2-0.8,0.4-1.2,0.6c-4.4-0.1-8.7,1.3-11,3.9
			c-0.1,0.1-0.2,0.2-0.3,0.3c-2.9,3.6-0.8,8.1,4.7,10.2c3.8,1.4,8.3,1.3,11.9,0c1,1.6,2.7,3,5.2,3.9c5.7,2.1,13,0.8,16.3-2.9
			C337.5,420.5,337.3,417.6,335.1,415.3z"/>
		<path class="st0" d="M319.9,404.4c-3.3,3.7-1.3,8.4,4.5,10.5c3.4,1.3,7.4,1.3,10.8,0.3c2.3-0.6,4.2-1.7,5.5-3.2
			c3.3-3.7,1.3-8.4-4.5-10.5c-1.7-0.6-3.5-0.9-5.2-1C326.6,400.4,322.2,401.8,319.9,404.4z"/>
	</g>
	<g>
		<path class="st0" d="M600.8,663.2c0.1-0.3,0.3-0.6,0.4-0.9c-2.3-1.1-4-2.8-4.6-4.8c-4.4,1.4-7.2,4.4-6.7,7.8
			c0.4,2.4,2.5,4.5,5.5,5.7c0-0.1-0.1-0.3-0.1-0.4C594.9,667.6,597.2,664.8,600.8,663.2z"/>
		<path class="st1" d="M629.4,659.3c-1.8,2-5.1,3.5-9,3.8c-6.6,0.5-12.5-2.6-13.2-6.8c-0.5-3,1.7-5.8,5.4-7.3
			c-1.7-0.4-3.5-0.6-5.4-0.4c-6.6,0.5-11.3,4.3-10.6,8.5c0,0.2,0.1,0.3,0.1,0.4c0.5,2,2.2,3.7,4.6,4.8c-0.2,0.3-0.3,0.6-0.4,0.9
			c-3.7,1.5-5.9,4.3-5.4,7.3c0,0.1,0.1,0.3,0.1,0.4c1,4,6.7,6.9,13.1,6.4c4.4-0.3,7.9-2.1,9.6-4.5c2.2,0.9,5,1.4,7.8,1.2
			c6.6-0.5,11.3-4.3,10.6-8.5C636.1,662.7,633.2,660.3,629.4,659.3z"/>
		<path class="st0" d="M607.2,656.3c0.7,4.2,6.6,7.3,13.2,6.8c3.9-0.3,7.2-1.8,9-3.8c1.2-1.4,1.8-3,1.5-4.7
			c-0.7-4.2-6.6-7.3-13.2-6.8c-1.9,0.1-3.6,0.6-5.2,1.2C608.9,650.5,606.6,653.3,607.2,656.3z"/>
	</g>
	<g>
		<path class="st0" d="M732.9,669.9c0.4-0.2,0.8-0.4,1.2-0.6c-0.9-1.8-0.8-3.8,0.6-5.7c-4.9-0.5-9.9,1-12.4,3.9
			c-1.8,2.1-1.9,4.6-0.5,6.7c0.1-0.1,0.2-0.2,0.3-0.3C724.2,671.2,728.5,669.8,732.9,669.9z"/>
		<path class="st1" d="M759.8,677.2c-3.3,1-7.3,1-10.8-0.2c-5.8-2-7.9-6.7-4.8-10.5c2.2-2.7,6.6-4.1,10.9-4c-1-0.9-2.4-1.8-4.1-2.4
			c-5.8-2-13-0.7-16.2,3.1c-0.1,0.1-0.2,0.3-0.3,0.4c-1.3,1.8-1.5,3.8-0.6,5.7c-0.4,0.2-0.8,0.4-1.2,0.6c-4.4-0.1-8.7,1.4-10.9,4
			c-0.1,0.1-0.2,0.2-0.3,0.3c-2.8,3.7-0.6,8.1,5,10.1c3.9,1.4,8.3,1.2,11.9-0.2c1,1.6,2.8,3,5.3,3.9c5.8,2,13,0.7,16.2-3.1
			C762.3,682.4,762,679.4,759.8,677.2z"/>
		<path class="st0" d="M744.2,666.5c-3.2,3.7-1,8.4,4.8,10.5c3.5,1.2,7.4,1.2,10.8,0.2c2.2-0.7,4.2-1.8,5.4-3.3
			c3.2-3.7,1-8.4-4.8-10.5c-1.7-0.6-3.5-0.9-5.3-0.9C750.8,662.4,746.5,663.8,744.2,666.5z"/>
	</g>
	<g>
		<path class="st0" d="M903.2,553.7c-0.1-0.3-0.1-0.6-0.1-1c-2.8-0.6-5.3-1.8-6.8-3.6c-3.4,2.3-4.5,5.8-2.2,8.8
			c1.7,2.2,4.8,3.6,8.2,4.1c-0.1-0.1-0.2-0.2-0.3-0.3C900,559.1,900.6,556,903.2,553.7z"/>
		<path class="st1" d="M928,543.8c-0.7,2.3-2.9,4.4-6.5,5.6c-5.9,1.9-13.1,0.3-16-3.5c-2.1-2.7-1.4-5.8,1.2-8.1
			c-1.8,0-3.6,0.2-5.3,0.8c-5.9,1.9-8.4,6.5-5.4,10.3c0.1,0.1,0.2,0.3,0.3,0.4c1.5,1.8,4,3,6.8,3.6c0,0.3,0,0.6,0.1,1
			c-2.6,2.2-3.3,5.3-1.2,8c0.1,0.1,0.2,0.2,0.3,0.3c3.1,3.6,10,5,15.7,3.2c3.9-1.2,6.3-3.7,6.6-6.3c2.6,0.4,5.4,0.2,8-0.6
			c5.9-1.9,8.4-6.5,5.4-10.3C936.1,545.5,932.2,543.9,928,543.8z"/>
		<path class="st0" d="M905.5,545.8c2.9,3.8,10.1,5.4,16,3.5c3.5-1.1,5.8-3.2,6.5-5.6c0.4-1.6,0.1-3.2-1-4.8
			c-2.9-3.8-10.1-5.4-16-3.5c-1.7,0.5-3.1,1.3-4.2,2.2C904.1,540,903.5,543.1,905.5,545.8z"/>
	</g>
	<g>
		<path class="st0" d="M1007.5,463.8c-0.1-0.3-0.2-0.6-0.3-0.9c-2.9-0.3-5.6-1.4-7.4-3c-3,2.5-3.4,6.1-0.6,8.9
			c2.1,2.1,5.4,3.3,8.9,3.5c-0.1-0.1-0.2-0.2-0.4-0.3C1005.2,469.4,1005.2,466.2,1007.5,463.8z"/>
		<path class="st1" d="M1030.2,452c-0.2,2.4-2.1,4.6-5.4,6c-5.5,2.3-12.9,1.3-16.5-2.3c-2.5-2.5-2.5-5.7-0.2-8.1
			c-1.8,0.1-3.5,0.5-5.2,1.2c-5.5,2.3-7.1,7.1-3.5,10.7c0.1,0.1,0.3,0.2,0.4,0.4c1.9,1.6,4.5,2.7,7.4,3c0.1,0.3,0.1,0.6,0.3,0.9
			c-2.2,2.4-2.3,5.6,0.3,8.1c0.1,0.1,0.2,0.2,0.4,0.3c3.7,3.3,10.8,4.2,16.2,2c3.7-1.5,5.6-4.2,5.4-6.8c2.6,0.2,5.4-0.2,7.8-1.2
			c5.5-2.3,7.1-7.1,3.5-10.7C1038.6,453.1,1034.4,451.9,1030.2,452z"/>
		<path class="st0" d="M1008.3,455.8c3.6,3.6,11,4.6,16.5,2.3c3.3-1.4,5.2-3.6,5.4-6c0.2-1.6-0.4-3.2-1.9-4.7
			c-3.6-3.6-11-4.6-16.5-2.3c-1.6,0.7-2.9,1.6-3.8,2.5C1005.8,450.1,1005.7,453.2,1008.3,455.8z"/>
	</g>
	<g>
		<path class="st0" d="M972.1,324.7c0-0.3,0-0.6,0-1c-2.7-0.7-5-2.1-6.4-3.9c-3.7,2.1-5.2,5.5-3.3,8.6c1.4,2.3,4.3,3.9,7.6,4.5
			c-0.1-0.1-0.2-0.2-0.2-0.4C968.2,329.8,969.2,326.8,972.1,324.7z"/>
		<path class="st1" d="M998,316.1c-0.9,2.3-3.5,4.3-7.2,5.2c-6.1,1.6-13.1-0.4-15.5-4.3c-1.7-2.8-0.7-5.9,2.3-8
			c-1.8-0.1-3.6,0-5.4,0.5c-6.1,1.6-9.2,6-6.7,10c0.1,0.1,0.2,0.3,0.3,0.4c1.3,1.8,3.6,3.2,6.4,3.9c0,0.3-0.1,0.6,0,1
			c-2.9,2.1-3.9,5.2-2.2,8c0.1,0.1,0.2,0.2,0.2,0.4c2.6,3.7,9.3,5.5,15.2,4c4.1-1,6.8-3.4,7.4-6c2.5,0.5,5.4,0.5,8-0.2
			c6.1-1.6,9.2-6,6.7-10C1005.9,318.2,1002.2,316.4,998,316.1z"/>
		<path class="st0" d="M975.4,316.9c2.4,4,9.4,5.9,15.5,4.3c3.7-0.9,6.2-2.9,7.2-5.2c0.6-1.5,0.6-3.2-0.4-4.8
			c-2.4-4-9.4-5.9-15.5-4.3c-1.8,0.5-3.3,1.2-4.5,2C974.7,311,973.7,314.1,975.4,316.9z"/>
	</g>
	<g>
		<path class="st0" d="M987.1,246c0.2-0.3,0.4-0.6,0.6-0.9c-2.1-1.3-3.5-3.1-3.7-5.1c-4.6,1.1-8,3.9-8,7.3c0,2.4,1.8,4.6,4.5,6
			c0-0.1,0-0.3,0-0.4C980.5,249.9,983.2,247.3,987.1,246z"/>
		<path class="st1" d="M1016.1,244.1c-2.2,1.9-5.7,3.1-9.6,3.1c-6.6,0-11.9-3.4-11.9-7.7c0-3,2.7-5.6,6.6-6.9
			c-1.6-0.5-3.4-0.8-5.3-0.8c-6.6,0-11.9,3.4-11.9,7.7c0,0.2,0,0.3,0,0.4c0.2,2,1.6,3.8,3.7,5.1c-0.2,0.3-0.4,0.6-0.6,0.9
			c-3.9,1.3-6.6,3.9-6.6,6.9c0,0.1,0,0.3,0,0.4c0.3,4.1,5.5,7.3,11.9,7.3c4.4,0,8.2-1.5,10.3-3.8c2.1,1.1,4.7,1.7,7.6,1.7
			c6.6,0,11.9-3.4,11.9-7.7C1022.2,248,1019.8,245.4,1016.1,244.1z"/>
		<path class="st0" d="M994.6,239.6c0,4.3,5.3,7.7,11.9,7.7c3.9,0,7.4-1.2,9.6-3.1c1.5-1.3,2.3-2.9,2.3-4.6c0-4.3-5.3-7.7-11.9-7.7
			c-1.9,0-3.7,0.3-5.3,0.8C997.3,233.9,994.6,236.5,994.6,239.6z"/>
	</g>
</g>
</svg>
