<?xml version="1.0" encoding="utf-8"?>
<!-- Generator: Adobe Illustrator 21.0.0, SVG Export Plug-In . SVG Version: 6.00 Build 0)  -->
<!DOCTYPE svg PUBLIC "-//W3C//DTD SVG 1.1//EN" "http://www.w3.org/Graphics/SVG/1.1/DTD/svg11.dtd">
<svg version="1.1" xmlns="http://www.w3.org/2000/svg" xmlns:xlink="http://www.w3.org/1999/xlink" x="0px" y="0px"
	 viewBox="0 0 1131.4 754.4" style="enable-background:new 0 0 1131.4 754.4;" xml:space="preserve">
<style type="text/css">
	.st0{fill:#C49A6C;}
	.st1{fill:#DECAA5;}
</style>
<g id="Background">
	<path class="st0" d="M1029.5,181.8c-26.2-36.9-104.8-86.3-177.8-114.7s-206-43.8-328-38.7s-289,58-374,109.6S26.3,250.5,12.6,329.6
		C0.4,400,23.7,464.3,44.7,508.1s37,95.4,169.7,159.6c132.7,64.2,216.3,86.7,417.3,72.5s330-84.5,394-146c64-61.5,90-116.5,96-224.8
		S1055.7,218.6,1029.5,181.8z M1051.4,481.6c-22.3,46.4-71.4,100.4-114.9,122.8c-43.5,22.3-84.9,71.2-230.3,90.9
		C560.7,715,482,712.3,386.5,690C291,667.6,170,611.2,108.4,502.9c-61.6-108.2-49.5-159.3,7.8-246.4s122.6-106.9,176.5-127.9
		c53.9-20.9,134.6-47.5,230.8-55.7c108.2-9.3,197.5-0.9,284.2,35.2c86.7,36.1,192.6,117.3,225.4,183.7
		C1066,358.3,1073.6,435.2,1051.4,481.6z"/>
	<ellipse class="st1" cx="565.7" cy="368.5" rx="540" ry="348.2"/>
</g>
<g id="Cheese">
</g>
<g id="Pepperoni">
</g>
<g id="Peppers">
</g>
<g id="Mushrooms">
</g>
<g id="Ham">
</g>
<g id="Pineapple">
</g>
<g id="Bacon">
</g>
<g id="Sausage">
</g>
<g id="Crust">
</g>
</svg>
