<?xml version="1.0" encoding="utf-8"?>
<!-- Generator: Adobe Illustrator 21.0.0, SVG Export Plug-In . SVG Version: 6.00 Build 0)  -->
<!DOCTYPE svg PUBLIC "-//W3C//DTD SVG 1.1//EN" "http://www.w3.org/Graphics/SVG/1.1/DTD/svg11.dtd">
<svg version="1.1" xmlns="http://www.w3.org/2000/svg" xmlns:xlink="http://www.w3.org/1999/xlink" x="0px" y="0px"
	 viewBox="0 0 1131.4 754.4" style="enable-background:new 0 0 1131.4 754.4;" xml:space="preserve">
<style type="text/css">
	.st0{fill:#F1634D;}
	.st1{fill:#E8AB98;}
</style>
<g id="Background">
</g>
<g id="Cheese">
</g>
<g id="Pepperoni">
</g>
<g id="Peppers">
</g>
<g id="Mushrooms">
</g>
<g id="Ham">
</g>
<g id="Pineapple">
</g>
<g id="Bacon">
	<g>
		<path class="st0" d="M897.3,396.8c14.3-0.5,27,1.9,38.3,6.8l2.6-6c0.4-1-0.2-2.1-1.6-2.6c-10.7-4.2-22.6-6.2-36-5.8
			c-12.7,0.2-24.5-1.8-35.5-5.5c-2.1-0.7-4.6,0-5.3,1.4l-2,4.8C870,394.5,883.1,397,897.3,396.8z"/>
		<path class="st0" d="M892.3,408.5c12.6-0.4,24,1.4,34.3,5.2c2.1,0.8,4.7,0.1,5.3-1.4l0,0c-11.3-4.9-24-7.2-38.3-6.8
			c-14.2,0.2-27.3-2.3-39.6-7l-0.5,1.3c-0.4,1.1,0.3,2.2,1.8,2.7C866.8,406.6,879.1,408.7,892.3,408.5z"/>
		<path class="st1" d="M893.6,405.5c14.3-0.5,27,1.9,38.3,6.8l2.4-5.7l0.9-2l0.4-1c-11.3-4.9-24-7.2-38.3-6.8
			c-14.2,0.2-27.3-2.3-39.6-7l-0.4,1l-0.9,2l-2.4,5.7C866.3,403.2,879.4,405.7,893.6,405.5z"/>
	</g>
	<g>
		<path class="st0" d="M636.8,484.1c-10.6-6.2-16.9-13.7-19.5-22.3l-8.4,3.1c-1.4,0.5-2.1,1.6-1.8,2.6c2.9,7.9,9.1,14.8,18.9,20.6
			c9.1,5.7,15.3,12.4,18.9,20.2c0.7,1.5,3.3,2.1,5.3,1.4l6.7-2.4C653.5,498.2,647,490.4,636.8,484.1z"/>
		<path class="st0" d="M653.2,478.1c-9.3-5.5-15.4-12-18.4-19.3c-0.6-1.5-3.2-2.2-5.3-1.4l0,0c2.6,8.6,8.9,16.1,19.5,22.3
			c10.3,6.3,16.7,14.1,20.2,23l1.8-0.6c1.5-0.5,2.2-1.7,1.7-2.7C669,491.2,662.8,484,653.2,478.1z"/>
		<path class="st1" d="M649,479.7c-10.6-6.2-16.9-13.7-19.5-22.3l-7.9,2.9l-2.8,1l-1.4,0.5c2.6,8.6,8.9,16.1,19.5,22.3
			c10.3,6.3,16.7,14.1,20.2,23l1.4-0.5l2.8-1l7.9-2.9C665.7,493.8,659.2,486,649,479.7z"/>
	</g>
	<g>
		<path class="st0" d="M679.5,579.9c-13.6,2.9-26.8,2.8-39.7,0v6.2c0,1.1,1.1,2,2.7,2.3c12,2.2,24.4,2.2,37.1-0.5
			c12.1-2.4,24.3-2.5,36.6-0.7c2.3,0.3,4.5-0.8,4.5-2.3v-5C706.8,577.4,693.1,577.2,679.5,579.9z"/>
		<path class="st0" d="M679.5,567.7c-12,2.6-23.7,2.8-35.2,0.9c-2.3-0.4-4.5,0.7-4.5,2.3l0,0c12.9,2.8,26.1,2.9,39.7,0
			c13.6-2.6,27.3-2.5,41,0v-1.3c0-1.1-1.2-2-2.8-2.3C704.9,565.2,692.2,565.2,679.5,567.7z"/>
		<path class="st1" d="M679.5,570.8c-13.6,2.9-26.8,2.8-39.7,0v5.9v2.1v1c12.9,2.8,26.1,2.9,39.7,0c13.6-2.6,27.3-2.5,41,0v-1v-2.1
			v-5.9C706.8,568.4,693.1,568.2,679.5,570.8z"/>
	</g>
	<g>
		<path class="st0" d="M875,597.4c-3.9-13.4-4.8-26.5-3.1-39.6l-6.2,0.5c-1.1,0.1-1.9,1.2-2.1,2.8c-1.3,12.2-0.3,24.5,3.4,36.9
			c3.3,11.9,4.3,24,3.5,36.4c-0.1,2.3,1.1,4.4,2.6,4.3l5-0.4C879.6,624.4,878.7,610.8,875,597.4z"/>
		<path class="st0" d="M887.1,596.5c-3.5-11.8-4.6-23.4-3.6-35c0.2-2.3-1.1-4.5-2.6-4.4l0,0c-1.8,13.1-0.9,26.2,3.1,39.6
			c3.7,13.4,4.6,27,3.2,40.9l1.3-0.1c1.1-0.1,1.9-1.3,2.1-3C891.6,621.6,890.6,608.9,887.1,596.5z"/>
		<path class="st1" d="M884,596.7c-3.9-13.4-4.8-26.5-3.1-39.6l-5.9,0.5l-2.1,0.2l-1,0.1c-1.8,13.1-0.9,26.2,3.1,39.6
			c3.7,13.4,4.6,27,3.2,40.9l1-0.1l2.1-0.2l5.9-0.5C888.6,623.7,887.7,610.1,884,596.7z"/>
	</g>
	<g>
		<path class="st0" d="M438.2,679.2c-13.6,2.9-26.8,2.8-39.7,0v6.2c0,1.1,1.1,2,2.7,2.3c12,2.2,24.4,2.2,37.1-0.5
			c12.1-2.4,24.3-2.5,36.6-0.7c2.3,0.3,4.5-0.8,4.5-2.3v-5C465.5,676.8,451.8,676.6,438.2,679.2z"/>
		<path class="st0" d="M438.2,667c-12,2.6-23.7,2.8-35.2,0.9c-2.3-0.4-4.5,0.7-4.5,2.3l0,0c12.9,2.8,26.1,2.9,39.7,0
			c13.6-2.6,27.3-2.5,41,0v-1.3c0-1.1-1.2-2-2.8-2.3C463.6,664.6,450.8,664.6,438.2,667z"/>
		<path class="st1" d="M438.2,670.2c-13.6,2.9-26.8,2.8-39.7,0v5.9v2.1v1c12.9,2.8,26.1,2.9,39.7,0c13.6-2.6,27.3-2.5,41,0v-1v-2.1
			v-5.9C465.5,667.7,451.8,667.5,438.2,670.2z"/>
	</g>
	<g>
		<path class="st0" d="M277.9,548.9c-8.7,7.3-19.7,12.1-32.8,14.5l5.5,5.1c0.9,0.9,2.6,1.2,4.2,0.9c11.9-2.5,22-7.1,30.1-13.9
			c7.9-6.4,17.9-10.9,29.5-13.9c2.2-0.6,3-2.3,1.7-3.5l-4.4-4.1C298.3,536.9,286.8,541.8,277.9,548.9z"/>
		<path class="st0" d="M267.2,538.9c-7.7,6.5-17.2,10.9-28.3,13.5c-2.2,0.5-3.1,2.3-1.7,3.5l0,0c13-2.4,24.1-7.1,32.8-14.5
			c8.9-7.1,20.4-12,33.9-15l-1.2-1.1c-1-0.9-2.8-1.3-4.3-0.9C286,527.6,275.5,532.2,267.2,538.9z"/>
		<path class="st1" d="M270,541.4c-8.7,7.3-19.7,12.1-32.8,14.5l5.2,4.9l1.8,1.7l0.9,0.9c13-2.4,24.1-7.1,32.8-14.5
			c8.9-7.1,20.4-12,33.9-15l-0.9-0.9l-1.8-1.7l-5.2-4.9C290.4,529.5,278.9,534.3,270,541.4z"/>
	</g>
	<g>
		<path class="st0" d="M474.7,527.6c-7.9-7.7-11.2-16-10.5-24.7l-9.3,1.6c-1.6,0.3-2.7,1.2-2.7,2.2c-0.2,8.1,3.2,15.7,10.6,22.9
			c6.7,6.9,10.1,14.5,10.7,22.5c0.1,1.5,2.3,2.6,4.6,2.2l7.4-1.3C485.6,543.9,482.3,535.4,474.7,527.6z"/>
		<path class="st0" d="M493,524.4c-7-6.8-10.4-14-10.5-21.6c0-1.5-2.3-2.6-4.6-2.2l0,0c-0.7,8.7,2.5,17,10.5,24.7
			c7.5,7.8,10.9,16.3,10.8,25.5l2-0.3c1.6-0.3,2.7-1.3,2.7-2.4C503.3,539.5,500,531.6,493,524.4z"/>
		<path class="st1" d="M488.2,525.2c-7.9-7.7-11.2-16-10.5-24.7l-8.8,1.5l-3.1,0.6l-1.6,0.3c-0.7,8.7,2.5,17,10.5,24.7
			c7.5,7.8,10.9,16.3,10.8,25.5l1.6-0.3l3.1-0.6l8.8-1.5C499.1,541.5,495.8,533,488.2,525.2z"/>
	</g>
	<g>
		<path class="st0" d="M93.1,436.3c-12.4-4.7-20.9-11.2-26.2-19.2l-7.3,4.1c-1.2,0.7-1.6,1.8-0.9,2.8c5.3,7.3,13.6,13.2,25.1,17.6
			c10.7,4.3,18.9,10.2,25,17.2c1.1,1.3,3.9,1.7,5.6,0.7l5.8-3.3C114,447.9,105.1,441.1,93.1,436.3z"/>
		<path class="st0" d="M107.3,428.2c-10.9-4.1-18.9-9.7-24.2-16.5c-1.1-1.4-3.9-1.7-5.7-0.7l0,0c5.3,8.1,13.9,14.6,26.2,19.2
			c12.1,4.8,20.9,11.6,27.1,19.9l1.5-0.9c1.3-0.7,1.6-1.9,0.8-2.9C126.9,438.9,118.5,432.7,107.3,428.2z"/>
		<path class="st1" d="M103.6,430.3c-12.4-4.7-20.9-11.2-26.2-19.2l-6.9,3.9l-2.4,1.4l-1.2,0.7c5.3,8.1,13.9,14.6,26.2,19.2
			c12.1,4.8,20.9,11.6,27.1,19.9l1.2-0.7l2.4-1.4l6.9-3.9C124.5,441.9,115.7,435.1,103.6,430.3z"/>
	</g>
	<g>
		<path class="st0" d="M675.2,157.2c-5.8-8.4-7-16.9-4-25.5l-9.6,0.6c-1.6,0.1-2.9,0.9-3.2,1.9c-2.2,7.9-0.9,15.9,4.6,23.7
			c4.9,7.5,6.3,15.3,4.8,23.4c-0.3,1.5,1.7,2.8,4,2.6l7.7-0.5C681.8,174.5,680.7,165.7,675.2,157.2z"/>
		<path class="st0" d="M694,156c-5.2-7.5-6.7-14.9-4.9-22.5c0.4-1.5-1.6-2.8-4-2.7l0,0c-3,8.5-1.8,17,4,25.5
			c5.5,8.5,6.5,17.3,4.2,26.3l2-0.1c1.7-0.1,3-1,3.3-2C700.4,172,699.1,163.9,694,156z"/>
		<path class="st1" d="M689.1,156.3c-5.8-8.4-7-16.9-4-25.5l-9.1,0.6l-3.2,0.2l-1.6,0.1c-3,8.5-1.8,17,4,25.5
			c5.5,8.5,6.5,17.3,4.2,26.3l1.6-0.1l3.2-0.2l9.1-0.6C695.7,173.5,694.6,164.8,689.1,156.3z"/>
	</g>
	<g>
		<path class="st0" d="M450.4,106.7c-14.3,0.4-27-2.1-38.2-7l-2.6,6c-0.4,1,0.2,2.1,1.6,2.7c10.6,4.3,22.5,6.4,35.9,6
			c12.7-0.1,24.4,1.9,35.5,5.7c2.1,0.7,4.6,0,5.3-1.4l2.1-4.8C477.7,109.1,464.6,106.5,450.4,106.7z"/>
		<path class="st0" d="M455.5,95c-12.6,0.3-24-1.5-34.2-5.3c-2.1-0.8-4.7-0.1-5.3,1.4v0c11.2,4.9,23.9,7.4,38.2,7
			c14.2-0.2,27.3,2.4,39.5,7.2l0.6-1.3c0.5-1.1-0.3-2.2-1.7-2.7C481,97.1,468.8,94.8,455.5,95z"/>
		<path class="st1" d="M454.2,98c-14.3,0.4-27-2.1-38.2-7l-2.5,5.7l-0.9,2l-0.4,1c11.2,4.9,23.9,7.4,38.2,7
			c14.2-0.2,27.3,2.4,39.5,7.2l0.4-1l0.9-2l2.5-5.7C481.5,100.4,468.4,97.8,454.2,98z"/>
	</g>
	<g>
		<path class="st0" d="M367.9,208.6c11.7-5.4,24.3-7.8,37.9-7.6l-2.9-6c-0.5-1-2-1.7-3.6-1.7c-12.5,0.2-24.3,2.6-35.1,7.6
			c-10.5,4.6-22.1,7-34.6,7.7c-2.3,0.1-3.9,1.6-3.2,3.1l2.3,4.7C343,216.2,356.1,213.8,367.9,208.6z"/>
		<path class="st0" d="M373.5,220.2c10.3-4.7,21.4-7.2,33.2-7.6c2.4-0.1,4-1.6,3.3-3l0,0c-13.6-0.2-26.2,2.3-37.9,7.6
			c-11.8,5.1-24.9,7.6-39.2,7.9l0.6,1.3c0.5,1,2.1,1.7,3.8,1.7C350.4,227.5,362.5,225,373.5,220.2z"/>
		<path class="st1" d="M372,217.2c11.7-5.4,24.3-7.8,37.9-7.6l-2.7-5.6l-1-2l-0.5-1c-13.6-0.2-26.2,2.3-37.9,7.6
			c-11.8,5.1-24.9,7.6-39.2,7.9l0.5,1l1,2l2.7,5.6C347.1,224.8,360.3,222.4,372,217.2z"/>
	</g>
	<g>
		<path class="st0" d="M292.4,282.5c-7.5,7.9-17.8,13.2-30.4,16.5l6.2,4.8c1.1,0.8,2.8,1.1,4.3,0.6c11.4-3.3,20.8-8.4,27.9-15.8
			c6.9-6.8,16.2-12,27.3-15.7c2.1-0.7,2.7-2.5,1.1-3.6l-5-3.8C310.8,269.3,300.2,274.8,292.4,282.5z"/>
		<path class="st0" d="M280.2,273.1c-6.7,6.9-15.4,11.9-26.1,15.2c-2.1,0.7-2.7,2.5-1.2,3.6l0,0c12.6-3.2,22.9-8.6,30.4-16.5
			c7.8-7.7,18.5-13.2,31.4-17l-1.3-1c-1.1-0.8-2.9-1.1-4.5-0.6C297.3,260.7,287.5,266,280.2,273.1z"/>
		<path class="st1" d="M283.4,275.5c-7.5,7.9-17.8,13.2-30.4,16.5l5.9,4.5l2.1,1.6l1,0.8c12.6-3.2,22.9-8.6,30.4-16.5
			c7.8-7.7,18.5-13.2,31.4-17l-1-0.8l-2.1-1.6l-5.9-4.5C301.8,262.4,291.2,267.9,283.4,275.5z"/>
	</g>
	<g>
		<path class="st0" d="M334.8,376.2c-13.6,2.9-26.8,2.8-39.7,0v6.2c0,1.1,1.1,2,2.7,2.3c12,2.2,24.4,2.2,37.1-0.5
			c12.1-2.4,24.3-2.5,36.6-0.7c2.3,0.3,4.5-0.8,4.5-2.3v-5C362.1,373.8,348.4,373.6,334.8,376.2z"/>
		<path class="st0" d="M334.8,364c-12,2.6-23.7,2.8-35.2,0.9c-2.3-0.4-4.5,0.7-4.5,2.3l0,0c12.9,2.8,26.1,2.9,39.7,0
			c13.6-2.6,27.3-2.5,41,0v-1.3c0-1.1-1.2-2-2.8-2.3C360.2,361.6,347.5,361.6,334.8,364z"/>
		<path class="st1" d="M334.8,367.2c-13.6,2.9-26.8,2.8-39.7,0v5.9v2.1v1c12.9,2.8,26.1,2.9,39.7,0c13.6-2.6,27.3-2.5,41,0v-1v-2.1
			v-5.9C362.1,364.7,348.4,364.5,334.8,367.2z"/>
	</g>
	<g>
		<path class="st0" d="M556.8,348.8c-13.6,2.9-26.8,2.8-39.7,0v6.2c0,1.1,1.1,2,2.7,2.3c12,2.2,24.4,2.2,37.1-0.5
			c12.1-2.4,24.3-2.5,36.6-0.7c2.3,0.3,4.5-0.8,4.5-2.3v-5C584.1,346.3,570.4,346.1,556.8,348.8z"/>
		<path class="st0" d="M556.8,336.6c-12,2.6-23.7,2.8-35.2,0.9c-2.3-0.4-4.5,0.7-4.5,2.3l0,0c12.9,2.8,26.1,2.9,39.7,0
			c13.6-2.6,27.3-2.5,41,0v-1.3c0-1.1-1.2-2-2.8-2.3C582.2,334.1,569.5,334.1,556.8,336.6z"/>
		<path class="st1" d="M556.8,339.7c-13.6,2.9-26.8,2.8-39.7,0v5.9v2.1v1c12.9,2.8,26.1,2.9,39.7,0c13.6-2.6,27.3-2.5,41,0v-1v-2.1
			v-5.9C584.1,337.3,570.4,337.1,556.8,339.7z"/>
	</g>
	<g>
		<path class="st0" d="M668.9,269.9c-13.6,2.9-26.8,2.8-39.7,0v6.2c0,1.1,1.1,2,2.7,2.3c12,2.2,24.4,2.2,37.1-0.5
			c12.1-2.4,24.3-2.5,36.6-0.7c2.3,0.3,4.5-0.8,4.5-2.3v-5C696.2,267.4,682.5,267.2,668.9,269.9z"/>
		<path class="st0" d="M668.9,257.7c-12,2.6-23.7,2.8-35.2,0.9c-2.3-0.4-4.5,0.7-4.5,2.3l0,0c12.9,2.8,26.1,2.9,39.7,0
			c13.6-2.6,27.3-2.5,41,0v-1.3c0-1.1-1.2-2-2.8-2.3C694.3,255.3,681.6,255.3,668.9,257.7z"/>
		<path class="st1" d="M668.9,260.9c-13.6,2.9-26.8,2.8-39.7,0v5.9v2.1v1c12.9,2.8,26.1,2.9,39.7,0c13.6-2.6,27.3-2.5,41,0v-1v-2.1
			v-5.9C696.2,258.4,682.5,258.2,668.9,260.9z"/>
	</g>
	<g>
		<path class="st0" d="M126.1,261.2c-9.4-10.3-16-21.7-20.2-34.2l-5.4,3.2c-0.9,0.5-1.2,1.9-0.6,3.4c4.2,11.5,10.5,22.1,19.3,31.6
			c8.2,9.2,14.5,19.7,19.2,31.1c0.9,2.1,3,3.5,4.3,2.7l4.3-2.5C142.1,283.5,135.3,271.6,126.1,261.2z"/>
		<path class="st0" d="M136.6,255c-8.3-9-14.4-19-18.6-29.8c-0.8-2.2-3-3.5-4.3-2.8l0,0c4.2,12.5,10.8,23.9,20.2,34.2
			c9.2,10.4,16,22.2,20.9,35.3l1.1-0.7c0.9-0.6,1.2-2,0.5-3.6C151.7,275.6,145.2,264.7,136.6,255z"/>
		<path class="st1" d="M133.9,256.6c-9.4-10.3-16-21.7-20.2-34.2l-5.1,3l-1.8,1.1l-0.9,0.5c4.2,12.5,10.8,23.9,20.2,34.2
			c9.2,10.4,16,22.2,20.9,35.3l0.9-0.5l1.8-1.1l5.1-3C149.9,278.9,143.1,267,133.9,256.6z"/>
	</g>
	<g>
		<path class="st0" d="M828.6,230.1c-12.8-4.2-21.9-10.4-27.9-18.2l-6.9,4.4c-1.2,0.7-1.4,1.9-0.6,2.8c6,7.1,14.7,12.7,26.6,16.6
			c11.1,3.9,19.8,9.4,26.5,16.3c1.3,1.3,4,1.5,5.7,0.4l5.5-3.5C850.5,241,841.1,234.5,828.6,230.1z"/>
		<path class="st0" d="M842.1,221.6c-11.3-3.7-19.7-9-25.6-15.5c-1.2-1.3-4-1.6-5.7-0.5l0,0c6,7.9,15.1,14,27.9,18.2
			c12.5,4.4,21.9,10.8,28.8,18.8l1.5-0.9c1.2-0.8,1.4-2,0.6-2.9C862.6,231.5,853.7,225.7,842.1,221.6z"/>
		<path class="st1" d="M838.6,223.8c-12.8-4.2-21.9-10.4-27.9-18.2l-6.5,4.1l-2.3,1.5l-1.2,0.7c6,7.9,15.1,14,27.9,18.2
			c12.5,4.4,21.9,10.8,28.8,18.8l1.2-0.7l2.3-1.5l6.5-4.1C860.4,234.6,851.1,228.2,838.6,223.8z"/>
	</g>
	<g>
		<path class="st0" d="M785.5,345.9c-11.6-5.5-19.1-12.5-23.1-20.8l-7.9,3.6c-1.3,0.6-1.9,1.7-1.3,2.7c4.2,7.6,11.5,14,22.3,19.1
			c10,5,17.3,11.3,22.2,18.7c0.9,1.4,3.6,1.9,5.5,1l6.3-2.9C804.5,358.7,796.8,351.4,785.5,345.9z"/>
		<path class="st0" d="M800.9,338.8c-10.2-4.8-17.3-10.8-21.6-17.9c-0.9-1.4-3.6-1.9-5.5-1.1l0,0c4,8.4,11.6,15.4,23.1,20.8
			c11.3,5.6,19,12.9,23.9,21.5l1.7-0.8c1.4-0.6,1.9-1.8,1.3-2.8C818.8,350.7,811.4,344,800.9,338.8z"/>
		<path class="st1" d="M796.9,340.6c-11.6-5.5-19.1-12.5-23.1-20.8l-7.4,3.4l-2.6,1.2l-1.3,0.6c4,8.4,11.6,15.4,23.1,20.8
			c11.3,5.6,19,12.9,23.9,21.5l1.3-0.6l2.6-1.2l7.4-3.4C815.9,353.5,808.2,346.2,796.9,340.6z"/>
	</g>
	<g>
		<path class="st0" d="M974.7,225.5c-12,5.1-24.8,7.1-38.4,6.6l2.5,6c0.4,1,1.8,1.7,3.5,1.8c12.5,0.2,24.4-2,35.6-6.7
			c10.8-4.3,22.5-6.4,35-6.8c2.4-0.1,4-1.5,3.4-3l-2-4.8C1000.1,218.6,986.8,220.7,974.7,225.5z"/>
		<path class="st0" d="M969.9,213.7c-10.6,4.5-21.8,6.6-33.6,6.7c-2.4,0-4.1,1.5-3.5,3l0,0c13.5,0.5,26.4-1.5,38.4-6.6
			c12.1-4.8,25.4-6.9,39.7-6.8l-0.5-1.3c-0.4-1.1-1.9-1.8-3.6-1.8C993.4,207.1,981.1,209.2,969.9,213.7z"/>
		<path class="st1" d="M971.1,216.7c-12,5.1-24.8,7.1-38.4,6.6l2.3,5.7l0.8,2l0.4,1c13.5,0.5,26.4-1.5,38.4-6.6
			c12.1-4.8,25.4-6.9,39.7-6.8l-0.4-1l-0.8-2l-2.3-5.7C996.5,209.8,983.2,211.9,971.1,216.7z"/>
	</g>
	<g>
		<path class="st0" d="M982.5,494.3c-11.5,5.5-24.1,8.1-37.7,8.1l3.1,5.9c0.5,1,2,1.7,3.6,1.6c12.5-0.3,24.2-2.9,34.9-8.1
			c10.3-4.7,21.9-7.3,34.3-8.1c2.3-0.2,3.9-1.7,3.1-3.1l-2.4-4.7C1007.2,486.4,994.1,489,982.5,494.3z"/>
		<path class="st0" d="M976.5,482.7c-10.1,4.9-21.2,7.5-32.9,8c-2.4,0.1-3.9,1.6-3.2,3.1l0,0c13.6,0,26.2-2.6,37.7-8.1
			c11.6-5.3,24.7-7.9,38.9-8.4l-0.6-1.2c-0.5-1-2.1-1.7-3.8-1.6C999.4,475.2,987.3,477.8,976.5,482.7z"/>
		<path class="st1" d="M978.1,485.7c-11.5,5.5-24.1,8.1-37.7,8.1l2.9,5.6l1,2l0.5,1c13.6,0,26.2-2.6,37.7-8.1
			c11.6-5.3,24.7-7.9,38.9-8.4l-0.5-1l-1-2l-2.9-5.6C1002.7,477.8,989.7,480.4,978.1,485.7z"/>
	</g>
</g>
<g id="Sausage">
</g>
<g id="Crust">
</g>
</svg>
