<?xml version="1.0" encoding="utf-8"?>
<!-- Generator: Adobe Illustrator 21.0.0, SVG Export Plug-In . SVG Version: 6.00 Build 0)  -->
<!DOCTYPE svg PUBLIC "-//W3C//DTD SVG 1.1//EN" "http://www.w3.org/Graphics/SVG/1.1/DTD/svg11.dtd">
<svg version="1.1" xmlns="http://www.w3.org/2000/svg" xmlns:xlink="http://www.w3.org/1999/xlink" x="0px" y="0px"
	 viewBox="0 0 1131.4 775.6" style="enable-background:new 0 0 1131.4 775.6;" xml:space="preserve">
<style type="text/css">
	.st0{fill:#C49A6C;}
	.st1{fill:#D1BE95;}
</style>
<g id="Background">
</g>
<g id="Cheese">
</g>
<g id="Pepperoni">
</g>
<g id="Peppers">
</g>
<g id="Mushrooms">
</g>
<g id="Ham">
</g>
<g id="Pineapple">
</g>
<g id="Bacon">
</g>
<g id="Sausage">
</g>
<g id="Crust">
	<path class="st0" d="M1029.5,178.4c-26.2-36.9-104.8-86.3-177.8-114.7s-206-43.8-328-38.7s-289,58-374,109.6S26.3,247.1,12.6,326.2
		C0.4,396.6,23.7,460.9,44.7,504.8s37,95.4,169.7,159.6c132.7,64.2,216.3,86.7,417.3,72.5c201-14.2,330-84.5,394-146
		c64-61.5,90-116.5,96-224.8S1055.7,215.2,1029.5,178.4z M1051.4,478.3C1029.1,524.7,980,578.7,936.5,601
		c-43.5,22.3-84.9,71.2-230.3,90.9c-145.5,19.7-224.2,17-319.7-5.4C291,664.3,170,607.8,108.4,499.6
		c-61.6-108.2-49.5-159.3,7.8-246.4s122.6-106.9,176.5-127.9c53.9-20.9,134.6-47.5,230.8-55.7c108.2-9.3,197.5-0.9,284.2,35.2
		c86.7,36.1,192.6,117.3,225.4,183.7C1066,354.9,1073.6,431.8,1051.4,478.3z"/>
	<path class="st1" d="M1029.5,175c-26.2-36.9-104.8-86.3-177.8-114.7s-206-43.8-328-38.7s-289,58-374,109.6S26.3,243.7,12.6,322.8
		C0.4,393.2,23.7,457.5,44.7,501.4s37,95.4,169.7,159.6c132.7,64.2,216.3,86.7,417.3,72.5s330-84.5,394-146
		c64-61.5,90-116.5,96-224.8S1055.7,211.9,1029.5,175z M1051.4,474.9c-22.3,46.4-71.4,100.4-114.9,122.8
		c-43.5,22.3-84.9,71.2-230.3,90.9c-145.5,19.7-224.2,17-319.7-5.4C291,660.9,170,604.4,108.4,496.2
		c-61.6-108.2-49.5-159.3,7.8-246.4s122.6-106.9,176.5-127.9c53.9-20.9,134.6-47.5,230.8-55.7C631.8,57,721,65.3,807.8,101.4
		c86.7,36.1,192.6,117.3,225.4,183.7C1066,351.5,1073.6,428.4,1051.4,474.9z"/>
</g>
</svg>
