<?xml version="1.0" encoding="utf-8"?>
<!-- Generator: Adobe Illustrator 21.0.0, SVG Export Plug-In . SVG Version: 6.00 Build 0)  -->
<!DOCTYPE svg PUBLIC "-//W3C//DTD SVG 1.1//EN" "http://www.w3.org/Graphics/SVG/1.1/DTD/svg11.dtd">
<svg version="1.1" xmlns="http://www.w3.org/2000/svg" xmlns:xlink="http://www.w3.org/1999/xlink" x="0px" y="0px"
	 viewBox="0 0 1131.4 754.4" style="enable-background:new 0 0 1131.4 754.4;" xml:space="preserve">
<style type="text/css">
	.st0{fill:#46B843;}
</style>
<g id="Background">
</g>
<g id="Cheese">
</g>
<g id="Pepperoni">
</g>
<g id="Peppers">
	<path class="st0" d="M823,449.3c0.4,28.1-15.6,52.9-40.1,67.6c-1.5,0.9,0,2.4,1.9,2c16-3.5,29.5-9.8,38.6-18.6
		c15-14.6,15.1-33.4,3.2-51.5C825.7,447.5,823,447.9,823,449.3C823,449.3,823,449.3,823,449.3z"/>
	<path class="st0" d="M794,573.5c42.6,5.9,76.7,21.3,93.6,40c1,1.1,3.6,0.6,3.4-0.7c-1.9-10.8-8.3-20.7-19.8-28.3
		c-18.8-12.6-47.2-16.8-77.3-13.3C792,571.4,792,573.2,794,573.5C794,573.5,794,573.5,794,573.5z"/>
	<path class="st0" d="M582.9,492.8c-24.3-23.3-32.3-49.7-24.4-70.6c0.5-1.3-2-2-3.3-1c-10.3,8.6-16.2,18.6-16.2,29.3
		c0,17.5,16,33.2,41.4,44.1C582.1,495.3,584.1,494,582.9,492.8C582.9,492.9,582.9,492.8,582.9,492.8z"/>
	<path class="st0" d="M334.3,552.7c10.3-27.3,35.1-48.9,64.4-59.3c1.8-0.6,1-2.3-1-2.2c-16.9,0.9-32.3,4.8-44.4,12
		c-20,11.8-27.3,30-22.6,49.4C331,553.9,333.8,554,334.3,552.7C334.3,552.7,334.3,552.7,334.3,552.7z"/>
	<path class="st0" d="M342.4,443.9c3.9-28,23.5-51.7,50.2-64.7c1.6-0.8,0.4-2.4-1.5-2.1c-16.5,2.5-30.8,7.9-41.2,16.1
		c-17.1,13.6-20.1,32.3-11,51.1C339.4,445.4,342.2,445.2,342.4,443.9C342.4,443.9,342.4,443.9,342.4,443.9z"/>
	<path class="st0" d="M237.2,402.2c-24.3-23.3-32.3-49.7-24.4-70.6c0.5-1.3-2-2-3.3-1c-10.3,8.6-16.2,18.6-16.2,29.3
		c0,17.5,16,33.2,41.4,44.1C236.4,404.7,238.4,403.4,237.2,402.2C237.3,402.3,237.3,402.2,237.2,402.2z"/>
	<path class="st0" d="M94.8,354c5.9-27.8,27.2-50.9,54.7-63.2c1.6-0.7,0.6-2.4-1.4-2.1c-16.6,2-31.3,6.9-42.3,14.9
		c-18.1,13.1-22.4,31.6-14.7,50.7C91.7,355.5,94.5,355.4,94.8,354C94.8,354.1,94.8,354.1,94.8,354z"/>
	<path class="st0" d="M227.1,276.3c-38.3-13.4-64.2-34.5-72.2-55.4c-0.5-1.3-3.2-1.2-3.6,0.1c-3,10.7-1.1,21.3,6.5,30.8
		c12.5,15.5,37.9,24.7,68.3,26.8C228.1,278.7,229,276.9,227.1,276.3C227.1,276.3,227.1,276.3,227.1,276.3z"/>
	<path class="st0" d="M349,260.4c-8.9-27.5-0.8-53.9,18.8-71.3c1.2-1-0.7-2.4-2.4-1.7c-14.6,5.5-25.9,13.3-32.2,23.1
		c-10.3,16.2-4.7,34.6,12.5,50.9C346.8,262.4,349.4,261.7,349,260.4C349,260.4,349,260.4,349,260.4z"/>
	<path class="st0" d="M492.8,198.1c43.5-1.3,82.6,8,106.3,23.2c1.4,0.9,3.7-0.1,3-1.3c-6.1-10.2-16.3-18.6-30.3-24.1
		c-23.2-9.1-52.3-8.4-79.9-0.1C490,196.4,490.7,198.1,492.8,198.1C492.7,198.1,492.8,198.1,492.8,198.1z"/>
	<path class="st0" d="M317,673.3c37.1-14.7,78.4-18.7,110.5-12.7c1.9,0.4,3.2-1.2,1.7-2.1c-12.9-7-28.2-11.3-44.6-11.7
		c-27.1-0.7-52.2,8.9-70.1,24.8C313.2,672.7,315.2,674.1,317,673.3C316.9,673.4,316.9,673.4,317,673.3z"/>
	<path class="st0" d="M574.9,326.5c-24.3-23.3-32.3-49.7-24.4-70.6c0.5-1.3-2-2-3.3-1c-10.3,8.6-16.2,18.6-16.2,29.3
		c0,17.5,16,33.2,41.4,44.1C574.1,328.9,576.1,327.6,574.9,326.5C575,326.5,574.9,326.5,574.9,326.5z"/>
	<path class="st0" d="M691.9,334.2c12.8-26.9,39.6-47.4,69.8-56.7c1.8-0.6,1.2-2.3-0.8-2.3c-16.9,0.3-32.7,3.6-45.5,10.3
		c-21.1,11-30,28.9-27.1,48.5C688.4,335.4,691.3,335.5,691.9,334.2C691.9,334.3,691.9,334.3,691.9,334.2z"/>
	<path class="st0" d="M495.2,122.7C470.9,99.4,463,73,470.9,52.1c0.5-1.3-2-2-3.3-1c-10.3,8.6-16.2,18.6-16.2,29.3
		c0,17.5,16,33.2,41.4,44.1C494.4,125.1,496.4,123.8,495.2,122.7C495.3,122.7,495.2,122.7,495.2,122.7z"/>
	<path class="st0" d="M713.9,211.1c0.3-28.1,16.8-52.8,41.6-67.2c1.5-0.9,0.1-2.4-1.8-2c-16.1,3.4-29.7,9.5-39,18.3
		c-15.3,14.4-15.9,33.2-4.4,51.5C711.2,212.9,713.9,212.5,713.9,211.1C713.9,211.2,713.9,211.2,713.9,211.1z"/>
	<path class="st0" d="M671.3,133.6c-43.2-3.5-79.3-17-98.5-34.6c-1.2-1.1-3.7-0.3-3.3,0.9c3.3,10.7,11.1,20.1,23.5,27.1
		c20.4,11.5,49.3,14.1,78.7,8.9C673.6,135.6,673.4,133.8,671.3,133.6C671.4,133.6,671.4,133.6,671.3,133.6z"/>
	<path class="st0" d="M856.5,202.7c-6.1-27.8,4.5-53.8,25.8-70.4c1.3-1-0.5-2.4-2.2-1.8c-15.1,4.9-27.2,12.2-34.4,21.8
		c-11.8,15.7-8.1,34.4,7.4,51.3C854.2,204.7,856.8,204.1,856.5,202.7C856.5,202.7,856.5,202.7,856.5,202.7z"/>
	<path class="st0" d="M909.7,296.5c25-23,60.4-37.2,93.6-40c2-0.2,2.2-1.9,0.3-2.3c-16.2-3.1-32.8-3.1-48.2,0.7
		c-25.3,6.3-42.4,21.5-49.1,40.7C905.9,296.9,908.5,297.6,909.7,296.5C909.7,296.5,909.7,296.5,909.7,296.5z"/>
	<path class="st0" d="M993,434.8c-24.3-23.3-32.3-49.7-24.4-70.6c0.5-1.3-2-2-3.3-1c-10.3,8.6-16.2,18.6-16.2,29.3
		c0,17.5,16,33.2,41.4,44.1C992.2,437.2,994.2,435.9,993,434.8C993,434.8,993,434.8,993,434.8z"/>
	<path class="st0" d="M779,413.1c-5.8-27.8,5.1-53.8,26.6-70.3c1.3-1-0.4-2.4-2.2-1.8c-15.2,4.8-27.3,12.1-34.6,21.6
		c-12,15.7-8.5,34.3,6.8,51.4C776.6,415,779.3,414.4,779,413.1C779,413.1,779,413.1,779,413.1z"/>
	<path class="st0" d="M702,634.9c-38.2-13.5-64.1-34.6-72-55.5c-0.5-1.3-3.2-1.2-3.6,0.1c-3,10.7-1.2,21.3,6.4,30.8
		c12.5,15.5,37.8,24.8,68.2,26.9C703,637.3,703.9,635.6,702,634.9C702.1,635,702,635,702,634.9z"/>
	<path class="st0" d="M507.6,653.7c-2.3-28,11.9-53.3,35.4-68.7c1.4-0.9-0.1-2.4-2-1.9c-15.7,4-28.8,10.6-37.2,19.7
		c-13.9,15-12.8,33.8,0.4,51.5C504.9,655.5,507.7,655.1,507.6,653.7C507.6,653.8,507.6,653.7,507.6,653.7z"/>
	<path class="st0" d="M1001.1,556.2c-7.2-27.7,2.5-53.8,23.2-70.8c1.2-1-0.5-2.4-2.3-1.8c-15,5.1-26.7,12.6-33.6,22.3
		c-11.2,15.9-6.8,34.5,9.3,51.2C998.8,558.2,1001.4,557.5,1001.1,556.2C1001.1,556.2,1001.1,556.2,1001.1,556.2z"/>
	<path class="st0" d="M223.5,608.5c-18.1-25.6-19.2-52.4-6-72.3c0.8-1.2-1.5-2.2-3-1.3c-12.4,7.4-20.8,16.6-23.5,27.1
		c-4.5,17.3,7.3,34.5,29.6,47.9C222.1,610.8,224.4,609.7,223.5,608.5C223.5,608.5,223.5,608.5,223.5,608.5z"/>
</g>
<g id="Mushrooms">
</g>
<g id="Ham">
</g>
<g id="Pineapple">
</g>
<g id="Bacon">
</g>
<g id="Sausage">
</g>
<g id="Crust">
</g>
</svg>
