<?xml version="1.0" encoding="utf-8"?>
<!-- Generator: Adobe Illustrator 21.0.0, SVG Export Plug-In . SVG Version: 6.00 Build 0)  -->
<!DOCTYPE svg PUBLIC "-//W3C//DTD SVG 1.1//EN" "http://www.w3.org/Graphics/SVG/1.1/DTD/svg11.dtd">
<svg version="1.1" xmlns="http://www.w3.org/2000/svg" xmlns:xlink="http://www.w3.org/1999/xlink" x="0px" y="0px"
	 viewBox="0 0 1131.4 775.6" style="enable-background:new 0 0 1131.4 775.6;" xml:space="preserve">
<style type="text/css">
	.st0{fill:#46B843;}
</style>
<g id="Background">
</g>
<g id="Cheese">
</g>
<g id="Pepperoni">
</g>
<g id="Peppers">
	<path class="st0" d="M823,459.9c0.4,28.1-15.6,52.9-40.1,67.6c-1.5,0.9,0,2.4,1.9,2c16-3.5,29.5-9.8,38.6-18.6
		c15-14.6,15.1-33.4,3.2-51.5C825.7,458.1,823,458.5,823,459.9C823,459.8,823,459.9,823,459.9z"/>
	<path class="st0" d="M794,584.1c42.6,5.9,76.7,21.3,93.6,40c1,1.1,3.6,0.6,3.4-0.7c-1.9-10.8-8.3-20.7-19.8-28.3
		c-18.8-12.6-47.2-16.8-77.3-13.3C792,582,792,583.8,794,584.1C794,584.1,794,584.1,794,584.1z"/>
	<path class="st0" d="M994.9,379.2c42.6,5.9,76.7,21.3,93.6,40c1,1.1,3.6,0.6,3.4-0.7c-1.9-10.8-8.3-20.7-19.8-28.3
		c-18.8-12.6-47.2-16.8-77.3-13.3C992.9,377.1,992.9,378.9,994.9,379.2C994.9,379.2,994.9,379.2,994.9,379.2z"/>
	<path class="st0" d="M582.9,503.4c-24.3-23.3-32.3-49.7-24.4-70.6c0.5-1.3-2-2-3.3-1c-10.3,8.6-16.2,18.6-16.2,29.3
		c0,17.5,16,33.2,41.4,44.1C582.1,505.9,584.1,504.6,582.9,503.4C582.9,503.5,582.9,503.4,582.9,503.4z"/>
	<path class="st0" d="M335.8,645.9c-24.3-23.3-32.3-49.7-24.4-70.6c0.5-1.3-2-2-3.3-1c-10.3,8.6-16.2,18.6-16.2,29.3
		c0,17.5,16,33.2,41.4,44.1C335,648.4,337,647.1,335.8,645.9C335.8,646,335.8,645.9,335.8,645.9z"/>
	<path class="st0" d="M334.3,563.2c10.3-27.3,35.1-48.9,64.4-59.3c1.8-0.6,1-2.3-1-2.2c-16.9,0.9-32.3,4.8-44.4,12
		c-20,11.8-27.3,30-22.6,49.4C331,564.5,333.8,564.6,334.3,563.2C334.3,563.3,334.3,563.3,334.3,563.2z"/>
	<path class="st0" d="M342.4,454.4c3.9-28,23.5-51.7,50.2-64.7c1.6-0.8,0.4-2.4-1.5-2.1c-16.5,2.5-30.8,7.9-41.2,16.1
		c-17.1,13.6-20.1,32.3-11,51.1C339.4,456,342.2,455.8,342.4,454.4C342.4,454.5,342.4,454.5,342.4,454.4z"/>
	<path class="st0" d="M355.2,151.3c3.9-28,23.5-51.7,50.2-64.7c1.6-0.8,0.4-2.4-1.5-2.1c-16.5,2.5-30.8,7.9-41.2,16.1
		c-17.1,13.6-20.1,32.3-11,51.1C352.2,152.9,355,152.7,355.2,151.3C355.2,151.3,355.2,151.3,355.2,151.3z"/>
	<path class="st0" d="M237.2,412.8c-24.3-23.3-32.3-49.7-24.4-70.6c0.5-1.3-2-2-3.3-1c-10.3,8.6-16.2,18.6-16.2,29.3
		c0,17.5,16,33.2,41.4,44.1C236.4,415.2,238.4,413.9,237.2,412.8C237.3,412.8,237.3,412.8,237.2,412.8z"/>
	<path class="st0" d="M94.8,364.6c5.9-27.8,27.2-50.9,54.7-63.2c1.6-0.7,0.6-2.4-1.4-2.1c-16.6,2-31.3,6.9-42.3,14.9
		c-18.1,13.1-22.4,31.6-14.7,50.7C91.7,366.1,94.5,366,94.8,364.6C94.8,364.7,94.8,364.7,94.8,364.6z"/>
	<path class="st0" d="M227.1,286.9c-38.3-13.4-64.2-34.5-72.2-55.4c-0.5-1.3-3.2-1.2-3.6,0.1c-3,10.7-1.1,21.3,6.5,30.8
		c12.5,15.5,37.9,24.7,68.3,26.8C228.1,289.3,229,287.5,227.1,286.9C227.1,286.9,227.1,286.9,227.1,286.9z"/>
	<path class="st0" d="M349,271c-8.9-27.5-0.8-53.9,18.8-71.3c1.2-1-0.7-2.4-2.4-1.7c-14.6,5.5-25.9,13.3-32.2,23.1
		c-10.3,16.2-4.7,34.6,12.5,50.9C346.8,273,349.4,272.3,349,271C349,271,349,271,349,271z"/>
	<path class="st0" d="M703.9,504.2c-8.9-27.5-0.8-53.9,18.8-71.3c1.2-1-0.7-2.4-2.4-1.7c-14.6,5.5-25.9,13.3-32.2,23.1
		c-10.3,16.2-4.7,34.6,12.5,50.9C701.7,506.2,704.3,505.5,703.9,504.2C703.9,504.2,703.9,504.2,703.9,504.2z"/>
	<path class="st0" d="M492.8,208.7c43.5-1.3,82.6,8,106.3,23.2c1.4,0.9,3.7-0.1,3-1.3c-6.1-10.2-16.3-18.6-30.3-24.1
		c-23.2-9.1-52.3-8.4-79.9-0.1C490,207,490.7,208.7,492.8,208.7C492.7,208.7,492.8,208.7,492.8,208.7z"/>
	<path class="st0" d="M829.1,390.3c43.5-1.3,82.6,8,106.3,23.2c1.4,0.9,3.7-0.1,3-1.3c-6.1-10.2-16.3-18.6-30.3-24.1
		c-23.2-9.1-52.3-8.4-79.9-0.1C826.3,388.6,827,390.4,829.1,390.3C829,390.3,829.1,390.3,829.1,390.3z"/>
	<path class="st0" d="M437.1,525.6c43.5-1.3,82.6,8,106.3,23.2c1.4,0.9,3.7-0.1,3-1.3c-6.1-10.2-16.3-18.6-30.3-24.1
		c-23.2-9.1-52.3-8.4-79.9-0.1C434.2,523.9,434.9,525.6,437.1,525.6C437,525.6,437,525.6,437.1,525.6z"/>
	<path class="st0" d="M360.2,170.4c43.5-1.3,82.6,8,106.3,23.2c1.4,0.9,3.7-0.1,3-1.3c-6.1-10.2-16.3-18.6-30.3-24.1
		c-23.2-9.1-52.3-8.4-79.9-0.1C357.3,168.7,358,170.5,360.2,170.4C360.1,170.4,360.1,170.4,360.2,170.4z"/>
	<path class="st0" d="M266.9,350.3c43.5-1.3,82.6,8,106.3,23.2c1.4,0.9,3.7-0.1,3-1.3c-6.1-10.2-16.3-18.6-30.3-24.1
		c-23.2-9.1-52.3-8.4-79.9-0.1C264.1,348.6,264.8,350.3,266.9,350.3C266.8,350.3,266.9,350.3,266.9,350.3z"/>
	<path class="st0" d="M174.5,170.4c43.5-1.3,82.6,8,106.3,23.2c1.4,0.9,3.7-0.1,3-1.3c-6.1-10.2-16.3-18.6-30.3-24.1
		c-23.2-9.1-52.3-8.4-79.9-0.1C171.6,168.7,172.3,170.5,174.5,170.4C174.4,170.4,174.4,170.4,174.5,170.4z"/>
	<path class="st0" d="M317,683.9c37.1-14.7,78.4-18.7,110.5-12.7c1.9,0.4,3.2-1.2,1.7-2.1c-12.9-7-28.2-11.3-44.6-11.7
		c-27.1-0.7-52.2,8.9-70.1,24.8C313.2,683.3,315.2,684.6,317,683.9C316.9,684,316.9,683.9,317,683.9z"/>
	<path class="st0" d="M590.2,410.9c37.1-14.7,78.4-18.7,110.5-12.7c1.9,0.4,3.2-1.2,1.7-2.1c-12.9-7-28.2-11.3-44.6-11.7
		c-27.1-0.7-52.2,8.9-70.1,24.8C586.5,410.2,588.4,411.6,590.2,410.9C590.1,410.9,590.2,410.9,590.2,410.9z"/>
	<path class="st0" d="M574.9,337.1c-24.3-23.3-32.3-49.7-24.4-70.6c0.5-1.3-2-2-3.3-1c-10.3,8.6-16.2,18.6-16.2,29.3
		c0,17.5,16,33.2,41.4,44.1C574.1,339.5,576.1,338.2,574.9,337.1C575,337.1,574.9,337.1,574.9,337.1z"/>
	<path class="st0" d="M792.1,690.6c-24.3-23.3-32.3-49.7-24.4-70.6c0.5-1.3-2-2-3.3-1c-10.3,8.6-16.2,18.6-16.2,29.3
		c0,17.5,16,33.2,41.4,44.1C791.3,693,793.3,691.7,792.1,690.6C792.1,690.6,792.1,690.6,792.1,690.6z"/>
	<path class="st0" d="M691.9,344.8c12.8-26.9,39.6-47.4,69.8-56.7c1.8-0.6,1.2-2.3-0.8-2.3c-16.9,0.3-32.7,3.6-45.5,10.3
		c-21.1,11-30,28.9-27.1,48.5C688.4,346,691.3,346.1,691.9,344.8C691.9,344.9,691.9,344.8,691.9,344.8z"/>
	<path class="st0" d="M380.5,331c12.8-26.9,39.6-47.4,69.8-56.7c1.8-0.6,1.2-2.3-0.8-2.3c-16.9,0.3-32.7,3.6-45.5,10.3
		c-21.1,11-30,28.9-27.1,48.5C377.1,332.1,379.9,332.3,380.5,331C380.5,331,380.5,331,380.5,331z"/>
	<path class="st0" d="M685.3,593.2c12.8-26.9,39.6-47.4,69.8-56.7c1.8-0.6,1.2-2.3-0.8-2.3c-16.9,0.3-32.7,3.6-45.5,10.3
		c-21.1,11-30,28.9-27.1,48.5C681.9,594.4,684.7,594.5,685.3,593.2C685.3,593.3,685.3,593.2,685.3,593.2z"/>
	<path class="st0" d="M495.2,133.3C470.9,110,463,83.6,470.9,62.6c0.5-1.3-2-2-3.3-1c-10.3,8.6-16.2,18.6-16.2,29.3
		c0,17.5,16,33.2,41.4,44.1C494.4,135.7,496.4,134.4,495.2,133.3C495.3,133.3,495.2,133.3,495.2,133.3z"/>
	<path class="st0" d="M724.2,127.2c-24.3-23.3-32.3-49.7-24.4-70.6c0.5-1.3-2-2-3.3-1c-10.3,8.6-16.2,18.6-16.2,29.3
		c0,17.5,16,33.2,41.4,44.1C723.4,129.6,725.4,128.3,724.2,127.2C724.2,127.2,724.2,127.2,724.2,127.2z"/>
	<path class="st0" d="M713.9,221.7c0.3-28.1,16.8-52.8,41.6-67.2c1.5-0.9,0.1-2.4-1.8-2c-16.1,3.4-29.7,9.5-39,18.3
		c-15.3,14.4-15.9,33.2-4.4,51.5C711.2,223.4,713.9,223.1,713.9,221.7C713.9,221.8,713.9,221.7,713.9,221.7z"/>
	<path class="st0" d="M902.5,543.9c0.3-28.1,16.8-52.8,41.6-67.2c1.5-0.9,0.1-2.4-1.8-2c-16.1,3.4-29.7,9.5-39,18.3
		c-15.3,14.4-15.9,33.2-4.4,51.5C899.7,545.6,902.5,545.2,902.5,543.9C902.5,543.9,902.5,543.9,902.5,543.9z"/>
	<path class="st0" d="M671.3,144.2c-43.2-3.5-79.3-17-98.5-34.6c-1.2-1.1-3.7-0.3-3.3,0.9c3.3,10.7,11.1,20.1,23.5,27.1
		c20.4,11.5,49.3,14.1,78.7,8.9C673.6,146.2,673.4,144.4,671.3,144.2C671.4,144.2,671.4,144.2,671.3,144.2z"/>
	<path class="st0" d="M273.8,495.1c-43.2-3.5-79.3-17-98.5-34.6c-1.2-1.1-3.7-0.3-3.3,0.9c3.3,10.7,11.1,20.1,23.5,27.1
		c20.4,11.5,49.3,14.1,78.7,8.9C276.1,497.1,275.9,495.2,273.8,495.1C273.9,495.1,273.8,495.1,273.8,495.1z"/>
	<path class="st0" d="M549.7,392.9c-43.2-3.5-79.3-17-98.5-34.6c-1.2-1.1-3.7-0.3-3.3,0.9c3.3,10.7,11.1,20.1,23.5,27.1
		c20.4,11.5,49.3,14.1,78.7,8.9C552,394.8,551.8,393,549.7,392.9C549.8,392.9,549.7,392.9,549.7,392.9z"/>
	<path class="st0" d="M984.7,222.9c-43.2-3.5-79.3-17-98.5-34.6c-1.2-1.1-3.7-0.3-3.3,0.9c3.3,10.7,11.1,20.1,23.5,27.1
		c20.4,11.5,49.3,14.1,78.7,8.9C987,224.8,986.8,223,984.7,222.9C984.8,222.9,984.7,222.9,984.7,222.9z"/>
	<path class="st0" d="M856.5,213.3c-6.1-27.8,4.5-53.8,25.8-70.4c1.3-1-0.5-2.4-2.2-1.8c-15.1,4.9-27.2,12.2-34.4,21.8
		c-11.8,15.7-8.1,34.4,7.4,51.3C854.2,215.3,856.8,214.6,856.5,213.3C856.5,213.3,856.5,213.3,856.5,213.3z"/>
	<path class="st0" d="M909.7,307.1c25-23,60.4-37.2,93.6-40c2-0.2,2.2-1.9,0.3-2.3c-16.2-3.1-32.8-3.1-48.2,0.7
		c-25.3,6.3-42.4,21.5-49.1,40.7C905.9,307.5,908.5,308.2,909.7,307.1C909.7,307.1,909.7,307.1,909.7,307.1z"/>
	<path class="st0" d="M993,445.4c-24.3-23.3-32.3-49.7-24.4-70.6c0.5-1.3-2-2-3.3-1c-10.3,8.6-16.2,18.6-16.2,29.3
		c0,17.5,16,33.2,41.4,44.1C992.2,447.8,994.2,446.5,993,445.4C993,445.4,993,445.4,993,445.4z"/>
	<path class="st0" d="M688.8,284.2c-24.3-23.3-32.3-49.7-24.4-70.6c0.5-1.3-2-2-3.3-1c-10.3,8.6-16.2,18.6-16.2,29.3
		c0,17.5,16,33.2,41.4,44.1C688,286.6,690,285.3,688.8,284.2C688.9,284.2,688.8,284.2,688.8,284.2z"/>
	<path class="st0" d="M779,423.7c-5.8-27.8,5.1-53.8,26.6-70.3c1.3-1-0.4-2.4-2.2-1.8c-15.2,4.8-27.3,12.1-34.6,21.6
		c-12,15.7-8.5,34.3,6.8,51.4C776.6,425.6,779.3,425,779,423.7C779,423.7,779,423.7,779,423.7z"/>
	<path class="st0" d="M702,645.5C663.8,632,637.9,611,630,590c-0.5-1.3-3.2-1.2-3.6,0.1c-3,10.7-1.2,21.3,6.4,30.8
		c12.5,15.5,37.8,24.8,68.2,26.9C703,647.9,703.9,646.2,702,645.5C702.1,645.6,702,645.5,702,645.5z"/>
	<path class="st0" d="M507.6,664.3c-2.3-28,11.9-53.3,35.4-68.7c1.4-0.9-0.1-2.4-2-1.9c-15.7,4-28.8,10.6-37.2,19.7
		c-13.9,15-12.8,33.8,0.4,51.5C504.9,666.1,507.7,665.7,507.6,664.3C507.6,664.3,507.6,664.3,507.6,664.3z"/>
	<path class="st0" d="M823.5,319.8c-2.3-28,11.9-53.3,35.4-68.7c1.4-0.9-0.1-2.4-2-1.9c-15.7,4-28.8,10.6-37.2,19.7
		c-13.9,15-12.8,33.8,0.4,51.5C820.9,321.6,823.6,321.1,823.5,319.8C823.5,319.8,823.5,319.8,823.5,319.8z"/>
	<path class="st0" d="M583.3,718.8c-2.3-28,11.9-53.3,35.4-68.7c1.4-0.9-0.1-2.4-2-1.9c-15.7,4-28.8,10.6-37.2,19.7
		c-13.9,15-12.8,33.8,0.4,51.5C580.6,720.7,583.4,720.2,583.3,718.8C583.3,718.9,583.3,718.9,583.3,718.8z"/>
	<path class="st0" d="M1001.1,566.8c-7.2-27.7,2.5-53.8,23.2-70.8c1.2-1-0.5-2.4-2.3-1.8c-15,5.1-26.7,12.6-33.6,22.3
		c-11.2,15.9-6.8,34.5,9.3,51.2C998.8,568.8,1001.4,568.1,1001.1,566.8C1001.1,566.8,1001.1,566.8,1001.1,566.8z"/>
	<path class="st0" d="M121.1,529.7c-7.2-27.7,2.5-53.8,23.2-70.8c1.2-1-0.5-2.4-2.3-1.8c-15,5.1-26.7,12.6-33.6,22.3
		c-11.2,15.9-6.8,34.5,9.3,51.2C118.8,531.7,121.4,531,121.1,529.7C121.1,529.7,121.1,529.7,121.1,529.7z"/>
	<path class="st0" d="M223.5,619c-18.1-25.6-19.2-52.4-6-72.3c0.8-1.2-1.5-2.2-3-1.3c-12.4,7.4-20.8,16.6-23.5,27.1
		c-4.5,17.3,7.3,34.5,29.6,47.9C222.1,621.4,224.4,620.3,223.5,619C223.5,619.1,223.5,619.1,223.5,619z"/>
</g>
<g id="Mushrooms">
</g>
<g id="Ham">
</g>
<g id="Pineapple">
</g>
<g id="Bacon">
</g>
<g id="Sausage">
</g>
<g id="Crust">
</g>
</svg>
